<svg width="26" height="26" viewBox="0 0 26 26" fill="none" xmlns="http://www.w3.org/2000/svg">
<path d="M6.9797 0C6.96852 0.57658 6.94616 1.13799 6.90702 1.68591H16.7079C16.7247 1.13349 16.7303 0.572084 16.7191 0H6.9797ZM6.82315 2.69745C6.10193 9.75016 3.06494 14.437 0 18.3314L6.44856 24.8166C12.1513 17.7638 16.1208 11.4361 16.6632 2.69745H15.0306C14.9076 5.4511 13.8006 8.86787 12.3134 12.1779C10.8095 15.5216 8.90857 18.7529 7.15861 21.0345L6.44297 20.3152C8.10347 18.1179 9.94848 14.9821 11.3965 11.762C12.8446 8.53631 13.8957 5.20945 14.0243 2.69745H12.347C12.224 5.4511 11.117 8.86787 9.62979 12.1779C8.44452 14.8135 7.01325 17.3817 5.59874 19.4666L4.87752 18.736C6.21374 16.7354 7.58352 14.274 8.71288 11.762C10.1609 8.53631 11.212 5.20945 11.3406 2.69745H9.66334C9.54034 5.4511 8.43334 8.86787 6.94615 12.1779C6.0572 14.1616 5.02847 16.1004 3.97179 17.8257L3.23938 17.0895C4.22338 15.4485 5.1962 13.6221 6.02924 11.762C7.47729 8.53631 8.52838 5.20945 8.65698 2.69745H6.82315ZM17.5577 11.0708C17.5018 11.2057 17.4403 11.363 17.3788 11.5597C17.1831 12.1947 16.9874 13.0826 16.8197 13.9762C16.5961 15.1732 16.4339 16.3252 16.3445 16.9715H18.7709C18.6815 16.3252 18.5194 15.1732 18.2957 13.9762C18.128 13.0826 17.9323 12.1947 17.7366 11.5597C17.6751 11.363 17.6136 11.2057 17.5577 11.0708ZM21.1359 11.0708C21.08 11.2057 21.0185 11.363 20.957 11.5597C20.7613 12.1947 20.5656 13.0826 20.3979 13.9762C20.1743 15.1732 20.0121 16.3252 19.9227 16.9715H22.3491C22.2597 16.3252 22.0975 15.1732 21.8739 13.9762C21.7062 13.0826 21.5105 12.1947 21.3148 11.5597C21.2533 11.363 21.1918 11.2057 21.1359 11.0708ZM24.7141 11.0708C24.6582 11.2057 24.5967 11.363 24.5352 11.5597C24.3395 12.1947 24.1438 13.0826 23.9761 13.9762C23.7525 15.1732 23.5903 16.3252 23.5009 16.9715H25.9273C25.8379 16.3252 25.6757 15.1732 25.4521 13.9762C25.2844 13.0826 25.0887 12.1947 24.893 11.5597C24.8315 11.363 24.77 11.2057 24.7141 11.0708ZM16.2718 17.983V25.0638H18.8436V17.983H16.2718ZM19.85 17.983V25.0638H22.4218V17.983H19.85ZM23.4282 17.983V25.0638H26V17.983H23.4282Z" fill="white"/>
</svg>
