<svg width="44" height="47" viewBox="0 0 44 47" fill="none" xmlns="http://www.w3.org/2000/svg">
<path d="M36.0208 28.4222L33.2426 19.6443L34.3199 19.2637C34.4715 19.2102 34.6029 19.0904 34.6796 18.9356L35.4553 17.37L42.0482 15.0412C42.336 14.9396 42.524 14.614 42.4681 14.314C42.4123 14.0139 42.1337 13.8531 41.846 13.9548L39.3103 14.8505L39.0338 13.3655C38.978 13.0655 38.6994 12.9046 38.4117 13.0063C38.1239 13.108 37.9359 13.4336 37.9918 13.7336L38.2683 15.2185L26.2436 19.4659C26.216 19.4516 26.1873 19.4392 26.1565 19.4309L23.9223 18.8305C23.8292 18.8054 23.7277 18.8106 23.6297 18.8452L17.1921 21.1191L17.0999 20.6241C17.0441 20.3241 16.7655 20.1632 16.4778 20.2649C16.19 20.3666 16.002 20.6922 16.0579 20.9922L16.1501 21.4871L11.5417 23.1149C11.2539 23.2166 11.0659 23.5422 11.1218 23.8422L11.2926 24.7597L2.0065 28.0398C1.85187 28.0944 1.71851 28.2178 1.64262 28.3766C1.56674 28.5354 1.55599 28.7132 1.61338 28.862L3.18659 32.938C3.2271 33.0429 3.29707 33.1231 3.38381 33.1732C3.49731 33.2387 3.63947 33.2526 3.78205 33.2022L8.47129 31.5459C8.66629 31.477 8.82386 31.3003 8.87955 31.0881L9.61207 28.2996L12.4525 27.2962L12.3647 30.3129C12.3601 30.4727 12.418 30.6183 12.5244 30.7141C12.5474 30.7348 12.5721 30.7527 12.5982 30.7678C12.6935 30.8228 12.808 30.8406 12.9245 30.8168L14.7432 30.4445C15.0358 30.3847 15.2598 30.0842 15.2438 29.7732C15.2137 29.1882 15.2241 28.5405 15.2739 27.9466L16.6436 27.4627C17.4041 27.194 17.9028 26.3303 17.7552 25.5374L17.7352 25.4303L18.5342 25.1481L19.5231 30.4598C19.551 30.6098 19.6346 30.7251 19.7472 30.7901C19.8598 30.8551 20.0014 30.8699 20.1453 30.8191L23.3757 29.678C23.6635 29.5764 23.8515 29.2508 23.7956 28.9508L22.8067 23.639L26.4076 22.367C26.6073 22.2965 26.7588 22.1178 26.8143 21.9149L31.9464 20.1021L31.4335 25.5058C31.4035 25.8225 31.6157 26.0708 31.9071 26.0606C32.1986 26.0504 32.4594 25.7855 32.4894 25.4689L32.8192 21.9947L35.0107 28.9193C35.0487 29.0393 35.1237 29.1301 35.2185 29.1848C35.3492 29.2603 35.5176 29.2671 35.6794 29.1876C35.9583 29.0504 36.1112 28.7077 36.0208 28.4222ZM33.8788 18.2616L26.6726 20.807L26.6141 20.4928L34.0799 17.8558L33.8788 18.2616ZM9.09233 27.3253C8.89733 27.3942 8.73976 27.5709 8.68407 27.7831L7.95155 30.5716L4.01396 31.9625L2.83401 28.9055L11.4833 25.8504L11.5933 26.4419L9.09233 27.3253ZM13.4439 29.572L13.5211 26.9189L14.4335 26.5966C14.3252 27.0304 14.2502 27.5466 14.2079 28.151C14.174 28.6362 14.1677 29.0886 14.17 29.4235L13.4439 29.572ZM16.7226 24.6301L16.6282 24.123L23.2743 21.7754L23.3687 22.2825L16.7226 24.6301ZM16.7133 25.9055C16.7308 25.9994 16.7121 26.1001 16.6608 26.1891C16.6094 26.2781 16.5315 26.3445 16.4414 26.3764L15.4597 26.7231C15.5183 26.4892 15.5879 26.2963 15.6683 26.1605L16.6932 25.7985L16.7133 25.9055ZM20.4641 29.5486L19.9719 26.9048L22.1602 26.1318L22.6524 28.7757L20.4641 29.5486ZM21.958 25.0453L19.7697 25.8183L19.5764 24.7801L21.7647 24.0072L21.958 25.0453ZM24.4108 21.9144L24.2153 20.8642C24.1885 20.7201 24.1079 20.6013 23.9912 20.5339C23.8745 20.4665 23.7314 20.4561 23.5931 20.505L15.9049 23.2206C15.6171 23.3223 15.4291 23.6479 15.485 23.9479L15.6805 24.9981L12.6469 26.0697L12.2649 24.0173L23.682 19.9846L25.5 20.4732L25.6845 21.4646L24.4108 21.9144Z" fill="white"/>
</svg>
