<svg width="28" height="30" viewBox="0 0 28 30" fill="none" xmlns="http://www.w3.org/2000/svg">
<path d="M22.794 0V2.06897H23.4035V4.37496H24.9043C24.9161 5.56565 24.9006 6.6922 24.9043 7.79198H23.4035V8.27586H20.6038L20.9687 7.50162L21.3657 6.65948H2.70176V7.78157L3.76467 8.27586H0V2.06897H0.975145V1.03448L1.95029 0H3.90058V2.06897H17.5526C18.0689 1.60901 17.9024 0.729828 17.9183 0H18.5277V2.06897H19.8686C20.4861 1.34968 21.0064 0.0101509 21.8189 0H22.794ZM18.8758 3.68534H5.22373V4.84914H18.8758V3.68534ZM27.9893 5.17241L28 6.95192H26.0067V5.17241H27.9893ZM19.5907 7.82328L19.164 8.72845H6.93157L4.79844 7.82328H19.5907ZM19.8216 9.89224C19.817 10.0696 19.809 10.2681 19.7943 10.4809C19.7464 11.1748 19.6712 11.9779 19.3147 12.6145C18.9234 13.3136 18.2682 13.7642 17.605 14C16.7317 14.3104 15.6998 14.3887 14.7829 13.9858C14.3423 13.7922 13.9737 13.4498 13.6521 13.0897V20.6897H6.3385C6.46734 17.677 6.75574 14.4828 8.33956 11.3793C7.92055 10.9065 7.55761 10.404 7.21193 9.89224H13.6521V11.2791C13.7523 11.4235 13.901 11.63 14.1153 11.8944C14.4755 12.3389 14.9721 12.8093 15.2029 12.9108C15.7875 13.1676 16.589 13.1339 17.2566 12.8966C17.7119 12.7347 18.1606 12.3972 18.3717 12.0203C18.516 11.7625 18.6571 11.0218 18.7004 10.3957C18.7138 10.2024 18.717 10.0462 18.7201 9.89224H19.8216ZM16.2106 9.89224C15.6701 10.8763 16.2636 11.367 17.0617 12.0446C15.4312 11.6109 14.9295 11.0507 15.1995 9.89224H16.2106ZM12.4154 13.3836H9.48999V14.5474H12.4154V13.3836ZM12.4154 15.9698H8.51484V17.1336H12.4154V15.9698ZM12.4154 18.556H7.93695V19.7198H12.4154V18.556ZM13.652 21.8534V30H9.75145V21.8534H13.652Z" fill="white"/>
</svg>
