<svg width="30" height="22" viewBox="0 0 30 22" fill="none" xmlns="http://www.w3.org/2000/svg">
<path d="M1.87805 3.66667C2.01475 3.66667 2.20028 3.64757 2.43463 3.60938L3.81143 4.95573C3.20603 5.31858 2.56157 5.5 1.87805 5.5C1.85852 5.5 1.82923 5.49523 1.79017 5.48568L1.73158 5.47135L0.00325394 21.0833C-0.0162752 21.3316 0.0520768 21.5464 0.20831 21.7279C0.364543 21.9093 0.569599 22 0.823477 22H6.35999C6.61386 22 6.83845 21.9093 7.03374 21.7279C7.22903 21.5464 7.33644 21.3316 7.35597 21.0833L8.05902 14.6667H12.1894C13.5565 14.6667 14.6794 14.1892 15.5582 13.2344C16.437 12.2795 16.8764 10.9236 16.8764 9.16667H27.1878C27.4417 9.16667 27.6614 9.07596 27.8469 8.89453C28.0324 8.71311 28.1252 8.49826 28.1252 8.25V7.33333H29.0626C29.3165 7.33333 29.5362 7.24262 29.7217 7.0612C29.9072 6.87977 30 6.66493 30 6.41667V2.75C30 2.50174 29.9072 2.28689 29.7217 2.10547C29.5362 1.92405 29.3165 1.83333 29.0626 1.83333H28.1252V0.916667C28.1252 0.668403 28.0324 0.453559 27.8469 0.272135C27.6614 0.0907118 27.4417 0 27.1878 0C26.9339 0 26.7142 0.0907118 26.5287 0.272135C26.3432 0.453559 26.2504 0.668403 26.2504 0.916667V1.83333H5.62764C5.62764 2.50174 5.44212 3.13194 5.07106 3.72396L3.43062 2.09115C3.15721 1.84288 2.84474 1.77604 2.49322 1.89063C2.23934 1.85243 2.03428 1.83333 1.87805 1.83333C1.35076 1.83333 0.906476 1.92405 0.545187 2.10547C0.183898 2.28689 0.00325394 2.50174 0.00325394 2.75C0.00325394 2.99826 0.183898 3.21311 0.545187 3.39453C0.906476 3.57595 1.35076 3.66667 1.87805 3.66667ZM8.67419 9.16667H9.37724C9.37724 9.89236 9.54323 10.5751 9.87523 11.2148C10.2072 11.8546 10.6662 12.3845 11.252 12.8047V9.16667H14.8259C14.943 9.47222 15.0016 9.77778 15.0016 10.0833C15.0016 10.8472 14.7282 11.4965 14.1814 12.0313C13.6346 12.566 12.9706 12.8333 12.1894 12.8333H8.26408L8.67419 9.16667Z" fill="white"/>
</svg>
