<svg width="29" height="32" viewBox="0 0 29 32" fill="none" xmlns="http://www.w3.org/2000/svg">
<path d="M0 5.4383H29V13.6527H0V5.4383ZM27.6818 6.86192H1.31817V12.229H27.6818V6.86192ZM10.3082 13.4875L2.755 6.69679L3.59866 5.60344L11.1518 12.3942L10.3082 13.4875ZM17.8482 13.4875L10.3082 6.69679L11.1518 5.60344L18.6918 12.3942L17.8482 13.4875ZM25.4014 13.4875L17.8482 6.69679L18.6919 5.60344L26.245 12.3942L25.4014 13.4875ZM4.42913 0C6.18272 0.00244687 7.60369 1.53707 7.60596 3.43073V6.86196H1.25227V3.43098C1.25453 1.5371 2.6755 0.00244687 4.4289 0H4.42913ZM6.28779 5.4383V3.43095C6.28779 2.32236 5.45563 1.42365 4.42913 1.42365C3.40263 1.42365 2.57046 2.32233 2.57046 3.43095V5.4383H6.28779ZM1.25224 12.229H7.6059V31.32H1.25224V12.229ZM6.2877 13.6527H2.57046V29.8964H6.28773L6.2877 13.6527ZM24.5709 3.05691e-05C26.3245 0.00241627 27.7454 1.53707 27.7477 3.43073V6.86196H21.394V3.43098C21.3963 1.5371 22.8173 0.00244687 24.5707 0H24.5709L24.5709 3.05691e-05ZM26.4295 5.4383V3.43095C26.4295 2.32236 25.5974 1.42365 24.5709 1.42365C23.5444 1.42365 22.7122 2.32233 22.7122 3.43095V5.4383H26.4295ZM21.3941 12.229H27.7477V31.32H21.3941V12.229ZM26.4295 13.6527H22.7123V29.8964H26.4295L26.4295 13.6527ZM22.0532 23.1626H6.94677V21.739H22.0531L22.0532 23.1626Z" fill="white"/>
</svg>
