<svg width="35" height="41" viewBox="0 0 35 41" fill="none" xmlns="http://www.w3.org/2000/svg">
<path d="M22.5843 12.6841L25.1251 22.8447C23.0882 23.3433 20.3714 23.6685 17.332 23.6685C14.2926 23.6685 11.5785 23.3433 9.53895 22.8447L12.0798 12.6841C13.6928 12.8894 15.4657 13.004 17.332 13.004C19.1983 13.004 20.9713 12.8894 22.5843 12.6841ZM21.9311 10.0766L19.9182 2.01959C19.2463 -0.673197 15.4178 -0.673197 14.7459 2.01959L12.733 10.0713C14.1327 10.2446 15.6844 10.3379 17.332 10.3379C18.9797 10.3379 20.5314 10.2419 21.9311 10.0766ZM33.6514 33.04C33.9319 33.1094 34.1823 33.2682 34.3648 33.4923C34.5472 33.7164 34.6519 33.9938 34.6631 34.2826C34.6742 34.5714 34.5912 34.856 34.4265 35.0935C34.2618 35.331 34.0244 35.5086 33.75 35.5994L17.7533 40.9317C17.4798 41.0228 17.1842 41.0228 16.9108 40.9317L0.91403 35.5994C0.639662 35.5086 0.402251 35.331 0.23757 35.0935C0.0728888 34.856 -0.0101415 34.5714 0.000989458 34.2826C0.0121204 33.9938 0.11681 33.7164 0.299283 33.4923C0.481757 33.2682 0.73213 33.1094 1.01268 33.04L7.38738 31.4456L8.89374 25.4282C11.1919 25.9934 14.13 26.332 17.332 26.332C20.534 26.332 23.4721 25.9934 25.7703 25.4282L27.2767 31.4456L33.6514 33.04Z" fill="white"/>
</svg>
