<svg width="36" height="34" viewBox="0 0 36 34" fill="none" xmlns="http://www.w3.org/2000/svg">
<path d="M33.5001 5.58257H31.639V3.72146C31.639 3.22786 31.4429 2.75448 31.0939 2.40546C30.7449 2.05643 30.2715 1.86035 29.7779 1.86035C29.2843 1.86035 28.8109 2.05643 28.4619 2.40546C28.1129 2.75448 27.9168 3.22786 27.9168 3.72146V5.58257H26.0557C25.5621 5.58257 25.0887 5.77865 24.7397 6.12767C24.3907 6.4767 24.1946 6.95008 24.1946 7.44368C24.1946 7.93727 24.3907 8.41065 24.7397 8.75968C25.0887 9.1087 25.5621 9.30478 26.0557 9.30478H27.9168V11.1659C27.9168 11.6595 28.1129 12.1329 28.4619 12.4819C28.8109 12.8309 29.2843 13.027 29.7779 13.027C30.2715 13.027 30.7449 12.8309 31.0939 12.4819C31.4429 12.1329 31.639 11.6595 31.639 11.1659V9.30478H33.5001C33.9937 9.30478 34.4671 9.1087 34.8161 8.75968C35.1651 8.41065 35.3612 7.93727 35.3612 7.44368C35.3612 6.95008 35.1651 6.4767 34.8161 6.12767C34.4671 5.77865 33.9937 5.58257 33.5001 5.58257Z" fill="url(#paint0_linear_446_860)"/>
<path d="M13.0277 14.8889C14.5001 14.8889 15.9394 14.4523 17.1636 13.6343C18.3878 12.8162 19.342 11.6536 19.9054 10.2933C20.4689 8.933 20.6163 7.43618 20.3291 5.9921C20.0418 4.54802 19.3328 3.22155 18.2917 2.18043C17.2506 1.1393 15.9241 0.430291 14.48 0.143046C13.0359 -0.144199 11.5391 0.00322553 10.1788 0.566677C8.81853 1.13013 7.65587 2.0843 6.83786 3.30853C6.01986 4.53276 5.58325 5.97207 5.58325 7.44444C5.58325 9.41882 6.36757 11.3123 7.76368 12.7084C9.15978 14.1045 11.0533 14.8889 13.0277 14.8889Z" fill="url(#paint1_linear_446_860)"/>
<path d="M24.1944 33.5012C24.688 33.5012 25.1614 33.3051 25.5104 32.9561C25.8594 32.607 26.0555 32.1337 26.0555 31.6401C26.0555 28.1849 24.6829 24.8712 22.2398 22.428C19.7966 19.9849 16.4829 18.6123 13.0278 18.6123C9.57258 18.6123 6.25892 19.9849 3.81574 22.428C1.37256 24.8712 5.14861e-08 28.1849 0 31.6401C0 32.1337 0.19608 32.607 0.545106 32.9561C0.894131 33.3051 1.36751 33.5012 1.86111 33.5012" fill="url(#paint2_linear_446_860)"/>
<defs>
<linearGradient id="paint0_linear_446_860" x1="29.7779" y1="1.86035" x2="29.7779" y2="13.027" gradientUnits="userSpaceOnUse">
<stop stop-color="white"/>
<stop offset="1" stop-color="#BEBEBE"/>
</linearGradient>
<linearGradient id="paint1_linear_446_860" x1="13.0277" y1="0" x2="13.0277" y2="14.8889" gradientUnits="userSpaceOnUse">
<stop stop-color="white"/>
<stop offset="1" stop-color="#BEBEBE"/>
</linearGradient>
<linearGradient id="paint2_linear_446_860" x1="13.0278" y1="18.6123" x2="13.0278" y2="33.5012" gradientUnits="userSpaceOnUse">
<stop stop-color="white"/>
<stop offset="1" stop-color="#BEBEBE"/>
</linearGradient>
</defs>
</svg>
