<svg width="30" height="27" viewBox="0 0 30 27" fill="none" xmlns="http://www.w3.org/2000/svg">
<path fill-rule="evenodd" clip-rule="evenodd" d="M10.0567 24.4969L11.4753 22.0398C16.2161 24.777 22.3021 23.1473 25.0399 18.4052C27.7778 13.6631 26.1462 7.57766 21.4053 4.84051C16.6644 2.10337 10.5785 3.73307 7.84063 8.47516C6.53058 10.7442 6.20009 13.402 6.83494 15.8914L8.52446 12.965L10.9815 14.3836L7.08042 21.1405L0.323547 17.2394L1.74212 14.7824L3.9424 16.0527C3.30632 13.0122 3.79407 9.8097 5.38359 7.05658C8.90307 0.960658 16.7267 -1.13672 22.8239 2.38347C28.921 5.90367 31.0165 13.7278 27.497 19.8238C23.9775 25.9197 16.1539 28.0171 10.0567 24.4969Z" fill="url(#paint0_linear_738_53)"/>
<defs>
<linearGradient id="paint0_linear_738_53" x1="10.0567" y1="24.4969" x2="22.8239" y2="2.38347" gradientUnits="userSpaceOnUse">
<stop stop-color="white"/>
<stop offset="1" stop-color="#B9B9B9"/>
</linearGradient>
</defs>
</svg>
