<svg width="32" height="33" viewBox="0 0 32 33" fill="none" xmlns="http://www.w3.org/2000/svg">
<path d="M12 13.6064H16C16.4244 13.6064 16.8313 13.4378 17.1314 13.1377C17.4314 12.8377 17.6 12.4307 17.6 12.0064C17.6 11.582 17.4314 11.175 17.1314 10.875C16.8313 10.5749 16.4244 10.4064 16 10.4064H14.4V9.60636C14.4 9.18201 14.2314 8.77504 13.9314 8.47499C13.6313 8.17493 13.2244 8.00636 12.8 8.00636C12.3757 8.00636 11.9687 8.17493 11.6686 8.47499C11.3686 8.77504 11.2 9.18201 11.2 9.60636V10.4864C10.2279 10.6838 9.36379 11.2353 8.77546 12.034C8.18713 12.8326 7.91655 13.8214 8.01624 14.8084C8.11593 15.7953 8.57878 16.71 9.31494 17.3749C10.0511 18.0397 11.008 18.4074 12 18.4064H13.6C13.8122 18.4064 14.0157 18.4906 14.1657 18.6407C14.3157 18.7907 14.4 18.9942 14.4 19.2064C14.4 19.4185 14.3157 19.622 14.1657 19.772C14.0157 19.9221 13.8122 20.0064 13.6 20.0064H9.60001C9.17566 20.0064 8.7687 20.1749 8.46864 20.475C8.16858 20.775 8.00001 21.182 8.00001 21.6064C8.00001 22.0307 8.16858 22.4377 8.46864 22.7377C8.7687 23.0378 9.17566 23.2064 9.60001 23.2064H11.2V24.0064C11.2 24.4307 11.3686 24.8377 11.6686 25.1377C11.9687 25.4378 12.3757 25.6064 12.8 25.6064C13.2244 25.6064 13.6313 25.4378 13.9314 25.1377C14.2314 24.8377 14.4 24.4307 14.4 24.0064V23.1264C15.3721 22.929 16.2362 22.3774 16.8246 21.5787C17.4129 20.7801 17.6835 19.7913 17.5838 18.8044C17.4841 17.8174 17.0212 16.9027 16.2851 16.2379C15.5489 15.573 14.592 15.2054 13.6 15.2064H12C11.7878 15.2064 11.5844 15.1221 11.4343 14.972C11.2843 14.822 11.2 14.6185 11.2 14.4064C11.2 14.1942 11.2843 13.9907 11.4343 13.8407C11.5844 13.6906 11.7878 13.6064 12 13.6064ZM30.4 16.0064H25.6V1.60636C25.6011 1.32442 25.5277 1.0472 25.3872 0.802753C25.2468 0.558308 25.0442 0.355326 24.8 0.214359C24.5568 0.0739301 24.2809 0 24 0C23.7191 0 23.4432 0.0739301 23.2 0.214359L18.4 2.96636L13.6 0.214359C13.3568 0.0739301 13.0809 0 12.8 0C12.5191 0 12.2432 0.0739301 12 0.214359L7.20001 2.96636L2.40001 0.214359C2.15678 0.0739301 1.88087 0 1.60001 0C1.31915 0 1.04324 0.0739301 0.800012 0.214359C0.555845 0.355326 0.353263 0.558308 0.212778 0.802753C0.0722924 1.0472 -0.00110669 1.32442 1.26126e-05 1.60636V27.2064C1.26126e-05 28.4794 0.505725 29.7003 1.4059 30.6005C2.30607 31.5006 3.52697 32.0064 4.80001 32.0064H27.2C28.473 32.0064 29.6939 31.5006 30.5941 30.6005C31.4943 29.7003 32 28.4794 32 27.2064V17.6064C32 17.182 31.8314 16.775 31.5314 16.475C31.2313 16.1749 30.8243 16.0064 30.4 16.0064ZM4.80001 28.8064C4.37566 28.8064 3.9687 28.6378 3.66864 28.3377C3.36858 28.0377 3.20001 27.6307 3.20001 27.2064V4.37436L6.40001 6.19836C6.64695 6.32734 6.92142 6.3947 7.20001 6.3947C7.47861 6.3947 7.75307 6.32734 8.00001 6.19836L12.8 3.44636L17.6 6.19836C17.8469 6.32734 18.1214 6.3947 18.4 6.3947C18.6786 6.3947 18.9531 6.32734 19.2 6.19836L22.4 4.37436V27.2064C22.4043 27.7522 22.5017 28.2933 22.688 28.8064H4.80001ZM28.8 27.2064C28.8 27.6307 28.6314 28.0377 28.3314 28.3377C28.0313 28.6378 27.6243 28.8064 27.2 28.8064C26.7757 28.8064 26.3687 28.6378 26.0686 28.3377C25.7686 28.0377 25.6 27.6307 25.6 27.2064V19.2064H28.8V27.2064Z" fill="url(#paint0_linear_2286_258)"/>
<defs>
<linearGradient id="paint0_linear_2286_258" x1="16" y1="0" x2="16" y2="32.0064" gradientUnits="userSpaceOnUse">
<stop stop-color="white"/>
<stop offset="1" stop-color="#B9B9B9"/>
</linearGradient>
</defs>
</svg>
