<svg width="29" height="33" viewBox="0 0 29 33" fill="none" xmlns="http://www.w3.org/2000/svg">
<path d="M18.3995 8.74704V0H5.62206C4.77236 0 4.08877 0.688186 4.08877 1.5436V16.465H0.511097C0.229993 16.465 0 16.6966 0 16.9795V18.0086C0 18.2916 0.229993 18.5231 0.511097 18.5231H9.51279C9.70445 18.5231 9.88333 18.6325 9.97277 18.8061L11.2441 21.3659L14.8729 14.0531C15.0582 13.6737 15.6012 13.6737 15.7865 14.0531L18.0034 18.5231H22.4883C23.0505 18.5231 23.5104 18.9862 23.5104 19.5522C23.5104 20.1182 23.0505 20.5813 22.4883 20.5813H16.7448L15.3329 17.7385L11.7041 25.0513C11.5188 25.4307 10.9758 25.4307 10.7905 25.0513L8.56726 20.5813H4.08877V31.3864C4.08877 32.2418 4.77236 32.93 5.62206 32.93H27.0881C27.9378 32.93 28.6214 32.2418 28.6214 31.3864V10.2906H19.9328C19.0895 10.2906 18.3995 9.59602 18.3995 8.74704ZM28.1742 6.75323L21.9197 0.450215C21.6322 0.160791 21.2425 0 20.8336 0H20.4439V8.23251H28.6214V7.84018C28.6214 7.43498 28.4617 7.04265 28.1742 6.75323Z" fill="url(#paint0_linear_968_3)"/>
<defs>
<linearGradient id="paint0_linear_968_3" x1="14.3107" y1="0" x2="14.3107" y2="32.93" gradientUnits="userSpaceOnUse">
<stop stop-color="white"/>
<stop offset="1" stop-color="#B9B9B9"/>
</linearGradient>
</defs>
</svg>
