<svg width="32" height="29" viewBox="0 0 32 29" fill="none" xmlns="http://www.w3.org/2000/svg">
<path d="M30.0352 9.91639L27.8464 3.30439C27.192 1.32756 25.3632 0 23.2944 0H8.7056C6.6368 0 4.808 1.32756 4.1536 3.30439L1.9648 9.91639C0.8112 10.4029 0 11.5501 0 12.8889V20.9444C0 22.1334 0.6464 23.1613 1.6 23.7204V25.6118V27.3889C1.6 28.2798 2.3152 29 3.2 29H4.8C5.6848 29 6.4 28.2798 6.4 27.3889V24.1667H25.6V27.3889C25.6 28.2798 26.3152 29 27.2 29H28.8C29.6848 29 30.4 28.2798 30.4 27.3889V23.7204C31.3536 23.1613 32 22.1351 32 20.9444V12.8889C32 11.5501 31.1888 10.4029 30.0352 9.91639ZM8.7056 3.22222H23.2928C23.9824 3.22222 24.5936 3.66367 24.8112 4.32422L26.5808 9.66667H25.3104H6.6896H5.4192L7.1872 4.32422C7.4064 3.66367 8.0176 3.22222 8.7056 3.22222ZM5.6 19.3333C4.2752 19.3333 3.2 18.2507 3.2 16.9167C3.2 15.5827 4.2752 14.5 5.6 14.5C6.9248 14.5 8 15.5827 8 16.9167C8 18.2507 6.9248 19.3333 5.6 19.3333ZM26.4 19.3333C25.0752 19.3333 24 18.2507 24 16.9167C24 15.5827 25.0752 14.5 26.4 14.5C27.7248 14.5 28.8 15.5827 28.8 16.9167C28.8 18.2507 27.7248 19.3333 26.4 19.3333Z" fill="url(#paint0_linear_1012_64)"/>
<defs>
<linearGradient id="paint0_linear_1012_64" x1="16" y1="0" x2="16" y2="29" gradientUnits="userSpaceOnUse">
<stop stop-color="white"/>
<stop offset="1" stop-color="#B9B9B9"/>
</linearGradient>
</defs>
</svg>
