<svg width="28" height="25" viewBox="0 0 28 25" fill="none" xmlns="http://www.w3.org/2000/svg">
<path d="M2 0C0.892 0 0 0.857692 0 1.92308V23.0769C0 24.1423 0.892 25 2 25H26C27.108 25 28 24.1423 28 23.0769V1.92308C28 0.857692 27.108 0 26 0H2ZM2.5 1.92308H3.5C3.777 1.92308 4 2.1375 4 2.40385V3.36538C4 3.63173 3.777 3.84615 3.5 3.84615H2.5C2.223 3.84615 2 3.63173 2 3.36538V2.40385C2 2.1375 2.223 1.92308 2.5 1.92308ZM8 1.92308H20V11.5385H8V1.92308ZM24.5 1.92308H25.5C25.777 1.92308 26 2.1375 26 2.40385V3.36538C26 3.63173 25.777 3.84615 25.5 3.84615H24.5C24.223 3.84615 24 3.63173 24 3.36538V2.40385C24 2.1375 24.223 1.92308 24.5 1.92308ZM2.5 5.76923H3.5C3.777 5.76923 4 5.98365 4 6.25V7.21154C4 7.47788 3.777 7.69231 3.5 7.69231H2.5C2.223 7.69231 2 7.47788 2 7.21154V6.25C2 5.98365 2.223 5.76923 2.5 5.76923ZM24.5 5.76923H25.5C25.777 5.76923 26 5.98365 26 6.25V7.21154C26 7.47788 25.777 7.69231 25.5 7.69231H24.5C24.223 7.69231 24 7.47788 24 7.21154V6.25C24 5.98365 24.223 5.76923 24.5 5.76923ZM2.5 9.61538H3.5C3.777 9.61538 4 9.82981 4 10.0962V11.0577C4 11.324 3.777 11.5385 3.5 11.5385H2.5C2.223 11.5385 2 11.324 2 11.0577V10.0962C2 9.82981 2.223 9.61538 2.5 9.61538ZM24.5 9.61538H25.5C25.777 9.61538 26 9.82981 26 10.0962V11.0577C26 11.324 25.777 11.5385 25.5 11.5385H24.5C24.223 11.5385 24 11.324 24 11.0577V10.0962C24 9.82981 24.223 9.61538 24.5 9.61538ZM2.5 13.4615H3.5C3.777 13.4615 4 13.676 4 13.9423V14.9038C4 15.1702 3.777 15.3846 3.5 15.3846H2.5C2.223 15.3846 2 15.1702 2 14.9038V13.9423C2 13.676 2.223 13.4615 2.5 13.4615ZM8 13.4615H20V23.0769H8V13.4615ZM24.5 13.4615H25.5C25.777 13.4615 26 13.676 26 13.9423V14.9038C26 15.1702 25.777 15.3846 25.5 15.3846H24.5C24.223 15.3846 24 15.1702 24 14.9038V13.9423C24 13.676 24.223 13.4615 24.5 13.4615ZM2.5 17.3077H3.5C3.777 17.3077 4 17.5221 4 17.7885V18.75C4 19.0163 3.777 19.2308 3.5 19.2308H2.5C2.223 19.2308 2 19.0163 2 18.75V17.7885C2 17.5221 2.223 17.3077 2.5 17.3077ZM24.5 17.3077H25.5C25.777 17.3077 26 17.5221 26 17.7885V18.75C26 19.0163 25.777 19.2308 25.5 19.2308H24.5C24.223 19.2308 24 19.0163 24 18.75V17.7885C24 17.5221 24.223 17.3077 24.5 17.3077ZM2.5 21.1538H3.5C3.777 21.1538 4 21.3683 4 21.6346V22.5962C4 22.8625 3.777 23.0769 3.5 23.0769H2.5C2.223 23.0769 2 22.8625 2 22.5962V21.6346C2 21.3683 2.223 21.1538 2.5 21.1538ZM24.5 21.1538H25.5C25.777 21.1538 26 21.3683 26 21.6346V22.5962C26 22.8625 25.777 23.0769 25.5 23.0769H24.5C24.223 23.0769 24 22.8625 24 22.5962V21.6346C24 21.3683 24.223 21.1538 24.5 21.1538Z" fill="url(#paint0_linear_738_56)"/>
<defs>
<linearGradient id="paint0_linear_738_56" x1="14" y1="0" x2="14" y2="25" gradientUnits="userSpaceOnUse">
<stop stop-color="#F9F9F9"/>
<stop offset="1" stop-color="#B9B9B9"/>
</linearGradient>
</defs>
</svg>
