<svg width="26" height="23" viewBox="0 0 26 23" fill="none" xmlns="http://www.w3.org/2000/svg">
<path d="M22.75 18.6875C22.75 17.6101 22.3226 16.5766 21.5605 15.8145C20.7984 15.0524 19.7649 14.625 18.6875 14.625C15.3514 14.625 10.6486 14.625 7.3125 14.625C6.23513 14.625 5.20163 15.0524 4.4395 15.8145C3.67738 16.5766 3.25 17.6101 3.25 18.6875V22.75H22.75C22.75 22.75 22.75 21.3639 22.75 18.6875ZM19.5 8.125H22.75C23.6112 8.125 24.4384 8.46787 25.0477 9.07725C25.6571 9.68662 26 10.5137 26 11.375V16.25H23.8274C22.9141 14.3292 20.956 13 18.6875 13H17.2981C18.6485 11.8089 19.5 10.0652 19.5 8.125ZM2.17263 16.25H0C0 16.25 0 13.637 0 11.375C0 10.5137 0.342875 9.68662 0.95225 9.07725C1.56163 8.46787 2.38875 8.125 3.25 8.125H6.5C6.5 10.0652 7.3515 11.8089 8.70188 13H7.3125C5.044 13 3.08587 14.3276 2.17263 16.25ZM13 3.25C15.691 3.25 17.875 5.434 17.875 8.125C17.875 10.816 15.691 13 13 13C10.309 13 8.125 10.816 8.125 8.125C8.125 5.434 10.309 3.25 13 3.25ZM6.70637 6.4935C6.63812 6.49837 6.56988 6.5 6.5 6.5C4.706 6.5 3.25 5.044 3.25 3.25C3.25 1.456 4.706 0 6.5 0C8.05025 0 9.34863 1.08875 9.672 2.5415C8.22413 3.40762 7.14025 4.81975 6.70637 6.4935ZM16.328 2.5415C16.6514 1.08875 17.9498 0 19.5 0C21.294 0 22.75 1.456 22.75 3.25C22.75 5.044 21.294 6.5 19.5 6.5C19.4301 6.5 19.3619 6.49837 19.2936 6.4935C18.8598 4.81975 17.7759 3.40762 16.328 2.5415Z" fill="url(#paint0_linear_1250_4)"/>
<defs>
<linearGradient id="paint0_linear_1250_4" x1="13" y1="0" x2="13" y2="22.75" gradientUnits="userSpaceOnUse">
<stop stop-color="white"/>
<stop offset="1" stop-color="#BEBEBE"/>
</linearGradient>
</defs>
</svg>
