<svg width="38" height="37" viewBox="0 0 38 37" fill="none" xmlns="http://www.w3.org/2000/svg">
<path d="M11.4773 18.8697L4.18044 11.5113C1.3078 14.6693 0.219227 17.833 0.200328 17.8978L0 18.5L0.198438 19.1022C0.240016 19.2299 4.57542 31.8409 19.0009 31.8409C20.7567 31.8409 22.3555 31.6465 23.8239 31.3206L18.6343 26.0872C14.7619 25.8947 11.6682 22.7748 11.4773 18.8697ZM19.0009 5.15911C15.4952 5.15911 12.6226 5.92907 10.2281 7.06114L3.22604 0L0.553738 2.69486L34.5717 37L37.2441 34.3051L31.0112 28.0197C35.9967 24.2976 37.7751 19.1823 37.8016 19.1022L38 18.5L37.8016 17.8978C37.76 17.7701 33.4265 5.15911 19.0009 5.15911ZM22.6031 19.5406C22.9565 18.2503 22.656 16.7981 21.6733 15.8051C20.6905 14.8122 19.2485 14.5111 17.9691 14.8675L15.1191 11.9935C16.2568 11.2997 17.576 10.8766 19.0009 10.8766C23.17 10.8766 26.5605 14.2957 26.5605 18.5C26.5605 19.937 26.141 21.2673 25.4511 22.4127L22.6031 19.5406Z" fill="url(#paint0_linear_754_2)"/>
<defs>
<linearGradient id="paint0_linear_754_2" x1="19" y1="0" x2="19" y2="37" gradientUnits="userSpaceOnUse">
<stop stop-color="white"/>
<stop offset="1" stop-color="#B9B9B9"/>
</linearGradient>
</defs>
</svg>
