<svg width="33" height="27" viewBox="0 0 33 27" fill="none" xmlns="http://www.w3.org/2000/svg">
<path fill-rule="evenodd" clip-rule="evenodd" d="M27.1418 3.81518C29.0555 2.52523 31.3302 3.74352 32.435 5.78648L18.9877 13.3936L32.101 21.5632C30.9106 23.5575 28.5865 24.6784 26.729 23.3086L15.9984 15.0855L10.251 18.3355C10.8247 19.5424 10.9372 20.9227 10.5666 22.2095C10.196 23.4963 9.36874 24.5982 8.24477 25.302C7.12079 26.0058 5.77998 26.2615 4.48167 26.0197C3.18336 25.7779 2.01979 25.0557 1.21602 23.9929C0.412251 22.9301 0.0253855 21.6021 0.13025 20.2658C0.235114 18.9295 0.824257 17.6798 1.78373 16.7585C2.74321 15.8372 4.00484 15.3097 5.32461 15.278C6.64439 15.2463 7.92853 15.7127 8.92867 16.587L13.6465 13.2805L9.075 9.77733C8.03875 10.6085 6.73601 11.0201 5.41876 10.9326C4.10151 10.8451 2.86334 10.2646 1.94373 9.3035C1.02411 8.34239 0.488394 7.06892 0.44019 5.72938C0.391986 4.38985 0.834721 3.07943 1.68276 2.05157C2.5308 1.02372 3.72389 0.35147 5.03128 0.16484C6.33866 -0.0217896 7.66744 0.290464 8.76062 1.04121C9.8538 1.79195 10.6337 2.92784 10.9495 4.22918C11.2652 5.53052 11.0945 6.90485 10.4702 8.08635L16.0727 11.5767L27.1418 3.81518ZM5.69669 8.77836C4.84811 8.76039 4.04154 8.40086 3.4544 7.77887C2.86727 7.15688 2.54767 6.32336 2.56592 5.4617C2.58416 4.60004 2.93876 3.7808 3.55169 3.18422C4.16463 2.58764 4.9857 2.26258 5.83428 2.28055C6.68286 2.29851 7.48943 2.65804 8.07656 3.28003C8.6637 3.90203 8.98329 4.73554 8.96505 5.5972C8.9468 6.45887 8.59221 7.2781 7.97927 7.87468C7.36634 8.47127 6.54526 8.79633 5.69669 8.77836ZM5.37564 23.9399C4.52706 23.922 3.72049 23.5624 3.13336 22.9404C2.54622 22.3184 2.22663 21.4849 2.24487 20.6233C2.26312 19.7616 2.61771 18.9424 3.23065 18.3458C3.84359 17.7492 4.66465 17.4241 5.51323 17.4421C6.36181 17.4601 7.16838 17.8196 7.75552 18.4416C8.34265 19.0636 8.66225 19.8971 8.644 20.7588C8.62576 21.6204 8.27116 22.4397 7.65823 23.0362C7.04529 23.6328 6.22422 23.9579 5.37564 23.9399Z" fill="url(#paint0_linear_509_203)"/>
<defs>
<linearGradient id="paint0_linear_509_203" x1="32.268" y1="13.6748" x2="0.275174" y2="12.9974" gradientUnits="userSpaceOnUse">
<stop stop-color="white"/>
<stop offset="1" stop-color="#BEBEBE"/>
</linearGradient>
</defs>
</svg>
