<svg width="27" height="30" viewBox="0 0 27 30" fill="none" xmlns="http://www.w3.org/2000/svg">
<path d="M25.3267 1.53637L15.5234 3.17025C14.8621 3.28048 14.9383 3.95632 14.9383 4.2014H11.5345C12.158 2.107 10.5879 0 8.40281 0C6.10167 0 4.53005 2.31521 5.35516 4.44666C2.31854 5.20822 0.956466 7.61014 0.100547 9.75C-0.186724 10.4681 0.162576 11.2832 0.880724 11.5704C1.59946 11.8579 2.41418 11.5077 2.7011 10.7902C4.37985 6.59328 6.24165 7.00234 9.80328 7.00234V8.5823C7.37913 9.21613 5.60187 11.4553 5.60187 14.075V28.4762C5.60187 29.2496 6.22888 29.8766 7.00234 29.8766H15.4051C16.1786 29.8766 16.8056 29.2496 16.8056 28.4762V14.0047C16.8056 11.3945 15.0203 9.20154 12.6042 8.57961V7.00234H14.9383C14.9383 7.17588 14.8389 7.91941 15.5234 8.03349L25.3267 9.66737C25.7535 9.7385 26.1421 9.40939 26.1421 8.97664V2.22709C26.1421 1.79435 25.7535 1.46524 25.3267 1.53637ZM8.40281 4.2014C7.88802 4.2014 7.46916 3.78255 7.46916 3.26776C7.46916 2.75297 7.88802 2.33411 8.40281 2.33411C8.9176 2.33411 9.33645 2.75297 9.33645 3.26776C9.33645 3.78255 8.9176 4.2014 8.40281 4.2014Z" fill="url(#paint0_linear_446_714)"/>
<defs>
<linearGradient id="paint0_linear_446_714" x1="13.071" y1="0" x2="13.071" y2="29.8766" gradientUnits="userSpaceOnUse">
<stop stop-color="white"/>
<stop offset="1" stop-color="#B2B2B2"/>
</linearGradient>
</defs>
</svg>
