<svg width="27" height="34" viewBox="0 0 27 34" fill="none" xmlns="http://www.w3.org/2000/svg">
<path d="M25.8532 15.3868C25.1087 13.7264 24.0263 12.236 22.6738 11.009L21.5578 9.99438C21.5199 9.96087 21.4743 9.9371 21.425 9.92513C21.3756 9.91317 21.3241 9.91339 21.2749 9.92577C21.2256 9.93815 21.1802 9.96232 21.1426 9.99615C21.105 10.03 21.0764 10.0724 21.0592 10.1198L20.5606 11.5372C20.25 12.4265 19.6785 13.3347 18.8693 14.2278C18.8156 14.2848 18.7542 14.3 18.7121 14.3038C18.6699 14.3076 18.6047 14.3 18.5471 14.2468C18.4934 14.2012 18.4666 14.1328 18.4704 14.0644C18.6123 11.7767 17.922 9.19635 16.4109 6.38803C15.1606 4.05473 13.4233 2.23445 11.2525 0.965196L9.6686 0.0417567C9.4615 -0.0798484 9.19687 0.0797582 9.20837 0.319168L9.29275 2.14325C9.35027 3.3897 9.20454 4.49175 8.85937 5.40758C8.43749 6.52863 7.83153 7.56988 7.05681 8.50472C6.51767 9.1544 5.90659 9.74205 5.23508 10.2566C3.61779 11.4885 2.30272 13.0669 1.38835 14.8738C0.476235 16.6964 0.00111283 18.7031 0 20.7374C0 22.5311 0.356676 24.2678 1.06236 25.9057C1.74375 27.4826 2.72707 28.9138 3.95795 30.12C5.20056 31.3361 6.64261 32.2937 8.24957 32.9588C9.91405 33.6504 11.6783 34 13.5 34C15.3217 34 17.0859 33.6504 18.7504 32.9626C20.3534 32.3014 21.8111 31.3372 23.042 30.1238C24.2846 28.9078 25.2588 27.4865 25.9376 25.9095C26.6422 24.2761 27.0037 22.5176 27 20.7412C27 18.8868 26.6164 17.0855 25.8532 15.3868Z" fill="url(#paint0_linear_446_711)"/>
<defs>
<linearGradient id="paint0_linear_446_711" x1="13.5" y1="0" x2="13.5" y2="34" gradientUnits="userSpaceOnUse">
<stop stop-color="white"/>
<stop offset="1" stop-color="#B2B2B2"/>
</linearGradient>
</defs>
</svg>
