<svg width="34" height="34" viewBox="0 0 34 34" fill="none" xmlns="http://www.w3.org/2000/svg">
<path d="M29.4565 7.4271C27.2033 7.46027 25.352 9.31088 25.3059 11.5794C25.2729 13.1912 26.1294 14.604 27.4141 15.3469V22.8157C27.4141 26.6164 24.1068 29.714 20.0352 29.714C16.0822 29.714 12.8407 26.7888 12.6628 23.134C17.4591 22.1391 21.0827 17.8542 21.0827 12.7335V2.42582C21.0827 1.66966 20.5491 1.013 19.8112 0.867069L15.6671 0.0313116C14.8106 -0.141146 13.9805 0.416026 13.8092 1.27832L13.5984 2.3197C13.4271 3.18199 13.9805 4.01774 14.837 4.1902L16.8596 4.59481V12.6473C16.8596 16.1561 14.0793 19.0614 10.5941 19.0945C7.07589 19.1277 4.20996 16.2623 4.20996 12.7269V4.60145L6.23258 4.19683C7.08907 4.02438 7.64249 3.18862 7.47119 2.32633L7.26696 1.28495C7.09566 0.422659 6.26553 -0.134513 5.40904 0.0379446L1.27155 0.860436C0.533657 1.013 0 1.66303 0 2.42582V12.7335C0 17.8608 3.63018 22.1524 8.43968 23.134C8.61098 29.1303 13.7433 33.9591 20.0286 33.9591C26.4193 33.9591 31.6241 28.9578 31.6241 22.8157V15.3469C32.8825 14.6106 33.7324 13.2442 33.7324 11.6722C33.7324 9.30424 31.8086 7.39394 29.4565 7.4271ZM29.5158 12.7335C28.9361 12.7335 28.4617 12.2559 28.4617 11.6722C28.4617 11.0885 28.9361 10.6109 29.5158 10.6109C30.0956 10.6109 30.57 11.0885 30.57 11.6722C30.57 12.2559 30.0956 12.7335 29.5158 12.7335Z" fill="url(#paint0_linear_968_4)"/>
<defs>
<linearGradient id="paint0_linear_968_4" x1="16.8662" y1="0" x2="16.8662" y2="33.9591" gradientUnits="userSpaceOnUse">
<stop stop-color="white"/>
<stop offset="1" stop-color="#B9B9B9"/>
</linearGradient>
</defs>
</svg>
