<svg width="25" height="34" viewBox="0 0 25 34" fill="none" xmlns="http://www.w3.org/2000/svg">
<path d="M24.5443 7.15625L18.1706 0.839844C17.8776 0.549805 17.4805 0.388672 17.0638 0.388672H16.6667V8.63867H25V8.24551C25 7.83945 24.8372 7.44629 24.5443 7.15625ZM14.5833 9.1543V0.388672H1.5625C0.696615 0.388672 0 1.07832 0 1.93555V31.8418C0 32.699 0.696615 33.3887 1.5625 33.3887H23.4375C24.3034 33.3887 25 32.699 25 31.8418V10.7012H16.1458C15.2865 10.7012 14.5833 10.0051 14.5833 9.1543ZM18.75 19.4668V22.5605C18.75 22.8441 18.5156 23.0762 18.2292 23.0762H14.5833V26.6855C14.5833 26.9691 14.349 27.2012 14.0625 27.2012H10.9375C10.651 27.2012 10.4167 26.9691 10.4167 26.6855V23.0762H6.77083C6.48437 23.0762 6.25 22.8441 6.25 22.5605V19.4668C6.25 19.1832 6.48437 18.9512 6.77083 18.9512H10.4167V15.3418C10.4167 15.0582 10.651 14.8262 10.9375 14.8262H14.0625C14.349 14.8262 14.5833 15.0582 14.5833 15.3418V18.9512H18.2292C18.5156 18.9512 18.75 19.1832 18.75 19.4668Z" fill="url(#paint0_linear_446_512)"/>
<defs>
<linearGradient id="paint0_linear_446_512" x1="12.5" y1="0.388672" x2="12.5" y2="33.3887" gradientUnits="userSpaceOnUse">
<stop stop-color="white"/>
<stop offset="1" stop-color="#B9B9B9"/>
</linearGradient>
</defs>
</svg>
