<svg width="34" height="29" viewBox="0 0 34 29" fill="none" xmlns="http://www.w3.org/2000/svg">
<path d="M10.2687 13.7889L12.8448 5.37463L18.3537 17.978L19.5726 13.7205H32.8348C33.1545 12.6807 33.3393 11.4836 33.3393 10.2445C33.3393 9.74025 33.3083 9.24438 33.2499 8.75691L33.2558 8.81574C32.9207 6.26192 31.548 1.49048 25.9878 0.39427C25.2925 0.247788 24.4875 0.157739 23.6646 0.144531H23.6538H23.4904C20.7879 0.192558 18.368 1.36801 16.6661 3.22184L16.6601 3.22784C14.9511 1.36921 12.5312 0.194959 9.83817 0.144531H9.82862H9.66285C8.82918 0.157739 8.02534 0.247788 7.24535 0.408678L7.32883 0.39427C3.34061 1.26355 0.349446 4.64943 0.0620178 8.78692L0.0608251 8.81574C0.0226603 9.18674 0 9.61898 0 10.0548C0 11.3876 0.203943 12.6711 0.583206 13.8777L0.559353 13.7877L10.2687 13.7889Z" fill="url(#paint0_linear_442_39)"/>
<path d="M21.0512 15.6979L18.7435 23.7928L13.169 11.043L11.7271 15.7688H1.30095C3.0768 19.7262 7.21649 24.6921 16.6551 28.9593C26.2142 24.6369 30.3587 19.6649 32.1119 15.704L21.0512 15.6979Z" fill="url(#paint1_linear_442_39)"/>
<defs>
<linearGradient id="paint0_linear_442_39" x1="16.6697" y1="0.144531" x2="16.6697" y2="17.978" gradientUnits="userSpaceOnUse">
<stop stop-color="white"/>
<stop offset="1" stop-color="#BEBEBE"/>
</linearGradient>
<linearGradient id="paint1_linear_442_39" x1="16.7064" y1="11.043" x2="16.7064" y2="28.9593" gradientUnits="userSpaceOnUse">
<stop stop-color="white"/>
<stop offset="1" stop-color="#BEBEBE"/>
</linearGradient>
</defs>
</svg>
