<svg width="43" height="32" viewBox="0 0 43 32" fill="none" xmlns="http://www.w3.org/2000/svg">
<path d="M21.2244 8.30164L7.7555 19.1493V30.857C7.7555 31.1602 7.87865 31.4509 8.09785 31.6652C8.31705 31.8796 8.61436 32 8.92436 32L17.1107 31.9793C17.4197 31.9778 17.7155 31.8567 17.9335 31.6425C18.1514 31.4283 18.2737 31.1384 18.2737 30.8363V23.9991C18.2737 23.696 18.3969 23.4052 18.6161 23.1909C18.8353 22.9765 19.1326 22.8561 19.4426 22.8561H24.118C24.428 22.8561 24.7253 22.9765 24.9445 23.1909C25.1637 23.4052 25.2869 23.696 25.2869 23.9991V30.8313C25.2864 30.9817 25.3163 31.1307 25.3748 31.2698C25.4333 31.4089 25.5193 31.5353 25.6279 31.6418C25.7365 31.7483 25.8655 31.8328 26.0076 31.8905C26.1496 31.9482 26.3019 31.9779 26.4557 31.9779L34.6392 32C34.9492 32 35.2465 31.8796 35.4657 31.6652C35.6849 31.4509 35.808 31.1602 35.808 30.857V19.1414L22.3421 8.30164C22.1838 8.17686 21.9866 8.10881 21.7832 8.10881C21.5799 8.10881 21.3827 8.17686 21.2244 8.30164ZM42.4997 15.6746L36.3925 10.7519V0.857238C36.3925 0.629885 36.3001 0.411843 36.1357 0.251079C35.9713 0.0903161 35.7483 0 35.5158 0H31.4248C31.1923 0 30.9694 0.0903161 30.8049 0.251079C30.6405 0.411843 30.5482 0.629885 30.5482 0.857238V6.04425L24.0077 0.78223C23.38 0.277159 22.5924 0.00100964 21.7796 0.00100964C20.9667 0.00100964 20.1791 0.277159 19.5514 0.78223L1.05942 15.6746C0.97065 15.7464 0.897207 15.8345 0.843288 15.934C0.789369 16.0335 0.756029 16.1424 0.745175 16.2546C0.73432 16.3667 0.746163 16.4798 0.780026 16.5874C0.81389 16.6951 0.869111 16.7951 0.942533 16.8819L2.8054 19.0964C2.87862 19.1835 2.96868 19.2556 3.07043 19.3086C3.17218 19.3615 3.28362 19.3944 3.39837 19.4052C3.51311 19.416 3.62891 19.4046 3.73914 19.3716C3.84936 19.3386 3.95185 19.2846 4.04073 19.2129L21.2244 5.37274C21.3827 5.24796 21.5799 5.17991 21.7832 5.17991C21.9866 5.17991 22.1838 5.24796 22.3421 5.37274L39.5265 19.2129C39.6152 19.2847 39.7175 19.3387 39.8276 19.3718C39.9377 19.4049 40.0533 19.4165 40.168 19.4058C40.2826 19.3952 40.394 19.3626 40.4958 19.3099C40.5976 19.2572 40.6877 19.1854 40.7611 19.0986L42.6239 16.884C42.6973 16.7968 42.7523 16.6962 42.7857 16.5881C42.8192 16.48 42.8305 16.3665 42.8189 16.2541C42.8074 16.1417 42.7733 16.0326 42.7185 15.9332C42.6637 15.8337 42.5894 15.7459 42.4997 15.6746Z" fill="url(#paint0_linear_443_45)"/>
<defs>
<linearGradient id="paint0_linear_443_45" x1="21.7823" y1="0" x2="21.7823" y2="32" gradientUnits="userSpaceOnUse">
<stop stop-color="white"/>
<stop offset="1" stop-color="#B9B9B9"/>
</linearGradient>
</defs>
</svg>
