<svg width="37" height="34" viewBox="0 0 37 34" fill="none" xmlns="http://www.w3.org/2000/svg">
<path d="M32.116 7.55556H29.6V3.77778C29.6401 2.81884 29.3064 1.88275 28.6718 1.17463C28.0372 0.466511 27.1535 0.044115 26.2145 0H10.7855C9.84646 0.044115 8.96282 0.466511 8.32823 1.17463C7.69364 1.88275 7.35986 2.81884 7.40002 3.77778V7.55556H4.88403C3.58211 7.56554 2.33713 8.1019 1.42172 9.04717C0.506318 9.99244 -0.00489594 11.2696 3.53477e-05 12.5989V25.1789C-0.00489594 26.5082 0.506318 27.7853 1.42172 28.7306C2.33713 29.6759 3.58211 30.2122 4.88403 30.2222H6.47502C6.47502 31.2241 6.86484 32.185 7.55873 32.8935C8.25261 33.602 9.19372 34 10.175 34H26.825C27.8063 34 28.7474 33.602 29.4413 32.8935C30.1352 32.185 30.525 31.2241 30.525 30.2222H32.116C33.4179 30.2122 34.6629 29.6759 35.5783 28.7306C36.4937 27.7853 37.0049 26.5082 37 25.1789V12.5989C37.0049 11.2696 36.4937 9.99244 35.5783 9.04717C34.6629 8.1019 33.4179 7.56554 32.116 7.55556ZM11.1 3.77778H25.9V7.55556H11.1V3.77778ZM10.175 30.2222V22.6667H26.825V30.2222H10.175Z" fill="url(#paint0_linear_446_1389)"/>
<defs>
<linearGradient id="paint0_linear_446_1389" x1="18.5" y1="0" x2="18.5" y2="34" gradientUnits="userSpaceOnUse">
<stop stop-color="white"/>
<stop offset="1" stop-color="#BEBEBE"/>
</linearGradient>
</defs>
</svg>
