<svg width="20" height="23" viewBox="0 0 20 23" fill="none" xmlns="http://www.w3.org/2000/svg">
<path d="M19.4643 21.4286H18.5714V1.07143C18.5714 0.479687 18.0917 0 17.5 0H2.5C1.90826 0 1.42857 0.479687 1.42857 1.07143V21.4286H0.535714C0.239866 21.4286 0 21.6684 0 21.9643V22.8571H20V21.9643C20 21.6684 19.7601 21.4286 19.4643 21.4286ZM5.71429 3.39286C5.71429 3.09701 5.95415 2.85714 6.25 2.85714H8.03571C8.33156 2.85714 8.57143 3.09701 8.57143 3.39286V5.17857C8.57143 5.47442 8.33156 5.71429 8.03571 5.71429H6.25C5.95415 5.71429 5.71429 5.47442 5.71429 5.17857V3.39286ZM5.71429 7.67857C5.71429 7.38272 5.95415 7.14286 6.25 7.14286H8.03571C8.33156 7.14286 8.57143 7.38272 8.57143 7.67857V9.46429C8.57143 9.76013 8.33156 10 8.03571 10H6.25C5.95415 10 5.71429 9.76013 5.71429 9.46429V7.67857ZM8.03571 14.2857H6.25C5.95415 14.2857 5.71429 14.0458 5.71429 13.75V11.9643C5.71429 11.6684 5.95415 11.4286 6.25 11.4286H8.03571C8.33156 11.4286 8.57143 11.6684 8.57143 11.9643V13.75C8.57143 14.0458 8.33156 14.2857 8.03571 14.2857ZM11.4286 21.4286H8.57143V17.6786C8.57143 17.3827 8.81129 17.1429 9.10714 17.1429H10.8929C11.1887 17.1429 11.4286 17.3827 11.4286 17.6786V21.4286ZM14.2857 13.75C14.2857 14.0458 14.0458 14.2857 13.75 14.2857H11.9643C11.6684 14.2857 11.4286 14.0458 11.4286 13.75V11.9643C11.4286 11.6684 11.6684 11.4286 11.9643 11.4286H13.75C14.0458 11.4286 14.2857 11.6684 14.2857 11.9643V13.75ZM14.2857 9.46429C14.2857 9.76013 14.0458 10 13.75 10H11.9643C11.6684 10 11.4286 9.76013 11.4286 9.46429V7.67857C11.4286 7.38272 11.6684 7.14286 11.9643 7.14286H13.75C14.0458 7.14286 14.2857 7.38272 14.2857 7.67857V9.46429ZM14.2857 5.17857C14.2857 5.47442 14.0458 5.71429 13.75 5.71429H11.9643C11.6684 5.71429 11.4286 5.47442 11.4286 5.17857V3.39286C11.4286 3.09701 11.6684 2.85714 11.9643 2.85714H13.75C14.0458 2.85714 14.2857 3.09701 14.2857 3.39286V5.17857Z" fill="url(#paint0_linear_1250_12)"/>
<defs>
<linearGradient id="paint0_linear_1250_12" x1="10" y1="0" x2="10" y2="22.8571" gradientUnits="userSpaceOnUse">
<stop stop-color="white"/>
<stop offset="1" stop-color="#BEBEBE"/>
</linearGradient>
</defs>
</svg>
