<svg width="28" height="28" viewBox="0 0 28 28" fill="none" xmlns="http://www.w3.org/2000/svg">
<path d="M19.25 0C14.42 0 10.5 3.92 10.5 8.75C10.5 9.31 10.5 9.87 10.605 10.395L0 21V28H10.5V21H17.5V17.5L17.605 17.395C18.13 17.5 18.69 17.5 19.25 17.5C24.08 17.5 28 13.58 28 8.75C28 3.92 24.08 0 19.25 0ZM21 3.5C22.925 3.5 24.5 5.075 24.5 7C24.5 8.925 22.925 10.5 21 10.5C19.075 10.5 17.5 8.925 17.5 7C17.5 5.075 19.075 3.5 21 3.5Z" fill="url(#paint0_linear_446_850)"/>
<defs>
<linearGradient id="paint0_linear_446_850" x1="14" y1="0" x2="14" y2="28" gradientUnits="userSpaceOnUse">
<stop stop-color="white"/>
<stop offset="1" stop-color="#B9B9B9"/>
</linearGradient>
</defs>
</svg>
