<svg width="28" height="23" viewBox="0 0 28 23" fill="none" xmlns="http://www.w3.org/2000/svg">
<path d="M27.6125 12.343L18.2787 21.8436C17.4453 22.6919 16.0008 22.0981 16.0008 20.8823V15.4533H8.44486C7.70594 15.4533 7.11146 14.8482 7.11146 14.0961V8.6671C7.11146 7.91497 7.70594 7.30986 8.44486 7.30986H16.0008V1.8809C16.0008 0.670698 17.4398 0.0712504 18.2787 0.919525L27.6125 10.4202C28.1292 10.9518 28.1292 11.8114 27.6125 12.343ZM10.6672 21.5609V19.2988C10.6672 18.9256 10.3672 18.6202 10.0005 18.6202H5.3336C4.35022 18.6202 3.55573 17.8115 3.55573 16.8105V5.95262C3.55573 4.95166 4.35022 4.14297 5.3336 4.14297H10.0005C10.3672 4.14297 10.6672 3.83759 10.6672 3.46435V1.20228C10.6672 0.829043 10.3672 0.523664 10.0005 0.523664H5.3336C2.38901 0.523664 0 2.95539 0 5.95262V16.8105C0 19.8078 2.38901 22.2395 5.3336 22.2395H10.0005C10.3672 22.2395 10.6672 21.9341 10.6672 21.5609Z" fill="url(#paint0_linear_174_6359)"/>
<defs>
<linearGradient id="paint0_linear_174_6359" x1="14" y1="0.522461" x2="14" y2="22.2419" gradientUnits="userSpaceOnUse">
<stop stop-color="white"/>
<stop offset="1" stop-color="#B9B9B9"/>
</linearGradient>
</defs>
</svg>
