<svg width="26" height="35" viewBox="0 0 26 35" fill="none" xmlns="http://www.w3.org/2000/svg">
<path d="M22.75 4.33333H17.3333C17.3333 1.94323 15.3901 0 13 0C10.6099 0 8.66667 1.94323 8.66667 4.33333H3.25C1.45573 4.33333 0 5.78906 0 7.58333V31.4167C0 33.2109 1.45573 34.6667 3.25 34.6667H22.75C24.5443 34.6667 26 33.2109 26 31.4167V7.58333C26 5.78906 24.5443 4.33333 22.75 4.33333ZM6.5 28.7083C5.59948 28.7083 4.875 27.9839 4.875 27.0833C4.875 26.1828 5.59948 25.4583 6.5 25.4583C7.40052 25.4583 8.125 26.1828 8.125 27.0833C8.125 27.9839 7.40052 28.7083 6.5 28.7083ZM6.5 22.2083C5.59948 22.2083 4.875 21.4839 4.875 20.5833C4.875 19.6828 5.59948 18.9583 6.5 18.9583C7.40052 18.9583 8.125 19.6828 8.125 20.5833C8.125 21.4839 7.40052 22.2083 6.5 22.2083ZM6.5 15.7083C5.59948 15.7083 4.875 14.9839 4.875 14.0833C4.875 13.1828 5.59948 12.4583 6.5 12.4583C7.40052 12.4583 8.125 13.1828 8.125 14.0833C8.125 14.9839 7.40052 15.7083 6.5 15.7083ZM13 2.70833C13.9005 2.70833 14.625 3.43281 14.625 4.33333C14.625 5.23385 13.9005 5.95833 13 5.95833C12.0995 5.95833 11.375 5.23385 11.375 4.33333C11.375 3.43281 12.0995 2.70833 13 2.70833ZM21.6667 27.625C21.6667 27.9229 21.4229 28.1667 21.125 28.1667H11.375C11.0771 28.1667 10.8333 27.9229 10.8333 27.625V26.5417C10.8333 26.2438 11.0771 26 11.375 26H21.125C21.4229 26 21.6667 26.2438 21.6667 26.5417V27.625ZM21.6667 21.125C21.6667 21.4229 21.4229 21.6667 21.125 21.6667H11.375C11.0771 21.6667 10.8333 21.4229 10.8333 21.125V20.0417C10.8333 19.7438 11.0771 19.5 11.375 19.5H21.125C21.4229 19.5 21.6667 19.7438 21.6667 20.0417V21.125ZM21.6667 14.625C21.6667 14.9229 21.4229 15.1667 21.125 15.1667H11.375C11.0771 15.1667 10.8333 14.9229 10.8333 14.625V13.5417C10.8333 13.2438 11.0771 13 11.375 13H21.125C21.4229 13 21.6667 13.2438 21.6667 13.5417V14.625Z" fill="url(#paint0_linear_446_863)"/>
<defs>
<linearGradient id="paint0_linear_446_863" x1="13" y1="0" x2="13" y2="34.6667" gradientUnits="userSpaceOnUse">
<stop stop-color="white"/>
<stop offset="1" stop-color="#BEBEBE"/>
</linearGradient>
</defs>
</svg>
