<svg width="28" height="34" viewBox="0 0 28 34" fill="none" xmlns="http://www.w3.org/2000/svg">
<path d="M14.8434 9.57313C13.6999 10.2623 12.1093 11.2227 10.0717 12.4542C8.0341 13.6858 6.44352 14.6525 5.30002 15.3544C3.8889 14.895 2.7089 14.0655 1.76004 12.8658L1.55932 12.9998C1.41334 13.0892 1.25519 13.1115 1.08489 13.0668C0.914578 13.0222 0.780762 12.9232 0.683446 12.77L0.0812838 11.6789C-0.00387064 11.5258 -0.022118 11.3535 0.0265416 11.162C0.0752011 10.9706 0.172521 10.8238 0.318499 10.7218L0.51922 10.6069C-0.125519 8.84569 -0.140726 7.05576 0.473601 5.23722C1.08793 3.41856 2.19189 2.03067 3.78549 1.07351C5.40343 0.103586 7.10651 -0.209092 8.89473 0.135492C10.683 0.480068 12.1489 1.38618 13.2923 2.85384L13.4931 2.71983C13.6634 2.6305 13.8337 2.61455 14.004 2.67198C14.1743 2.72941 14.3081 2.8347 14.4055 2.98784L14.9894 4.07901C15.0745 4.23216 15.0958 4.39807 15.0533 4.57673C15.0107 4.75541 14.9164 4.89579 14.7704 4.99789L14.5332 5.13189C15.0441 6.54849 15.1475 8.02893 14.8434 9.57313ZM19.46 31.186C19.9101 32.0921 20.4727 32.7876 21.1479 33.2726C21.823 33.7575 22.5498 34 23.3284 34C24.6909 34 25.8131 33.531 26.6951 32.5929C27.577 31.6549 28.0119 30.4904 27.9998 29.0993C27.9998 28.6527 27.9663 28.206 27.8993 27.7593C27.8325 27.3126 27.7625 26.9361 27.6895 26.6298C27.6165 26.3235 27.504 25.9758 27.352 25.5865C27.1999 25.1973 27.0873 24.9229 27.0144 24.7634C26.9414 24.6039 26.8197 24.3549 26.6494 24.0168C26.4791 23.6786 26.3879 23.4904 26.3757 23.452C26.1081 22.916 25.8314 22.5523 25.5455 22.3608C25.2596 22.1694 25.0254 22.1247 24.8429 22.2269C24.7213 22.2906 24.6361 22.4119 24.5875 22.5906C24.5388 22.7692 24.5449 23.0021 24.6057 23.2893C24.6665 23.5765 24.7821 23.8795 24.9524 24.1986C25.3052 24.8368 25.655 25.6758 26.0016 26.716C26.3483 27.7561 26.5217 28.6016 26.5217 29.2524C26.5217 30.082 26.1902 30.8031 25.5272 31.4156C24.8642 32.0282 24.1009 32.3345 23.2371 32.3345C22.5316 32.3345 21.7773 31.6453 20.9745 30.2671L21.1204 30.1714C21.4489 29.9671 21.6922 29.7789 21.8503 29.6066C22.0085 29.4343 22.1058 29.2078 22.1423 28.927C22.1788 28.6463 22.1058 28.3272 21.9233 27.9699L15.0259 11.4109L12.0515 13.2104L13.5661 15.9479C13.639 16.0755 13.6543 16.2191 13.6117 16.3786C13.5691 16.5381 13.487 16.6561 13.3653 16.7327L12.6537 17.1539L11.9421 17.575C11.8083 17.6644 11.6714 17.6867 11.5315 17.6421C11.3916 17.5974 11.2791 17.5048 11.1939 17.3644L9.69762 14.6461L6.72332 16.4456L16.9418 30.9945C17.2825 31.4667 17.6291 31.7251 17.982 31.7698C18.3347 31.8144 18.7301 31.6837 19.168 31.3774L19.46 31.186Z" fill="url(#paint0_linear_822_3)"/>
<defs>
<linearGradient id="paint0_linear_822_3" x1="14" y1="0" x2="14" y2="34" gradientUnits="userSpaceOnUse">
<stop stop-color="white"/>
<stop offset="1" stop-color="#BEBEBE"/>
</linearGradient>
</defs>
</svg>
