<svg width="32" height="32" viewBox="0 0 32 32" fill="none" xmlns="http://www.w3.org/2000/svg">
<path d="M0.389367 17.0411C0.204378 17.1703 0.0739118 17.3635 0.023254 17.5833C-0.0274038 17.8031 0.00535409 18.0339 0.115179 18.231L2.35007 22.1007C2.57942 22.4973 3.10537 22.6611 3.51752 22.4593L10.3429 19.1536V31.0247H13.7918V17.4809L20.812 14.0785L16.294 6.24953L0.389367 17.0411ZM30.0999 3.4973C29.1706 1.89021 27.6411 0.717885 25.8477 0.238015C24.0544 -0.241854 22.1439 0.0100003 20.5361 0.938221C18.9669 1.84356 17.9356 3.28175 17.4304 4.88549L22.5623 13.7767C24.2023 14.1423 25.9647 13.9664 27.5374 13.0611C29.1454 12.1327 30.3188 10.6035 30.7993 8.80991C31.2799 7.01636 31.0283 5.10536 30.0999 3.4973Z" fill="url(#paint0_linear_446_1398)"/>
<defs>
<linearGradient id="paint0_linear_446_1398" x1="15.5189" y1="0" x2="15.5189" y2="31.0247" gradientUnits="userSpaceOnUse">
<stop stop-color="white"/>
<stop offset="1" stop-color="#BEBEBE"/>
</linearGradient>
</defs>
</svg>
