<svg width="31" height="30" viewBox="0 0 31 30" fill="none" xmlns="http://www.w3.org/2000/svg">
<path d="M29.45 5.32557H26.35V0.499023H23.25V5.32557H7.75V0.499023H4.65V5.32557H1.55C0.69285 5.32557 0 6.04633 0 6.93441V18.1963C0 19.086 0.69285 19.8052 1.55 19.8052H4.65V29.4583H7.75V19.8052H23.25V29.4583H26.35V19.8052H29.45C30.3071 19.8052 31 19.086 31 18.1963V6.93441C31 6.04633 30.3071 5.32557 29.45 5.32557ZM3.751 16.5875L8.17935 8.54326H11.749L7.32065 16.5875H3.751ZM15.9293 8.54326H19.499L15.0707 16.5875H11.501L15.9293 8.54326ZM23.6793 8.54326H27.249L22.8207 16.5875H19.251L23.6793 8.54326Z" fill="url(#paint0_linear_174_6353)"/>
<defs>
<linearGradient id="paint0_linear_174_6353" x1="15.5" y1="0.499023" x2="15.5" y2="29.4583" gradientUnits="userSpaceOnUse">
<stop stop-color="white"/>
<stop offset="1" stop-color="#B9B9B9"/>
</linearGradient>
</defs>
</svg>
