<svg width="32" height="34" viewBox="0 0 32 34" fill="none" xmlns="http://www.w3.org/2000/svg">
<path d="M17.6 23.1694H8.00001C7.57566 23.1694 7.1687 23.3437 6.86864 23.654C6.56858 23.9642 6.40001 24.3851 6.40001 24.8239C6.40001 25.2627 6.56858 25.6835 6.86864 25.9938C7.1687 26.304 7.57566 26.4784 8.00001 26.4784H17.6C18.0244 26.4784 18.4313 26.304 18.7314 25.9938C19.0314 25.6835 19.2 25.2627 19.2 24.8239C19.2 24.3851 19.0314 23.9642 18.7314 23.654C18.4313 23.3437 18.0244 23.1694 17.6 23.1694ZM11.2 13.2425H14.4C14.8244 13.2425 15.2313 13.0682 15.5314 12.7579C15.8314 12.4476 16 12.0268 16 11.588C16 11.1492 15.8314 10.7284 15.5314 10.4181C15.2313 10.1078 14.8244 9.93349 14.4 9.93349H11.2C10.7757 9.93349 10.3687 10.1078 10.0686 10.4181C9.76858 10.7284 9.60001 11.1492 9.60001 11.588C9.60001 12.0268 9.76858 12.4476 10.0686 12.7579C10.3687 13.0682 10.7757 13.2425 11.2 13.2425ZM30.4 16.5514H25.6V1.66106C25.6011 1.36952 25.5277 1.08286 25.3872 0.83009C25.2468 0.577321 25.0442 0.367427 24.8 0.221659C24.5568 0.0764477 24.2809 0 24 0C23.7191 0 23.4432 0.0764477 23.2 0.221659L18.4 3.06737L13.6 0.221659C13.3568 0.0764477 13.0809 0 12.8 0C12.5191 0 12.2432 0.0764477 12 0.221659L7.20001 3.06737L2.40001 0.221659C2.15678 0.0764477 1.88087 0 1.60001 0C1.31915 0 1.04324 0.0764477 0.800012 0.221659C0.555845 0.367427 0.353263 0.577321 0.212778 0.83009C0.0722924 1.08286 -0.00110669 1.36952 1.26126e-05 1.66106V28.1328C1.26126e-05 29.4492 0.505725 30.7117 1.4059 31.6425C2.30607 32.5734 3.52697 33.0963 4.80001 33.0963H27.2C28.473 33.0963 29.6939 32.5734 30.5941 31.6425C31.4943 30.7117 32 29.4492 32 28.1328V18.2059C32 17.7671 31.8314 17.3463 31.5314 17.036C31.2313 16.7257 30.8243 16.5514 30.4 16.5514ZM4.80001 29.7873C4.37566 29.7873 3.9687 29.613 3.66864 29.3027C3.36858 28.9925 3.20001 28.5716 3.20001 28.1328V4.52332L6.40001 6.40944C6.64695 6.54281 6.92142 6.61246 7.20001 6.61246C7.47861 6.61246 7.75307 6.54281 8.00001 6.40944L12.8 3.56372L17.6 6.40944C17.8469 6.54281 18.1214 6.61246 18.4 6.61246C18.6786 6.61246 18.9531 6.54281 19.2 6.40944L22.4 4.52332V28.1328C22.4043 28.6973 22.5017 29.2568 22.688 29.7873H4.80001ZM28.8 28.1328C28.8 28.5716 28.6314 28.9925 28.3314 29.3027C28.0313 29.613 27.6243 29.7873 27.2 29.7873C26.7757 29.7873 26.3687 29.613 26.0686 29.3027C25.7686 28.9925 25.6 28.5716 25.6 28.1328V19.8604H28.8V28.1328ZM17.6 16.5514H8.00001C7.57566 16.5514 7.1687 16.7257 6.86864 17.036C6.56858 17.3463 6.40001 17.7671 6.40001 18.2059C6.40001 18.6447 6.56858 19.0655 6.86864 19.3758C7.1687 19.6861 7.57566 19.8604 8.00001 19.8604H17.6C18.0244 19.8604 18.4313 19.6861 18.7314 19.3758C19.0314 19.0655 19.2 18.6447 19.2 18.2059C19.2 17.7671 19.0314 17.3463 18.7314 17.036C18.4313 16.7257 18.0244 16.5514 17.6 16.5514Z" fill="url(#paint0_linear_754_4)"/>
<defs>
<linearGradient id="paint0_linear_754_4" x1="16" y1="0" x2="16" y2="33.0963" gradientUnits="userSpaceOnUse">
<stop stop-color="white"/>
<stop offset="1" stop-color="#B9B9B9"/>
</linearGradient>
</defs>
</svg>
