<svg width="32" height="34" viewBox="0 0 32 34" fill="none" xmlns="http://www.w3.org/2000/svg">
<path d="M31.5913 20.7304L28.7203 19.0725C29.0101 17.509 29.0101 15.905 28.7203 14.3415L31.5913 12.6836C31.9215 12.4949 32.0698 12.104 31.9619 11.7401C31.2139 9.34085 29.9401 7.17077 28.2755 5.36461C28.0194 5.0883 27.6016 5.0209 27.2781 5.20961L24.4071 6.8675C23.2007 5.82963 21.8124 5.02764 20.3095 4.50197V1.19293C20.3095 0.815529 20.0467 0.485299 19.676 0.404426C17.2027 -0.148203 14.6687 -0.121246 12.3166 0.404426C11.946 0.485299 11.6831 0.815529 11.6831 1.19293V4.50871C10.187 5.04112 8.79868 5.84311 7.58559 6.87423L4.72135 5.21635C4.39112 5.02764 3.98002 5.0883 3.72392 5.37135C2.05929 7.17077 0.785551 9.34085 0.037479 11.7468C-0.0770905 12.1107 0.0779153 12.5016 0.408145 12.6903L3.27912 14.3482C2.98933 15.9117 2.98933 17.5157 3.27912 19.0793L0.408145 20.7371C0.0779153 20.9258 -0.0703511 21.3167 0.037479 21.6807C0.785551 24.0799 2.05929 26.25 3.72392 28.0561C3.98002 28.3324 4.39786 28.3998 4.72135 28.2111L7.59233 26.5532C8.79868 27.5911 10.187 28.3931 11.6899 28.9188V32.2345C11.6899 32.6119 11.9527 32.9422 12.3234 33.023C14.7967 33.5757 17.3307 33.5487 19.6828 33.023C20.0534 32.9422 20.3163 32.6119 20.3163 32.2345V28.9188C21.8124 28.3863 23.2007 27.5844 24.4138 26.5532L27.2848 28.2111C27.615 28.3998 28.0261 28.3392 28.2822 28.0561C29.9469 26.2567 31.2206 24.0866 31.9687 21.6807C32.0698 21.31 31.9215 20.9191 31.5913 20.7304ZM15.9963 22.0985C13.0243 22.0985 10.6048 19.6791 10.6048 16.707C10.6048 13.7349 13.0243 11.3155 15.9963 11.3155C18.9684 11.3155 21.3878 13.7349 21.3878 16.707C21.3878 19.6791 18.9684 22.0985 15.9963 22.0985Z" fill="url(#paint0_linear_822_2)"/>
<defs>
<linearGradient id="paint0_linear_822_2" x1="16" y1="0" x2="16" y2="33.4275" gradientUnits="userSpaceOnUse">
<stop stop-color="white"/>
<stop offset="1" stop-color="#B9B9B9"/>
</linearGradient>
</defs>
</svg>
