<svg width="34" height="37" viewBox="0 0 34 37" fill="none" xmlns="http://www.w3.org/2000/svg">
<path d="M18.3915 36.9986H15.5807C14.8353 36.9986 14.1204 36.7005 13.5933 36.1699C13.0662 35.6392 12.77 34.9195 12.77 34.169L12.7744 26.5804C12.7745 26.5183 12.7584 26.4572 12.7276 26.4034C12.6968 26.3495 12.6524 26.3048 12.599 26.2737C12.5456 26.2426 12.4849 26.2262 12.4232 26.2262C12.3615 26.2262 12.3009 26.2425 12.2474 26.2736L5.7178 30.0812C5.08277 30.4502 4.32811 30.5503 3.61982 30.3592C2.91153 30.1682 2.30762 29.7018 1.94092 29.0625L0.491648 26.53L0.486378 26.5212C0.129556 25.8822 0.0360264 25.1277 0.225896 24.42C0.415765 23.7123 0.873874 23.1078 1.50175 22.7366L8.05508 18.9122C8.10833 18.8811 8.15252 18.8365 8.18324 18.7828C8.21396 18.7291 8.23013 18.6682 8.23013 18.6063C8.23013 18.5443 8.21396 18.4834 8.18324 18.4297C8.15252 18.376 8.10833 18.3314 8.05508 18.3003L1.50789 14.4795C1.19266 14.2975 0.916236 14.0546 0.694507 13.7648C0.472778 13.4749 0.310109 13.1439 0.215843 12.7905C0.121577 12.4372 0.0975705 12.0687 0.145203 11.706C0.192835 11.3433 0.311168 10.9937 0.493405 10.6772L1.9374 8.15266C2.11987 7.8335 2.36342 7.55395 2.65396 7.33022C2.9445 7.10649 3.27624 6.94302 3.62998 6.84927C3.97968 6.75479 4.34454 6.73115 4.70339 6.77973C5.06224 6.8283 5.40794 6.94812 5.72044 7.13223L12.2474 10.9345C12.3009 10.9656 12.3615 10.9819 12.4232 10.9819C12.4849 10.9819 12.5456 10.9655 12.599 10.9344C12.6524 10.9033 12.6968 10.8585 12.7276 10.8047C12.7584 10.7509 12.7745 10.6898 12.7744 10.6277L12.77 3.04346C12.77 2.29301 13.0662 1.57329 13.5933 1.04264C14.1204 0.511985 14.8353 0.213867 15.5807 0.213867H18.3915C19.1369 0.213867 19.8518 0.511985 20.3789 1.04264C20.906 1.57329 21.2022 2.29301 21.2022 3.04346V10.6233C21.2021 10.6854 21.2182 10.7464 21.249 10.8003C21.2798 10.8541 21.3242 10.8988 21.3776 10.93C21.431 10.9611 21.4917 10.9774 21.5534 10.9775C21.6151 10.9775 21.6757 10.9612 21.7292 10.9301L28.2588 7.12251C28.894 6.75414 29.6484 6.65452 30.3565 6.84549C31.0646 7.03647 31.6685 7.50244 32.0357 8.14116L33.4841 10.6737L33.4893 10.6816C33.8502 11.3213 33.9453 12.0787 33.7538 12.7886C33.5623 13.4986 33.0997 14.1035 32.4669 14.4715L25.9206 18.2915C25.8674 18.3226 25.8232 18.3672 25.7925 18.4209C25.7618 18.4746 25.7456 18.5354 25.7456 18.5974C25.7456 18.6594 25.7618 18.7203 25.7925 18.7739C25.8232 18.8276 25.8674 18.8723 25.9206 18.9034L32.4669 22.7233C32.7822 22.9053 33.0586 23.1482 33.2803 23.438C33.5021 23.7278 33.6648 24.0588 33.7591 24.4121C33.8535 24.7654 33.8776 25.134 33.8301 25.4967C33.7826 25.8593 33.6644 26.209 33.4823 26.5256L32.0383 29.0501C31.8558 29.3693 31.6123 29.6488 31.3218 29.8726C31.0312 30.0963 30.6995 30.2598 30.3457 30.3535C29.996 30.448 29.6312 30.4716 29.2723 30.423C28.9135 30.3745 28.5678 30.2547 28.2553 30.0705L21.7283 26.2683C21.6749 26.2372 21.6144 26.2209 21.5527 26.2209C21.4911 26.2209 21.4305 26.2372 21.3771 26.2682C21.3237 26.2992 21.2793 26.3438 21.2485 26.3975C21.2176 26.4512 21.2013 26.5122 21.2013 26.5742L21.2022 34.169C21.2022 34.9195 20.906 35.6392 20.3789 36.1699C19.8518 36.7005 19.1369 36.9986 18.3915 36.9986Z" fill="url(#paint0_linear_442_16)"/>
<defs>
<linearGradient id="paint0_linear_442_16" x1="16.9876" y1="0.213867" x2="16.9876" y2="36.9986" gradientUnits="userSpaceOnUse">
<stop stop-color="white"/>
<stop offset="1" stop-color="#B9B9B9"/>
</linearGradient>
</defs>
</svg>
