<svg width="20" height="23" viewBox="0 0 20 23" fill="none" xmlns="http://www.w3.org/2000/svg">
<path d="M9.73099 11.1211C12.8023 11.1211 15.2916 8.63191 15.2916 5.56056C15.2916 2.48922 12.8023 0 9.73099 0C6.65964 0 4.17042 2.48922 4.17042 5.56056C4.17042 8.63191 6.65964 11.1211 9.73099 11.1211ZM13.6234 12.5113H12.8979C11.9335 12.9544 10.8605 13.2063 9.73099 13.2063C8.6015 13.2063 7.53283 12.9544 6.56407 12.5113H5.83859C2.6152 12.5113 0 15.1265 0 18.3499V20.157C0 21.3083 0.934001 22.2423 2.08521 22.2423H17.3768C18.528 22.2423 19.462 21.3083 19.462 20.157V18.3499C19.462 15.1265 16.8468 12.5113 13.6234 12.5113Z" fill="url(#paint0_linear_1250_8)"/>
<defs>
<linearGradient id="paint0_linear_1250_8" x1="9.73099" y1="0" x2="9.73099" y2="22.2423" gradientUnits="userSpaceOnUse">
<stop stop-color="white"/>
<stop offset="1" stop-color="#BEBEBE"/>
</linearGradient>
</defs>
</svg>
