<svg width="29" height="36" viewBox="0 0 29 36" fill="none" xmlns="http://www.w3.org/2000/svg">
<path d="M12.5263 0.5L14.3158 4.20156H25.0526L26.8421 0.5H12.5263ZM14.3158 6.05234V9.7539C14.3158 12.8203 16.7194 15.3062 19.6842 15.3062C22.649 15.3062 25.0526 12.8203 25.0526 9.7539V6.05234H14.3158ZM2.68421 9.7539C0 9.7539 0 12.5301 0 12.5301V23.6347C0.00214737 25.5077 1.76013 26.8414 3.48804 26.2806L10.7368 23.9168V35.6648L25.0526 17.157H14.3158C14.3158 17.157 13.6197 17.157 12.799 17.4246L5.36842 19.8466V12.5301C5.36842 12.5301 5.36842 9.7539 2.68421 9.7539ZM27.8138 18.5958L14.3158 35.6648H28.6316V20.8586C28.6316 19.988 28.2966 19.2266 27.8138 18.5958Z" fill="url(#paint0_linear_174_6407)"/>
<defs>
<linearGradient id="paint0_linear_174_6407" x1="14.3158" y1="0.5" x2="14.3158" y2="35.6648" gradientUnits="userSpaceOnUse">
<stop stop-color="white"/>
<stop offset="1" stop-color="#B9B9B9"/>
</linearGradient>
</defs>
</svg>
