<svg width="25" height="25" viewBox="0 0 25 25" fill="none" xmlns="http://www.w3.org/2000/svg">
<path d="M24.253 4.35234L19.158 9.4477L15.5512 5.84063L20.6444 0.747058C19.2183 0.0659139 17.6163 -0.156877 16.0585 0.109296C14.5007 0.375469 13.0635 1.11754 11.9444 2.23356C10.9968 3.18336 10.3156 4.36565 9.96906 5.66184C9.62255 6.95803 9.62293 8.32256 9.97017 9.61856L1.12397 18.4654C-0.374657 19.9641 -0.374657 22.3772 1.12397 23.8759C2.6226 25.3747 5.03556 25.3747 6.53419 23.8759L15.3821 15.0274C16.6776 15.3745 18.0416 15.375 19.3374 15.0288C20.6331 14.6826 21.8151 14.0018 22.7648 13.0548C23.8814 11.9357 24.624 10.4982 24.8905 8.93985C25.157 7.38154 24.9343 5.77892 24.253 4.35234Z" fill="url(#paint0_linear_446_988)"/>
<defs>
<linearGradient id="paint0_linear_446_988" x1="12.5" y1="0" x2="12.5" y2="25" gradientUnits="userSpaceOnUse">
<stop stop-color="white"/>
<stop offset="0.9998" stop-color="#BEBEBE"/>
<stop offset="0.9999" stop-color="white" stop-opacity="0.0994475"/>
<stop offset="1" stop-color="white" stop-opacity="0"/>
</linearGradient>
</defs>
</svg>
