<svg width="26" height="30" viewBox="0 0 26 30" fill="none" xmlns="http://www.w3.org/2000/svg">
<path d="M13.5007 5.99902C13.7768 5.99902 14.0007 5.77516 14.0007 5.49902C14.0007 5.22287 13.7768 4.99902 13.5007 4.99902C13.2246 4.99902 13.0007 5.22287 13.0007 5.49902C13.0007 5.77516 13.2246 5.99902 13.5007 5.99902Z" fill="url(#paint0_linear_1012_63)"/>
<path d="M21.0007 7.99902C21.0007 8.5513 20.553 8.99901 20.0007 8.99901C19.4484 8.99901 19.0007 8.5513 19.0007 7.99902C19.0007 7.44673 19.4484 6.99902 20.0007 6.99902C20.553 6.99902 21.0007 7.44673 21.0007 7.99902Z" fill="url(#paint1_linear_1012_63)"/>
<path d="M19.5007 13C20.3291 13 21.0007 12.3284 21.0007 11.5C21.0007 10.6716 20.3291 10 19.5007 10C18.6723 10 18.0007 10.6716 18.0007 11.5C18.0007 12.3284 18.6723 13 19.5007 13Z" fill="url(#paint2_linear_1012_63)"/>
<path d="M12.5007 18C13.3291 18 14.0007 17.3284 14.0007 16.5C14.0007 15.6716 13.3291 15 12.5007 15C11.6723 15 11.0007 15.6716 11.0007 16.5C11.0007 17.3284 11.6723 18 12.5007 18Z" fill="url(#paint3_linear_1012_63)"/>
<path d="M8.00073 15.5C8.00073 16.3284 7.32913 17 6.50073 17C5.6723 17 5.00073 16.3284 5.00073 15.5C5.00073 14.6716 5.6723 14 6.50073 14C7.32913 14 8.00073 14.6716 8.00073 15.5Z" fill="url(#paint4_linear_1012_63)"/>
<path d="M17.0007 16C17.553 16 18.0007 15.5523 18.0007 15C18.0007 14.4477 17.553 14 17.0007 14C16.4484 14 16.0007 14.4477 16.0007 15C16.0007 15.5523 16.4484 16 17.0007 16Z" fill="url(#paint5_linear_1012_63)"/>
<path d="M13.0007 13C13.553 13 14.0007 12.5523 14.0007 12C14.0007 11.4477 13.553 11 13.0007 11C12.4484 11 12.0007 11.4477 12.0007 12C12.0007 12.5523 12.4484 13 13.0007 13Z" fill="url(#paint6_linear_1012_63)"/>
<path d="M9.0007 12C9.0007 12.5523 8.553 13 8.0007 13C7.4484 13 7.0007 12.5523 7.0007 12C7.0007 11.4477 7.4484 11 8.0007 11C8.553 11 9.0007 11.4477 9.0007 12Z" fill="url(#paint7_linear_1012_63)"/>
<path d="M5.50073 20.001C5.77687 20.001 6.00073 19.7771 6.00073 19.501C6.00073 19.2249 5.77687 19.001 5.50073 19.001C5.22459 19.001 5.00073 19.2249 5.00073 19.501C5.00073 19.7771 5.22459 20.001 5.50073 20.001Z" fill="url(#paint8_linear_1012_63)"/>
<path d="M12.0007 20.999C12.0007 21.5513 11.553 21.999 11.0007 21.999C10.4484 21.999 10.0007 21.5513 10.0007 20.999C10.0007 20.4467 10.4484 19.999 11.0007 19.999C11.553 19.999 12.0007 20.4467 12.0007 20.999Z" fill="url(#paint9_linear_1012_63)"/>
<path d="M16.0007 8.5C16.0007 8.77614 15.7768 8.99999 15.5007 8.99999C15.2246 8.99999 15.0007 8.77614 15.0007 8.5C15.0007 8.22385 15.2246 8 15.5007 8C15.7768 8 16.0007 8.22385 16.0007 8.5Z" fill="url(#paint10_linear_1012_63)"/>
<path d="M15.4444 0.00663098C16.9604 0.0861709 18.2743 0.86835 19.1357 1.76858L24.7842 7.44034C25.7181 8.39021 26.0436 9.66292 25.9948 10.8983L26 14.9726V14.9738C26 15.3164 25.9557 15.6984 25.7876 16.1178C25.6229 16.5287 25.36 16.9245 24.9893 17.3315C24.2666 18.125 23.0424 19.0581 21.0294 20.3139C20.5001 20.6441 19.9229 21.227 19.2943 22.0165C18.6731 22.7968 18.0578 23.7052 17.4268 24.638L17.4169 24.6525C16.8922 25.4281 16.355 26.2222 15.8211 26.9199C15.2891 27.615 14.7177 28.2723 14.112 28.7407C13.5486 29.1762 12.3863 29.74 11.0797 29.9319C9.74882 30.1273 8.09462 29.9555 6.79406 28.6573C5.76932 27.6344 4.64096 26.372 3.65113 25.2553L3.35647 24.9227C2.47719 23.9298 1.75246 23.1115 1.30578 22.6799C0.552762 21.9521 0.250383 20.9585 0.119223 20.2636C0.0505831 19.8999 0.0212332 19.5763 0.00882321 19.3428C0.00257322 19.2253 0.000513283 19.1287 9.32838e-05 19.0589C-0.000126716 19.024 7.31873e-05 18.9957 0.000373187 18.9746L0.000743212 18.9544L0.00545317 15.8755C-0.000126828 15.7129 0.000333223 15.5523 0.00619322 15.3943L0.00621324 15.3807C0.0464432 14.3509 0.316013 13.4302 0.634482 12.7825C1.44042 11.1434 2.91104 10.2472 4.53583 9.30322C6.87807 7.94226 7.78792 6.63309 9.04432 4.82536C9.55202 4.09487 10.1162 3.28295 10.8545 2.35331C12.2382 0.61083 13.8669 -0.0761359 15.4444 0.00663098ZM2.0055 15.8481C2.04982 16.7467 2.36307 17.7198 3.15715 18.5531C4.14776 19.5926 5.02763 20.6206 5.79276 21.5261L6.0961 21.8856C6.73686 22.6454 7.27632 23.285 7.74302 23.7748L7.78652 23.8204L7.82392 23.8712C8.36332 24.6027 9.13622 24.9229 9.96162 24.9877C10.8128 25.0546 11.6249 24.8376 12.0649 24.6027C12.4687 24.3871 13.1111 23.7775 13.8827 22.7331C14.6286 21.7232 15.4214 20.4091 16.1522 18.9225C16.8088 17.5869 17.8946 16.5279 18.9369 15.7733C19.973 15.0233 21.0603 14.5065 21.8185 14.3137C22.5981 14.1155 23.4181 13.2226 23.8035 11.9486C23.9117 11.5909 23.9748 11.2392 23.9949 10.9039L23.9943 10.4338C23.952 9.78572 23.7345 9.22662 23.3601 8.84463L23.358 8.84253L17.7034 3.16466L17.6958 3.15668C17.1037 2.53532 16.2411 2.05119 15.3396 2.00388C14.4948 1.95956 13.4592 2.28933 12.4207 3.59706C11.8387 4.32995 11.3453 5.03983 10.8675 5.7273C9.51712 7.67031 8.29122 9.43422 5.54061 11.0325C3.85032 12.0146 2.93076 12.645 2.42926 13.665C2.21421 14.1024 2.04003 14.7091 2.00621 15.3838L2.0055 15.8481Z" fill="url(#paint11_linear_1012_63)"/>
<defs>
<linearGradient id="paint0_linear_1012_63" x1="13.5007" y1="4.99902" x2="13.5007" y2="5.99902" gradientUnits="userSpaceOnUse">
<stop stop-color="white"/>
<stop offset="1" stop-color="#BEBEBE"/>
</linearGradient>
<linearGradient id="paint1_linear_1012_63" x1="20.0007" y1="6.99902" x2="20.0007" y2="8.99901" gradientUnits="userSpaceOnUse">
<stop stop-color="white"/>
<stop offset="1" stop-color="#BEBEBE"/>
</linearGradient>
<linearGradient id="paint2_linear_1012_63" x1="19.5007" y1="10" x2="19.5007" y2="13" gradientUnits="userSpaceOnUse">
<stop stop-color="white"/>
<stop offset="1" stop-color="#BEBEBE"/>
</linearGradient>
<linearGradient id="paint3_linear_1012_63" x1="12.5007" y1="15" x2="12.5007" y2="18" gradientUnits="userSpaceOnUse">
<stop stop-color="white"/>
<stop offset="1" stop-color="#BEBEBE"/>
</linearGradient>
<linearGradient id="paint4_linear_1012_63" x1="6.50073" y1="14" x2="6.50073" y2="17" gradientUnits="userSpaceOnUse">
<stop stop-color="white"/>
<stop offset="1" stop-color="#BEBEBE"/>
</linearGradient>
<linearGradient id="paint5_linear_1012_63" x1="17.0007" y1="14" x2="17.0007" y2="16" gradientUnits="userSpaceOnUse">
<stop stop-color="white"/>
<stop offset="1" stop-color="#BEBEBE"/>
</linearGradient>
<linearGradient id="paint6_linear_1012_63" x1="13.0007" y1="11" x2="13.0007" y2="13" gradientUnits="userSpaceOnUse">
<stop stop-color="white"/>
<stop offset="1" stop-color="#BEBEBE"/>
</linearGradient>
<linearGradient id="paint7_linear_1012_63" x1="8.0007" y1="11" x2="8.0007" y2="13" gradientUnits="userSpaceOnUse">
<stop stop-color="white"/>
<stop offset="1" stop-color="#BEBEBE"/>
</linearGradient>
<linearGradient id="paint8_linear_1012_63" x1="5.50073" y1="19.001" x2="5.50073" y2="20.001" gradientUnits="userSpaceOnUse">
<stop stop-color="white"/>
<stop offset="1" stop-color="#BEBEBE"/>
</linearGradient>
<linearGradient id="paint9_linear_1012_63" x1="11.0007" y1="19.999" x2="11.0007" y2="21.999" gradientUnits="userSpaceOnUse">
<stop stop-color="white"/>
<stop offset="1" stop-color="#BEBEBE"/>
</linearGradient>
<linearGradient id="paint10_linear_1012_63" x1="15.5007" y1="8" x2="15.5007" y2="8.99999" gradientUnits="userSpaceOnUse">
<stop stop-color="white"/>
<stop offset="1" stop-color="#BEBEBE"/>
</linearGradient>
<linearGradient id="paint11_linear_1012_63" x1="13" y1="0" x2="13" y2="29.9995" gradientUnits="userSpaceOnUse">
<stop stop-color="white"/>
<stop offset="1" stop-color="#BEBEBE"/>
</linearGradient>
</defs>
</svg>
