<svg width="33" height="32" viewBox="0 0 33 32" fill="none" xmlns="http://www.w3.org/2000/svg">
<path d="M0.0224252 31.9165C0.0493752 31.872 0.724209 30.7895 1.52204 29.5119L2.97264 27.1889L3.82464 26.3234L4.67664 25.4577L3.95863 24.7202C3.56373 24.3143 3.20326 23.9105 3.15758 23.8225C3.02066 23.5588 3.04483 23.0292 3.20568 22.7699C3.28304 22.645 4.65936 21.2192 6.26414 19.6012L9.18194 16.6595L8.06113 15.5115C7.08401 14.5108 6.93115 14.326 6.86867 14.0692C6.7493 13.5788 6.92796 12.982 7.27705 12.7047C7.67374 12.3896 8.3465 12.3586 8.75144 12.6353C8.86606 12.713 11.6001 15.439 14.827 18.6908L20.6941 24.6033L25.3288 19.9251L29.9635 15.2467L28.7654 14.0362L27.5672 12.8254L26.7077 13.6912L25.8481 14.5569L26.4144 15.1312L26.9806 15.7055L23.9996 18.7146L21.0187 21.7241L19.284 19.9743L17.5493 18.2242L20.5311 15.2145L23.5129 12.2048L24.2269 12.9231L24.9409 13.6418L25.7992 12.7755L26.6574 11.9092L24.5836 9.81517C23.443 8.66353 22.4809 7.72118 22.4455 7.72118C22.4101 7.72118 22.0089 8.09618 21.5539 8.55445L20.7265 9.38771L21.3094 9.97838L21.8922 10.5691L18.9105 13.5782L15.9288 16.5873L14.1949 14.8373L12.461 13.0872L15.4423 10.0775L18.4235 7.06778L19.1059 7.75449C19.4813 8.13198 19.8175 8.4412 19.8531 8.4412C19.9355 8.4412 21.5042 6.8571 21.5042 6.77383C21.5042 6.74052 21.0248 6.2248 20.439 5.62996C19.8531 5.03457 19.3426 4.465 19.3045 4.36341C19.2072 4.10527 19.2183 3.5901 19.3268 3.32863C19.5468 2.79874 20.211 2.48786 20.8114 2.63414C21.054 2.69243 21.4868 3.10712 24.8894 6.53234C26.983 8.64022 28.7115 10.3489 28.7304 10.3301C28.7493 10.3023 28.8258 10.0608 28.9004 9.77715C29.0924 9.0438 29.1373 7.64457 28.9966 6.77911C28.6666 4.74923 27.7692 3.40468 26.0466 2.35852C25.3475 1.93411 25.2 1.0309 25.7302 0.421352C25.979 0.135455 26.2879 0 26.6917 0C27.5139 0 29.2021 1.31763 30.087 2.64997C31.1247 4.21269 31.6177 5.94889 31.6172 8.03872C31.6168 9.6081 31.349 10.8952 30.8167 11.8872L30.6002 12.2905L31.6967 13.3922C32.2997 13.9982 32.8396 14.5822 32.8963 14.6901C33.038 14.9594 33.0338 15.5495 32.8881 15.8351C32.73 16.1452 21.6033 27.3909 21.2937 27.5536C20.9886 27.7146 20.5123 27.7285 20.1751 27.5869C19.9902 27.5092 19.2781 26.8355 17.6949 25.2406L15.474 23.0031L12.5734 25.9212C10.9781 27.5264 9.58534 28.8984 9.47837 28.9706C9.212 29.151 8.85266 29.2065 8.52636 29.1177C8.30578 29.0594 8.0833 28.8734 7.37188 28.1679L6.49064 27.2924L5.68308 28.1098L4.87553 28.9276L2.46662 30.4639C1.14173 31.3086 0.0387247 32 0.0155146 32C-0.00758536 32 -0.00456053 31.9639 0.0223895 31.9195L0.0224252 31.9165Z" fill="url(#paint0_linear_509_206)"/>
<defs>
<linearGradient id="paint0_linear_509_206" x1="16.5" y1="0" x2="16.5" y2="32" gradientUnits="userSpaceOnUse">
<stop stop-color="white"/>
<stop offset="1" stop-color="#BEBEBE"/>
</linearGradient>
</defs>
</svg>
