<svg width="29" height="26" viewBox="0 0 29 26" fill="none" xmlns="http://www.w3.org/2000/svg">
<path d="M26.168 12.1666L24.9219 7.24286C24.3781 5.2 22.5656 3.71429 20.5719 3.71429H19.9375V1.85714C19.9375 0.831652 19.1258 0 18.125 0H10.875C9.87416 0 9.0625 0.831652 9.0625 1.85714V3.71429H8.42813C6.43438 3.71429 4.62187 5.2 4.07812 7.24286L2.83203 12.1666C1.21268 12.538 0 14.0139 0 15.7857V18.5714C0 19.9428 0.733496 21.1273 1.8125 21.7704V24.1429C1.8125 25.1683 2.62416 26 3.625 26H5.4375C6.43834 26 7.25 25.1683 7.25 24.1429V22.2857H21.75V24.1429C21.75 25.1683 22.5617 26 23.5625 26H25.375C26.3758 26 27.1875 25.1683 27.1875 24.1429V21.7704C28.2665 21.1267 29 19.9422 29 18.5714V15.7857C29 14.0139 27.7873 12.538 26.168 12.1666ZM5.4375 18.5714C4.43666 18.5714 3.625 17.7398 3.625 16.7143C3.625 15.6888 4.43666 14.8571 5.4375 14.8571C6.43834 14.8571 7.25 15.6888 7.25 16.7143C7.25 17.7398 6.43834 18.5714 5.4375 18.5714ZM6.60147 12.0714L7.57568 8.22018C7.70199 7.74661 8.11887 7.42857 8.42869 7.42857H20.5724C20.8823 7.42857 21.2991 7.74661 21.4136 8.17491L22.3985 12.0714H6.60147ZM23.5625 18.5714C22.5617 18.5714 21.75 17.7398 21.75 16.7143C21.75 15.6888 22.5617 14.8571 23.5625 14.8571C24.5633 14.8571 25.375 15.6888 25.375 16.7143C25.375 17.7398 24.5633 18.5714 23.5625 18.5714Z" fill="url(#paint0_linear_446_762)"/>
<defs>
<linearGradient id="paint0_linear_446_762" x1="14.5" y1="0" x2="14.5" y2="26" gradientUnits="userSpaceOnUse">
<stop stop-color="white"/>
<stop offset="0.9999" stop-color="#B2B2B2"/>
<stop offset="1" stop-color="white" stop-opacity="0"/>
</linearGradient>
</defs>
</svg>
