<svg width="25" height="23" viewBox="0 0 25 23" fill="none" xmlns="http://www.w3.org/2000/svg">
<path d="M5.09259 7.88857C5.0926 7.5129 5.23893 7.15262 5.4994 6.88698C5.75986 6.62134 6.11313 6.4721 6.48148 6.47209H18.5185C18.8869 6.47209 19.2401 6.62132 19.5006 6.88697C19.7611 7.15261 19.9074 7.5129 19.9074 7.88857C19.9074 8.26425 19.7611 8.62454 19.5006 8.89018C19.2401 9.15582 18.8869 9.30506 18.5185 9.30506H6.48148C6.11313 9.30505 5.75986 9.15581 5.4994 8.89017C5.23893 8.62453 5.0926 8.26425 5.09259 7.88857ZM6.48148 14.0267H18.5185C18.8869 14.0267 19.2401 13.8774 19.5006 13.6118C19.7611 13.3462 19.9074 12.9859 19.9074 12.6102C19.9074 12.2345 19.7611 11.8742 19.5006 11.6086C19.2401 11.3429 18.8869 11.1937 18.5185 11.1937H6.48148C6.11313 11.1937 5.75986 11.3429 5.49939 11.6086C5.23892 11.8742 5.09259 12.2345 5.09259 12.6102C5.09259 12.9859 5.23892 13.3462 5.49939 13.6118C5.75986 13.8774 6.11313 14.0267 6.48148 14.0267ZM25 2.69479V20.6369C25 20.8784 24.9395 21.1158 24.8242 21.3267C24.7089 21.5376 24.5427 21.7149 24.3413 21.8419C24.1399 21.9688 23.9101 22.0411 23.6736 22.052C23.4371 22.0628 23.2018 22.0118 22.99 21.9039L19.9074 20.332L16.8248 21.9039C16.632 22.0022 16.4193 22.0534 16.2037 22.0534C15.9881 22.0534 15.7754 22.0022 15.5826 21.9039L12.5 20.332L9.41739 21.9039C9.22455 22.0022 9.0119 22.0534 8.7963 22.0534C8.58069 22.0534 8.36804 22.0022 8.17521 21.9039L5.09259 20.332L2.00998 21.9039C1.79823 22.0118 1.56293 22.0628 1.32643 22.052C1.08993 22.0411 0.860068 21.9688 0.658682 21.8419C0.457296 21.7149 0.29107 21.5376 0.175787 21.3267C0.0605046 21.1158 -6.61387e-06 20.8784 5.42202e-10 20.6369V2.69479C0.000692325 2.06888 0.244796 1.46881 0.678758 1.02623C1.11272 0.583645 1.7011 0.33469 2.31481 0.333984H22.6852C23.2989 0.33469 23.8873 0.583645 24.3212 1.02623C24.7552 1.46881 24.9993 2.06888 25 2.69479ZM22.2222 3.16696H2.77778V18.345L4.4715 17.4814C4.66434 17.383 4.87698 17.3318 5.09259 17.3318C5.3082 17.3318 5.52085 17.383 5.71368 17.4814L8.7963 19.0533L11.8789 17.4814C12.0717 17.383 12.2844 17.3318 12.5 17.3318C12.7156 17.3318 12.9283 17.383 13.1211 17.4814L16.2037 19.0533L19.2863 17.4814C19.4792 17.383 19.6918 17.3318 19.9074 17.3318C20.123 17.3318 20.3357 17.383 20.5285 17.4814L22.2222 18.345V3.16696Z" fill="url(#paint0_linear_174_6372)"/>
<defs>
<linearGradient id="paint0_linear_174_6372" x1="12.5" y1="0.333984" x2="12.5" y2="22.0534" gradientUnits="userSpaceOnUse">
<stop stop-color="white"/>
<stop offset="1" stop-color="#B9B9B9"/>
</linearGradient>
</defs>
</svg>
