<svg width="34" height="37" viewBox="0 0 34 37" fill="none" xmlns="http://www.w3.org/2000/svg">
<path d="M32.1201 11.1285V27.1308C32.1201 27.4346 31.8723 27.6826 31.5707 27.6826H31.0214H30.4721V15.5429H3.5543V27.6826H3.00495H2.4556C2.15359 27.6826 1.90625 27.4346 1.90625 27.1308V11.1285C1.90625 5.63865 6.32831 1.19629 11.7944 1.19629H22.2321C27.6975 1.19629 32.1201 5.63865 32.1201 11.1285Z" fill="white"/>
<path opacity="0.2" d="M3.5543 11.1285C3.5543 5.63865 7.97635 1.19629 13.4424 1.19629H11.7944C6.32831 1.19629 1.90625 5.63865 1.90625 11.1285V27.1308C1.90625 27.4346 2.15359 27.6826 2.4556 27.6826H3.00495H3.5543V27.1308V15.5429V11.1285Z" fill="white"/>
<path opacity="0.2" d="M30.4741 11.1285C30.4741 5.63865 26.0514 1.19629 20.5859 1.19629H22.234C27.6994 1.19629 32.122 5.63865 32.122 11.1285V27.1308C32.122 27.4346 31.8742 27.6826 31.5727 27.6826H31.0234H30.4741V27.1308V15.5429V11.1285Z" fill="black"/>
<path d="M30.4725 27.6827V32.097C30.4725 33.7523 28.8245 35.9594 17.0135 35.9594C5.20267 35.9594 3.55469 33.7523 3.55469 32.097V27.6827V15.543H30.4725V27.6827Z" fill="#8AB3FF"/>
<path d="M33.2159 14.9903V20.5085C33.2159 20.8124 32.9681 21.0603 32.6665 21.0603H32.1172V14.4385H32.6665C32.9681 14.4385 33.2159 14.687 33.2159 14.9903Z" fill="white"/>
<path d="M1.91113 14.4385V21.0603H1.87816H1.39482H1.36185C1.05984 21.0603 0.8125 20.8124 0.8125 20.5085V14.9903C0.8125 14.687 1.05984 14.4385 1.36185 14.4385H1.91113V14.4385Z" fill="white"/>
<path opacity="0.2" d="M1.35938 14.4385H1.90872V21.0603H1.35938V14.4385Z" fill="black"/>
<path opacity="0.2" d="M32.1172 14.4385H32.6665V21.0603H32.1172V14.4385Z" fill="black"/>
<path opacity="0.3" d="M11.5 35.7537C12.7862 35.8636 14.2738 35.9336 15.9966 35.953L21.4412 15.543H16.8915L11.5 35.7537Z" fill="white"/>
<path opacity="0.3" d="M22.0157 15.543L16.5703 35.9563C16.7205 35.9574 16.8651 35.9595 17.0188 35.9595C17.0598 35.9595 17.0976 35.9584 17.1384 35.9584L22.5843 15.543H22.0157Z" fill="white"/>
<path d="M1.90749 11.3601C1.75569 11.3601 1.63281 11.2366 1.63281 11.0842C1.63281 5.45521 6.19169 0.875977 11.7956 0.875977C11.9474 0.875977 12.0703 0.999404 12.0703 1.15188C12.0703 1.30442 11.9474 1.42778 11.7956 1.42778C6.4948 1.42778 2.18216 5.75968 2.18216 11.0842C2.18216 11.2366 2.05928 11.3601 1.90749 11.3601Z" fill="black"/>
<path d="M32.1159 11.3601C31.9635 11.3601 31.8413 11.2366 31.8413 11.0842C31.8413 5.75968 27.5281 1.42778 22.2278 1.42778C22.0754 1.42778 21.9531 1.30442 21.9531 1.15188C21.9531 0.999404 22.0754 0.875977 22.2278 0.875977C27.8317 0.875977 32.3905 5.45522 32.3905 11.0842C32.3905 11.2366 32.2672 11.3601 32.1159 11.3601Z" fill="black"/>
<path d="M22.2279 1.42778H11.7903C11.6384 1.42778 11.5156 1.30442 11.5156 1.15188C11.5156 0.999404 11.6384 0.875977 11.7903 0.875977H22.228C22.3792 0.875977 22.5027 0.999404 22.5027 1.15188C22.5026 1.30442 22.3792 1.42778 22.2279 1.42778Z" fill="black"/>
<path d="M32.1184 27.3624C31.966 27.3624 31.8438 27.2389 31.8438 27.0865V11.0845C31.8438 10.932 31.966 10.8086 32.1184 10.8086C32.2697 10.8086 32.393 10.932 32.393 11.0845V27.0865C32.393 27.2389 32.2697 27.3624 32.1184 27.3624Z" fill="black"/>
<path d="M1.90749 27.3624C1.75569 27.3624 1.63281 27.2389 1.63281 27.0865V11.0845C1.63281 10.932 1.75569 10.8086 1.90749 10.8086C2.05928 10.8086 2.18216 10.932 2.18216 11.0845V27.0865C2.18216 27.2389 2.05928 27.3624 1.90749 27.3624Z" fill="black"/>
<path d="M3.00371 27.9141H2.45436C2.30257 27.9141 2.17969 27.7907 2.17969 27.6382C2.17969 27.4857 2.30257 27.3623 2.45436 27.3623H3.00371C3.15551 27.3623 3.27838 27.4857 3.27838 27.6382C3.27838 27.7907 3.15551 27.9141 3.00371 27.9141Z" fill="black"/>
<path d="M30.47 32.3276C30.3176 32.3276 30.1953 32.2043 30.1953 32.0517V15.4986C30.1953 15.3461 30.3176 15.2227 30.47 15.2227C30.6212 15.2227 30.7447 15.3461 30.7447 15.4986V32.0518C30.7447 32.2043 30.6212 32.3276 30.47 32.3276Z" fill="black"/>
<path d="M3.54811 32.3276C3.39625 32.3276 3.27344 32.2043 3.27344 32.0517V15.4986C3.27344 15.3461 3.39625 15.2227 3.54811 15.2227C3.69991 15.2227 3.82279 15.3461 3.82279 15.4986V32.0518C3.82272 32.2043 3.69991 32.3276 3.54811 32.3276Z" fill="black"/>
<path d="M31.574 27.9141H31.0247C30.8723 27.9141 30.75 27.7907 30.75 27.6382C30.75 27.4857 30.8723 27.3623 31.0247 27.3623H31.574C31.7253 27.3623 31.8487 27.4857 31.8487 27.6382C31.8487 27.7907 31.7253 27.9141 31.574 27.9141Z" fill="black"/>
<path d="M2.45684 27.9142C2.00248 27.9142 1.63281 27.5428 1.63281 27.0864C1.63281 26.9339 1.75569 26.8105 1.90749 26.8105C2.05928 26.8105 2.18216 26.9339 2.18216 27.0864C2.18216 27.2384 2.30531 27.3623 2.45684 27.3623C2.60863 27.3623 2.73151 27.4857 2.73151 27.6383C2.73151 27.7907 2.60863 27.9142 2.45684 27.9142Z" fill="black"/>
<path d="M31.5715 27.9142C31.4191 27.9142 31.2969 27.7907 31.2969 27.6383C31.2969 27.4857 31.4191 27.3623 31.5715 27.3623C31.7228 27.3623 31.8462 27.2384 31.8462 27.0864C31.8462 26.9339 31.9685 26.8105 32.1208 26.8105C32.2721 26.8105 32.3955 26.9339 32.3955 27.0864C32.3955 27.5428 32.0254 27.9142 31.5715 27.9142Z" fill="black"/>
<path d="M17.0069 36.1907C7.63725 36.1907 3.27344 34.8759 3.27344 32.0523C3.27344 31.8998 3.39625 31.7764 3.54811 31.7764C3.69991 31.7764 3.82279 31.8998 3.82279 32.0523C3.82279 34.4324 8.25858 35.6389 17.0069 35.6389C25.7553 35.6389 30.1913 34.4324 30.1913 32.0523C30.1913 31.8998 30.3136 31.7764 30.466 31.7764C30.6172 31.7764 30.7407 31.8998 30.7407 32.0523C30.7406 34.8759 26.3764 36.1907 17.0069 36.1907Z" fill="black"/>
<path d="M30.4659 15.7745H3.54811C3.39625 15.7745 3.27344 15.651 3.27344 15.4986C3.27344 15.3461 3.39625 15.2227 3.54811 15.2227H30.4659C30.6172 15.2227 30.7406 15.3461 30.7406 15.4986C30.7406 15.651 30.6172 15.7745 30.4659 15.7745Z" fill="black"/>
<path d="M30.4659 14.6709H3.54811C3.39625 14.6709 3.27344 14.5475 3.27344 14.395C3.27344 14.2426 3.39625 14.1191 3.54811 14.1191H30.4659C30.6172 14.1191 30.7406 14.2426 30.7406 14.395C30.7406 14.5475 30.6172 14.6709 30.4659 14.6709Z" fill="black"/>
<path d="M0.805924 15.2232C0.654129 15.2232 0.53125 15.0999 0.53125 14.9473C0.53125 14.4907 0.901123 14.1191 1.35575 14.1191C1.50755 14.1191 1.63043 14.2426 1.63043 14.395C1.63043 14.5475 1.50762 14.6709 1.35575 14.6709C1.20389 14.6709 1.08053 14.7949 1.08053 14.9473C1.0806 15.0998 0.95772 15.2232 0.805924 15.2232Z" fill="black"/>
<path d="M1.35527 21.292C0.900848 21.292 0.53125 20.9207 0.53125 20.4643C0.53125 20.3118 0.65406 20.1885 0.805924 20.1885C0.957788 20.1885 1.0806 20.3118 1.0806 20.4643C1.0806 20.6163 1.20368 20.7402 1.35527 20.7402C1.50707 20.7402 1.62995 20.8636 1.62995 21.0161C1.62988 21.1687 1.50707 21.292 1.35527 21.292Z" fill="black"/>
<path d="M0.805924 20.7401C0.654129 20.7401 0.53125 20.6167 0.53125 20.4642V14.9468C0.53125 14.7943 0.65406 14.6709 0.805924 14.6709C0.957788 14.6709 1.0806 14.7943 1.0806 14.9468V20.4642C1.0806 20.6167 0.95772 20.7401 0.805924 20.7401Z" fill="black"/>
<path d="M32.6653 21.292C32.513 21.292 32.3906 21.1687 32.3906 21.0161C32.3906 20.8636 32.513 20.7402 32.6653 20.7402C32.8166 20.7402 32.94 20.6163 32.94 20.4643C32.94 20.3118 33.0633 20.1885 33.2146 20.1885C33.367 20.1885 33.4893 20.3118 33.4893 20.4643C33.4894 20.9207 33.1197 21.292 32.6653 21.292Z" fill="black"/>
<path d="M33.2146 15.2227C33.0622 15.2227 32.94 15.0994 32.94 14.9468C32.94 14.7946 32.8166 14.6709 32.6653 14.6709C32.513 14.6709 32.3906 14.5475 32.3906 14.395C32.3906 14.2426 32.513 14.1191 32.6653 14.1191C33.1191 14.1191 33.4893 14.4904 33.4893 14.9468C33.4894 15.0994 33.366 15.2227 33.2146 15.2227Z" fill="black"/>
<path d="M33.22 20.7406C33.0687 20.7406 32.9453 20.6173 32.9453 20.4647V14.9468C32.9453 14.7943 33.0687 14.6709 33.22 14.6709C33.3723 14.6709 33.4947 14.7943 33.4947 14.9468V20.4647C33.4947 20.6173 33.3723 20.7406 33.22 20.7406Z" fill="black"/>
<path d="M10.2825 11.3597C10.1306 11.3597 10.0078 11.2362 10.0078 11.0838V7.22121C10.0078 7.06874 10.1306 6.94531 10.2825 6.94531C10.4343 6.94531 10.5572 7.06874 10.5572 7.22121V11.0838C10.5572 11.2362 10.4343 11.3597 10.2825 11.3597Z" fill="black"/>
<path d="M10.8294 9.70432C10.6776 9.70432 10.5547 9.58096 10.5547 9.42842C10.5547 9.27595 10.6776 9.15252 10.8294 9.15252C11.2838 9.15252 11.6534 8.78127 11.6534 8.32482C11.6534 7.86836 11.2838 7.49711 10.8294 7.49711C10.6776 7.49711 10.5547 7.37369 10.5547 7.22121C10.5547 7.06874 10.6776 6.94531 10.8294 6.94531C11.5866 6.94531 12.2027 7.56424 12.2027 8.32482C12.2027 9.08539 11.5866 9.70432 10.8294 9.70432Z" fill="black"/>
<path d="M10.8318 9.70512H10.2825C10.1306 9.70512 10.0078 9.58176 10.0078 9.42922C10.0078 9.27675 10.1306 9.15332 10.2825 9.15332H10.8318C10.9836 9.15332 11.1065 9.27675 11.1065 9.42922C11.1065 9.58176 10.9836 9.70512 10.8318 9.70512Z" fill="black"/>
<path d="M10.8318 7.49711H10.2825C10.1306 7.49711 10.0078 7.37369 10.0078 7.22121C10.0078 7.06874 10.1306 6.94531 10.2825 6.94531H10.8318C10.9836 6.94531 11.1065 7.06874 11.1065 7.22121C11.1065 7.37369 10.9836 7.49711 10.8318 7.49711Z" fill="black"/>
<path d="M14.6809 10.5329C14.5291 10.5329 14.4062 10.4095 14.4062 10.257V8.04934C14.4062 7.89687 14.5291 7.77344 14.6809 7.77344C14.8327 7.77344 14.9556 7.89687 14.9556 8.04934V10.257C14.9556 10.4095 14.8327 10.5329 14.6809 10.5329Z" fill="black"/>
<path d="M13.0247 10.5329C12.8728 10.5329 12.75 10.4095 12.75 10.257V8.04934C12.75 7.89687 12.8728 7.77344 13.0247 7.77344C13.1765 7.77344 13.2993 7.89687 13.2993 8.04934V10.257C13.2993 10.4095 13.1765 10.5329 13.0247 10.5329Z" fill="black"/>
<path d="M16.0481 11.3591C15.8963 11.3591 15.7734 11.2357 15.7734 11.0832V7.22121C15.7734 7.06874 15.8962 6.94531 16.0481 6.94531C16.2 6.94531 16.3228 7.06874 16.3228 7.22121V11.0833C16.3228 11.2357 16.2 11.3591 16.0481 11.3591Z" fill="black"/>
<path d="M17.1471 11.3604H16.0481C15.8963 11.3604 15.7734 11.237 15.7734 11.0845C15.7734 10.932 15.8962 10.8086 16.0481 10.8086H17.1471C17.2989 10.8086 17.4218 10.932 17.4218 11.0845C17.4218 11.237 17.2989 11.3604 17.1471 11.3604Z" fill="black"/>
<path d="M18.5247 11.3597C18.3723 11.3597 18.25 11.2362 18.25 11.0838V7.22121C18.25 7.06874 18.3723 6.94531 18.5247 6.94531C18.6759 6.94531 18.7993 7.06874 18.7993 7.22121V11.0838C18.7993 11.2362 18.6759 11.3597 18.5247 11.3597Z" fill="black"/>
<path d="M22.6419 11.3597C22.4906 11.3597 22.3672 11.2362 22.3672 11.0838V7.22121C22.3672 7.06874 22.4906 6.94531 22.6419 6.94531C22.7943 6.94531 22.9165 7.06874 22.9165 7.22121V11.0838C22.9165 11.2362 22.7943 11.3597 22.6419 11.3597Z" fill="black"/>
<path d="M21.5387 8.32426C21.3864 8.32426 21.2641 8.20084 21.2641 8.04836C21.2641 7.74445 21.0173 7.49711 20.7148 7.49711C20.4122 7.49711 20.1665 7.74445 20.1665 8.04836C20.1665 8.20084 20.0431 8.32426 19.8919 8.32426C19.7395 8.32426 19.6172 8.20084 19.6172 8.04836C19.6172 7.44026 20.1097 6.94531 20.7148 6.94531C21.3205 6.94531 21.8135 7.44026 21.8135 8.04836C21.8135 8.20084 21.6901 8.32426 21.5387 8.32426Z" fill="black"/>
<path d="M14.6716 8.32426C14.5198 8.32426 14.3969 8.20084 14.3969 8.04836C14.3969 7.74445 14.1507 7.49711 13.8481 7.49711C13.5456 7.49711 13.2993 7.74445 13.2993 8.04836C13.2993 8.20084 13.1765 8.32426 13.0247 8.32426C12.8728 8.32426 12.75 8.20084 12.75 8.04836C12.75 7.44026 13.2428 6.94531 13.8481 6.94531C14.4535 6.94531 14.9463 7.44026 14.9463 8.04836C14.9463 8.20084 14.8235 8.32426 14.6716 8.32426Z" fill="black"/>
<path d="M13.8481 11.3589C13.2428 11.3589 12.75 10.8642 12.75 10.2564C12.75 10.1039 12.8728 9.98047 13.0247 9.98047C13.1765 9.98047 13.2993 10.1039 13.2993 10.2564C13.2993 10.56 13.5456 10.8071 13.8481 10.8071C14.1507 10.8071 14.3969 10.56 14.3969 10.2564C14.3969 10.1039 14.5198 9.98047 14.6716 9.98047C14.8234 9.98047 14.9463 10.1039 14.9463 10.2564C14.9463 10.8642 14.4535 11.3589 13.8481 11.3589Z" fill="black"/>
<path d="M20.7159 11.36C20.1102 11.36 19.6172 10.865 19.6172 10.2564C19.6172 10.1039 19.7406 9.98047 19.8919 9.98047C20.0442 9.98047 20.1665 10.1039 20.1665 10.2564C20.1665 10.5606 20.4133 10.8082 20.7159 10.8082C21.019 10.8082 21.2652 10.5606 21.2652 10.2564C21.2652 10.1039 21.3886 9.98047 21.5398 9.98047C21.6923 9.98047 21.8146 10.1039 21.8146 10.2564C21.8146 10.865 21.3221 11.36 20.7159 11.36Z" fill="black"/>
<path d="M19.8919 10.5324C19.7406 10.5324 19.6172 10.4087 19.6172 10.2565L19.6183 8.04934C19.6183 7.89687 19.7412 7.77344 19.893 7.77344C20.0442 7.77344 20.1676 7.89707 20.1676 8.04934L20.1665 10.2565C20.1665 10.409 20.0437 10.5324 19.8919 10.5324Z" fill="black"/>
<path d="M23.7417 7.49711H22.6419C22.4906 7.49711 22.3672 7.37369 22.3672 7.22121C22.3672 7.06874 22.4906 6.94531 22.6419 6.94531H23.7417C23.8929 6.94531 24.0163 7.06874 24.0163 7.22121C24.0163 7.37369 23.8929 7.49711 23.7417 7.49711Z" fill="black"/>
<path d="M23.7417 11.3604H22.6419C22.4906 11.3604 22.3672 11.237 22.3672 11.0845C22.3672 10.932 22.4906 10.8086 22.6419 10.8086H23.7417C23.8929 10.8086 24.0163 10.932 24.0163 11.0845C24.0163 11.237 23.8929 11.3604 23.7417 11.3604Z" fill="black"/>
<path d="M23.4659 9.42876H22.6419C22.4906 9.42876 22.3672 9.3054 22.3672 9.15285C22.3672 9.00031 22.4906 8.87695 22.6419 8.87695H23.4659C23.6182 8.87695 23.7406 9.00038 23.7406 9.15285C23.7406 9.30533 23.6182 9.42876 23.4659 9.42876Z" fill="black"/>
</svg>
