<svg width="50" height="44" viewBox="0 0 50 44" fill="none" xmlns="http://www.w3.org/2000/svg">
<path d="M48.3816 10.7031C49.0621 11.3837 49.4546 11.7402 49.7161 12.2631C49.7395 12.3103 49.7612 12.3583 49.781 12.4071C49.5663 12.6718 49.0947 13.0292 48.4273 13.37C48.4169 13.1498 48.3944 13.0439 48.3465 12.948C48.2676 12.7903 47.9796 12.4663 47.299 11.7858L48.3816 10.7031ZM11.9105 10.7031L12.9931 11.7858C12.3126 12.4663 12.0245 12.7903 11.9458 12.948C11.8978 13.0439 11.8752 13.1498 11.8649 13.3699C11.1974 13.0292 10.7258 12.6718 10.5112 12.4071C10.531 12.3583 10.5526 12.3103 10.576 12.2631C10.8375 11.7402 11.23 11.3837 11.9105 10.7031ZM49.7969 14.3742V17.816C49.5782 18.1416 49.0663 18.5621 48.3002 18.9517C48.3078 18.2861 48.3045 17.5374 48.2645 16.8165C48.2329 16.2472 48.1816 15.6973 48.0847 15.1945C48.1641 15.1637 48.2427 15.1326 48.3202 15.1011C48.8651 14.8794 49.3549 14.6402 49.7969 14.3742ZM10.4953 14.3742C10.9372 14.6402 11.427 14.8795 11.972 15.1011C12.0495 15.1326 12.1281 15.1637 12.2074 15.1945C12.1105 15.6973 12.0592 16.2472 12.0277 16.8164C11.9876 17.5374 11.9843 18.2861 11.992 18.9518C11.2258 18.5622 10.7139 18.1416 10.4953 17.816V14.3742ZM34.9905 14.7323L37.4389 24.6785L30.9117 28.8939V24.3821L28.1895 23.021V19.8841L30.9117 18.523V14.7321L34.9905 14.7323ZM29.3805 14.7323V17.5767L26.6583 18.9378V23.9675L29.3805 25.3286V28.894L22.8534 24.6784L25.3017 14.7322L29.3805 14.7323ZM46.6146 15.6953C46.6701 16.0509 46.7114 16.4669 46.7356 16.9016C46.7866 17.8211 46.7729 18.7889 46.7558 19.5846C45.9037 19.8778 44.9396 20.141 43.9312 20.3652C43.674 20.4224 43.4141 20.4762 43.1534 20.5282C43.1392 19.5354 43.0994 18.469 42.9867 17.4549C42.9542 17.1625 42.918 16.8739 42.8749 16.5913C43.1653 16.5359 43.4552 16.4778 43.7446 16.4172C44.7328 16.2091 45.7064 15.9697 46.6146 15.6953ZM13.6775 15.6953C14.5857 15.9696 15.5593 16.2091 16.5475 16.4172C16.8369 16.4778 17.1268 16.5359 17.4172 16.5913C17.3741 16.8738 17.3379 17.1625 17.3054 17.4549C17.1927 18.469 17.153 19.5354 17.1387 20.5282C16.878 20.4762 16.6181 20.4224 16.361 20.3652C15.3525 20.141 14.3884 19.8778 13.5363 19.5846C13.5192 18.7889 13.5055 17.8211 13.5565 16.9016C13.5807 16.4669 13.622 16.0509 13.6775 15.6953ZM41.3554 16.8599C41.3999 17.1134 41.4364 17.3682 41.4648 17.624C41.578 18.6423 41.6132 19.7593 41.6245 20.8032C40.4775 20.9877 39.324 21.1297 38.1665 21.2287L37.2154 17.3651C38.3555 17.2775 39.8006 17.1116 41.3554 16.8598V16.8599ZM18.9368 16.8599C20.4916 17.1117 21.9366 17.2775 23.0767 17.3651L22.1256 21.2287C20.9681 21.1297 19.8146 20.9877 18.6676 20.8032C18.6789 19.7593 18.7141 18.6423 18.8273 17.624C18.8566 17.3605 18.8936 17.1049 18.9368 16.8598V16.8599ZM49.6194 19.987L49.4963 22.0984C46.5451 23.2763 42.9146 24.1128 38.9986 24.609L38.5396 22.7443C40.3134 22.5806 42.3428 22.2866 44.2633 21.8598C45.8268 21.5124 47.3119 21.0792 48.5339 20.536C48.921 20.364 49.2858 20.1838 49.6194 19.9871V19.987ZM10.6727 19.987C11.0064 20.1838 11.3711 20.364 11.7582 20.536C12.9803 21.0792 14.4654 21.5124 16.0289 21.8598C17.9493 22.2866 19.9788 22.5806 21.7525 22.7443L21.2935 24.609C17.3776 24.1127 13.747 23.2763 10.7958 22.0983L10.6727 19.987Z" fill="white"/>
</svg>
