<svg width="40" height="39" viewBox="0 0 40 39" fill="none" xmlns="http://www.w3.org/2000/svg">
<path d="M32.6022 1.8741L29.843 8.28392L32.8191 9.56496L35.5783 3.15514L32.6021 1.87402L32.6022 1.8741ZM18.5273 1.89965L15.5298 3.12958L18.179 9.58559L21.1765 8.35566L18.5274 1.89965H18.5273ZM20.8361 2.37414L20.2284 2.62834L22.3781 7.86884L22.8713 9.07142L21.6698 9.5613L18.6725 10.7912L17.47 11.2844L16.9768 10.0821L14.8425 4.88219L14.0131 5.2292C15.3077 6.9597 15.8891 9.12087 15.6376 11.2673C15.3861 13.4138 14.3207 15.382 12.6611 16.7663V19.4914H19.6484V25.3234H12.661V26.3893H19.6483V32.2294H12.661V35.0941C13.9164 36.3495 19.7369 36.9767 25.5575 36.9767C31.3781 36.9767 37.1986 36.3495 38.454 35.0941V32.2294H31.4665V26.3902H38.454V25.3232H31.4643V19.4839H38.4514V16.7595C36.7918 15.3752 35.7265 13.407 35.475 11.2605C35.2234 9.11407 35.8049 6.9529 37.0995 5.2224L36.2521 4.86747L34.0105 10.0746L33.4961 11.2691L32.3018 10.7548L29.3298 9.48L28.1354 8.96569L28.6497 7.77125L30.8677 2.61766L30.278 2.37406C29.8103 3.21598 29.1259 3.9175 28.2958 4.40593C27.4658 4.89436 26.5202 5.15191 25.5571 5.15191C24.5939 5.15191 23.6483 4.89436 22.8183 4.40593C21.9882 3.9175 21.3038 3.21606 20.8361 2.37414ZM11.3594 20.784V24.0242H18.3491V20.784H11.3594ZM32.7641 20.784V24.0242H39.7538V20.784H32.7641ZM11.3594 27.69V30.9303H18.3491V27.69H11.3594V27.69ZM32.7641 27.69V30.9303H39.7538V27.69H32.7641V27.69Z" fill="white"/>
</svg>
