<svg width="36" height="40" viewBox="0 0 36 40" fill="none" xmlns="http://www.w3.org/2000/svg">
<path fill-rule="evenodd" clip-rule="evenodd" d="M11.2299 25.5555C11.7067 25.4384 12.4122 26.1217 12.4122 26.1217C12.4122 26.1217 17.54 29.319 17.5537 29.319C18.1983 29.3191 23.5536 26.1217 23.5536 26.1217C23.5536 26.1217 24.2591 25.4384 24.7359 25.5555C29.8605 26.8149 35.0518 29.3827 35.0518 33.2456V39.7501H0.914062V33.2456C0.914062 29.3827 6.10537 26.8149 11.2299 25.5555ZM6.60368 34.0607C6.60368 33.537 7.02822 33.1124 7.55195 33.1124H12.2933C12.817 33.1124 13.2416 33.537 13.2416 34.0607C13.2416 34.5844 12.817 35.009 12.2933 35.009H7.55195C7.02822 35.009 6.60368 34.5844 6.60368 34.0607ZM26.7046 30.4102C26.6457 30.2201 26.3891 30.2201 26.3302 30.4102L25.7935 32.1404C25.7672 32.2253 25.6915 32.2829 25.6063 32.2829H23.8698C23.6791 32.2829 23.5997 32.5386 23.7541 32.656L25.159 33.7254C25.228 33.778 25.2568 33.8711 25.2305 33.956L24.6938 35.6863C24.6349 35.8763 24.8425 36.0344 24.9968 35.917L26.4017 34.8475C26.4707 34.7951 26.5641 34.7951 26.6331 34.8475L28.0379 35.917C28.1922 36.0344 28.3999 35.8763 28.3409 35.6863L27.8043 33.956C27.7779 33.8711 27.8068 33.778 27.8758 33.7254L29.2806 32.656C29.435 32.5386 29.3556 32.2829 29.1649 32.2829H27.4285C27.3432 32.2829 27.2675 32.2253 27.2412 32.1404L26.7046 30.4102Z" fill="black"/>
<path fill-rule="evenodd" clip-rule="evenodd" d="M9.44531 15.0977V12.2529H11.3419V15.0977C11.3419 18.7638 14.3137 21.7356 17.9797 21.7356C21.6458 21.7356 24.6176 18.7638 24.6176 15.0977V12.2529H26.5142V15.0977C26.5142 19.8112 22.6932 23.6322 17.9797 23.6322C13.2663 23.6322 9.44531 19.8112 9.44531 15.0977Z" fill="black"/>
<path fill-rule="evenodd" clip-rule="evenodd" d="M8.52027 11.6921C8.56332 11.4666 8.76976 11.3027 9.01071 11.3027H26.9546C27.1956 11.3027 27.402 11.4666 27.4451 11.6921L27.4453 11.6932L27.4456 11.6944L27.446 11.6971L27.4472 11.7036L27.4499 11.7208C27.4519 11.7342 27.4542 11.7514 27.4564 11.7719C27.4607 11.8132 27.4647 11.8686 27.4653 11.936C27.4664 12.0709 27.454 12.2556 27.4029 12.473C27.2995 12.9125 27.0418 13.4712 26.4515 14.0142C25.2812 15.0907 22.8769 16.0441 17.9827 16.0441C13.0885 16.0441 10.6841 15.0907 9.51387 14.0142C8.92357 13.4712 8.66583 12.9125 8.56247 12.473C8.51135 12.2556 8.49893 12.0709 8.50007 11.936C8.50064 11.8686 8.50462 11.8132 8.50898 11.7719C8.51116 11.7514 8.51344 11.7342 8.51543 11.7208L8.51818 11.7036L8.51932 11.6971L8.51979 11.6944L8.52008 11.6932L8.52027 11.6921Z" fill="black"/>
<path fill-rule="evenodd" clip-rule="evenodd" d="M8.20262 9.40748C8.13055 9.29397 8.05706 9.17989 7.98319 9.06496C7.31172 8.02196 6.60156 6.9191 6.60156 5.70616C6.60156 4.94679 7.09495 4.30736 7.74802 3.80176C10.1756 1.92241 17.9808 0.873047 17.9808 0.873047C17.9808 0.873047 25.786 1.92242 28.2136 3.80176C28.8667 4.30736 29.36 4.94679 29.36 5.70616C29.36 7.08903 28.577 8.28312 27.834 9.40748H8.20262ZM20.3515 4.98221C20.3515 4.98221 18.613 4.35004 17.9808 3.71786C17.3486 4.35004 15.6101 4.98221 15.6101 4.98221C15.6101 4.98221 16.0843 8.45921 17.9808 8.45921C19.8773 8.45921 20.3515 4.98221 20.3515 4.98221Z" fill="black"/>
</svg>
