<svg version="1.1" id="Layer_1" xmlns="http://www.w3.org/2000/svg" xmlns:xlink="http://www.w3.org/1999/xlink" x="0px" y="0px"
	 width="100%" viewBox="0 0 265 248" enable-background="new 0 0 265 248" xml:space="preserve">
<path fill="#2302FC" opacity="1.000000" stroke="none" 
	d="
M50.686275,182.283173 
	C18.677868,136.146774 31.829567,75.687813 72.522865,45.988232 
	C72.522865,84.268478 72.522865,122.087639 72.522865,160.468399 
	C74.891205,160.578247 76.647568,160.728775 78.404068,160.730438 
	C95.068192,160.746338 111.732361,160.749802 128.396484,160.731140 
	C144.025040,160.713638 154.204178,148.772812 150.559860,133.660583 
	C149.537720,129.421936 145.938889,125.291740 142.496231,122.287117 
	C138.691818,118.966766 133.654510,117.084900 129.277740,114.376808 
	C128.149948,113.679001 127.485970,112.231598 126.608932,111.128540 
	C127.797287,110.411209 128.976395,109.089478 130.175430,109.071136 
	C140.811096,108.908409 151.450287,108.976547 162.488800,108.976547 
	C162.634842,110.733345 162.859512,112.174927 162.859146,113.616440 
	C162.850220,147.774719 162.763367,181.933151 162.870468,216.091003 
	C162.881302,219.550995 161.896439,220.996170 158.495316,221.856766 
	C117.561089,232.214447 75.214615,216.823608 50.686275,182.283173 
z"/>
<path fill="#2301FD" opacity="1.000000" stroke="none" 
	d="
M168.105835,31.727272 
	C196.460724,42.758862 215.722229,62.344872 227.400604,90.851311 
	C224.179688,90.851311 221.758026,90.851044 219.336365,90.851349 
	C190.026398,90.855087 160.716354,90.821472 131.406494,90.879120 
	C117.566933,90.906342 108.149796,98.844894 107.527588,111.148811 
	C107.199493,117.636810 109.587044,123.375839 114.813454,127.285591 
	C118.774689,130.248901 123.465332,132.218277 127.603195,134.972748 
	C129.508774,136.241257 130.868210,138.330154 132.475281,140.047058 
	C130.351334,140.845901 128.240753,142.290298 126.101181,142.334595 
	C115.448265,142.555084 104.787704,142.410110 94.129875,142.379898 
	C93.637161,142.378494 93.144814,142.243423 92.007652,142.075287 
	C91.937675,140.596176 91.798111,139.014084 91.797523,137.431915 
	C91.785385,104.791344 91.885712,72.150139 91.673035,39.510956 
	C91.644958,35.201984 93.162773,33.307629 96.960953,31.961845 
	C120.534821,23.609095 144.097885,22.940413 168.105835,31.727272 
z"/>
<path fill="#2301FE" opacity="1.000000" stroke="none" 
	d="
M181.753326,129.000198 
	C181.752869,122.201103 181.752869,115.901901 181.752869,109.254318 
	C198.700546,109.254318 215.239716,109.254318 231.741302,109.254318 
	C239.681519,152.417984 215.727814,194.528091 181.753799,211.957016 
	C181.753799,184.196976 181.753799,156.848526 181.753326,129.000198 
z"/>
<path fill="#2505F5" opacity="1.000000" stroke="none" 
	d="
M84.408371,52.018646 
	C84.408730,84.779411 84.408730,117.044159 84.408730,149.823730 
	C96.811317,149.823730 108.595245,149.843658 120.379028,149.810989 
	C123.704948,149.801758 127.053925,149.854065 130.350510,149.494629 
	C135.107773,148.975906 138.409851,146.334625 139.541641,141.593307 
	C140.657272,136.919586 138.468597,133.388397 134.697739,130.989334 
	C130.222565,128.142181 125.349892,125.910614 120.930405,122.987534 
	C115.471672,119.377060 113.544838,114.445976 114.983047,108.847321 
	C116.510323,102.901894 120.692215,99.623787 126.466652,98.342964 
	C128.715927,97.844055 131.096298,97.785995 133.417267,97.783218 
	C164.075577,97.746437 194.733948,97.749519 225.392303,97.763588 
	C227.941895,97.764755 231.087326,97.033653 230.787827,101.932388 
	C212.213791,101.932388 193.650284,101.932388 174.352798,101.932388 
	C174.352798,104.420494 174.352798,106.358208 174.352783,108.295914 
	C174.352341,142.953201 174.348404,177.610474 174.357864,212.267761 
	C174.358643,215.134003 174.773804,218.222351 169.907898,218.076675 
	C169.907898,179.642105 169.907898,141.237854 169.907898,102.131721 
	C167.673569,102.131721 165.907745,102.130386 164.141922,102.131943 
	C152.645370,102.142052 141.148560,102.109322 129.652405,102.182655 
	C124.327545,102.216621 120.799866,104.780319 119.594688,109.440018 
	C118.414421,114.003395 120.708466,117.258316 124.252960,119.545815 
	C128.017456,121.975296 132.087692,123.928574 136.005997,126.122688 
	C142.980438,130.028137 145.663773,135.530029 144.096634,142.636063 
	C142.733978,148.814774 138.197571,153.076614 130.729263,153.254028 
	C114.111908,153.648819 97.478714,153.377213 80.488724,153.377213 
	C80.367088,152.059738 80.149849,150.800858 80.149330,149.541870 
	C80.134865,114.384720 80.146576,79.227562 80.137917,44.070415 
	C80.137245,41.357555 79.736526,38.490238 84.408020,37.871479 
	C84.408020,42.415165 84.408020,46.968895 84.408371,52.018646 
z"/>
</svg>