<svg width="74" height="64" viewBox="0 0 74 64" fill="none" xmlns="http://www.w3.org/2000/svg">
<path d="M62.9 33.8312V11.6312H66.6V0.53125H7.4V11.6312H11.1V33.8312H0C0 37.2722 1.85 40.1582 5.55 40.9722V59.7312C5.55 60.7125 5.93982 61.6537 6.6337 62.3475C7.32759 63.0414 8.2687 63.4312 9.25 63.4312H12.95C13.9313 63.4312 14.8724 63.0414 15.5663 62.3475C16.2602 61.6537 16.65 60.7125 16.65 59.7312V56.0312H57.35V59.7312C57.35 60.7125 57.7398 61.6537 58.4337 62.3475C59.1276 63.0414 60.0687 63.4312 61.05 63.4312H64.75C65.7313 63.4312 66.6724 63.0414 67.3663 62.3475C68.0602 61.6537 68.45 60.7125 68.45 59.7312V40.9722C72.15 40.1212 74 37.2722 74 33.8312H62.9ZM22.2 41.2312C20.728 41.2312 19.3164 40.6465 18.2756 39.6057C17.2347 38.5649 16.65 37.1532 16.65 35.6812C16.65 34.2093 17.2347 32.7976 18.2756 31.7568C19.3164 30.716 20.728 30.1312 22.2 30.1312C23.672 30.1312 25.0836 30.716 26.1244 31.7568C27.1653 32.7976 27.75 34.2093 27.75 35.6812C27.75 37.1532 27.1653 38.5649 26.1244 39.6057C25.0836 40.6465 23.672 41.2312 22.2 41.2312ZM51.8 41.2312C50.328 41.2312 48.9164 40.6465 47.8756 39.6057C46.8347 38.5649 46.25 37.1532 46.25 35.6812C46.25 34.2093 46.8347 32.7976 47.8756 31.7568C48.9164 30.716 50.328 30.1312 51.8 30.1312C53.272 30.1312 54.6836 30.716 55.7244 31.7568C56.7653 32.7976 57.35 34.2093 57.35 35.6812C57.35 37.1532 56.7653 38.5649 55.7244 39.6057C54.6836 40.6465 53.272 41.2312 51.8 41.2312ZM57.35 24.5812C51.504 23.3972 44.511 22.7312 37 22.7312C29.489 22.7312 22.2 23.3972 16.65 24.5812V11.6312H57.35V24.5812Z" fill="white"/>
</svg>
