<svg version="1.1" id="Layer_1" xmlns="http://www.w3.org/2000/svg" xmlns:xlink="http://www.w3.org/1999/xlink" x="0px" y="0px"
	 width="100%" viewBox="0 0 265 248" enable-background="new 0 0 265 248" xml:space="preserve">

<path fill="#2FBD00" opacity="1.000000" stroke="none" 
	d="
M149.763733,130.637070 
	C145.953491,126.752213 142.490662,123.013901 138.608597,119.778633 
	C136.351746,117.897797 133.302322,117.000496 130.837616,115.325127 
	C129.201126,114.212738 127.968002,112.506950 126.554321,111.066788 
	C128.416779,110.343300 130.257629,109.069702 132.145554,108.995621 
	C138.796768,108.734642 145.465027,108.813179 152.125168,108.896027 
	C163.119522,109.032799 163.064178,109.076340 163.037231,120.031548 
	C162.959000,151.836472 162.853989,183.641800 162.972763,215.446167 
	C162.987991,219.517410 161.875153,221.181152 157.771988,222.140091 
	C115.760109,231.958481 75.201042,216.845825 50.114971,181.776428 
	C27.020611,149.491394 26.877602,102.280716 49.630371,69.497009 
	C55.836445,60.554886 63.239243,52.873234 72.768173,45.195496 
	C72.768173,84.214951 72.768173,122.010742 72.768173,160.174973 
	C75.657860,160.303436 77.775841,160.476288 79.894043,160.479218 
	C95.716721,160.501160 111.539490,160.464706 127.362137,160.494934 
	C145.150452,160.528931 154.608215,148.193542 149.763733,130.637070 
z"/>
<path fill="#2EBE00" opacity="1.000000" stroke="none" 
	d="
M223.495544,90.886398 
	C192.562317,90.899338 162.077896,90.874741 131.593643,90.933411 
	C119.770943,90.956161 111.636902,96.459290 108.459961,106.323631 
	C106.127312,113.566467 108.844772,122.942764 115.078453,127.331223 
	C119.275139,130.285660 124.060745,132.393799 128.342438,135.242020 
	C130.085068,136.401215 131.190826,138.517807 132.586365,140.198792 
	C130.611908,141.028656 128.653290,142.528595 126.660324,142.575684 
	C116.504639,142.815735 106.338356,142.572723 96.179573,142.735336 
	C92.718025,142.790741 91.577789,141.608215 91.587906,138.138107 
	C91.685013,104.822350 91.680435,71.506081 91.585274,38.190311 
	C91.576073,34.969372 92.863167,33.362061 95.743370,32.336132 
	C134.144608,18.657585 169.083969,24.487635 200.197296,51.063221 
	C211.635635,60.833344 219.942581,73.018311 225.826004,86.847908 
	C226.660873,88.810326 228.107071,91.190781 223.495544,90.886398 
z"/>
<path fill="#2EBF00" opacity="1.000000" stroke="none" 
	d="
M217.019333,179.985489 
	C207.899124,193.542465 196.708481,204.280624 181.853989,212.400406 
	C181.733383,209.690277 181.586670,207.917938 181.585739,206.145554 
	C181.569916,175.682953 181.685043,145.219513 181.457260,114.758606 
	C181.419998,109.777130 183.020157,108.687599 187.709213,108.783607 
	C202.323257,109.082848 216.947296,108.893326 232.014648,108.893326 
	C235.747864,134.626648 231.319199,158.145264 217.019333,179.985489 
z"/>
<path fill="#36AE00" opacity="1.000000" stroke="none" 
	d="
M220.091461,102.320671 
	C204.875061,102.319183 190.100128,102.319183 174.650146,102.319183 
	C174.650146,105.149223 174.650131,107.434464 174.650162,109.719704 
	C174.650604,143.874405 174.646820,178.029099 174.659103,212.183807 
	C174.660156,215.092499 174.932983,218.107346 169.938110,218.298965 
	C169.938110,179.809204 169.938110,141.340958 169.938110,102.285881 
	C165.875412,102.285881 162.593292,102.283981 159.311157,102.286240 
	C149.315430,102.293106 139.318985,102.233368 129.324310,102.339836 
	C124.716530,102.388931 121.337196,104.498001 119.956436,109.115196 
	C118.602730,113.641983 120.599770,117.010078 124.216713,119.330116 
	C128.131042,121.840912 132.356628,123.861542 136.399582,126.177780 
	C143.109650,130.022034 145.854202,135.637680 144.385345,142.322067 
	C142.975876,148.736084 138.222565,153.332916 130.812897,153.512360 
	C114.190285,153.914948 97.551224,153.638474 80.453896,153.638474 
	C80.310593,152.069794 80.068069,150.647964 80.067268,149.225998 
	C80.047409,114.071632 80.062195,78.917244 80.036964,43.762886 
	C80.034958,40.978020 79.927994,38.278946 84.345421,37.764076 
	C84.468979,39.664024 84.697281,41.547440 84.698227,43.430969 
	C84.715080,76.752632 84.821220,110.075165 84.577003,143.395081 
	C84.539085,148.568146 86.073036,149.940475 91.064735,149.788574 
	C102.383469,149.444092 113.719978,149.712936 125.048729,149.644485 
	C127.362419,149.630508 130.155029,149.967804 131.877579,148.842804 
	C134.722565,146.984726 138.165939,144.410477 138.939728,141.496201 
	C139.641205,138.854218 137.761414,134.849045 135.825714,132.381516 
	C134.007675,130.063980 130.632507,128.963531 127.933189,127.343056 
	C125.373795,125.806557 122.680008,124.460838 120.262451,122.728249 
	C115.685608,119.448181 113.465599,114.969582 114.713547,109.294121 
	C116.022163,103.342712 119.973488,99.759300 125.767509,98.340218 
	C128.163559,97.753372 130.713959,97.591461 133.194778,97.587151 
	C164.017151,97.533615 194.839645,97.539871 225.662109,97.548035 
	C228.289658,97.548729 231.359497,97.088089 230.730469,102.322159 
	C227.371338,102.322159 223.952133,102.322159 220.091461,102.320671 
z"/>
</svg>