<svg version="1.1" id="Layer_1" xmlns="http://www.w3.org/2000/svg" xmlns:xlink="http://www.w3.org/1999/xlink" x="0px" y="0px"
	 width="100%" viewBox="0 0 265 248" enable-background="new 0 0 265 248" xml:space="preserve">

<path fill="#C80000" opacity="1.000000" stroke="none" 
	d="
M72.936752,128.000031 
	C72.936905,138.807053 72.936905,149.114059 72.936905,159.936172 
	C74.852654,160.090637 76.436539,160.326660 78.020828,160.329407 
	C95.014359,160.358795 112.008316,160.421799 129.001419,160.332855 
	C144.073578,160.253952 153.455856,148.783188 150.698929,134.086670 
	C149.483444,127.607224 145.179520,123.646812 139.848434,120.526558 
	C136.549088,118.595474 133.056137,116.980270 129.847046,114.916954 
	C128.471954,114.032829 127.597679,112.369797 126.495850,111.060669 
	C128.022980,110.311707 129.536957,108.947327 131.079376,108.914406 
	C140.570496,108.711769 150.069382,108.900246 159.562775,108.760651 
	C163.078888,108.708946 163.168533,110.786697 163.151260,113.308708 
	C163.060226,126.603493 162.966568,139.898468 162.945221,153.193481 
	C162.911789,174.018906 162.805954,194.845917 163.042603,215.668716 
	C163.090851,219.914154 161.615738,221.298935 157.678558,222.221542 
	C115.714226,232.055069 75.368301,216.995773 50.044353,181.830124 
	C26.697197,149.409515 26.603785,101.497360 50.240475,68.897247 
	C55.366051,61.827969 61.778591,55.684925 67.686981,49.195957 
	C68.854652,47.913555 70.428871,47.001335 72.936592,45.043003 
	C72.936592,73.405678 72.936592,100.452843 72.936752,128.000031 
z"/>
<path fill="#C90000" opacity="1.000000" stroke="none" 
	d="
M91.551422,100.999725 
	C91.544075,80.338287 91.667633,60.175320 91.430672,40.016594 
	C91.377213,35.468788 92.738228,33.239262 97.146255,31.676571 
	C139.830658,16.544468 183.141022,28.250355 211.848907,63.193928 
	C218.478043,71.262985 223.859314,80.200333 227.292404,90.956963 
	C224.511353,90.956963 222.393509,90.956573 220.275665,90.957024 
	C190.782898,90.963226 161.290070,90.939529 131.797379,90.990669 
	C120.087990,91.010979 112.205750,96.163292 108.789047,105.794609 
	C106.156990,113.214111 108.719444,122.625458 115.164131,127.269615 
	C119.190201,130.170868 123.846893,132.185226 127.970551,134.968109 
	C129.853867,136.239075 131.133545,138.404541 132.686996,140.164307 
	C130.571701,141.034470 128.474915,142.599274 126.337944,142.656204 
	C116.347511,142.922363 106.342896,142.629349 96.350067,142.845917 
	C92.614586,142.926880 91.429573,141.700531 91.486145,137.988785 
	C91.671509,125.828255 91.553360,113.663101 91.551422,100.999725 
z"/>
<path fill="#C70000" opacity="1.000000" stroke="none" 
	d="
M198.300140,201.309097 
	C192.980743,205.209946 187.928192,208.877014 181.886108,213.262253 
	C181.886108,177.611984 181.886108,143.448654 181.886108,109.044403 
	C198.737335,109.044403 215.310059,109.044403 232.246811,109.044403 
	C237.070770,145.855560 226.084152,176.467972 198.300140,201.309097 
z"/>
<path fill="#BD0000" opacity="1.000000" stroke="none" 
	d="
M80.009796,53.014313 
	C80.010994,49.184994 79.713043,45.814281 80.129585,42.534302 
	C80.365776,40.674454 81.773262,38.963352 82.653229,37.185261 
	C83.255096,37.364738 83.856964,37.544216 84.458839,37.723690 
	C84.563560,39.611855 84.758575,41.499969 84.759598,43.388191 
	C84.777718,76.882103 84.865028,110.376579 84.666000,143.869324 
	C84.638016,148.578308 86.126808,149.816299 90.619423,149.709839 
	C102.110672,149.437607 113.613190,149.677689 125.109764,149.565506 
	C127.740364,149.539841 130.517044,149.352325 132.964111,148.492569 
	C140.245789,145.934189 141.904022,137.651703 136.127548,132.531982 
	C133.811005,130.478821 130.826889,129.176132 128.137039,127.547714 
	C125.442169,125.916260 122.608315,124.480850 120.061516,122.645676 
	C115.472816,119.339142 113.344124,114.780823 114.681465,109.149139 
	C116.070015,103.301804 119.889320,99.546104 125.780968,98.282196 
	C128.520782,97.694435 131.395828,97.533394 134.210220,97.528175 
	C164.537888,97.471977 194.865677,97.472641 225.193405,97.502281 
	C227.850601,97.504883 231.293900,96.646149 230.959244,102.139801 
	C212.441055,102.139801 193.915955,102.139801 174.704086,102.139801 
	C174.704086,105.241302 174.704025,107.529617 174.704102,109.817932 
	C174.705399,143.978394 174.690628,178.138855 174.734467,212.299271 
	C174.738571,215.496918 174.609238,218.315414 169.581131,218.368835 
	C169.581131,216.215454 169.580826,214.285309 169.581177,212.355164 
	C169.587387,177.695526 169.502502,143.035370 169.704208,108.376884 
	C169.732483,103.517059 168.274887,102.051903 163.492310,102.198486 
	C152.671585,102.530106 141.835098,102.336464 131.005142,102.383179 
	C124.550644,102.411026 121.207512,104.583000 119.902908,109.515152 
	C118.769737,113.799240 120.907982,117.549255 126.361626,120.636436 
	C129.982513,122.686134 133.726837,124.523293 137.300949,126.648888 
	C143.142014,130.122681 145.684006,135.578094 144.577438,141.783386 
	C143.458740,148.056702 138.822418,152.731232 131.950165,153.450623 
	C126.175476,154.055130 120.311188,153.878876 114.485855,153.908585 
	C103.201530,153.966156 91.916718,153.925415 80.009766,153.925415 
	C80.009766,120.049232 80.009766,86.780067 80.009796,53.014313 
z"/>
</svg>