<svg width="33" height="44" viewBox="0 0 33 44" fill="none" xmlns="http://www.w3.org/2000/svg">
<path d="M31.35 20.2017H29.7C29.6422 20.2017 29.5934 20.2293 29.537 20.235C29.0469 15.6816 26.6498 11.7183 23.1 9.29244V1.67573C23.1 0.750156 22.3648 0 21.4576 0H8.24241C7.33524 0 6.6 0.750156 6.6 1.67573V9.2921C2.62218 12.0109 0 16.6334 0 21.8852C0 27.1369 2.62218 31.7594 6.6 34.4779V42.0942C6.6 43.0198 7.33524 43.7703 8.24241 43.7703H21.4573C22.3648 43.7703 23.1 43.0198 23.1 42.0942V34.4779C26.6498 32.052 29.0469 28.0888 29.537 23.535C29.5934 23.541 29.6422 23.5686 29.7 23.5686H31.35C32.2611 23.5686 33 22.8148 33 21.8852C33 20.9552 32.2611 20.2017 31.35 20.2017ZM14.85 33.6695C8.4711 33.6695 3.3 28.3935 3.3 21.8852C3.3 15.3768 8.4711 10.1008 14.85 10.1008C21.2289 10.1008 26.4 15.3768 26.4 21.8852C26.4 28.3935 21.2289 33.6695 14.85 33.6695Z" fill="white"/>
<path d="M19.8031 20.2017H16.5031V15.1512C16.5031 14.2213 15.7643 13.4678 14.8531 13.4678C13.942 13.4678 13.2031 14.2213 13.2031 15.1512V21.8851C13.2031 22.8148 13.942 23.5686 14.8531 23.5686H19.8031C20.7143 23.5686 21.4531 22.8148 21.4531 21.8851C21.4531 20.9552 20.7143 20.2017 19.8031 20.2017Z" fill="white"/>
</svg>
