<svg width="28" height="29" viewBox="0 0 28 29" fill="none" xmlns="http://www.w3.org/2000/svg">
<path d="M19.6257 27.1601C19.9133 27.035 20.052 26.6833 19.9355 26.3745C19.819 26.0657 19.4914 25.9167 19.2038 26.0418C18.5638 26.3209 17.9017 26.5323 17.2269 26.6738C16.5542 26.8149 15.8668 26.8864 15.1742 26.8864C12.2179 26.8864 9.54153 25.5998 7.60426 23.5197C5.66699 21.4396 4.46876 18.5658 4.46876 15.3915C4.46876 12.2172 5.66699 9.34339 7.60426 7.26324C9.54151 5.18309 12.2179 3.89649 15.1742 3.89649C18.1305 3.89649 20.8069 5.18309 22.7441 7.26323C24.6814 9.34338 25.8796 12.2172 25.8796 15.3915C25.8796 16.5615 25.7143 17.7156 25.3946 18.8157C25.0739 19.9194 24.5992 20.9701 23.9816 21.9293C23.8057 22.203 23.8696 22.578 24.1244 22.7669C24.3793 22.9558 24.7285 22.8872 24.9044 22.6135C25.5886 21.5509 26.1135 20.3904 26.4669 19.1743C26.8213 17.9545 27.0046 16.6795 27.0046 15.3915C27.0046 11.8837 25.6804 8.70795 23.5395 6.40912C21.3986 4.11033 18.441 2.68848 15.1742 2.68848C11.9074 2.68848 8.94973 4.11033 6.80885 6.40915C4.66794 8.70794 3.34375 11.8837 3.34375 15.3914C3.34375 18.8992 4.66794 22.0749 6.80885 24.3737C8.94975 26.6726 11.9074 28.0944 15.1742 28.0944C15.9353 28.0944 16.6948 28.0149 17.4422 27.8581C18.1875 27.7018 18.9188 27.4684 19.6257 27.1601Z" fill="#FFFFFE"/>
<path d="M6.2605 23.9072C6.53353 24.0636 6.87293 23.9527 7.01855 23.6595C7.16417 23.3663 7.06086 23.0019 6.78783 22.8455C5.04485 21.8465 3.62881 20.3721 2.6484 18.6168C1.66902 16.8633 1.12503 14.8273 1.12503 12.703C1.12503 9.52865 2.32326 6.65487 4.26051 4.57472C6.19778 2.49459 8.87417 1.20798 11.8305 1.20798C13.3327 1.20798 14.7993 1.54609 16.143 2.18104C17.4906 2.81788 18.7142 3.75003 19.7261 4.9361C19.9348 5.18105 20.2889 5.19797 20.5171 4.97386C20.7452 4.74976 20.7609 4.36947 20.5522 4.12452C19.4298 2.80882 18.0788 1.77775 16.5956 1.0769C15.1086 0.374203 13.488 0 11.8305 0C8.56364 0 5.60601 1.42185 3.46508 3.72065C1.32419 6.01946 0 9.19522 0 12.703C0 15.0453 0.602031 17.2943 1.68598 19.235C2.76896 21.1739 4.33382 22.8029 6.2605 23.9072Z" fill="#FFFFFE"/>
<path d="M5.35645 3.38965C5.9939 3.38965 6.57949 3.59432 7.01093 3.9252C7.49772 4.29856 7.79886 4.8315 7.79886 5.43544C7.79886 6.03939 7.49772 6.57232 7.01093 6.94567C6.57949 7.27656 5.9939 7.48122 5.35645 7.48122C4.71898 7.48122 4.13339 7.27653 3.70199 6.94567C3.2152 6.57232 2.91406 6.03939 2.91406 5.43544C2.91406 4.83148 3.2152 4.29856 3.70197 3.9252C4.13341 3.59432 4.719 3.38965 5.35645 3.38965ZM6.36056 4.90665C6.11164 4.71573 5.75724 4.59763 5.35645 4.59763C4.95568 4.59763 4.60126 4.71573 4.35234 4.90665C4.1588 5.05507 4.03907 5.24311 4.03907 5.43545C4.03907 5.62778 4.1588 5.81578 4.35236 5.96422C4.60128 6.15513 4.95567 6.27324 5.35645 6.27324C5.75724 6.27324 6.11164 6.15513 6.36056 5.96422C6.55412 5.81578 6.67385 5.62778 6.67385 5.43545C6.67385 5.24311 6.55412 5.05509 6.36056 4.90665Z" fill="#FFFFFE"/>
<path d="M2.85233 8.9624C3.41957 8.9624 3.94165 9.14527 4.32708 9.44087C4.76786 9.77895 5.04056 10.2631 5.04056 10.8133C5.04056 11.3633 4.76788 11.8476 4.32708 12.1856C3.94165 12.4812 3.41957 12.6641 2.85233 12.6641C2.28505 12.6641 1.76299 12.4812 1.37756 12.1856C0.936739 11.8476 0.664062 11.3634 0.664062 10.8133C0.664062 10.2631 0.93674 9.77893 1.37754 9.44087C1.76297 9.14527 2.28509 8.9624 2.85233 8.9624ZM3.67672 10.4223C3.47378 10.2667 3.18291 10.1704 2.85233 10.1704C2.52175 10.1704 2.23085 10.2667 2.0279 10.4223C1.88035 10.5355 1.78907 10.6748 1.78907 10.8133C1.78907 10.9518 1.88037 11.091 2.02792 11.2042C2.23086 11.3598 2.52175 11.4561 2.85233 11.4561C3.18291 11.4561 3.47377 11.3598 3.67672 11.2042C3.82427 11.091 3.91556 10.9518 3.91556 10.8133C3.91556 10.6748 3.82427 10.5355 3.67672 10.4223Z" fill="#FFFFFE"/>
<path d="M10.5789 0.54541C11.1461 0.54541 11.6682 0.728252 12.0536 1.02387C12.4944 1.36196 12.7671 1.84615 12.7671 2.39628C12.7671 2.94639 12.4944 3.43058 12.0536 3.76865C11.6682 4.06427 11.1461 4.24711 10.5789 4.24711C10.0116 4.24711 9.48953 4.06425 9.1041 3.76865C8.6633 3.43058 8.39062 2.94637 8.39062 2.39628C8.39062 1.84617 8.66332 1.36196 9.1041 1.02387C9.48956 0.728297 10.0116 0.54541 10.5789 0.54541ZM11.4032 2.00532C11.2003 1.84967 10.9094 1.75339 10.5789 1.75339C10.2483 1.75339 9.95741 1.8497 9.75446 2.00532C9.60691 2.11848 9.51563 2.25778 9.51563 2.39628C9.51563 2.53479 9.60691 2.67405 9.75446 2.7872C9.95741 2.94285 10.2483 3.03913 10.5789 3.03913C10.9094 3.03913 11.2003 2.94285 11.4032 2.7872C11.5508 2.67405 11.6421 2.53479 11.6421 2.39628C11.6421 2.25778 11.5508 2.1185 11.4032 2.00532Z" fill="#FFFFFE"/>
</svg>
