<svg width="34" height="40" viewBox="0 0 34 40" fill="none" xmlns="http://www.w3.org/2000/svg">
<path d="M8.54271 0L0.312663 3.42554L0.883316 4.91205L6.32161 2.64762L5.45025 6.26697C3.81859 6.57814 2.56281 8.07176 2.56281 9.85877C2.56281 11.628 3.79297 13.1127 5.40754 13.4417C4.66432 15.0509 3.75879 17.0779 2.84729 19.4073C1.32327 23.2835 0 27.551 0 30.1293C0 32.0408 0.728694 33.3744 1.84693 34.3079C2.96603 35.2325 4.51055 35.7304 6.06533 35.7304C7.6201 35.7304 9.16633 35.2325 10.2854 34.3079C11.4045 33.3744 12.1307 32.0408 12.1307 30.1293C12.1307 27.551 10.8065 23.2835 9.28593 19.4073C8.37186 17.0779 7.46633 15.0509 6.72312 13.4417C8.33769 13.1127 9.56784 11.628 9.56784 9.85877C9.56784 8.19623 8.48292 6.79152 7.01357 6.35588L8.54271 0ZM30.4121 0.00355631L22.1854 3.42999L22.7492 4.91649L28.191 2.65295L27.3196 6.26697C25.6879 6.57814 24.4322 8.07176 24.4322 9.85877C24.4322 11.628 25.6623 13.1127 27.2769 13.4417C26.5337 15.0509 25.6281 17.0779 24.7141 19.4073C23.1935 23.2835 21.8693 27.551 21.8693 30.1293C21.8693 32.0408 22.5955 33.3744 23.7146 34.3079C24.8337 35.2325 26.3799 35.7304 27.9347 35.7304C29.4894 35.7304 31.0357 35.2325 32.1548 34.3079C33.2739 33.3744 34 32.0408 34 30.1293C34 27.551 32.6759 23.2835 31.1553 19.4073C30.2412 17.0779 29.3357 15.0509 28.5925 13.4417C30.207 13.1127 31.4372 11.628 31.4372 9.85877C31.4372 8.19623 30.3523 6.79152 28.8829 6.35588L30.4121 0.00355631ZM6.06533 7.81393C7.15879 7.81393 8.03015 8.72077 8.03015 9.85877C8.03015 10.9968 7.15879 11.9036 6.06533 11.9036C4.97186 11.9036 4.1005 10.9968 4.1005 9.85877C4.1005 8.72077 4.97186 7.81393 6.06533 7.81393ZM27.9347 7.81393C29.0281 7.81393 29.8995 8.72077 29.8995 9.85877C29.8995 10.9968 29.0281 11.9036 27.9347 11.9036C26.8412 11.9036 25.9698 10.9968 25.9698 9.85877C25.9698 8.72077 26.8412 7.81393 27.9347 7.81393ZM6.06533 37.3307C5.46734 37.3307 4.93769 37.5263 4.59598 37.793C4.24573 38.0686 4.1005 38.362 4.1005 38.6643C4.1005 38.9665 4.24573 39.2599 4.59598 39.5355C4.93769 39.8022 5.46734 39.9978 6.06533 39.9978C6.66332 39.9978 7.19296 39.8022 7.53467 39.5355C7.88492 39.2599 8.03015 38.9665 8.03015 38.6643C8.03015 38.362 7.88492 38.0686 7.53467 37.793C7.19296 37.5263 6.66332 37.3307 6.06533 37.3307ZM27.9347 37.3307C27.3367 37.3307 26.807 37.5263 26.4653 37.793C26.1151 38.0686 25.9698 38.362 25.9698 38.6643C25.9698 38.9665 26.1151 39.2599 26.4653 39.5355C26.807 39.8022 27.3367 39.9978 27.9347 39.9978C28.5327 39.9978 29.0623 39.8022 29.404 39.5355C29.7543 39.2599 29.8995 38.9665 29.8995 38.6643C29.8995 38.362 29.7543 38.0686 29.404 37.793C29.0623 37.5263 28.5327 37.3307 27.9347 37.3307Z" fill="white"/>
</svg>
