<svg width="28" height="36" viewBox="0 0 28 36" fill="none" xmlns="http://www.w3.org/2000/svg">
<path d="M28 22.0738C28 29.3884 21.732 35.318 14 35.318C6.26796 35.318 0 29.3884 0 22.0738C0 16.6339 3.47324 11.9702 8.4308 9.93172L8.97867 10.3349L11.3864 12.1064C6.6472 13.2213 3.11111 17.2502 3.11111 22.0738C3.11111 27.7538 7.99587 32.3748 14 32.3748C20.0041 32.3748 24.8889 27.7538 24.8889 22.0738C24.8889 17.2502 21.3528 13.2213 16.6136 12.1064L19.5692 9.93201C24.5268 11.9704 28 16.6339 28 22.0738ZM14 10.3011L21.7778 4.5781L18.6667 0H9.33333L6.22222 4.5781L10.8889 8.01189L14 10.3011Z" fill="white"/>
</svg>
