<svg width="71" height="69" viewBox="0 0 71 69" fill="white" xmlns="http://www.w3.org/2000/svg">
<path d="M44.8795 0.000343653C40.7538 -0.036641 36.9599 2.9157 35.5021 6.90226C34.0326 2.88096 30.1842 -0.0838079 26.0164 0.00483554C23.7334 0.0534996 21.3552 1.01765 19.2172 3.22894C17.4841 5.02098 16.5182 7.3889 15.5294 9.77987C13.263 13.1474 10.2312 15.66 5.83586 16.6488C6.89352 17.6033 8.04636 18.0998 9.25904 18.3054C7.11472 19.4775 4.18485 20.1253 0 19.9195C3.10166 23.8616 7.95404 25.2025 13.0364 25.0902C22.2102 24.7398 26.8536 20.1001 29.5718 15.3761L32.0223 16.7611C28.9419 22.1148 23.0851 27.4692 12.791 27.8557C12.7907 27.8916 12.791 27.9275 12.791 27.9635C12.791 28.8719 12.9905 29.9699 13.3479 31.2106L13.3102 31.1406L17.7675 48.3414L18.4663 42.5577C21.0492 47.2684 24.158 52.2594 27.0079 56.6284L27.2533 49.7215C28.1342 55.4885 30.3779 60.716 33.1553 65.7388C34.5661 67.7612 35.4595 69 35.4595 69C35.4595 69 36.5101 67.5486 38.1603 65.1725C38.1709 65.1575 38.1833 65.1406 38.1936 65.1256C41.3303 60.2116 43.9436 55.055 45.2101 49.2677L45.0494 54.8735C46.461 52.6775 47.9086 50.3682 49.3036 48.0372V52.2998L55.4279 36.7086C56.9203 33.4766 57.9228 30.635 58.0957 28.5717C48.1668 27.3862 41.2931 22.3038 38.1038 16.7613L40.5546 15.3762C43.5314 20.5499 50.6083 25.6975 61.4527 26.0168C63.7319 25.9718 65.9711 25.4743 68.3415 24.3228C66.1018 24.3405 64.1897 24.1611 62.5198 23.8081C66.0464 23.0391 69.1039 21.2933 71 18.1227C55.5068 21.3061 57.3497 8.98583 51.7826 3.22879C49.6114 0.983657 47.1939 0.0208575 44.8796 0.000193999L44.8795 0.000343653Z" fill="white"/>
</svg>
