<svg width="79" height="51" viewBox="0 0 79 51" fill="white" xmlns="http://www.w3.org/2000/svg">
<path d="M78.8884 32.8701C78.8884 30.5272 77.6551 28.4866 75.8091 27.3217C76.0878 26.5933 76.2587 25.8096 76.2587 24.9813C76.2587 21.6259 73.7369 18.8911 70.492 18.4888C70.8023 17.6394 70.9995 16.7348 70.9995 15.7777C70.9995 11.4204 67.468 7.88884 63.1107 7.88884C62.072 7.88884 61.0859 8.10183 60.1787 8.46735C59.2688 5.11197 56.2343 2.62961 52.5922 2.62961C50.3045 2.62961 48.2639 3.61835 46.8229 5.17245C45.7132 2.15891 42.8416 0 39.4442 0C36.0467 0 33.1752 2.15891 32.0655 5.17245C30.6245 3.61835 28.5839 2.62961 26.2961 2.62961C22.6541 2.62961 19.6195 5.11197 18.7123 8.46735C17.8025 8.10183 16.8164 7.88884 15.7777 7.88884C11.4204 7.88884 7.88884 11.4204 7.88884 15.7777C7.88884 16.7348 8.08606 17.6394 8.39635 18.4888C5.15141 18.8911 2.62961 21.6259 2.62961 24.9813C2.62961 25.8096 2.80054 26.5933 3.07928 27.3217C1.23329 28.4866 0 30.5272 0 32.8701C0 35.1789 1.19647 37.2038 3.00039 38.3766C2.76898 39.1155 2.62961 39.9149 2.62961 40.759C2.62961 44.3905 4.98311 47.333 7.88884 47.333C8.74872 47.333 9.54549 47.0516 10.2634 46.5941C11.4309 50.3886 13.1481 52.5449 13.1481 47.333C13.1481 43.1651 13.1822 40.6222 15.1466 36.6016C18.2732 37.6613 22.7935 37.0197 27.0666 34.5531C27.8081 34.1245 28.4997 33.659 29.1519 33.1726C30.1459 36.7541 34.3743 39.4442 39.4442 39.4442C42.8522 39.4442 45.8525 38.2083 47.7722 36.3228C49.0239 39.6335 53.0366 42.0738 57.8515 42.0738C60.6809 42.0738 63.2395 41.2271 65.1276 39.8623C65.8166 42.2658 65.8428 44.3931 65.8428 47.333C65.8428 53.5073 67.6152 50.904 68.7854 46.7019C69.4586 47.0964 70.2054 47.333 70.9995 47.333C73.9052 47.333 76.2587 44.3905 76.2587 40.759C76.2587 39.9149 76.1194 39.1155 75.8906 38.3766C77.6919 37.2038 78.8884 35.1789 78.8884 32.8701Z" fill="white"/>
</svg>
