<svg width="63" height="42" viewBox="0 0 63 42" fill="white" xmlns="http://www.w3.org/2000/svg">
<path d="M62.6194 19.4031C56.688 7.83016 44.9455 0 31.5 0C18.0545 0 6.3087 7.83563 0.380566 19.4042C0.130361 19.8992 0 20.446 0 21.0005C0 21.5551 0.130361 22.1019 0.380566 22.5969C6.31198 34.1698 18.0545 42 31.5 42C44.9455 42 56.6913 34.1644 62.6194 22.5958C62.8696 22.1008 63 21.554 63 20.9995C63 20.4449 62.8696 19.8981 62.6194 19.4031ZM31.5 36.75C28.3849 36.75 25.3398 35.8263 22.7498 34.0956C20.1597 32.365 18.141 29.9052 16.9489 27.0273C15.7568 24.1493 15.4449 20.9825 16.0526 17.9273C16.6603 14.8721 18.1604 12.0657 20.363 9.86307C22.5657 7.66039 25.3721 6.16035 28.4273 5.55263C31.4825 4.94491 34.6493 5.25682 37.5273 6.4489C40.4052 7.64098 42.865 9.65969 44.5957 12.2498C46.3263 14.8398 47.25 17.8849 47.25 21C47.251 23.0686 46.8443 25.1171 46.0532 27.0285C45.262 28.9398 44.1019 30.6765 42.6392 32.1392C41.1765 33.6019 39.4398 34.762 37.5285 35.5532C35.6171 36.3443 33.5686 36.751 31.5 36.75ZM31.5 10.5C30.5628 10.5131 29.6316 10.6525 28.7317 10.9145C29.4735 11.9226 29.8295 13.1632 29.7351 14.4112C29.6407 15.6592 29.1021 16.8321 28.2171 17.7171C27.3321 18.6021 26.1592 19.1407 24.9112 19.2351C23.6631 19.3295 22.4226 18.9735 21.4145 18.2317C20.8405 20.3466 20.9441 22.5882 21.7108 24.6411C22.4775 26.694 23.8686 28.4548 25.6885 29.6756C27.5083 30.8964 29.6651 31.5158 31.8554 31.4466C34.0457 31.3774 36.1592 30.6231 37.8983 29.2899C39.6375 27.9566 40.9147 26.1115 41.5503 24.0144C42.1859 21.9172 42.1478 19.6735 41.4414 17.5991C40.7351 15.5247 39.3959 13.724 37.6126 12.4505C35.8292 11.177 33.6914 10.4948 31.5 10.5Z" fill="white"/>
</svg>
