<svg width="46" height="31" viewBox="0 0 46 31" fill="none" xmlns="http://www.w3.org/2000/svg">
<path fill-rule="evenodd" clip-rule="evenodd" d="M11.3567 2.81818C9.11443 2.81818 6.96398 3.70893 5.37845 5.29446C3.79291 6.88 2.90217 9.03044 2.90217 11.2727V28.1818H19.8113V11.2727C19.8113 9.03044 18.9205 6.88 17.335 5.29446C15.7494 3.70893 13.599 2.81818 11.3567 2.81818ZM11.3567 0H33.9022C36.8919 0 39.7591 1.18766 41.8732 3.3017C43.9872 5.41575 45.1749 8.28301 45.1749 11.2727V28.1818C45.1749 28.9292 44.878 29.6461 44.3495 30.1746C43.821 30.7031 43.1041 31 42.3567 31H2.90217C2.15474 31 1.43792 30.7031 0.909411 30.1746C0.380899 29.6461 0.0839844 28.9292 0.0839844 28.1818V11.2727C0.0839844 8.28301 1.27164 5.41575 3.38569 3.3017C5.49974 1.18766 8.367 0 11.3567 0ZM18.8136 2.81818C20.0144 3.87493 20.9759 5.17571 21.6339 6.63366C22.2919 8.09161 22.6313 9.67317 22.6294 11.2727V28.1818H42.3567V11.2727C42.3567 9.03044 41.466 6.88 39.8804 5.29446C38.2949 3.70893 36.1445 2.81818 33.9022 2.81818H18.8136Z" fill="white"/>
<path fill-rule="evenodd" clip-rule="evenodd" d="M33.3188 15.4998H25.4476V12.6816H39.5385C39.9123 12.6816 40.2707 12.8301 40.5349 13.0944C40.7992 13.3586 40.9476 13.717 40.9476 14.0907V16.9089C40.9476 17.2826 40.7992 17.641 40.5349 17.9053C40.2707 18.1695 39.9123 18.318 39.5385 18.318H36.7204C36.5352 18.3183 36.3518 18.2822 36.1806 18.2116C36.0094 18.141 35.8538 18.0373 35.7227 17.9066L33.3188 15.4998Z" fill="white"/>
<path d="M14.1749 11.2723C14.1749 12.8279 12.9123 11.2723 11.3567 11.2723C9.80106 11.2723 8.53851 12.8279 8.53851 11.2723C8.53851 10.5249 8.83543 9.80804 9.36394 9.27953C9.89245 8.75102 10.6093 8.4541 11.3567 8.4541C12.1041 8.4541 12.8209 8.75102 13.3494 9.27953C13.878 9.80804 14.1749 10.5249 14.1749 11.2723Z" fill="white"/>
</svg>
