<svg width="20" height="37" viewBox="0 0 20 37" fill="none" xmlns="http://www.w3.org/2000/svg">
<path d="M10 0C6.27685 0 3.73807 2.2151 2.21957 4.34851C0.701074 6.48191 0.0954654 8.6216 0.0954654 8.6216L0 8.94837L5.51313 18.9022C5.25656 19.2069 3.89021 20.935 3.89021 23.3261C3.89021 24.7337 4.52864 26.2576 5.1074 27.6495C5.39678 28.347 5.66826 29.0005 5.87112 29.5346C6.04415 29.984 6.13067 30.3264 6.15752 30.4647C6.14857 30.5401 6.14857 30.6155 6.15752 30.6909C6.12769 30.8071 6.06802 30.9768 5.94272 31.1936C5.76074 31.5078 5.48329 31.8566 5.20286 32.2242C4.92243 32.5918 4.63305 32.972 4.39141 33.3302C4.14976 33.6883 3.89021 33.9837 3.89021 34.587C3.89021 34.9546 4.0543 35.2499 4.22434 35.4416C4.39439 35.6332 4.59129 35.7746 4.79714 35.894C5.20883 36.136 5.71301 36.3119 6.27685 36.4721C7.40155 36.7958 8.7679 37 10 37C11.2321 37 12.5984 36.7958 13.7232 36.4721C14.287 36.3119 14.7912 36.136 15.2029 35.894C15.4087 35.7746 15.6056 35.6332 15.7757 35.4416C15.9457 35.2499 16.1098 34.9546 16.1098 34.587C16.1098 33.9837 15.8502 33.6883 15.6086 33.3302C15.3669 32.972 15.0776 32.5918 14.7971 32.2242C14.5167 31.8566 14.2393 31.5078 14.0573 31.1936C13.8753 30.8794 13.8186 30.6092 13.8186 30.5652C13.8186 30.5212 13.926 30.0688 14.1289 29.5346C14.3317 29.0005 14.6032 28.347 14.8926 27.6495C15.4714 26.2576 16.1098 24.7337 16.1098 23.3261C16.1098 20.935 14.7434 19.2069 14.4869 18.9022L20 8.94837L19.9045 8.59647C19.9045 8.59647 19.2631 6.47877 17.7327 4.34851C16.2023 2.21824 13.6784 0 10 0ZM10 1.6087C13.1056 1.6087 15.1581 3.41219 16.5155 5.30367C17.685 6.93122 18.1683 8.35453 18.3055 8.77242L14.8687 15.0061L16.8496 7.76698C16.969 7.33653 16.7333 6.88723 16.3246 6.76155C15.9159 6.63587 15.4893 6.88409 15.3699 7.31454L12.506 17.7459L14.2243 4.37364C14.278 3.93062 13.9767 3.52531 13.5561 3.46875C13.1354 3.41219 12.7506 3.72953 12.6969 4.17255L10.7637 19.2038V3.21739C10.7697 2.96917 10.6653 2.73353 10.4833 2.57643C10.3043 2.41933 10.0626 2.35963 9.83294 2.41304C9.47792 2.49788 9.22733 2.83407 9.23628 3.21739V19.2038L7.25537 4.24796C7.20167 3.80494 6.81683 3.4876 6.39618 3.54416C5.97554 3.60071 5.67422 4.00603 5.72792 4.44905L7.4463 17.3689L4.60621 7.26427C4.48687 6.83381 4.06026 6.5856 3.65155 6.71128C3.24284 6.83696 3.00716 7.28626 3.12649 7.71671L5.20286 15.1067L1.69451 8.77242C1.81981 8.37653 2.2673 6.94693 3.43675 5.30367C4.77924 3.41534 6.84069 1.6087 10 1.6087ZM6.49165 20.2595C7.09427 20.4952 8.20704 20.8533 9.7852 20.8879C9.86277 20.891 9.92243 20.913 10 20.913C10.0865 20.913 10.1551 20.891 10.2387 20.8879C11.8049 20.8502 12.9087 20.4952 13.5084 20.2595C13.8484 20.7371 14.5823 21.8431 14.5823 23.3261C14.5823 24.1587 14.0752 25.6354 13.5084 26.9959C13.2249 27.6746 12.9236 28.3407 12.6969 28.9314C12.4702 29.5221 12.2912 29.9934 12.2912 30.5652C12.2912 31.1371 12.5209 31.5926 12.7685 32.0231C13.0161 32.4535 13.3115 32.8463 13.6038 33.2296C13.8962 33.6129 14.1796 33.9837 14.3675 34.2602C14.4779 34.4267 14.46 34.4047 14.4869 34.4613C14.472 34.4707 14.4779 34.477 14.463 34.4864C14.2303 34.6215 13.8276 34.7755 13.3413 34.9137C12.3658 35.1934 11.0621 35.3913 10 35.3913C8.93795 35.3913 7.63425 35.1934 6.65871 34.9137C6.17243 34.7755 5.76969 34.6215 5.53699 34.4864C5.52208 34.477 5.52804 34.4707 5.51313 34.4613C5.53998 34.4047 5.52208 34.4267 5.63246 34.2602C5.82041 33.9837 6.10382 33.6129 6.39618 33.2296C6.68854 32.8463 6.98389 32.4535 7.2315 32.0231C7.29714 31.91 7.36277 31.7906 7.42243 31.6712C8.04296 31.9131 8.93795 32.1739 10 32.1739C10.2745 32.1771 10.531 32.0262 10.6712 31.7749C10.8085 31.5235 10.8085 31.2156 10.6712 30.9642C10.531 30.7129 10.2745 30.5621 10 30.5652C8.93496 30.5652 8.06981 30.2196 7.63723 30.0122C7.56563 29.6666 7.44928 29.3178 7.3031 28.9314C7.07637 28.3407 6.77506 27.6746 6.49165 26.9959C5.92482 25.6354 5.41766 24.1587 5.41766 23.3261C5.41766 21.8431 6.15155 20.7371 6.49165 20.2595Z" fill="white"/>
</svg>
