<svg width="32" height="17" viewBox="0 0 32 17" fill="none" xmlns="http://www.w3.org/2000/svg">
<path d="M31.8296 10.9258C31.9103 11.0765 31.9628 11.243 31.9839 11.4155C32.005 11.5881 31.9943 11.7635 31.9525 11.9316C31.9107 12.0998 31.8386 12.2574 31.7402 12.3955C31.6419 12.5336 31.5193 12.6495 31.3794 12.7365C31.2395 12.8236 31.0851 12.8801 30.9249 12.9028C30.7648 12.9255 30.602 12.914 30.446 12.869C30.29 12.8239 30.1437 12.7462 30.0155 12.6402C29.8874 12.5343 29.7798 12.4021 29.6991 12.2514L26.8725 6.97578C25.2071 8.17768 23.3757 9.08805 21.4463 9.6731L22.3402 15.1353C22.3968 15.4815 22.3235 15.8378 22.1364 16.1258C21.9492 16.4138 21.6636 16.61 21.3423 16.6711C21.2713 16.6845 21.1993 16.6913 21.1271 16.6913C20.8382 16.6909 20.5586 16.5808 20.3374 16.3805C20.1161 16.1802 19.9674 15.9024 19.9171 15.5958L19.0379 10.2226C17.0245 10.5396 14.9791 10.5388 12.966 10.2204L12.0869 15.5935C12.0367 15.9002 11.8879 16.1781 11.6667 16.3784C11.4454 16.5787 11.1658 16.6887 10.8769 16.6892C10.8048 16.6892 10.7328 16.6824 10.6618 16.669C10.3405 16.6079 10.0549 16.4118 9.86774 16.1239C9.68059 15.8359 9.60725 15.4796 9.66384 15.1333L10.5579 9.66889C8.63081 9.0829 6.80177 8.17237 5.13849 6.97101L2.29533 12.2776C2.21456 12.4284 2.10703 12.5605 1.97887 12.6664C1.85071 12.7724 1.70444 12.8501 1.54841 12.8952C1.39237 12.9402 1.22963 12.9517 1.06948 12.929C0.909329 12.9063 0.754898 12.8498 0.615006 12.7627C0.475114 12.6757 0.352502 12.5598 0.254169 12.4217C0.155836 12.2836 0.0837084 12.126 0.0419044 11.9578C0.000100483 11.7897 -0.0105611 11.6143 0.0105282 11.4418C0.0316176 11.2692 0.0840448 11.1028 0.164817 10.952L3.16286 5.35632C2.11721 4.3866 1.15568 3.31627 0.290203 2.15859C0.0851798 1.88513 -0.0106364 1.5351 0.0238326 1.18551C0.0583017 0.835917 0.220233 0.515399 0.474002 0.294466C0.727772 0.0735319 1.05259 -0.0297203 1.37701 0.0074237C1.70142 0.0445677 1.99886 0.219064 2.20388 0.492528C3.16452 1.78065 4.26083 2.9441 5.47076 3.95944C5.48041 3.96689 5.48923 3.97506 5.49861 3.98274C8.5009 6.49976 12.2051 7.84814 16.0088 7.80857C19.8116 7.84811 23.515 6.50036 26.5169 3.98444C26.5249 3.97789 26.5325 3.97093 26.5408 3.96462C27.753 2.94803 28.8514 1.78282 29.8136 0.492528C30.0187 0.21936 30.3161 0.0451323 30.6404 0.00813544C30.9647 -0.0288614 31.2893 0.0744015 31.5429 0.295228C31.7966 0.516054 31.9585 0.836372 31.9931 1.18578C32.0276 1.53519 31.932 1.88509 31.7273 2.15859C30.8601 3.31854 29.8966 4.3908 28.8486 5.36206L31.8296 10.9258Z" fill="white"/>
</svg>
