<svg width="38" height="41" viewBox="0 0 38 41" fill="none" xmlns="http://www.w3.org/2000/svg">
<path d="M22.9 11.7465C22.8937 12.0723 22.061 30.1242 22.061 30.1242L23.445 34.7054C23.445 34.7054 24.4144 12.0331 24.4184 11.7012C24.4835 7.84814 23.2523 4.97174 22.002 4.12082C21.7166 3.93007 21.4561 3.85946 21.2383 3.84942C20.4189 2.12929 19.2837 0.946397 17.9961 0.990055C16.4767 1.04124 15.0811 2.77936 14.1414 5.06862C12.6592 6.64061 11.5245 10.469 11.4814 12.1357L11.2129 35.0868L14.0267 30.3747C14.0267 30.3747 12.6011 15.2586 14.7976 15.5924C16.9942 15.9262 16.5435 16.309 17.598 16.2738C20.2548 16.1835 22.4465 14.6769 22.5599 10.3412C22.5826 9.4711 22.5162 8.56996 22.3788 7.68552C22.6932 8.69231 22.928 10.0356 22.9 11.7465ZM18.9437 15.0156C18.0605 15.045 18.7654 14.1528 18.8659 10.2702C18.9662 6.38646 18.0454 2.19953 18.929 2.16945C19.8142 2.13944 21.8216 6.29005 21.7198 10.172C21.6201 14.056 19.8325 14.9867 18.9437 15.0156Z" fill="white"/>
</svg>
