<svg width="24" height="32" viewBox="0 0 24 32" fill="none" xmlns="http://www.w3.org/2000/svg">
<path d="M23.2001 23.5789H22.4002C22.4002 22.5432 22.4961 21.4316 21.2883 20.6147C27.6076 12.5137 22.2082 0 12.0012 0C1.79419 0 -3.61327 12.5053 2.7141 20.6147C1.49022 21.44 1.60221 22.6526 1.60221 23.5789H0.802293C0.59014 23.5789 0.386677 23.6677 0.236663 23.8256C0.0866483 23.9835 0.00237172 24.1977 0.00237172 24.4211V28.6316C0.00237172 29.5249 0.339481 30.3817 0.939538 31.0134C1.5396 31.6451 2.35345 32 3.20206 32H20.8003C21.6489 32 22.4628 31.6451 23.0628 31.0134C23.6629 30.3817 24 29.5249 24 28.6316V24.4211C24 24.1977 23.9157 23.9835 23.7657 23.8256C23.6157 23.6677 23.4122 23.5789 23.2001 23.5789ZM12.0012 1.68421C14.0381 1.68764 16.0293 2.32079 17.7275 3.50504C19.4256 4.68929 20.756 6.37251 21.5535 8.34573C22.3509 10.3189 22.5803 12.4953 22.2132 14.6045C21.8461 16.7138 20.8987 18.6631 19.4884 20.2105H17.0407C24.136 14.9642 20.4723 3.36842 12.0012 3.36842C3.53002 3.36842 -0.133614 14.9642 6.96168 20.2105H4.51393C3.10372 18.6631 2.15625 16.7138 1.78914 14.6045C1.42203 12.4953 1.65145 10.3189 2.44891 8.34573C3.24637 6.37251 4.57675 4.68929 6.27491 3.50504C7.97308 2.32079 9.96423 1.68764 12.0012 1.68421ZM12.0012 20.2105C10.5773 20.2105 9.18539 19.766 8.00148 18.9332C6.81756 18.1005 5.89481 16.9168 5.34991 15.5319C4.80501 14.147 4.66244 12.6232 4.94023 11.153C5.21802 9.68283 5.90368 8.33239 6.91052 7.27245C7.91736 6.21252 9.20015 5.49069 10.5967 5.19826C11.9932 4.90582 13.4407 5.05591 14.7562 5.62954C16.0717 6.20318 17.1961 7.17459 17.9872 8.42094C18.7782 9.66729 19.2005 11.1326 19.2005 12.6316C19.2005 14.6416 18.442 16.5694 17.0919 17.9907C15.7417 19.412 13.9106 20.2105 12.0012 20.2105ZM4.17796 21.8947H20.0004C20.2125 21.8947 20.416 21.9835 20.566 22.1414C20.716 22.2993 20.8003 22.5135 20.8003 22.7368V23.5789H3.20206C3.20206 22.6442 3.08207 21.8947 4.17796 21.8947ZM14.9769 25.2632C14.4729 27.3937 14.9769 26.9474 10.0494 26.9474C9.31345 26.9474 9.24946 26.2653 9.02548 25.2632H14.9769ZM22.4002 28.6316C22.4002 29.0783 22.2316 29.5066 21.9316 29.8225C21.6315 30.1383 21.2246 30.3158 20.8003 30.3158H3.20206C2.77775 30.3158 2.37083 30.1383 2.0708 29.8225C1.77077 29.5066 1.60221 29.0783 1.60221 28.6316V25.2632H7.37764L7.72161 26.72C7.85176 27.2662 8.1515 27.7509 8.57323 28.0972C8.99496 28.4435 9.51451 28.6316 10.0494 28.6316H13.953C14.4879 28.6316 15.0074 28.4435 15.4291 28.0972C15.8509 27.7509 16.1506 27.2662 16.2808 26.72L16.6247 25.2632H22.4002V28.6316Z" fill="white"/>
</svg>
