<svg width="54" height="55" viewBox="0 0 54 55" fill="none" xmlns="http://www.w3.org/2000/svg">
<path fill-rule="evenodd" clip-rule="evenodd" d="M12.1367 50.5709C12.802 50.5295 14.434 49.7483 14.8879 49.5199C16.1681 48.8757 17.4084 48.1008 18.5961 47.3006C20.0891 46.2949 21.5374 45.2141 22.9504 44.0992C26.3063 41.4513 29.5216 38.5676 32.5829 35.5852C33.054 35.1262 33.5222 34.6642 33.9872 34.1991C36.2444 31.9419 38.4376 29.6104 40.5279 27.1975C42.3901 25.0479 44.1978 22.8112 45.8225 20.4758C47.1031 18.6348 48.4835 16.457 49.2511 14.3414C49.5574 13.497 50.0089 11.9536 49.5051 11.0805L42.1088 3.68425C41.2662 2.84166 41.2662 1.47453 42.1088 0.631941C42.9514 -0.210647 44.3185 -0.210647 45.1611 0.631941L52.699 8.16974C52.8411 8.31185 52.9531 8.46902 53.0553 8.64105C54.1357 10.4587 53.8696 12.7303 53.2963 14.6668C52.5346 17.2393 51.0906 19.823 49.6464 22.0713C47.9159 24.7652 45.938 27.337 43.88 29.7877C41.6028 32.4994 39.1838 35.1039 36.6762 37.6036C36.3161 37.9625 35.954 38.3194 35.5898 38.6742C32.4216 41.7607 29.0926 44.7395 25.6195 47.4799C24.1053 48.6747 22.5527 49.8314 20.9522 50.9082C19.6299 51.798 18.2523 52.6533 16.8278 53.3702C14.4246 54.5796 11.1227 55.6519 8.92793 53.4571L0.631941 45.1611C-0.210647 44.3185 -0.210647 42.9514 0.631941 42.1088C1.47453 41.2662 2.84166 41.2662 3.68425 42.1088L12.0074 50.432C12.0523 50.4769 12.0955 50.5231 12.1367 50.5709Z" fill="#FFFFFE"/>
<path d="M8.88119 39.1217C8.45979 38.7003 7.77652 38.7003 7.35511 39.1217C6.93371 39.5431 6.93371 40.2264 7.35511 40.6478L17.5344 50.8271C17.9558 51.2485 18.6391 51.2485 19.0605 50.8271C19.4819 50.4057 19.4819 49.7224 19.0605 49.301L8.88119 39.1217Z" fill="#FFFFFE"/>
<path d="M14.1702 33.8268C13.7488 33.4054 13.0655 33.4054 12.6442 33.8268C12.2228 34.2482 12.2228 34.9315 12.6442 35.3529L23.7007 46.4095C24.1221 46.8309 24.8054 46.8309 25.2267 46.4095C25.6481 45.9881 25.6481 45.3048 25.2267 44.8834L14.1702 33.8268Z" fill="#FFFFFE"/>
<path d="M19.4671 28.5319C19.0457 28.1105 18.3624 28.1105 17.941 28.5319C17.5197 28.9533 17.5197 29.6365 17.941 30.0579L28.9147 41.0316C29.3361 41.453 30.0194 41.453 30.4407 41.0316C30.8621 40.6102 30.8621 39.9269 30.4407 39.5055L19.4671 28.5319Z" fill="#FFFFFE"/>
<path d="M24.764 23.2369C24.3426 22.8156 23.6593 22.8156 23.2379 23.2369C22.8165 23.6583 22.8165 24.3416 23.2379 24.763L34.4989 36.0239C34.9203 36.4453 35.6035 36.4453 36.025 36.0239C36.4464 35.6025 36.4464 34.9192 36.025 34.4978L24.764 23.2369Z" fill="#FFFFFE"/>
<path d="M30.0609 17.942C29.6395 17.5206 28.9562 17.5206 28.5348 17.942C28.1134 18.3634 28.1134 19.0467 28.5348 19.4681L39.5658 30.4991C39.9872 30.9205 40.6705 30.9205 41.0919 30.4991C41.5133 30.0777 41.5133 29.3944 41.0919 28.9731L30.0609 17.942Z" fill="#FFFFFE"/>
<path d="M35.3499 12.6471C34.9285 12.2257 34.2452 12.2257 33.8239 12.6471C33.4025 13.0685 33.4025 13.7518 33.8239 14.1732L44.7441 25.0934C45.1655 25.5147 45.8488 25.5147 46.2701 25.0934C46.6915 24.672 46.6915 23.9887 46.2701 23.5673L35.3499 12.6471Z" fill="#FFFFFE"/>
<path d="M40.6468 7.35121C40.2254 6.92981 39.5421 6.92981 39.1207 7.35121C38.6993 7.77261 38.6993 8.45587 39.1207 8.87728L49.0017 18.7582C49.4231 19.1796 50.1063 19.1796 50.5277 18.7582C50.9491 18.3368 50.9491 17.6535 50.5277 17.2322L40.6468 7.35121Z" fill="#FFFFFE"/>
</svg>
