<svg width="18" height="26" viewBox="0 0 18 26" fill="none" xmlns="http://www.w3.org/2000/svg">
<path d="M9 7.67701C9.34092 7.67723 9.66782 7.81211 9.90889 8.05201C10.15 8.29192 10.2855 8.61723 10.2857 8.95651C10.2857 9.29585 10.4212 9.6213 10.6623 9.86125C10.9034 10.1012 11.2304 10.236 11.5714 10.236C11.9124 10.236 12.2394 10.1012 12.4806 9.86125C12.7217 9.6213 12.8571 9.29585 12.8571 8.95651C12.8568 8.31776 12.6963 7.68919 12.3901 7.1278C12.0839 6.56641 11.6418 6.08995 11.1037 5.74162C10.5657 5.39328 9.94887 5.18409 9.30907 5.133C8.66928 5.08192 8.02679 5.19055 7.43985 5.44907C6.85292 5.70758 6.3401 6.10779 5.94789 6.61342C5.55568 7.11905 5.29649 7.7141 5.19381 8.34462C5.09113 8.97514 5.14821 9.6212 5.35988 10.2242C5.57155 10.8272 5.93111 11.3681 6.40597 11.7979C6.41883 11.8095 6.61314 12.0153 6.65457 12.0728C6.80015 12.2835 6.87809 12.5331 6.87809 12.7888C6.87809 13.0444 6.80015 13.2941 6.65457 13.5047C6.55911 13.6432 6.49198 13.7991 6.45704 13.9634C6.42209 14.1277 6.42001 14.2972 6.4509 14.4623C6.4818 14.6275 6.54507 14.7849 6.63711 14.9257C6.72914 15.0664 6.84814 15.1878 6.9873 15.2828C7.12647 15.3778 7.28307 15.4446 7.44818 15.4794C7.61328 15.5142 7.78365 15.5162 7.94956 15.4855C8.11547 15.4547 8.27367 15.3918 8.41513 15.3002C8.55658 15.2086 8.67853 15.0902 8.774 14.9517C9.21503 14.3136 9.45062 13.5572 9.4495 12.7828C9.44838 12.0084 9.2106 11.2526 8.76772 10.6159C8.56978 10.3677 8.35897 10.13 8.13615 9.90363C8.05966 9.83414 7.99142 9.75617 7.93275 9.67122C7.80277 9.47859 7.72783 9.25442 7.71595 9.02268C7.70407 8.79094 7.75569 8.56034 7.8653 8.35554C7.9749 8.15073 8.13837 7.97942 8.33823 7.8599C8.53809 7.74039 8.76683 7.67717 9 7.67701ZM9 0C7.61957 0.000117701 6.25766 0.316217 5.0196 0.923852C3.78155 1.53149 2.70052 2.41437 1.86014 3.50423C1.01975 4.59408 0.442524 5.8617 0.173099 7.20904C-0.096327 8.55639 -0.0507309 9.94735 0.30636 11.2743C0.395645 11.6009 0.611326 11.879 0.906178 12.0477C1.20103 12.2163 1.55103 12.2618 1.87953 12.1743C2.20804 12.0867 2.48829 11.8731 2.65891 11.5803C2.82954 11.2876 2.87664 10.9394 2.7899 10.6122C2.55312 9.73254 2.50778 8.81273 2.6569 7.91425C2.80601 7.01577 3.14615 6.15932 3.65458 5.40216C4.163 4.645 4.82799 4.00458 5.60509 3.52372C6.38219 3.04285 7.25349 2.73263 8.16074 2.61377C9.06799 2.49492 9.99028 2.57019 10.866 2.83454C11.7416 3.09889 12.5505 3.54623 13.2385 4.14666C13.9265 4.74708 14.4778 5.48676 14.8555 6.31623C15.2331 7.1457 15.4285 8.04585 15.4286 8.95651C15.4231 10.1119 15.1104 11.2453 14.522 12.2415L9.94044 21.7515C9.71435 22.14 9.38976 22.4627 8.9991 22.6872C8.60845 22.9117 8.16541 23.0303 7.71429 23.031C7.0351 23.0221 6.38625 22.7496 5.90595 22.2716C5.42565 21.7936 5.15185 21.1479 5.14286 20.472C5.14285 20.0231 5.26196 19.5822 5.48814 19.1938C5.65897 18.8999 5.70548 18.5504 5.61742 18.2223C5.52936 17.8943 5.31395 17.6145 5.01858 17.4445C4.72321 17.2744 4.37207 17.2282 4.04241 17.3158C3.71275 17.4034 3.43158 17.6178 3.26074 17.9117C2.92051 18.4971 2.70028 19.1439 2.61277 19.8145C2.52526 20.4851 2.57221 21.1664 2.75091 21.8188C2.9296 22.4713 3.2365 23.082 3.65386 23.6157C4.07121 24.1494 4.59074 24.5955 5.1824 24.9281C5.77406 25.2608 6.42611 25.4734 7.10085 25.5537C7.7756 25.6339 8.45964 25.5803 9.11343 25.3959C9.76722 25.2115 10.3778 24.8999 10.9098 24.4792C11.4418 24.0584 11.8848 23.5369 12.213 22.9448L16.7946 13.4348C17.5844 12.0731 18.0001 10.5286 18 8.95648C17.9999 7.38432 17.584 5.83987 16.794 4.47836C16.0041 3.11684 14.868 1.98622 13.4999 1.20011C12.1317 0.414 10.5798 9.8787e-05 9 0Z" fill="white"/>
</svg>
