<svg width="30" height="30" viewBox="0 0 30 30" fill="none" xmlns="http://www.w3.org/2000/svg">
<path d="M10.2693 0V2.67428C10.2693 3.3616 9.76658 4.14041 9.15331 4.40251L0 8.32318V11.0293L10.0783 6.71194C11.5886 6.06512 12.6857 4.36726 12.6857 2.67428V0H10.2693Z" fill="white"/>
<path d="M18.7368 0V2.67428C18.7368 3.3616 19.238 4.14041 19.8528 4.40251L29.0061 8.32318V11.0293L18.9278 6.71194C17.4164 6.06512 16.3203 4.36726 16.3203 2.67428V0H18.7368Z" fill="white"/>
<path d="M9.66545 18.7514C7.66437 18.7514 6.04458 17.0753 6.04095 15.0081V13.752H3.6245C2.91663 15.5192 1.58318 16.8218 0 17.5001V20.2063L0.924972 19.8096C1.93729 19.375 2.84342 18.7612 3.6245 18.0142V21.7249C3.6245 23.7318 4.26169 25.6358 5.43675 27.1908V30.0005H7.8532V26.2508C6.73323 25.091 6.04095 23.4925 6.04095 21.7249V19.9734C7.05328 20.7642 8.29902 21.2513 9.66545 21.2513H13.29V18.7514H9.66545Z" fill="white"/>
<path d="M25.3764 13.752H22.9599V15.0017C22.9599 17.0719 21.3387 18.7514 19.3354 18.7514H15.7109V21.2513H19.3354C20.7019 21.2513 21.9476 20.7642 22.9599 19.9734V21.7249C22.9599 23.4925 22.2677 25.0914 21.1477 26.2508V30.0005H23.5641V27.1908C24.7392 25.6358 25.3764 23.7314 25.3764 21.7249V18.0142C26.1575 18.7612 27.0621 19.375 28.0759 19.8096L29.0009 20.2063V17.5001C27.4177 16.8218 26.0843 15.5192 25.3764 13.752Z" fill="white"/>
</svg>
