<svg width="15" height="40" viewBox="0 0 15 40" fill="none" xmlns="http://www.w3.org/2000/svg">
<path d="M14.0625 21.6732H13.125V14.1758C13.125 13.9549 13.0262 13.743 12.8504 13.5868C12.6746 13.4306 12.4361 13.3428 12.1875 13.3428C12.1875 1.96351 12.4594 1.68028 11.3813 0.730613C8.75625 -1.60189 2.85937 2.08013 2.82187 5.72884V13.3511C2.57323 13.3511 2.33478 13.4389 2.15896 13.5951C1.98315 13.7513 1.88437 13.9632 1.88437 14.1842V21.6815H0.9375C0.68886 21.6815 0.450403 21.7693 0.274587 21.9255C0.0987721 22.0817 0 22.2936 0 22.5145L0 36.6679C0 37.5516 0.395088 38.3991 1.09835 39.024C1.80161 39.6489 2.75544 40 3.75 40H11.25C12.2446 40 13.1984 39.6489 13.9017 39.024C14.6049 38.3991 15 37.5516 15 36.6679V22.5062C15 22.2853 14.9012 22.0734 14.7254 21.9172C14.5496 21.7609 14.3111 21.6732 14.0625 21.6732ZM6.23438 3.05479C7.24688 2.15511 9.2625 1.21377 10.05 1.91353C10.65 2.44667 10.2281 4.00445 8.76563 5.30399C7.30313 6.60353 5.55 6.97006 4.95 6.44525C4.35 5.92044 4.77188 4.35433 6.23438 3.05479ZM4.6875 8.19463C6.5625 8.7361 8.70938 7.71147 10.0875 6.47857C10.4063 6.20367 10.3125 5.09573 10.3125 13.3428H4.6875V8.19463ZM3.75 15.0089H11.25V21.6732H3.75V15.0089ZM13.125 23.3392V25.0053H1.875V23.3392H13.125ZM11.25 38.3339H3.75C3.25272 38.3339 2.77581 38.1584 2.42417 37.8459C2.07254 37.5335 1.875 37.1097 1.875 36.6679V26.6714H13.125V36.6679C13.125 37.1097 12.9275 37.5335 12.5758 37.8459C12.2242 38.1584 11.7473 38.3339 11.25 38.3339Z" fill="white"/>
</svg>
