<svg width="90" height="103" viewBox="0 0 90 103" fill="none" xmlns="http://www.w3.org/2000/svg">
<path d="M89.9868 93.6831L86.4317 28.8905H68.6712V23.6596C68.6712 10.6131 58.1115 0 45.1312 0C32.1509 0 21.5913 10.6136 21.5913 23.6596V28.8905H3.06215L0.00359391 93.9633L0.000497699 94.0761C-0.0246102 96.4178 0.901317 98.7162 2.53948 100.379C4.17816 102.044 6.45478 103 8.78572 103H81.2149C83.6171 103 85.9434 101.994 87.5959 100.24C89.2479 98.485 90.1195 96.0954 89.9868 93.6831ZM27.7309 23.6596C27.7309 14.0162 35.5364 6.17073 45.1312 6.17073C54.7255 6.17073 62.5315 14.0162 62.5315 23.6596V28.8905H27.7304V23.6596H27.7309ZM83.1364 95.997C82.6379 96.5254 81.9379 96.8288 81.2144 96.8288H8.78522C8.08322 96.8288 7.3981 96.5414 6.90363 96.0387C6.42095 95.5495 6.14376 94.8764 6.13915 94.1863L8.91792 35.0612H21.5903V42.8753C21.5903 44.5794 22.9645 45.9607 24.6601 45.9607C26.3556 45.9607 27.7299 44.5794 27.7299 42.8753V35.0612H62.531V42.8753C62.531 44.5794 63.9053 45.9607 65.6008 45.9607C67.2964 45.9607 68.6702 44.5794 68.6702 42.8753V35.0612H80.62L83.8548 94.0236C83.8963 94.7497 83.634 95.4691 83.1364 95.997Z" fill="white"/>
</svg>
