<svg width="123" height="47" viewBox="0 0 123 47" fill="none" xmlns="http://www.w3.org/2000/svg">
<path d="M14.3687 10.3871C13.1221 10.3871 12.0313 10.855 11.304 11.6861C10.5768 12.4653 10.2652 13.608 10.421 14.8547L13.0182 30.3863C13.4337 33.7626 16.4465 36.3598 19.5631 36.3598H35.1462C38.4706 36.3598 42.2106 33.451 42.9378 30.2304L48.4438 13.6608C48.6516 12.9855 48.4958 11.9986 48.1322 11.3753C47.5608 10.7519 46.6777 10.3883 45.535 10.3883H14.3687M35.1462 46.749H19.5631C11.1482 46.749 3.77219 40.2041 2.73332 31.8931L0.136128 16.3623C-0.435253 11.9471 0.811397 7.79157 3.51247 4.77883C6.21355 1.76609 10.1613 0 14.3687 0H45.535C49.8463 0 53.7421 1.81845 56.2354 4.9866C56.8068 5.76617 57.3262 6.59727 57.7418 7.53226C59.9754 7.06477 62.2609 7.06477 64.4425 7.53226C64.8581 6.59727 65.3775 5.76617 66.0008 4.98702C68.4422 1.81886 72.338 0.000415322 76.7012 0.000415322H107.868C112.075 0.000415322 116.023 1.7665 118.724 4.77924C121.373 7.79198 122.62 11.9475 122.1 16.1553L119.451 32.1021C118.464 40.2053 111.036 46.7502 102.673 46.7502H87.09C78.9868 46.7502 71.0913 40.5693 69.1175 32.7254L64.4425 18.647C62.4687 17.1926 59.7156 17.1926 57.7418 18.647L52.9629 33.0873C51.093 40.6184 43.2495 46.7477 35.1462 46.7477M76.7012 10.3871C75.5585 10.3871 74.6754 10.7511 74.1041 11.3744C73.6885 11.9978 73.5846 12.9847 73.8443 14.0236L79.0907 29.8668C80.0257 33.451 83.7656 36.3598 87.09 36.3598H102.673C105.738 36.3598 108.802 33.7626 109.166 30.5945L111.815 14.6465C111.971 13.6076 111.659 12.4648 110.932 11.6861C110.205 10.855 109.114 10.3875 107.868 10.3875L76.7012 10.3871Z" fill="white"/>
</svg>
