<svg width="31" height="33" viewBox="0 0 31 33" fill="none" xmlns="http://www.w3.org/2000/svg">
<path d="M30.8969 27.9642C30.8949 27.8602 30.8634 27.7589 30.8061 27.672C30.7989 27.6612 30.7898 27.6528 30.7821 27.6426C25.6093 20.1422 23.7536 4.99035 23.6644 4.23682V0.555108C23.6644 0.407884 23.6059 0.266691 23.5018 0.162588C23.3977 0.0584848 23.2565 0 23.1093 0H7.78922C7.642 0 7.50081 0.0584848 7.3967 0.162588C7.2926 0.266691 7.23412 0.407884 7.23412 0.555108V4.23691C7.14486 4.99127 5.28729 20.1744 0.098779 27.6689C0.0530467 27.7349 0.0221853 27.81 0.00832646 27.8891C-0.00553235 27.9682 -0.00205884 28.0494 0.018507 28.127C0.0390728 28.2047 0.0762409 28.2769 0.127445 28.3388C0.17865 28.4006 0.242671 28.4507 0.315089 28.4854C4.41725 31.1839 9.79103 32.67 15.4492 32.67C21.1089 32.67 26.4784 31.1845 30.5808 28.4864C30.6716 28.4438 30.749 28.377 30.8045 28.2935C30.86 28.2099 30.8915 28.1127 30.8955 28.0125C30.8962 28.0015 30.8983 27.9907 30.8983 27.9796C30.8982 27.9745 30.8971 27.9694 30.8969 27.9642ZM8.34433 1.11022H22.5541V3.71406H8.34433V1.11022ZM15.4492 31.5598C10.1922 31.5598 5.20276 30.2341 1.33358 27.819C3.48722 24.5057 5.30889 19.6285 6.7517 13.3063C7.64609 9.38727 8.12092 6.0435 8.27947 4.82428H10.9313C10.7231 7.74229 9.54295 20.8788 4.84208 27.6689C4.80059 27.7288 4.7713 27.7963 4.7559 27.8676C4.7405 27.9388 4.73928 28.0124 4.75232 28.0842C4.76536 28.1559 4.7924 28.2243 4.83189 28.2856C4.87138 28.3469 4.92256 28.3998 4.98249 28.4413C5.04243 28.4828 5.10995 28.512 5.1812 28.5275C5.25246 28.5429 5.32604 28.5441 5.39777 28.531C5.46949 28.518 5.53794 28.491 5.59922 28.4515C5.66049 28.412 5.71339 28.3608 5.75488 28.3009C8.0549 24.9787 9.81814 19.9249 10.9957 13.2797C11.4888 10.4809 11.8389 7.65876 12.0447 4.82428H14.9284V29.946C14.9284 30.0932 14.9869 30.2344 15.091 30.3385C15.1951 30.4426 15.3363 30.5011 15.4835 30.5011C15.6307 30.5011 15.7719 30.4426 15.876 30.3385C15.9801 30.2344 16.0386 30.0932 16.0386 29.946V4.82427H18.8538C19.0595 7.65874 19.4096 10.4809 19.9027 13.2797C21.0803 19.9249 22.8436 24.9787 25.1436 28.3008C25.1851 28.3608 25.238 28.412 25.2993 28.4514C25.3605 28.4909 25.429 28.518 25.5007 28.531C25.5724 28.5441 25.646 28.5428 25.7173 28.5274C25.7885 28.512 25.8561 28.4827 25.916 28.4413C25.9759 28.3998 26.0271 28.3469 26.0666 28.2856C26.1061 28.2243 26.1331 28.1559 26.1462 28.0841C26.1592 28.0124 26.158 27.9388 26.1426 27.8676C26.1272 27.7963 26.0979 27.7288 26.0564 27.6689C21.3555 20.8787 20.1754 7.74228 19.9672 4.82427H22.619C22.7776 6.04349 23.2524 9.38726 24.1468 13.3063C25.5895 19.6284 27.4112 24.5054 29.5647 27.8189C25.6954 30.2342 20.7088 31.5598 15.4492 31.5598Z" fill="white"/>
</svg>
