<svg width="42" height="28" viewBox="0 0 42 28" fill="none" xmlns="http://www.w3.org/2000/svg">
<path d="M1.05664 7.63477V24.7066H6.53591L7.93381 11.8285" stroke="white" stroke-width="1.7" stroke-miterlimit="10" stroke-linecap="round" stroke-linejoin="round"/>
<path d="M34.8066 20.6671C36.7295 20.4125 38.6323 19.9291 40.4044 19.2424C40.8992 23.803 39.9897 25.0098 37.6149 26.0528C33.6568 27.7911 23.9382 26.9558 21.3045 25.0119C18.112 22.6555 19.5147 22.2375 14.0707 14.7681C9.74497 8.83319 1 5.03272 1 5.03272V1C1 1 15.5007 5.66192 18.4767 13.4657C19.0346 14.9289 19.8692 16.1569 20.9106 17.1658" stroke="white" stroke-width="1.7" stroke-miterlimit="10" stroke-linecap="round" stroke-linejoin="round"/>
<path d="M22.4033 23.1812L24.9288 9.17969L33.8264 10.9482L31.9997 24.9498" stroke="white" stroke-width="1.7" stroke-miterlimit="10" stroke-linecap="round" stroke-linejoin="round"/>
</svg>
