<svg width="26" height="26" viewBox="0 0 26 26" fill="none" xmlns="http://www.w3.org/2000/svg">
<path fill-rule="evenodd" clip-rule="evenodd" d="M26 13C26 20.1797 20.1797 26 13 26C5.8203 26 0 20.1797 0 13C0 5.8203 5.8203 0 13 0C20.1797 0 26 5.8203 26 13ZM18 10C18 11.1046 17.1046 12 16 12C14.8954 12 14 11.1046 14 10C14 8.89543 14.8954 8 16 8C17.1046 8 18 8.89543 18 10ZM10 12C11.1046 12 12 11.1046 12 10C12 8.89543 11.1046 8 10 8C8.89543 8 8 8.89543 8 10C8 11.1046 8.89543 12 10 12ZM12 16C12 17.1046 11.1046 18 10 18C8.89543 18 8 17.1046 8 16C8 14.8954 8.89543 14 10 14C11.1046 14 12 14.8954 12 16ZM16 18C17.1046 18 18 17.1046 18 16C18 14.8954 17.1046 14 16 14C14.8954 14 14 14.8954 14 16C14 17.1046 14.8954 18 16 18Z" fill="white"/>
<path d="M17 2.5C19.1667 3.16667 23.5 5.7 23.5 10.5" stroke="black" stroke-width="0.6" stroke-linecap="round"/>
</svg>
