<svg width="40" height="24" viewBox="0 0 40 24" fill="none" xmlns="http://www.w3.org/2000/svg">
<path fill-rule="evenodd" clip-rule="evenodd" d="M31.182 12.0986C30.1444 14.3114 25.9699 16.9922 19.8215 16.9922C13.7117 16.9922 9.36588 14.3452 8.45135 12.1348C3.83524 12.3423 0.517334 15.1028 0.517334 16.7437C0.517334 19.4656 9.15836 23.3264 19.8215 23.3264C30.4822 23.3264 39.1257 19.4656 39.1257 16.7437C39.1257 15.0811 35.8078 12.9625 31.182 12.0986Z" fill="white"/>
<path fill-rule="evenodd" clip-rule="evenodd" d="M24.8334 0C23.5882 0 21.016 0.85421 19.8505 0.85421C18.685 0.85421 16.1127 0 14.87 0C12.1819 0 10.5024 3.31067 10.2684 4.5775L10.2201 10.4339C11.5762 11.6549 14.1075 13.1896 16.8824 13.4212C17.8477 13.5009 18.866 13.5491 19.9253 13.5491C20.9798 13.5491 21.9956 13.5009 22.9633 13.4212C25.7382 13.1872 27.9679 11.8431 29.4012 10.4749L29.3891 4.65231C29.1816 3.3348 27.4973 0 24.8334 0Z" fill="white"/>
</svg>
