<svg width="34" height="47" viewBox="0 0 34 47" fill="none" xmlns="http://www.w3.org/2000/svg">
<path d="M17.2081 16.2318C15.2608 16.2318 13.455 17.5708 13.455 18.3833C13.455 19.1959 11.9339 45.3164 11.9339 45.3164H2V15.3412V5.83441V2H17.2108H32.4216V5.83441V15.3412V45.3164H22.4877C22.4877 45.3164 20.9666 19.196 20.9666 18.3833C20.9666 17.5707 19.1608 16.2318 17.2135 16.2318" stroke="white" stroke-width="2.52" stroke-miterlimit="10" stroke-linecap="round" stroke-linejoin="round"/>
<path d="M17.591 7.4091C18.4311 7.4091 19.1121 6.72809 19.1121 5.88802C19.1121 5.04795 18.4311 4.36694 17.591 4.36694C16.751 4.36694 16.0699 5.04795 16.0699 5.88802C16.0699 6.72809 16.751 7.4091 17.591 7.4091Z" fill="white"/>
<path d="M25.7595 4.56274C25.7595 4.56274 23.9319 11.3605 30.3894 13.2836" stroke="white" stroke-width="2.52" stroke-miterlimit="10" stroke-linecap="round" stroke-linejoin="round"/>
<path d="M8.66209 4.56274C8.66209 4.56274 10.4897 11.3605 4.03223 13.2836" stroke="white" stroke-width="2.52" stroke-miterlimit="10" stroke-linecap="round" stroke-linejoin="round"/>
</svg>
