<svg width="40" height="39" viewBox="0 0 40 39" fill="none" xmlns="http://www.w3.org/2000/svg">
<path d="M4.8314 6.73028C4.75185 6.78067 4.67661 6.84053 4.60732 6.90983L0.828375 10.6888C-0.268529 11.7857 -0.276072 13.5648 0.805741 14.6711L0.829804 14.6973L0.947159 14.8248C1.05005 14.9366 1.20137 15.1006 1.39579 15.3105C1.78458 15.7303 2.3458 16.3337 3.03665 17.0693C4.41802 18.5403 6.3194 20.5418 8.39814 22.6629C12.5125 26.8611 17.4529 31.6651 20.3968 33.6439C23.7127 35.8834 26.7258 37.1445 28.9258 37.8471C30.0258 38.1984 30.9232 38.4105 31.5544 38.5354C31.87 38.598 32.1193 38.6388 32.2944 38.6645C32.3819 38.6772 32.4509 38.6863 32.5003 38.6924L32.5454 38.6977C33.4222 38.8356 34.1973 38.8613 34.8878 38.7172C35.6265 38.563 36.2047 38.2278 36.6753 37.7571L37.5844 36.8481C37.6519 36.7806 37.7107 36.707 37.7608 36.6285C38.105 36.3162 38.3925 35.9449 38.609 35.5307C38.9057 34.9629 39.0602 34.3317 39.0595 33.6911C38.9075 32.012 37.3232 31.0419 35.9207 30.1848C35.2148 29.8349 34.5847 29.3496 34.0663 28.7564L33.0338 26.3462H33.043C33.7962 26.3462 34.4066 25.7358 34.4066 24.9826C34.4066 24.2294 33.7962 23.6191 33.043 23.6191H31.8654L31.0286 21.6656C31.5318 21.465 31.8873 20.9734 31.8873 20.3986C31.8873 19.6454 31.2769 19.035 30.5237 19.035H29.9017L29.2112 17.4233C29.9347 17.3898 30.5107 16.793 30.5107 16.0612C30.5107 15.308 29.9004 14.6977 29.1472 14.6977H28.0436L27.5097 13.451C27.4292 13.2562 27.3798 13.116 27.3382 12.9965C27.1651 12.4291 26.8421 11.9191 26.4033 11.52L25.728 10.8434C25.414 10.5411 25.0367 10.3193 24.6281 10.1911V9.60718C23.8162 7.15946 20.856 6.30601 18.8706 7.7959L16.1066 4.97763C16.355 4.72689 16.5515 4.42952 16.6846 4.10263C16.8177 3.77572 16.885 3.42573 16.8825 3.07275C16.8799 2.71978 16.8077 2.37078 16.6698 2.04583C16.532 1.72087 16.3313 1.42636 16.0793 1.17921C15.3216 0.424042 14.2955 0 13.2257 0C12.1559 0 11.1296 0.424042 10.3719 1.17921L4.8314 6.73028ZM17.1187 18.6521L17.122 17.6845C17.122 15.4768 16.2649 13.3731 14.7326 11.8018L9.13602 6.09346L12.2069 3.01803C12.3448 2.87956 12.5106 2.7721 12.6934 2.70285C12.8762 2.63358 13.0716 2.60411 13.2667 2.61641C13.4617 2.6287 13.652 2.68247 13.8246 2.77411C13.9972 2.86577 14.1483 2.9932 14.2678 3.14789C13.77 3.64819 13.4907 4.32518 13.4907 5.03087C13.4907 5.73656 13.77 6.41355 14.2678 6.91385L20.0206 12.6822C20.5402 13.1831 21.2338 13.463 21.9555 13.463C22.6772 13.463 23.3708 13.1831 23.8905 12.6822L24.5657 13.3575C24.724 13.4811 24.8361 13.6545 24.8839 13.8497L24.8882 13.862C24.9444 14.0233 25.0127 14.2186 25.1215 14.4717L25.2183 14.6977H23.9917C23.2386 14.6977 22.6282 15.308 22.6282 16.0612C22.6282 16.4378 22.784 16.7754 23.0308 17.0222C23.2775 17.2689 23.6281 17.4248 23.9917 17.4248H26.3864L27.0761 19.035H26.0565C25.3033 19.035 24.693 19.6454 24.693 20.3986C24.693 20.7752 24.8488 21.1128 25.0956 21.3595C25.3423 21.6063 25.6929 21.7621 26.0565 21.7621H28.2442L29.0396 23.6191H27.7706C27.0174 23.6191 26.407 24.2294 26.407 24.9826C26.407 25.3592 26.5629 25.6969 26.8096 25.9436C27.0563 26.1903 27.394 26.3332 27.7706 26.3462H30.2076L31.6795 29.7823C32.3588 30.9241 33.3666 31.8347 34.5715 32.3951L34.575 32.3973C35.2291 32.7965 36.4428 33.5372 36.4752 33.9066C36.4752 33.979 36.4042 34.2014 36.0792 34.565C35.7136 34.5204 35.2144 34.45 34.6172 34.3423C33.2851 34.1021 31.4827 33.6793 29.5905 32.9516C25.7703 31.4828 21.8206 28.871 20.3462 24.2502L20.3454 24.2479C19.8197 22.6112 18.634 20.7063 17.2594 18.8418C17.2128 18.7785 17.1659 18.7153 17.1187 18.6521ZM2.66189 12.8544C2.63035 12.8152 2.61313 12.7664 2.61313 12.716C2.61313 12.6648 2.6309 12.6152 2.66341 12.5758L5.56323 9.67159C5.82265 9.926 6.12877 10.2286 6.4719 10.572C7.59233 11.6932 9.10327 13.2452 10.6687 14.9712C12.2368 16.6999 13.8456 18.5879 15.1688 20.3828C16.5123 22.2053 17.4821 23.8273 17.8722 25.0409C17.9332 25.2322 17.9976 25.4206 18.0654 25.606L2.6651 12.8577C2.66502 12.8576 2.66516 12.8577 2.6651 12.8577C2.66408 12.8566 2.66288 12.8555 2.66189 12.8544Z" fill="white"/>
</svg>
