<svg width="53" height="41" viewBox="0 0 53 41" fill="none" xmlns="http://www.w3.org/2000/svg">
<path d="M19.5154 3.55075C19.4235 3.57701 19.3377 3.62111 19.2629 3.68052C19.1881 3.73993 19.1257 3.8135 19.0793 3.89702C19.033 3.98054 19.0035 4.07238 18.9926 4.16729C18.9817 4.26221 18.9896 4.35834 19.0159 4.45019C19.4819 6.07535 20.4642 7.50467 21.8144 8.52213C23.1647 9.53959 24.8094 10.0899 26.5 10.0899C28.1907 10.0899 29.8354 9.53959 31.1856 8.52213C32.5358 7.50467 33.5182 6.07535 33.9842 4.45019C34.0109 4.3582 34.0192 4.26184 34.0086 4.16664C33.9979 4.07143 33.9686 3.97927 33.9223 3.89542C33.876 3.81158 33.8135 3.73771 33.7386 3.67806C33.6636 3.6184 33.5776 3.57414 33.4855 3.5478C33.3934 3.52147 33.297 3.51359 33.2019 3.5246C33.1067 3.53562 33.0147 3.56532 32.931 3.612C32.8474 3.65868 32.7738 3.72142 32.7144 3.79663C32.6551 3.87183 32.6112 3.95801 32.5853 4.05022C32.2062 5.37143 31.4074 6.53337 30.3095 7.36048C29.2117 8.18759 27.8745 8.63494 26.5 8.63494C25.1255 8.63494 23.7883 8.18759 22.6905 7.36048C21.5927 6.53337 20.7939 5.37143 20.4148 4.05022C20.3617 3.86472 20.2372 3.70788 20.0685 3.61422C19.8998 3.52055 19.7009 3.49772 19.5154 3.55075Z" fill="white" stroke="white"/>
<path d="M39.8329 12.3061C39.648 12.2509 39.4488 12.2714 39.279 12.3631C39.1093 12.4548 38.9829 12.6102 38.9277 12.795L38.0299 15.8011C38.0098 15.8687 37.9995 15.9388 37.9995 16.0093V38.527L14.9826 38.4736V15.9525C14.9826 15.882 14.9723 15.8118 14.9522 15.7443L14.0544 12.7382C14.0274 12.6463 13.9825 12.5606 13.9223 12.4861C13.8621 12.4116 13.7878 12.3497 13.7036 12.304C13.6194 12.2583 13.527 12.2296 13.4317 12.2197C13.3364 12.2098 13.2401 12.2188 13.1483 12.2462C13.0565 12.2736 12.971 12.3189 12.8968 12.3795C12.8225 12.44 12.761 12.5146 12.7156 12.599C12.6703 12.6834 12.642 12.7759 12.6325 12.8712C12.6231 12.9665 12.6325 13.0628 12.6603 13.1545L13.5276 16.0588V39.1994C13.5276 39.3921 13.604 39.5769 13.7401 39.7132C13.8762 39.8496 14.0608 39.9265 14.2534 39.9269L38.7253 39.9837H38.727C38.9199 39.9837 39.105 39.907 39.2414 39.7706C39.3778 39.6342 39.4545 39.4491 39.4545 39.2562V16.1156L40.3218 13.2113C40.377 13.0264 40.3565 12.8272 40.2648 12.6575C40.1731 12.4877 40.0178 12.3613 39.8329 12.3061Z" fill="white" stroke="white"/>
<path d="M51.7869 14.3532L41.8588 4.42208C41.7838 4.34713 41.708 4.27317 41.6312 4.20022C39.4524 2.15249 36.5757 1.01094 33.5856 1.00743L32.8543 1.00123H32.8481C32.6551 1.00042 32.4698 1.0763 32.3328 1.21216C32.1958 1.34802 32.1184 1.53274 32.1176 1.72568C32.1168 1.91862 32.1926 2.10398 32.3285 2.24098C32.4644 2.37798 32.6491 2.4554 32.842 2.45621L33.5733 2.46241C36.1947 2.46322 38.7176 3.46182 40.6294 5.2554C40.6968 5.31947 40.7636 5.38455 40.8297 5.45064L50.2437 14.8675L43.7892 21.3219L41.6153 19.148C41.4788 19.0115 41.2938 18.9349 41.1008 18.9349C40.9079 18.9349 40.7228 19.0116 40.5864 19.148C40.45 19.2844 40.3733 19.4695 40.3733 19.6624C40.3733 19.8554 40.45 20.0404 40.5864 20.1768L43.2748 22.8652C43.3423 22.9328 43.4225 22.9863 43.5108 23.0229C43.5991 23.0595 43.6937 23.0783 43.7892 23.0783C43.8847 23.0783 43.9793 23.0595 44.0676 23.0229C44.1559 22.9863 44.2361 22.9328 44.3036 22.8652L51.7868 15.382C51.8544 15.3145 51.908 15.2343 51.9445 15.146C51.9811 15.0577 51.9999 14.9631 51.9999 14.8676C51.9999 14.7721 51.9811 14.6775 51.9446 14.5892C51.908 14.5009 51.8544 14.4207 51.7869 14.3532Z" fill="white" stroke="white"/>
<path d="M11.4354 19.0971L9.21066 21.3219L2.75622 14.8674L12.1702 5.45065C12.2362 5.38457 12.3029 5.31953 12.3704 5.25554C14.2822 3.46184 16.8051 2.46315 19.4267 2.46235L20.2933 2.45498C20.4863 2.45418 20.671 2.37676 20.8069 2.23976C20.9427 2.10276 21.0186 1.9174 21.0178 1.72446C21.017 1.53152 20.9396 1.3468 20.8026 1.21094C20.6656 1.07508 20.4802 0.999201 20.2873 1.00001H20.2809L19.4143 1.00737C16.4241 1.0109 13.5474 2.15254 11.3685 4.20039C11.2919 4.27311 11.2162 4.34693 11.1413 4.42185L1.21303 14.3531C1.07661 14.4896 0.999988 14.6746 1 14.8675C1.00001 15.0605 1.07666 15.2455 1.21309 15.3819L8.69627 22.8651C8.76382 22.9327 8.84402 22.9862 8.93229 23.0228C9.02055 23.0594 9.11515 23.0782 9.21069 23.0782C9.30623 23.0782 9.40083 23.0594 9.48909 23.0228C9.57736 22.9862 9.65756 22.9327 9.72511 22.8651L12.4643 20.1259C12.6007 19.9895 12.6774 19.8044 12.6774 19.6115C12.6774 19.4185 12.6007 19.2335 12.4643 19.0971C12.3279 18.9606 12.1428 18.884 11.9499 18.884C11.7569 18.884 11.5719 18.9606 11.4354 19.0971Z" fill="white" stroke="white"/>
</svg>
