<svg width="41" height="30" viewBox="0 0 41 30" fill="none" xmlns="http://www.w3.org/2000/svg">
<path d="M39.3185 8.75H34.6103L33.3018 5.5C31.9571 2.15859 28.7478 0 25.1249 0H15.1377C11.5156 0 8.30557 2.15859 6.96006 5.5L5.6515 8.75H0.944169C0.329998 8.75 -0.120604 9.32344 0.0288105 9.91484L0.500645 11.7898C0.605235 12.207 0.982702 12.5 1.416 12.5H2.99429C1.93817 13.4164 1.25794 14.7484 1.25794 16.25V20C1.25794 21.2594 1.74236 22.3961 2.51616 23.2758V27.5C2.51616 28.8805 3.64306 30 5.03261 30H7.54907C8.93862 30 10.0655 28.8805 10.0655 27.5V25H30.1971V27.5C30.1971 28.8805 31.324 30 32.7136 30H35.23C36.6196 30 37.7465 28.8805 37.7465 27.5V23.2758C38.5203 22.3969 39.0047 21.2602 39.0047 20V16.25C39.0047 14.7484 38.3245 13.4164 37.2691 12.5H38.8474C39.2807 12.5 39.6582 12.207 39.7628 11.7898L40.2346 9.91484C40.3832 9.32344 39.9326 8.75 39.3185 8.75ZM11.6328 7.35703C12.2061 5.93359 13.5941 5 15.1377 5H25.1249C26.6686 5 28.0566 5.93359 28.6298 7.35703L30.1971 11.25H10.0655L11.6328 7.35703ZM7.54907 19.9844C6.03919 19.9844 5.03261 18.9875 5.03261 17.4922C5.03261 15.9969 6.03919 15 7.54907 15C9.05894 15 11.3237 17.243 11.3237 18.7383C11.3237 20.2336 9.05894 19.9844 7.54907 19.9844ZM32.7136 19.9844C31.2037 19.9844 28.9389 20.2336 28.9389 18.7383C28.9389 17.243 31.2037 15 32.7136 15C34.2234 15 35.23 15.9969 35.23 17.4922C35.23 18.9875 34.2234 19.9844 32.7136 19.9844Z" fill="black"/>
</svg>
