<svg width="6" height="12" viewBox="0 0 6 12" fill="none" xmlns="http://www.w3.org/2000/svg">
<g id="&#240;&#159;&#166;&#134; icon &#34;info&#34;">
<path id="Vector" d="M4.91161 4.20117L0.811144 4.55471L0.664316 5.0228L1.47008 5.12504C1.99652 5.21127 2.10037 5.34184 1.98578 5.70277L0.664316 9.97474C0.31694 11.0797 0.852329 11.5995 2.11112 11.5995C3.08699 11.5995 4.22044 11.2891 4.73434 10.8629L4.89191 10.3505C4.53379 10.5673 4.01094 10.6535 3.66356 10.6535C3.17115 10.6535 2.99209 10.4157 3.11922 9.99692L4.91161 4.20117Z" fill="white"/>
<path id="Vector_2" d="M3.24763 2.86307C4.23655 2.86307 5.03822 2.31156 5.03822 1.63124C5.03822 0.950922 4.23655 0.399414 3.24763 0.399414C2.25871 0.399414 1.45703 0.950922 1.45703 1.63124C1.45703 2.31156 2.25871 2.86307 3.24763 2.86307Z" fill="white"/>
</g>
</svg>
