<svg width="30" height="59" viewBox="0 0 30 59" fill="none" xmlns="http://www.w3.org/2000/svg">
<path d="M25.5457 58.9225C26.5117 58.9244 27.4479 58.588 28.1918 57.9716C28.6104 57.6245 28.9565 57.1982 29.2102 56.7172C29.4638 56.2361 29.6201 55.7098 29.67 55.1682C29.72 54.6267 29.6626 54.0806 29.5011 53.5613C29.3397 53.042 29.0774 52.5597 28.7293 52.1419L10.2065 29.9807L28.0677 7.77817C28.4112 7.35525 28.6677 6.86863 28.8224 6.34627C28.9772 5.82392 29.0272 5.27613 28.9696 4.73438C28.9119 4.19264 28.7478 3.66763 28.4866 3.18952C28.2254 2.71142 27.8723 2.28965 27.4476 1.94845C27.0198 1.57206 26.5188 1.28815 25.9761 1.11454C25.4334 0.940937 24.8607 0.881384 24.2938 0.939619C23.727 0.997854 23.1784 1.17262 22.6823 1.45295C22.1862 1.73328 21.7534 2.11312 21.4111 2.56863L1.44126 27.3759C0.833145 28.1157 0.500704 29.0437 0.500704 30.0014C0.500704 30.959 0.833145 31.887 1.44126 32.6268L22.114 57.4341C22.5288 57.9344 23.0556 58.33 23.6519 58.5886C24.2481 58.8472 24.8969 58.9616 25.5457 58.9225Z" fill="white"/>
</svg>
