<svg width="30" height="59" viewBox="0 0 30 59" fill="none" xmlns="http://www.w3.org/2000/svg">
<path d="M4.76683 58.3678C3.80078 58.3697 2.86457 58.0333 2.12071 57.4169C1.70205 57.0698 1.35599 56.6435 1.10232 56.1625C0.848661 55.6814 0.69239 55.1551 0.642462 54.6135C0.592534 54.072 0.64993 53.526 0.811361 53.0066C0.972792 52.4873 1.23508 52.005 1.58322 51.5872L20.106 29.426L2.24475 7.22348C1.90131 6.80056 1.64484 6.31394 1.49008 5.79159C1.33531 5.26923 1.28531 4.72144 1.34294 4.1797C1.40057 3.63795 1.5647 3.11294 1.8259 2.63484C2.08709 2.15673 2.4402 1.73496 2.86493 1.39376C3.29272 1.01737 3.79368 0.733461 4.33639 0.559855C4.8791 0.38625 5.45184 0.326697 6.01866 0.384932C6.58548 0.443166 7.13414 0.617932 7.63021 0.898262C8.12629 1.17859 8.55906 1.55843 8.90137 2.01395L28.8712 26.8212C29.4794 27.561 29.8118 28.489 29.8118 29.4467C29.8118 30.4043 29.4794 31.3323 28.8712 32.0721L8.1985 56.8794C7.78373 57.3797 7.25685 57.7753 6.66061 58.0339C6.06437 58.2925 5.41556 58.4069 4.76683 58.3678Z" fill="white"/>
</svg>
