<svg width="114" height="114" viewBox="0 0 114 114" fill="none" xmlns="http://www.w3.org/2000/svg">
    <ellipse cx="39.5" cy="40.5" rx="32.5" ry="33.5" fill="black" fill-opacity="0.55" />
    <path
        d="M79 40.5C79 62.8675 61.3152 81 39.5 81C17.6848 81 0 62.8675 0 40.5C0 18.1325 17.6848 0 39.5 0C61.3152 0 79 18.1325 79 40.5ZM7.53194 40.5C7.53194 58.6024 21.8445 73.2774 39.5 73.2774C57.1555 73.2774 71.4681 58.6024 71.4681 40.5C71.4681 22.3976 57.1555 7.72263 39.5 7.72263C21.8445 7.72263 7.53194 22.3976 7.53194 40.5Z"
        fill="url(#paint0_linear_305_43)" />
    <path
        d="M39.7975 46.0478C41.4335 46.0478 43.0025 45.3979 44.1593 44.2411C45.3161 43.0842 45.966 41.5152 45.966 39.8792V32.1686C45.966 30.5326 45.3161 28.9636 44.1593 27.8067C43.0025 26.6499 41.4335 26 39.7975 26C38.1615 26 36.5925 26.6499 35.4356 27.8067C34.2788 28.9636 33.6289 30.5326 33.6289 32.1686V39.8792C33.6289 41.5152 34.2788 43.0842 35.4356 44.2411C36.5925 45.3979 38.1615 46.0478 39.7975 46.0478Z"
        fill="white" />
    <path
        d="M50.5899 39.8791C50.5899 39.4701 50.4275 39.0778 50.1383 38.7886C49.8491 38.4994 49.4568 38.3369 49.0478 38.3369C48.6388 38.3369 48.2466 38.4994 47.9573 38.7886C47.6681 39.0778 47.5057 39.4701 47.5057 39.8791C47.5057 41.9241 46.6933 43.8853 45.2473 45.3313C43.8012 46.7774 41.84 47.5897 39.795 47.5897C37.75 47.5897 35.7887 46.7774 34.3427 45.3313C32.8967 43.8853 32.0843 41.9241 32.0843 39.8791C32.0843 39.4701 31.9218 39.0778 31.6326 38.7886C31.3434 38.4994 30.9511 38.3369 30.5421 38.3369C30.1331 38.3369 29.7409 38.4994 29.4517 38.7886C29.1625 39.0778 29 39.4701 29 39.8791C29.003 42.4727 29.9398 44.9785 31.6389 46.9382C33.338 48.8978 35.6858 50.1801 38.2528 50.5507V53.7583H34.9989C34.6349 53.7583 34.2858 53.9029 34.0284 54.1603C33.771 54.4177 33.6264 54.7668 33.6264 55.1308V55.4701C33.6264 55.8341 33.771 56.1832 34.0284 56.4406C34.2858 56.698 34.6349 56.8426 34.9989 56.8426H44.591C44.955 56.8426 45.3041 56.698 45.5615 56.4406C45.8189 56.1832 45.9635 55.8341 45.9635 55.4701V55.1308C45.9635 54.7668 45.8189 54.4177 45.5615 54.1603C45.3041 53.9029 44.955 53.7583 44.591 53.7583H41.3371V50.5507C43.9042 50.1801 46.252 48.8978 47.9511 46.9382C49.6502 44.9785 50.5869 42.4727 50.5899 39.8791Z"
        fill="white" />
    <defs>
        <linearGradient id="paint0_linear_305_43" x1="39.5" y1="0" x2="39.5" y2="81"
            gradientUnits="userSpaceOnUse">
            <stop stop-color="#E01F1F" />
            <stop offset="0.619792" stop-color="#C21D30" stop-opacity="0.8" />
            <stop offset="1" stop-color="#C21D30" stop-opacity="0.2" />
        </linearGradient>
        <linearGradient id="paint1_linear_305_43" x1="1094.5" y1="74" x2="1094.5" y2="114"
            gradientUnits="userSpaceOnUse">
            <stop stop-color="white" />
            <stop offset="1" stop-color="white" />
        </linearGradient>
    </defs>
</svg>