<?xml version="1.0" standalone="no"?>
<!DOCTYPE svg PUBLIC "-//W3C//DTD SVG 20010904//EN"
 "http://www.w3.org/TR/2001/REC-SVG-20010904/DTD/svg10.dtd">
<svg version="1.0" xmlns="http://www.w3.org/2000/svg"
 width="1000.000000pt" height="1000.000000pt" viewBox="0 0 1000.000000 1000.000000"
 preserveAspectRatio="xMidYMid meet">

<g transform="translate(0.000000,1000.000000) scale(0.100000,-0.100000)"
fill="#000000" stroke="none">
<path d="M0 5000 l0 -5000 5000 0 5000 0 0 5000 0 5000 -5000 0 -5000 0 0
-5000z m5192 3880 c207 -12 363 -30 543 -66 1129 -221 2099 -948 2631 -1969
407 -781 530 -1676 348 -2536 -127 -606 -399 -1165 -802 -1652 -102 -124 -353
-374 -482 -481 -597 -495 -1339 -799 -2115 -865 -155 -14 -478 -14 -625 -1
-773 71 -1473 352 -2074 834 -137 110 -398 366 -515 506 -728 868 -1031 2007
-831 3120 157 873 631 1681 1316 2246 625 515 1406 821 2204 863 211 11 209
11 402 1z"/>
<path d="M4809 8530 c-1 -121 -2 -226 -3 -232 -1 -8 15 -14 42 -16 l42 -3 1
148 c0 81 4 156 8 166 4 12 20 -38 46 -147 l40 -166 46 0 c46 0 46 0 57 43 39
148 81 290 82 277 1 -8 1 -84 0 -167 l-2 -153 46 0 46 0 0 235 0 235 -69 0
c-58 0 -71 -3 -75 -17 -2 -10 -19 -70 -36 -133 -40 -146 -38 -140 -47 -140 -4
0 -24 64 -43 143 l-36 142 -72 3 -72 3 -1 -221z"/>
<path d="M5430 8728 c-1 -2 -18 -104 -39 -228 -21 -124 -36 -228 -32 -231 8
-9 339 -65 345 -59 2 3 6 21 8 40 l3 35 -123 21 c-67 12 -124 23 -126 25 -5 5
11 110 17 115 2 3 50 -3 106 -12 56 -9 108 -13 116 -10 9 3 15 19 15 39 l0 34
-106 17 c-59 9 -110 19 -114 21 -8 5 4 82 14 92 3 3 59 -3 123 -14 128 -23
135 -21 131 31 l-3 30 -155 27 c-154 28 -180 31 -180 27z"/>
<path d="M4415 8709 c-27 -7 -33 -17 -60 -99 -16 -50 -32 -93 -36 -96 -4 -2
-37 30 -75 72 l-67 76 -46 -7 c-25 -4 -50 -10 -54 -14 -5 -5 41 -60 101 -124
l110 -115 12 -74 c19 -114 23 -120 67 -112 21 3 41 9 45 13 4 3 -2 48 -13 99
l-19 93 55 140 c30 78 55 145 55 150 0 11 -34 10 -75 -2z"/>
<path d="M5920 8617 c-15 -37 -119 -371 -126 -403 l-6 -30 104 -32 c125 -39
191 -42 239 -9 100 68 150 260 92 358 -25 42 -64 64 -188 103 l-106 34 -9 -21z
m148 -112 c85 -36 102 -90 62 -198 -23 -61 -50 -94 -84 -103 -35 -8 -136 24
-136 44 0 9 18 74 40 144 45 141 46 142 118 113z"/>
<path d="M3818 8562 c-92 -31 -169 -60 -173 -63 -3 -4 1 -23 9 -42 l15 -36 60
22 c33 12 62 19 65 16 3 -3 31 -82 63 -175 31 -93 59 -173 63 -177 8 -9 90 12
90 23 0 4 -27 87 -60 184 -33 98 -60 179 -60 181 0 2 29 13 65 25 36 12 65 24
65 26 0 8 -29 74 -32 73 -2 0 -78 -26 -170 -57z"/>
<path d="M6326 8258 c-49 -112 -90 -208 -92 -214 -6 -14 74 -50 86 -38 10 11
180 401 180 414 0 11 -53 40 -73 40 -8 0 -48 -80 -101 -202z"/>
<path d="M3478 8429 c-21 -11 -38 -22 -38 -24 0 -3 27 -59 60 -125 33 -66 60
-124 60 -129 0 -6 -66 31 -146 81 l-145 91 -44 -21 -44 -21 105 -211 c57 -115
107 -210 109 -210 13 0 75 35 75 43 0 5 -27 62 -61 128 -34 66 -59 122 -57
124 2 2 68 -36 147 -85 l144 -89 39 20 c21 11 38 23 38 28 0 10 -198 421 -202
421 -2 -1 -20 -10 -40 -21z"/>
<path d="M6613 8289 c-24 -12 -55 -35 -70 -53 -43 -51 -83 -146 -83 -196 1
-151 169 -257 301 -190 54 28 58 45 21 83 l-32 31 -29 -22 c-57 -42 -130 -22
-156 42 -17 40 -8 86 30 149 38 65 68 87 122 87 58 0 103 -41 103 -93 0 -32 4
-37 35 -47 49 -16 65 -8 65 35 0 52 -21 95 -68 137 -67 60 -162 75 -239 37z"/>
<path d="M2993 8168 c-18 -13 -33 -27 -33 -31 0 -4 17 -31 38 -60 99 -135 152
-221 152 -247 0 -19 -10 -37 -30 -53 -71 -60 -98 -47 -197 94 -43 62 -87 123
-99 137 l-20 25 -37 -24 c-20 -13 -37 -27 -37 -32 0 -12 188 -272 215 -297 36
-34 118 -39 172 -12 125 64 162 148 108 250 -30 58 -176 264 -190 269 -6 2
-25 -7 -42 -19z"/>
<path d="M4815 8160 c-928 -56 -1782 -531 -2320 -1290 -538 -761 -702 -1719
-449 -2619 50 -176 114 -342 203 -521 355 -715 944 -1245 1694 -1524 189 -71
385 -120 647 -162 130 -21 531 -30 685 -15 745 72 1405 386 1920 912 168 172
246 267 370 454 270 407 439 872 497 1370 18 159 15 540 -6 699 -48 372 -150
699 -320 1031 -297 581 -756 1039 -1336 1334 -392 200 -777 304 -1221 331
-177 11 -184 11 -364 0z m390 -131 c814 -60 1536 -429 2061 -1051 261 -311
486 -751 589 -1153 150 -586 118 -1194 -92 -1759 -359 -968 -1209 -1683 -2225
-1870 -190 -35 -314 -46 -532 -46 -231 0 -361 12 -561 51 -1253 244 -2197
1251 -2367 2524 -17 133 -17 596 0 730 33 243 107 526 198 749 101 246 270
534 440 746 94 117 318 339 444 440 579 463 1318 694 2045 639z"/>
<path d="M4590 6710 l0 -330 -22 -4 c-13 -3 -49 -7 -80 -10 -79 -8 -194 -52
-355 -135 -74 -39 -142 -71 -151 -71 -8 0 -70 31 -136 69 -261 148 -289 162
-296 154 -5 -4 -63 -107 -130 -228 -67 -121 -126 -224 -130 -229 -12 -12 -170
-42 -303 -57 -128 -15 -157 -31 -157 -85 0 -27 10 -45 42 -80 61 -67 138 -99
279 -118 28 -4 54 -15 65 -27 29 -33 65 -47 181 -75 96 -22 127 -35 283 -123
96 -54 239 -134 317 -177 85 -47 143 -85 143 -94 0 -9 -86 -63 -218 -137 -432
-242 -757 -426 -765 -433 -5 -4 67 -142 161 -306 93 -165 184 -327 203 -361
19 -35 37 -63 40 -63 8 0 77 39 597 334 213 121 390 215 398 212 12 -5 11 -12
-5 -43 -28 -56 -44 -146 -36 -205 4 -28 22 -79 41 -114 l34 -64 0 -379 0 -379
100 -4 c122 -4 137 -13 115 -73 -39 -111 -5 -217 98 -302 22 -17 27 -30 27
-65 0 -117 56 -173 114 -115 18 19 25 39 30 99 7 73 9 75 41 91 89 42 124 167
89 318 -8 37 27 49 141 49 l95 0 0 385 0 386 27 62 c23 52 27 76 27 147 0 57
-6 100 -18 130 -29 75 -30 79 -11 87 19 7 21 6 275 -137 502 -283 732 -410
744 -410 2 0 18 24 34 53 243 432 372 666 372 670 0 7 -9 12 -325 188 -593
329 -660 368 -663 382 -3 17 -10 13 373 230 192 109 262 143 352 172 61 20
127 46 146 59 18 13 65 29 103 36 94 17 138 35 210 86 65 46 86 80 77 128 -8
40 -36 52 -153 65 -134 16 -242 38 -257 54 -12 13 -105 172 -212 364 -59 106
-64 112 -84 102 -12 -7 -104 -58 -204 -115 -100 -58 -193 -109 -206 -115 -20
-9 -38 -2 -131 49 -149 83 -265 131 -368 152 -48 10 -92 21 -98 25 -6 4 -10
116 -10 331 l0 324 -425 0 -425 0 0 -330z m486 -356 c51 -24 77 -68 82 -133 4
-66 -18 -109 -70 -141 l-33 -20 33 0 c17 0 32 -5 32 -10 0 -22 -32 -58 -61
-70 l-30 -13 21 -22 c12 -13 20 -35 20 -58 0 -39 -47 -147 -65 -147 -5 0 -22
22 -37 49 -34 60 -39 143 -10 161 16 9 16 11 -3 22 -32 19 -65 56 -65 73 0 9
9 15 25 15 25 0 25 1 -13 38 -136 128 6 336 174 256z m-446 -59 c52 -27 65
-66 62 -184 -4 -166 27 -236 120 -275 21 -9 53 -16 72 -16 40 0 62 -18 87 -75
31 -68 34 -66 -118 -63 -104 2 -137 6 -135 16 1 8 -12 12 -44 12 -33 0 -56 7
-87 28 -23 16 -50 31 -59 35 -26 9 -22 26 8 38 44 16 21 20 -50 9 -72 -11 -90
-6 -150 44 -33 27 -29 42 14 51 16 4 32 11 36 16 3 6 -4 8 -18 4 -59 -13 -158
-25 -213 -25 -114 0 -255 54 -255 98 0 19 181 133 328 206 171 86 331 118 402
81z m976 -10 c117 -39 408 -191 484 -253 l25 -20 -20 -22 c-65 -71 -216 -96
-394 -65 -92 16 -114 14 -54 -5 69 -22 69 -24 -19 -86 -36 -25 -39 -25 -109
-15 -78 13 -101 8 -51 -10 29 -10 44 -29 23 -29 -5 0 -32 -16 -61 -35 -39 -26
-62 -35 -95 -35 -29 0 -45 -5 -49 -15 -4 -12 -29 -15 -135 -15 -71 0 -132 4
-135 8 -8 13 41 110 61 120 10 5 36 12 59 15 63 7 113 36 142 80 25 38 27 49
32 190 l5 149 37 34 c36 32 42 34 109 34 49 0 93 -8 145 -25z m-1732 -314 c21
-40 90 -71 176 -78 39 -3 73 -9 75 -13 3 -4 -55 -30 -128 -58 -353 -134 -695
-201 -872 -172 -118 19 -235 86 -235 134 0 8 34 16 98 24 221 28 652 121 792
171 73 26 77 26 94 -8z m2395 -5 c209 -62 527 -130 740 -157 84 -11 92 -13 89
-32 -4 -28 -74 -80 -145 -108 -120 -47 -371 -21 -685 70 -136 40 -343 111
-375 130 -23 13 -9 17 69 24 76 7 144 38 166 76 9 17 19 31 21 31 2 0 56 -15
120 -34z m-2003 -89 c11 -7 38 -27 60 -45 l39 -33 -24 -20 c-70 -58 -277 -158
-416 -202 -45 -14 -130 -33 -189 -43 -94 -15 -124 -16 -220 -6 -117 12 -208
34 -241 58 -27 20 -10 30 63 37 190 20 673 166 829 251 34 18 71 20 99 3z
m1602 -16 c78 -39 232 -96 385 -142 139 -42 389 -99 434 -99 15 0 35 -4 43
-10 11 -7 4 -13 -30 -28 -211 -90 -457 -74 -754 48 -118 49 -297 147 -303 166
-2 8 53 53 101 81 32 19 61 16 124 -16z m-1360 -106 c58 -30 82 -49 82 -63 0
-19 -287 -173 -407 -218 -91 -34 -227 -50 -314 -35 -68 11 -149 43 -149 59 0
4 42 17 93 29 135 31 281 88 446 175 80 42 159 77 174 77 15 1 49 -10 75 -24z
m1198 -34 c142 -80 331 -156 465 -189 60 -15 108 -31 106 -37 -6 -20 -81 -48
-156 -58 -102 -13 -236 9 -352 58 -94 40 -359 184 -359 195 0 23 119 90 161
90 15 0 76 -27 135 -59z m-933 -57 c76 -7 96 -18 57 -32 -19 -7 -17 -10 17
-25 53 -23 117 -90 109 -114 -8 -25 -52 -50 -112 -63 -40 -9 -61 -8 -115 6
-37 10 -77 14 -92 10 -39 -9 -94 -62 -107 -102 -19 -57 -17 -145 4 -176 57
-87 251 -148 469 -148 198 0 407 -76 482 -174 60 -79 88 -200 66 -282 -16 -59
-60 -120 -116 -159 -45 -33 -50 -34 -69 -20 -12 9 -57 33 -101 55 -64 31 -76
40 -60 46 62 21 128 56 150 80 52 56 24 150 -57 197 -71 41 -141 56 -321 67
-185 11 -264 22 -342 47 -133 42 -247 131 -293 230 -23 49 -27 71 -26 143 0
92 20 151 70 217 56 74 187 137 310 149 36 4 67 11 71 17 10 16 -122 0 -193
-23 -83 -28 -171 -86 -225 -149 l-44 -51 -50 6 c-117 15 -115 18 60 103 88 43
192 97 230 120 59 35 76 41 110 36 22 -2 75 -8 118 -11z m658 -9 c22 -14 122
-66 222 -116 100 -50 183 -94 185 -99 2 -4 -15 -11 -37 -15 -28 -5 -49 -2 -72
11 -25 12 -34 14 -37 4 -3 -7 -29 14 -63 49 -38 41 -79 71 -121 91 -74 35
-190 63 -244 58 -51 -5 -28 -13 75 -27 153 -20 273 -97 328 -210 25 -49 28
-67 28 -151 0 -84 -3 -102 -28 -152 -29 -60 -97 -129 -160 -162 l-36 -20 -88
41 c-48 23 -106 49 -128 59 l-40 16 76 24 c98 30 168 77 193 128 17 35 18 47
8 109 -9 57 -16 76 -43 103 -52 53 -80 61 -160 40 -63 -16 -72 -16 -131 -1
-61 15 -108 46 -108 70 0 19 87 95 123 108 30 10 31 11 9 16 -49 12 -23 26 68
37 138 16 137 16 181 -11z m-435 -9 c6 -26 -12 -106 -25 -106 -4 0 -16 9 -26
20 -10 12 -34 30 -52 41 -27 17 -31 24 -22 35 12 15 60 32 96 33 16 1 24 -6
29 -23z m131 -3 c29 -19 29 -29 1 -44 -13 -6 -38 -25 -56 -42 -39 -37 -52 -29
-59 37 -8 69 -1 79 49 71 24 -4 53 -14 65 -22z m-82 -192 c26 -64 26 -65 19
-233 l-7 -169 -56 3 -56 3 -3 172 -2 172 30 68 c18 40 34 63 39 57 5 -5 21
-38 36 -73z m-447 -595 c15 -7 60 -22 100 -31 39 -10 72 -21 72 -25 0 -4 -12
-13 -27 -19 -63 -27 -113 -93 -113 -150 0 -45 57 -101 132 -129 63 -24 189
-42 288 -42 171 0 312 -80 367 -210 8 -19 17 -65 20 -101 5 -57 2 -74 -19
-121 -15 -33 -40 -66 -62 -83 l-36 -27 -75 38 c-41 22 -75 42 -75 47 0 4 18
14 40 23 78 31 98 90 59 170 -16 34 -32 49 -76 70 -50 25 -69 28 -211 34 -173
8 -252 24 -350 72 -109 54 -182 159 -182 264 0 52 37 156 70 197 35 41 40 43
78 23z m460 -208 l-3 -153 -52 -3 -53 -3 0 155 0 156 55 0 56 0 -3 -152z
m-335 -338 c31 -11 63 -20 72 -20 23 0 18 -15 -19 -52 -46 -46 -64 -110 -43
-153 19 -40 91 -75 167 -82 l55 -5 0 138 0 139 48 3 47 3 0 -144 0 -144 45 -6
c131 -18 234 -128 243 -260 6 -84 -33 -166 -100 -207 -29 -17 -31 -17 -89 9
-32 14 -59 29 -59 32 0 4 13 12 29 19 38 15 90 67 97 97 14 54 -22 130 -75
157 -15 8 -44 17 -64 21 -36 7 -38 6 -33 -16 4 -13 3 -78 -2 -144 -7 -119 -7
-120 -32 -121 -50 -1 -50 0 -50 147 l0 139 -42 0 c-56 0 -159 25 -208 50 -92
47 -150 151 -136 244 15 95 51 176 79 176 7 0 38 -9 70 -20z m72 -457 c28 -10
51 -18 53 -19 2 -1 -8 -19 -21 -41 -51 -78 -42 -135 28 -188 37 -29 112 -55
155 -55 100 0 207 -75 230 -160 22 -81 -15 -179 -82 -220 -28 -17 -32 -17 -69
-1 -21 9 -39 19 -39 23 0 4 18 17 40 29 72 40 89 130 36 184 -23 22 -100 45
-155 45 -48 0 -153 38 -196 71 -77 58 -117 150 -101 230 10 49 44 119 58 119
7 0 36 -8 63 -17z m82 -408 l36 -15 -27 -26 c-34 -35 -37 -108 -5 -148 19 -24
67 -56 85 -56 3 0 5 51 3 113 l-4 112 35 0 35 0 3 -61 c2 -34 -1 -83 -5 -110
-7 -40 -13 -49 -33 -54 -22 -5 -19 -7 22 -23 93 -36 138 -97 138 -187 0 -88
-44 -153 -112 -167 -26 -5 -28 -9 -28 -52 0 -62 -11 -121 -21 -121 -5 0 -9 15
-9 33 0 17 -3 55 -6 83 -6 47 -9 52 -48 70 -78 36 -109 150 -65 241 21 44 36
51 70 33 19 -11 19 -12 -7 -45 -31 -41 -41 -99 -24 -149 11 -33 42 -66 63 -66
5 0 7 53 5 118 l-3 117 29 3 29 4 -6 -121 c-6 -112 -5 -121 12 -121 33 0 64
46 69 103 7 91 -34 143 -135 166 -79 19 -153 68 -180 120 -28 53 -31 136 -7
187 18 38 36 42 91 19z"/>
<path d="M4780 5570 c0 -5 5 -10 10 -10 6 0 10 5 10 10 0 6 -4 10 -10 10 -5 0
-10 -4 -10 -10z"/>
<path d="M5210 5570 c0 -5 5 -10 10 -10 6 0 10 5 10 10 0 6 -4 10 -10 10 -5 0
-10 -4 -10 -10z"/>
<path d="M6993 7886 c-111 -67 -205 -125 -209 -129 -8 -7 53 -66 69 -67 4 0
25 11 45 25 20 14 43 25 50 25 17 0 142 -98 142 -111 0 -5 -6 -30 -12 -55
l-13 -46 39 -34 c22 -19 41 -32 43 -30 2 2 35 111 73 242 l69 239 -37 32 c-20
18 -41 32 -47 32 -5 0 -101 -56 -212 -123z m175 -18 c-25 -91 -43 -138 -52
-138 -6 1 -28 16 -49 34 l-39 33 64 40 c68 45 81 50 76 31z"/>
<path d="M2537 7796 c-60 -22 -120 -73 -148 -128 -61 -119 31 -300 175 -343
184 -55 360 162 263 327 -37 64 -110 125 -170 143 -61 18 -71 18 -120 1z m109
-102 c53 -25 105 -95 112 -149 5 -52 -12 -86 -61 -115 -61 -38 -115 -22 -184
53 -68 74 -68 148 1 202 37 29 83 32 132 9z"/>
<path d="M7353 7590 c-90 -87 -163 -161 -163 -165 0 -13 212 -235 224 -235 7
0 23 11 36 25 l24 26 -77 77 c-42 43 -77 82 -77 87 0 5 60 69 132 142 l133
133 -35 34 -35 34 -162 -158z"/>
<path d="M2166 7396 c-122 -45 -178 -198 -113 -309 30 -51 111 -117 166 -136
135 -45 281 56 281 195 0 44 -22 108 -41 120 -7 4 -42 -15 -78 -43 -2 -1 4
-21 14 -42 20 -46 15 -84 -17 -118 -49 -52 -133 -33 -216 48 -49 49 -61 92
-39 136 23 44 45 57 95 58 44 1 46 3 61 43 8 23 13 44 10 46 -13 14 -88 15
-123 2z"/>
<path d="M7853 7200 c-17 -10 -37 -29 -44 -42 -18 -33 -13 -114 10 -182 12
-33 21 -69 21 -81 0 -51 -56 -60 -100 -16 -41 41 -48 77 -23 121 l21 36 -28
34 -28 35 -22 -20 c-74 -67 -65 -171 22 -271 57 -65 122 -80 188 -43 76 43 86
102 40 252 -23 73 -23 78 -7 95 16 15 20 15 44 2 15 -8 36 -30 46 -48 19 -32
19 -36 3 -68 -16 -34 -16 -36 10 -70 15 -18 30 -34 34 -34 16 0 49 52 56 86
13 69 -51 185 -120 218 -45 21 -84 20 -123 -4z"/>
<path d="M1710 6739 c-28 -55 -62 -125 -75 -155 l-25 -56 205 -99 c113 -54
210 -99 216 -99 8 0 159 299 159 316 0 8 -61 34 -70 29 -5 -3 -32 -55 -61
-115 -29 -61 -54 -110 -56 -110 -14 0 -103 52 -103 60 0 6 20 51 45 100 25 49
45 93 45 98 0 5 -16 16 -35 25 l-36 17 -50 -105 c-28 -58 -53 -105 -55 -105
-9 0 -84 41 -84 45 0 3 23 50 50 105 28 55 50 106 50 113 0 13 -39 37 -60 37
-6 0 -33 -45 -60 -101z"/>
<path d="M8008 6732 c-109 -53 -198 -101 -198 -108 0 -10 136 -304 146 -313 5
-5 63 20 70 30 2 4 -21 58 -51 120 -31 61 -53 115 -48 120 4 4 30 17 56 28
l48 21 51 -104 50 -104 30 10 c16 6 32 16 34 22 3 7 -16 56 -41 110 -25 53
-45 99 -45 102 0 3 75 44 83 44 2 0 27 -49 57 -110 29 -60 57 -110 62 -110 5
0 22 7 38 15 l29 15 -24 54 c-55 124 -126 256 -138 255 -6 0 -101 -44 -209
-97z"/>
<path d="M1534 6338 c-5 -18 -9 -37 -9 -42 0 -5 58 -28 128 -50 71 -23 128
-45 126 -51 -2 -5 -73 -27 -159 -48 l-156 -39 -16 -44 c-8 -24 -13 -46 -9 -48
12 -7 427 -136 437 -136 13 0 36 72 26 81 -4 4 -62 24 -129 45 -68 20 -123 41
-123 45 0 5 12 12 28 15 160 38 287 75 293 86 10 15 23 78 18 82 -8 6 -425
136 -436 136 -6 0 -15 -15 -19 -32z"/>
<path d="M8210 6304 c-113 -36 -209 -69 -214 -74 -8 -8 8 -64 24 -83 3 -4 45
6 93 22 48 16 88 27 90 23 13 -23 16 -66 6 -85 -6 -12 -35 -51 -63 -87 -70
-88 -68 -81 -48 -140 l18 -53 50 57 c27 31 60 76 74 100 l26 44 37 -34 c46
-43 105 -47 158 -11 47 32 61 62 54 122 -7 69 -71 260 -87 262 -7 1 -105 -28
-218 -63z m202 -114 c9 -30 17 -65 17 -77 1 -32 -26 -55 -63 -51 -28 3 -33 9
-54 60 -34 86 -33 98 8 114 59 22 72 15 92 -46z"/>
<path d="M8355 5791 l-210 -117 3 -45 c2 -24 7 -48 12 -53 13 -13 473 -97 482
-88 4 4 5 25 1 46 -7 47 -8 47 -201 77 -84 13 -151 27 -150 31 3 7 113 68 246
135 46 24 52 31 52 58 0 36 -10 75 -19 74 -3 0 -100 -53 -216 -118z"/>
<path d="M1407 5873 c-3 -4 -8 -26 -11 -48 l-7 -40 228 -47 c125 -25 230 -45
231 -43 9 8 20 81 14 87 -4 3 -99 25 -212 48 -113 23 -212 44 -222 46 -9 3
-18 1 -21 -3z"/>
<path d="M1630 5590 c-91 -27 -192 -57 -225 -68 l-60 -18 -6 -47 c-3 -28 -1
-51 5 -56 17 -13 438 -223 441 -219 1 2 5 24 9 49 l7 45 -52 24 -51 24 7 91
c4 49 9 93 11 97 2 3 21 9 42 13 55 9 64 18 69 69 5 40 3 46 -13 45 -11 0 -93
-22 -184 -49z m-7 -163 c-3 -29 -7 -54 -9 -56 -5 -5 -144 61 -144 69 0 8 141
48 152 43 4 -2 4 -27 1 -56z"/>
<path d="M8425 5374 c-99 -7 -195 -13 -212 -13 -31 -1 -33 -3 -33 -38 0 -21 4
-43 8 -49 5 -8 67 -7 227 3 121 8 226 16 233 18 13 5 16 52 6 79 -3 9 -16 15
-28 15 -11 -1 -102 -8 -201 -15z"/>
<path d="M8317 5166 c-87 -32 -135 -102 -136 -199 -2 -82 33 -143 102 -178
l38 -20 19 43 c18 39 18 44 3 53 -75 46 -95 91 -68 149 21 44 67 66 139 66
105 0 166 -42 166 -115 0 -47 -14 -71 -50 -90 -26 -13 -28 -19 -23 -52 8 -56
18 -61 67 -35 54 29 86 84 93 160 4 49 0 65 -24 112 -41 80 -95 111 -205 116
-57 3 -95 0 -121 -10z"/>
<path d="M1731 5153 l-24 -5 7 -112 7 -113 -53 -6 c-29 -4 -87 -7 -128 -7 -41
0 -106 -3 -143 -7 l-68 -6 3 -41 3 -41 225 4 c124 1 228 5 233 8 8 5 8 195 -1
273 -7 57 -13 62 -61 53z"/>
<path d="M1644 4710 c-25 -10 -64 -57 -64 -76 0 -10 -10 -8 -35 8 -65 38 -145
8 -166 -62 -10 -34 -9 -61 10 -172 12 -73 23 -133 25 -135 1 -2 92 13 202 33
109 19 214 38 232 41 31 5 32 7 26 42 -20 117 -48 240 -61 264 -28 55 -108 82
-169 57z m90 -105 c25 -25 54 -159 37 -169 -5 -4 -30 -10 -56 -15 -56 -10 -61
-3 -71 93 -6 56 -4 69 11 86 22 24 58 26 79 5z m-200 -48 c12 -9 23 -39 31
-83 14 -74 11 -82 -32 -86 -58 -4 -57 -5 -70 57 -16 80 -16 82 7 105 23 23 39
25 64 7z"/>
<path d="M8156 4628 c-24 -114 -46 -238 -46 -263 0 -18 7 -24 33 -28 17 -3 35
-2 39 2 4 3 15 57 26 119 11 62 23 117 28 122 5 5 32 4 62 -2 61 -12 60 -9 33
-146 -10 -51 -15 -94 -12 -96 3 -2 20 -7 38 -10 37 -8 36 -10 62 126 l17 93
39 -3 c22 -2 44 -7 49 -12 4 -4 -1 -61 -13 -126 -11 -65 -20 -118 -18 -119 1
-1 19 -5 39 -9 30 -5 37 -3 42 11 9 31 58 324 54 327 -1 1 -100 19 -218 40
-118 22 -220 41 -227 43 -7 3 -17 -22 -27 -69z"/>
<path d="M1663 4161 c-45 -28 -66 -65 -66 -116 0 -146 190 -185 259 -53 27 52
13 108 -40 157 -36 33 -110 39 -153 12z"/>
<path d="M8213 4160 c-86 -52 -82 -189 6 -235 90 -46 201 21 201 121 0 103
-119 168 -207 114z"/>
<path d="M3029 2503 c-37 -23 -59 -64 -59 -111 0 -39 13 -61 113 -188 25 -32
18 -66 -14 -78 -36 -12 -70 -2 -103 31 -23 23 -27 34 -25 72 3 40 0 47 -26 63
-41 25 -51 23 -64 -13 -28 -80 5 -152 97 -213 45 -29 64 -36 105 -36 85 0 147
58 147 140 0 40 -11 60 -77 142 -64 78 -68 111 -17 116 48 5 94 -38 94 -88 0
-33 5 -41 36 -61 36 -22 37 -22 50 -4 18 25 18 89 -1 124 -46 90 -187 147
-256 104z"/>
<path d="M6804 2470 c-100 -50 -148 -143 -110 -215 37 -69 109 -82 224 -40 83
30 108 31 122 6 16 -31 12 -57 -16 -84 -41 -41 -76 -49 -120 -27 -40 21 -55
17 -88 -19 -16 -17 -17 -23 -6 -36 41 -49 138 -62 206 -27 55 28 121 102 129
145 8 44 -22 118 -58 142 -45 29 -86 29 -186 -4 -69 -22 -99 -27 -113 -20 -25
13 -23 45 6 74 31 31 69 40 106 25 25 -11 33 -9 60 10 39 27 38 45 -2 70 -42
26 -102 25 -154 0z"/>
<path d="M3313 2124 c-98 -85 -178 -160 -178 -166 0 -5 16 -20 36 -31 l37 -21
41 37 c23 20 44 37 47 37 4 0 42 -19 85 -42 l78 -41 -6 -58 -6 -57 43 -22 c23
-12 44 -19 46 -17 3 3 53 458 54 489 0 8 -74 48 -89 48 -6 0 -90 -70 -188
-156z m177 9 c0 -25 -19 -135 -23 -140 -7 -7 -97 40 -97 51 0 10 100 105 113
106 4 0 7 -8 7 -17z"/>
<path d="M6432 2245 c-18 -8 -35 -21 -38 -29 -3 -8 -1 -63 5 -123 29 -278 39
-364 44 -369 3 -3 23 4 45 15 l40 20 -5 59 -5 58 43 19 c24 10 55 27 68 37 34
26 63 22 96 -12 16 -16 34 -30 42 -30 21 0 83 33 82 44 -1 14 -352 320 -370
323 -8 1 -29 -4 -47 -12z m178 -224 c0 -9 -98 -56 -104 -50 -2 2 -7 40 -11 84
l-8 79 62 -53 c33 -29 61 -56 61 -60z"/>
<path d="M3739 2133 c-6 -16 -39 -107 -74 -203 -35 -96 -67 -183 -70 -193 -6
-13 1 -21 30 -33 21 -8 41 -12 46 -7 4 4 27 61 51 126 24 65 47 119 52 120 5
1 21 -61 37 -138 16 -77 31 -150 34 -161 5 -23 82 -61 95 -47 4 4 24 53 43
108 20 55 54 151 76 213 l41 113 -35 15 c-20 8 -39 12 -44 10 -4 -3 -30 -64
-56 -136 -26 -72 -52 -127 -56 -123 -4 4 -22 77 -38 161 -17 84 -33 157 -36
163 -6 8 -70 39 -81 39 -3 0 -9 -12 -15 -27z"/>
<path d="M6125 2109 c-44 -16 -110 -41 -147 -55 l-66 -25 28 -82 c33 -95 103
-289 119 -329 6 -16 14 -28 18 -28 5 0 79 26 166 57 l159 58 -6 30 c-4 16 -10
33 -14 37 -5 5 -59 -10 -121 -32 -61 -22 -116 -40 -121 -40 -12 0 -50 103 -42
112 4 4 51 23 106 42 54 19 100 37 102 39 9 8 -19 67 -32 67 -7 0 -56 -15
-108 -34 -69 -25 -98 -31 -104 -22 -7 9 -32 72 -32 81 0 2 50 20 111 41 61 22
114 45 117 52 8 21 -16 62 -35 61 -10 0 -54 -14 -98 -30z"/>
<path d="M5622 1965 c-57 -13 -105 -25 -108 -28 -5 -5 37 -219 75 -377 l17
-75 39 2 c21 2 42 6 46 10 4 5 -2 48 -12 97 -22 98 -19 106 33 106 20 0 49
-21 112 -79 l85 -78 50 10 c29 5 51 15 51 22 0 16 -124 133 -155 147 -23 10
-23 11 16 48 35 33 39 42 39 84 0 53 -19 97 -52 120 -31 22 -110 19 -236 -9z
m178 -75 c45 -45 18 -80 -83 -106 -59 -16 -69 -17 -77 -4 -12 19 -24 90 -16
97 6 6 111 30 139 32 9 1 26 -8 37 -19z"/>
<path d="M4281 1760 c-67 -110 -124 -207 -128 -215 -5 -16 3 -20 55 -29 30 -5
34 -2 63 44 33 54 23 53 159 26 l55 -11 10 -55 10 -55 45 -7 c24 -4 46 -5 49
-2 7 6 -88 476 -97 486 -4 3 -28 9 -53 13 l-46 7 -122 -202z m168 7 c15 -85
14 -97 -6 -97 -36 0 -93 13 -93 20 0 12 74 140 81 140 4 0 12 -28 18 -63z"/>
<path d="M4685 1908 c-10 -30 -25 -452 -17 -460 5 -5 25 -8 43 -6 l34 3 9 143
c4 79 12 140 17 135 4 -4 43 -71 86 -148 l79 -140 45 -3 46 -3 6 45 c4 24 10
130 13 235 l7 191 -40 0 c-50 0 -53 -6 -54 -108 -1 -42 -4 -102 -7 -132 l-7
-55 -85 152 c-56 102 -91 154 -105 157 -34 10 -65 7 -70 -6z"/>
<path d="M5193 1909 c-46 -4 -86 -10 -91 -13 -9 -6 26 -447 37 -459 5 -4 57
-3 117 3 137 14 184 35 222 98 23 41 27 58 27 127 0 95 -21 158 -68 202 -55
52 -86 58 -244 42z m176 -103 c26 -28 40 -80 41 -148 0 -93 -29 -124 -127
-134 l-60 -7 -6 54 c-3 30 -9 100 -13 157 l-7 102 75 0 c66 0 77 -3 97 -24z"/>
</g>
</svg>
