<svg width="114" height="114" viewBox="0 0 114 114" fill="none" xmlns="http://www.w3.org/2000/svg">
    <ellipse cx="46.5" cy="40.5" rx="32.5" ry="33.5" fill="black" fill-opacity="0.55" />
    <path
        d="M86 40.5C86 62.8675 68.3152 81 46.5 81C24.6848 81 7 62.8675 7 40.5C7 18.1325 24.6848 0 46.5 0C68.3152 0 86 18.1325 86 40.5ZM14.5319 40.5C14.5319 58.6024 28.8445 73.2774 46.5 73.2774C64.1555 73.2774 78.4681 58.6024 78.4681 40.5C78.4681 22.3976 64.1555 7.72263 46.5 7.72263C28.8445 7.72263 14.5319 22.3976 14.5319 40.5Z"
        fill="url(#paint0_linear_305_52)" />
    <path
        d="M46.7975 46.0478C48.4335 46.0478 50.0025 45.3979 51.1593 44.2411C52.3161 43.0842 52.966 41.5152 52.966 39.8792V32.1686C52.966 30.5326 52.3161 28.9636 51.1593 27.8067C50.0025 26.6499 48.4335 26 46.7975 26C45.1615 26 43.5925 26.6499 42.4356 27.8067C41.2788 28.9636 40.6289 30.5326 40.6289 32.1686V39.8792C40.6289 41.5152 41.2788 43.0842 42.4356 44.2411C43.5925 45.3979 45.1615 46.0478 46.7975 46.0478Z"
        fill="white" />
    <path
        d="M57.5899 39.8791C57.5899 39.4701 57.4275 39.0778 57.1383 38.7886C56.8491 38.4994 56.4568 38.3369 56.0478 38.3369C55.6388 38.3369 55.2466 38.4994 54.9573 38.7886C54.6681 39.0778 54.5057 39.4701 54.5057 39.8791C54.5057 41.9241 53.6933 43.8853 52.2473 45.3313C50.8012 46.7774 48.84 47.5897 46.795 47.5897C44.75 47.5897 42.7887 46.7774 41.3427 45.3313C39.8967 43.8853 39.0843 41.9241 39.0843 39.8791C39.0843 39.4701 38.9218 39.0778 38.6326 38.7886C38.3434 38.4994 37.9511 38.3369 37.5421 38.3369C37.1331 38.3369 36.7409 38.4994 36.4517 38.7886C36.1625 39.0778 36 39.4701 36 39.8791C36.003 42.4727 36.9398 44.9785 38.6389 46.9382C40.338 48.8978 42.6858 50.1801 45.2528 50.5507V53.7583H41.9989C41.6349 53.7583 41.2858 53.9029 41.0284 54.1603C40.771 54.4177 40.6264 54.7668 40.6264 55.1308V55.4701C40.6264 55.8341 40.771 56.1832 41.0284 56.4406C41.2858 56.698 41.6349 56.8426 41.9989 56.8426H51.591C51.955 56.8426 52.3041 56.698 52.5615 56.4406C52.8189 56.1832 52.9635 55.8341 52.9635 55.4701V55.1308C52.9635 54.7668 52.8189 54.4177 52.5615 54.1603C52.3041 53.9029 51.955 53.7583 51.591 53.7583H48.3371V50.5507C50.9042 50.1801 53.252 48.8978 54.9511 46.9382C56.6502 44.9785 57.5869 42.4727 57.5899 39.8791Z"
        fill="white" />
    <defs>
        <linearGradient id="paint0_linear_305_52" x1="46.5" y1="0" x2="46.5" y2="81"
            gradientUnits="userSpaceOnUse">
            <stop stop-color="#38D964" />
            <stop offset="0.677083" stop-color="#35AC49" stop-opacity="0.81" />
            <stop offset="1" stop-color="#33963C" stop-opacity="0.2" />
        </linearGradient>
        <linearGradient id="paint1_linear_305_52" x1="1075.5" y1="74" x2="1075.5" y2="114"
            gradientUnits="userSpaceOnUse">
            <stop stop-color="white" />
            <stop offset="1" stop-color="white" />
        </linearGradient>
    </defs>
</svg>