<svg xmlns="http://www.w3.org/2000/svg" width="23" height="23" viewBox="0 0 23 23" fill="none">
<path d="M22.2754 11.4197C22.2754 17.7266 17.2889 22.8394 11.1377 22.8394C4.98652 22.8394 0 17.7266 0 11.4197C0 5.11277 4.98652 0 11.1377 0C17.2889 0 22.2754 5.11277 22.2754 11.4197ZM2.12376 11.4197C2.12376 16.524 6.15944 20.6619 11.1377 20.6619C16.116 20.6619 20.1516 16.524 20.1516 11.4197C20.1516 6.31539 16.116 2.17753 11.1377 2.17753C6.15944 2.17753 2.12376 6.31539 2.12376 11.4197Z" fill="url(#paint0_linear_2046_30)"/>
<ellipse cx="11.1376" cy="11.4196" rx="9.16393" ry="9.44592" fill="black" fill-opacity="0.55"/>
<path d="M12.9161 10.5464L10.168 10.7831L10.0695 11.0964L10.6096 11.1649C10.9624 11.2226 11.032 11.31 10.9552 11.5516L10.0695 14.4115C9.83673 15.1511 10.1956 15.4991 11.0392 15.4991C11.6932 15.4991 12.4529 15.2913 12.7973 15.006L12.9029 14.663C12.6629 14.8081 12.3125 14.8658 12.0797 14.8658C11.7496 14.8658 11.6296 14.7067 11.7148 14.4263L12.9161 10.5464Z" fill="white"/>
<path d="M11.8007 9.64927C12.4634 9.64927 13.0007 9.28007 13.0007 8.82464C13.0007 8.3692 12.4634 8 11.8007 8C11.1379 8 10.6006 8.3692 10.6006 8.82464C10.6006 9.28007 11.1379 9.64927 11.8007 9.64927Z" fill="white"/>
<defs>
<linearGradient id="paint0_linear_2046_30" x1="11.1377" y1="0" x2="11.1377" y2="22.8394" gradientUnits="userSpaceOnUse">
<stop stop-color="#2A3DA0"/>
<stop offset="0.677083" stop-color="#5E6CB6" stop-opacity="0.62"/>
<stop offset="1" stop-color="#5E6CB6" stop-opacity="0.62"/>
</linearGradient>
</defs>
</svg>