<svg width="26" height="27" viewBox="0 0 26 27" fill="none" xmlns="http://www.w3.org/2000/svg">
<ellipse cx="13" cy="13.38" rx="12.3418" ry="12.7215" fill="black" fill-opacity="0.55"/>
<path d="M12.5375 19.7579C9.13211 14.821 8.5 14.3144 8.5 12.5C8.5 10.0147 10.5147 8 13 8C15.4853 8 17.5 10.0147 17.5 12.5C17.5 14.3144 16.8679 14.821 13.4625 19.7579C13.239 20.0807 12.761 20.0807 12.5375 19.7579ZM13 14.375C14.0355 14.375 14.875 13.5355 14.875 12.5C14.875 11.4645 14.0355 10.625 13 10.625C11.9645 10.625 11.125 11.4645 11.125 12.5C11.125 13.5355 11.9645 14.375 13 14.375Z" fill="white"/>
</svg>
