<svg width="70" height="71" viewBox="0 0 70 71" xmlns="http://www.w3.org/2000/svg">
<ellipse cx="35.1726" cy="35.4821" rx="28.1569" ry="29.0233" fill="black" fill-opacity="0.55"/>
<path d="M34.1098 50.0342C26.3406 38.7711 24.8984 37.6152 24.8984 33.4758C24.8984 27.8058 29.4949 23.2094 35.1649 23.2094C40.8349 23.2094 45.4313 27.8058 45.4313 33.4758C45.4313 37.6152 43.9892 38.7711 36.22 50.0342C35.7101 50.7707 34.6196 50.7707 34.1098 50.0342ZM35.1649 37.7535C37.5274 37.7535 39.4426 35.8383 39.4426 33.4758C39.4426 31.1133 37.5274 29.1981 35.1649 29.1981C32.8024 29.1981 30.8872 31.1133 30.8872 33.4758C30.8872 35.8383 32.8024 37.7535 35.1649 37.7535Z" fill="white"/>
<path d="M69.3883 35.4832C69.3883 54.8618 54.0668 70.5712 35.1668 70.5712C16.2668 70.5712 0.945312 54.8618 0.945312 35.4832C0.945312 16.1047 16.2668 0.395325 35.1668 0.395325C54.0668 0.395325 69.3883 16.1047 69.3883 35.4832ZM7.47074 35.4832C7.47074 51.1666 19.8707 63.8805 35.1668 63.8805C50.4629 63.8805 62.8629 51.1666 62.8629 35.4832C62.8629 19.7999 50.4629 7.08596 35.1668 7.08596C19.8707 7.08596 7.47074 19.7999 7.47074 35.4832Z" fill="url(#paint0_linear_1987_55)"/>
<defs>
<linearGradient id="paint0_linear_1987_55" x1="35.1668" y1="0.395325" x2="35.1668" y2="70.5712" gradientUnits="userSpaceOnUse">
<stop stop-color="#5E6CB6"/>
<stop offset="1" stop-color="#5E6CB6" stop-opacity="0.62"/>
<stop offset="1" stop-color="#5E6CB6" stop-opacity="0.62"/>
</linearGradient>
</defs>
</svg>
