<svg width="70" height="71" viewBox="0 0 70 71" xmlns="http://www.w3.org/2000/svg">
<ellipse cx="35.1726" cy="35.7882" rx="28.1569" ry="29.0233" fill="black" fill-opacity="0.55"/>
<path d="M69.3883 35.7894C69.3883 55.1679 54.0668 70.8773 35.1668 70.8773C16.2668 70.8773 0.945312 55.1679 0.945312 35.7894C0.945312 16.4109 16.2668 0.701477 35.1668 0.701477C54.0668 0.701477 69.3883 16.4109 69.3883 35.7894ZM7.47074 35.7894C7.47074 51.4728 19.8707 64.1867 35.1668 64.1867C50.4629 64.1867 62.8629 51.4728 62.8629 35.7894C62.8629 20.106 50.4629 7.39212 35.1668 7.39212C19.8707 7.39212 7.47074 20.106 7.47074 35.7894Z" fill="url(#paint0_linear_1987_46)"/>
<path d="M26.6094 45.3001C26.6094 46.1837 27.3257 46.9001 28.2094 46.9001H42.1201C43.0038 46.9001 43.7201 46.1837 43.7201 45.3001V42.6224C43.7183 41.0346 43.0867 39.5124 41.964 38.3897C40.8413 37.267 39.3191 36.6355 37.7314 36.6336H32.5981C31.0104 36.6355 29.4882 37.267 28.3655 38.3897C27.2428 39.5124 26.6112 41.0346 26.6094 42.6224V45.3001Z" fill="white"/>
<path d="M29.1719 28.9327C29.1719 30.1171 29.5231 31.275 30.1812 32.2599C30.8392 33.2447 31.7745 34.0123 32.8688 34.4656C33.9631 34.9189 35.1673 35.0375 36.329 34.8064C37.4907 34.5753 38.5578 34.0049 39.3953 33.1674C40.2329 32.3298 40.8033 31.2627 41.0343 30.101C41.2654 28.9393 41.1468 27.7352 40.6935 26.6409C40.2403 25.5466 39.4727 24.6113 38.4878 23.9532C37.503 23.2951 36.3451 22.9439 35.1606 22.9439C33.5723 22.9439 32.0491 23.5749 30.9259 24.698C29.8028 25.8211 29.1719 27.3444 29.1719 28.9327Z" fill="white"/>
<defs>
<linearGradient id="paint0_linear_1987_46" x1="35.1668" y1="0.701477" x2="35.1668" y2="70.8773" gradientUnits="userSpaceOnUse">
<stop stop-color="#5E6CB6"/>
<stop offset="1" stop-color="#5E6CB6" stop-opacity="0.62"/>
<stop offset="1" stop-color="#5E6CB6" stop-opacity="0.62"/>
</linearGradient>
</defs>
</svg>
