<svg width="25" height="26" viewBox="0 0 25 26" fill="none" xmlns="http://www.w3.org/2000/svg">
<ellipse cx="12.3418" cy="12.7215" rx="12.3418" ry="12.7215" fill="black" fill-opacity="0.55"/>
<path d="M8.24805 15.375C8.24805 16.4105 9.08751 17.25 10.123 17.25H13.873C14.9086 17.25 15.748 16.4105 15.748 15.375C15.7472 14.6791 15.4704 14.0119 14.9783 13.5197C14.4862 13.0276 13.819 12.7508 13.123 12.75H10.873C10.1771 12.7508 9.5099 13.0276 9.01779 13.5197C8.52568 14.0119 8.24886 14.6791 8.24805 15.375Z" fill="white"/>
<path d="M9.37695 9.37451C9.37695 9.89369 9.53091 10.4012 9.81935 10.8329C10.1078 11.2646 10.5178 11.601 10.9974 11.7997C11.4771 11.9984 12.0049 12.0504 12.5141 11.9491C13.0233 11.8478 13.491 11.5978 13.8581 11.2307C14.2252 10.8636 14.4752 10.3958 14.5765 9.88662C14.6778 9.37742 14.6258 8.84962 14.4271 8.36997C14.2285 7.89031 13.892 7.48034 13.4603 7.1919C13.0286 6.90347 12.5211 6.74951 12.002 6.74951C11.3058 6.74951 10.6381 7.02607 10.1458 7.51836C9.65351 8.01064 9.37695 8.67832 9.37695 9.37451Z" fill="white"/>
</svg>
