<svg width="31" height="32" viewBox="0 0 31 32" fill="none" xmlns="http://www.w3.org/2000/svg">
<ellipse cx="15.5002" cy="15.8926" rx="12.7532" ry="13.1456" fill="black" fill-opacity="0.55"/>
<path d="M31 15.8924C31 24.6695 24.0604 31.7848 15.5 31.7848C6.93959 31.7848 0 24.6695 0 15.8924C0 7.11527 6.93959 0 15.5 0C24.0604 0 31 7.11527 31 15.8924ZM2.95557 15.8924C2.95557 22.9959 8.5719 28.7544 15.5 28.7544C22.4281 28.7544 28.0444 22.9959 28.0444 15.8924C28.0444 8.78891 22.4281 3.0304 15.5 3.0304C8.5719 3.0304 2.95557 8.78891 2.95557 15.8924Z" fill="url(#paint0_linear_945_20)"/>
<path d="M20.5926 11.0725C20.4568 10.9425 20.2531 10.8775 20.0494 10.9425C18.5556 11.2675 17.0617 10.9425 15.8395 10.0975C15.6358 9.9675 15.2963 9.9675 15.0926 10.0975C13.8025 10.9425 12.3086 11.2675 10.8148 10.9425C10.4753 10.8775 10.0679 11.1375 10 11.4625V11.5925V16.4675C10 18.3525 10.9506 20.1075 12.5802 21.2125L15.0926 22.9025C15.2963 23.0325 15.6358 23.0325 15.9074 22.9025L18.4198 21.2125C20.0494 20.1075 21 18.3525 21 16.4675V11.5925C20.8642 11.3975 20.7963 11.2025 20.5926 11.0725ZM16.7901 17.1825H16.1111V17.8325C16.1111 18.2225 15.8395 18.4825 15.4321 18.4825C15.0247 18.4825 14.7531 18.2225 14.7531 17.8325V17.1825H14.0741C13.6667 17.1825 13.3951 16.9225 13.3951 16.5325C13.3951 16.1425 13.6667 15.8825 14.0741 15.8825H14.7531V15.2325C14.7531 14.8425 15.0247 14.5825 15.4321 14.5825C15.8395 14.5825 16.1111 14.8425 16.1111 15.2325V15.8825H16.7901C17.1975 15.8825 17.4691 16.1425 17.4691 16.5325C17.4691 16.9225 17.1975 17.1825 16.7901 17.1825Z" fill="url(#paint1_linear_945_20)"/>
<defs>
<linearGradient id="paint0_linear_945_20" x1="15.5" y1="0" x2="15.5" y2="31.7848" gradientUnits="userSpaceOnUse">
<stop stop-color="#A50404"/>
<stop offset="0.677083" stop-color="#980A0A" stop-opacity="0.62"/>
<stop offset="1" stop-color="#A45F5F" stop-opacity="0.62"/>
</linearGradient>
<linearGradient id="paint1_linear_945_20" x1="15.5" y1="10" x2="15.5" y2="23" gradientUnits="userSpaceOnUse">
<stop stop-color="white"/>
<stop offset="1" stop-color="#ACACAC"/>
</linearGradient>
</defs>
</svg>
