<svg width="31" height="32" viewBox="0 0 31 32" fill="none" xmlns="http://www.w3.org/2000/svg">
<ellipse cx="15.5002" cy="15.8926" rx="12.7532" ry="13.1456" fill="black" fill-opacity="0.55"/>
<path d="M31 15.8924C31 24.6695 24.0604 31.7848 15.5 31.7848C6.93959 31.7848 0 24.6695 0 15.8924C0 7.11527 6.93959 0 15.5 0C24.0604 0 31 7.11527 31 15.8924ZM2.95557 15.8924C2.95557 22.9959 8.5719 28.7544 15.5 28.7544C22.4281 28.7544 28.0444 22.9959 28.0444 15.8924C28.0444 8.78891 22.4281 3.0304 15.5 3.0304C8.5719 3.0304 2.95557 8.78891 2.95557 15.8924Z" fill="url(#paint0_linear_945_48)"/>
<path d="M20.7305 16.1474L20.1719 14.0643C19.9281 13.2 19.1156 12.5714 18.2219 12.5714H17.9375V11.7857C17.9375 11.3519 17.5737 11 17.125 11H13.875C13.4263 11 13.0625 11.3519 13.0625 11.7857V12.5714H12.7781C11.8844 12.5714 11.0719 13.2 10.8281 14.0643L10.2695 16.1474C9.54361 16.3046 9 16.929 9 17.6786V18.8571C9 19.4373 9.32881 19.9385 9.8125 20.2105V21.2143C9.8125 21.6481 10.1763 22 10.625 22H11.4375C11.8862 22 12.25 21.6481 12.25 21.2143V20.4286H18.75V21.2143C18.75 21.6481 19.1138 22 19.5625 22H20.375C20.8237 22 21.1875 21.6481 21.1875 21.2143V20.2105C21.6712 19.9382 22 19.4371 22 18.8571V17.6786C22 16.929 21.4564 16.3046 20.7305 16.1474ZM11.4375 18.8571C10.9888 18.8571 10.625 18.5053 10.625 18.0714C10.625 17.6376 10.9888 17.2857 11.4375 17.2857C11.8862 17.2857 12.25 17.6376 12.25 18.0714C12.25 18.5053 11.8862 18.8571 11.4375 18.8571ZM11.9593 16.1071L12.396 14.4778C12.4526 14.2774 12.6395 14.1429 12.7784 14.1429H18.2221C18.361 14.1429 18.5479 14.2774 18.5992 14.4586L19.0407 16.1071H11.9593ZM19.5625 18.8571C19.1138 18.8571 18.75 18.5053 18.75 18.0714C18.75 17.6376 19.1138 17.2857 19.5625 17.2857C20.0112 17.2857 20.375 17.6376 20.375 18.0714C20.375 18.5053 20.0112 18.8571 19.5625 18.8571Z" fill="url(#paint1_linear_945_48)"/>
<defs>
<linearGradient id="paint0_linear_945_48" x1="15.5" y1="0" x2="15.5" y2="31.7848" gradientUnits="userSpaceOnUse">
<stop stop-color="#FFC700"/>
<stop offset="0.677083" stop-color="#F1BC00" stop-opacity="0.62"/>
<stop offset="1" stop-color="#A4995F" stop-opacity="0.62"/>
</linearGradient>
<linearGradient id="paint1_linear_945_48" x1="15.5" y1="11" x2="15.5" y2="22" gradientUnits="userSpaceOnUse">
<stop stop-color="white"/>
<stop offset="0.9999" stop-color="#B2B2B2"/>
<stop offset="1" stop-color="white" stop-opacity="0"/>
</linearGradient>
</defs>
</svg>
