<svg width="46" height="45" viewBox="0 0 46 45" fill="none" xmlns="http://www.w3.org/2000/svg">
    <path
        d="M38.7378 30.002C36.8361 30.0036 35.0108 30.7755 33.6542 32.1517L14.5304 23.3529C14.5304 23.053 14.5304 22.803 14.5304 22.503C14.5304 22.2031 14.5304 21.9531 14.5304 21.6782L33.6542 12.8543C34.8521 14.0667 36.4194 14.8136 38.09 14.9681C39.7606 15.1226 41.4315 14.6752 42.8188 13.7019C44.2062 12.7286 45.2246 11.2894 45.701 9.62876C46.1773 7.9681 46.0823 6.18838 45.4321 4.59185C44.7818 2.99532 43.6165 1.68043 42.1339 0.870495C40.6513 0.0605587 38.9429 -0.194484 37.2989 0.148684C35.6548 0.491852 34.1765 1.41207 33.115 2.75305C32.0535 4.09404 31.4742 5.7731 31.4756 7.50507V8.35495L12.3518 17.1538C11.3311 16.1183 10.0369 15.4172 8.63172 15.1386C7.22653 14.86 5.77295 15.0162 4.45344 15.5876C3.13393 16.1591 2.00731 17.1203 1.215 18.3506C0.422686 19.5809 0 21.0255 0 22.503C0 23.9805 0.422686 25.4251 1.215 26.6555C2.00731 27.8858 3.13393 28.847 4.45344 29.4184C5.77295 29.9899 7.22653 30.1461 8.63172 29.8675C10.0369 29.5888 11.3311 28.8878 12.3518 27.8523L31.4756 36.6761V37.501C31.4756 38.9842 31.9015 40.434 32.6995 41.6672C33.4975 42.9004 34.6317 43.8616 35.9587 44.4292C37.2857 44.9967 38.7458 45.1453 40.1546 44.8559C41.5633 44.5666 42.8573 43.8523 43.8729 42.8036C44.8886 41.7548 45.5802 40.4187 45.8605 38.964C46.1407 37.5093 45.9969 36.0015 45.4472 34.6313C44.8975 33.261 43.9667 32.0898 42.7725 31.2658C41.5782 30.4418 40.1741 30.002 38.7378 30.002Z"
        fill="white" />
</svg>
    