<svg width="37" height="37" viewBox="0 0 37 37" fill="none" xmlns="http://www.w3.org/2000/svg">
    <path
        d="M7.42188 34.1951H29.6969V28.6263C29.6944 26.5594 28.8723 24.5778 27.4107 23.1162C25.9492 21.6547 23.9676 20.8325 21.9006 20.8301H15.2181C13.1512 20.8325 11.1696 21.6547 9.70801 23.1162C8.24646 24.5778 7.42429 26.5594 7.42188 28.6263V34.1951Z"
        fill="url(#paint0_linear_599_56)" />
    <path
        d="M10.7812 10.8099C10.7812 12.3519 11.2385 13.8592 12.0952 15.1413C12.9518 16.4234 14.1694 17.4226 15.594 18.0127C17.0186 18.6028 18.5861 18.7572 20.0985 18.4564C21.6108 18.1555 23 17.413 24.0903 16.3227C25.1806 15.2324 25.9231 13.8432 26.2239 12.3309C26.5248 10.8186 26.3704 9.251 25.7803 7.82642C25.1902 6.40185 24.1909 5.18424 22.9089 4.32758C21.6268 3.47091 20.1194 3.01367 18.5775 3.01367C16.5098 3.01367 14.5268 3.83506 13.0647 5.29714C11.6026 6.75922 10.7813 8.74223 10.7812 10.8099Z"
        fill="url(#paint1_linear_599_56)" />
    <defs>
        <linearGradient id="paint0_linear_599_56" x1="18.5594" y1="20.8301" x2="18.5594"
            y2="34.1951" gradientUnits="userSpaceOnUse">
            <stop stop-color="white" />
            <stop offset="1" stop-color="white" stop-opacity="0" />
        </linearGradient>
        <linearGradient id="paint1_linear_599_56" x1="18.5775" y1="3.01367" x2="18.5775"
            y2="18.6062" gradientUnits="userSpaceOnUse">
            <stop stop-color="white" />
            <stop offset="1" stop-color="white" stop-opacity="0" />
        </linearGradient>
    </defs>
</svg>