<svg width="68" height="45" viewBox="0 0 68 45" fill="none" xmlns="http://www.w3.org/2000/svg">
<path d="M33.9894 9.375C32.7385 9.39441 31.4969 9.59173 30.3025 9.96094C30.855 10.9258 31.1492 12.0151 31.1569 13.125C31.1569 13.9868 30.986 14.8402 30.6538 15.6364C30.3217 16.4326 29.8349 17.156 29.2212 17.7654C28.6075 18.3748 27.8789 18.8582 27.077 19.188C26.2752 19.5178 25.4158 19.6875 24.5479 19.6875C23.4301 19.6798 22.333 19.3877 21.3613 18.8391C20.5947 21.4791 20.6841 24.2916 21.6167 26.8784C22.5494 29.4652 24.2781 31.695 26.5579 33.252C28.8378 34.809 31.5532 35.6143 34.3195 35.5538C37.0859 35.4933 39.763 34.57 41.9715 32.9148C44.1801 31.2596 45.8082 28.9564 46.6252 26.3313C47.4422 23.7063 47.4067 20.8925 46.5238 18.2886C45.6408 15.6847 43.9551 13.4226 41.7055 11.8229C39.4559 10.2231 36.7564 9.36671 33.9894 9.375ZM67.5681 20.7891C61.1679 8.38945 48.4974 0 33.9894 0C19.4813 0 6.80726 8.39531 0.410641 20.7902C0.140663 21.3205 0 21.9064 0 22.5006C0 23.0948 0.140663 23.6807 0.410641 24.2109C6.8108 36.6105 19.4813 45 33.9894 45C48.4974 45 61.1715 36.6047 67.5681 24.2098C67.8381 23.6795 67.9787 23.0936 67.9787 22.4994C67.9787 21.9052 67.8381 21.3193 67.5681 20.7891ZM33.9894 39.375C22.3468 39.375 11.6732 32.9297 5.90914 22.5C11.6732 12.0703 22.3456 5.625 33.9894 5.625C45.6331 5.625 56.3055 12.0703 62.0696 22.5C56.3067 32.9297 45.6331 39.375 33.9894 39.375Z" fill="white"/>
</svg>
