<svg width="12" height="22" viewBox="0 0 12 22" fill="none" xmlns="http://www.w3.org/2000/svg">
<path d="M2.42573 0.583566C2.07133 0.582873 1.72787 0.706304 1.45497 0.932432C1.30138 1.05977 1.17442 1.21615 1.08136 1.39263C0.988305 1.56911 0.930975 1.76221 0.912658 1.96087C0.894341 2.15954 0.915397 2.35987 0.974621 2.55039C1.03384 2.7409 1.13007 2.91787 1.25779 3.07114L8.0531 11.2012L1.50048 19.3465C1.37448 19.5017 1.28039 19.6802 1.22361 19.8718C1.16684 20.0635 1.14849 20.2644 1.16964 20.4632C1.19078 20.6619 1.25099 20.8545 1.34681 21.0299C1.44264 21.2053 1.57218 21.3601 1.728 21.4852C1.88494 21.6233 2.06872 21.7275 2.26782 21.7912C2.46692 21.8549 2.67704 21.8767 2.88498 21.8553C3.09293 21.834 3.29421 21.7699 3.4762 21.667C3.65819 21.5642 3.81696 21.4248 3.94254 21.2577L11.2687 12.1568C11.4918 11.8854 11.6138 11.545 11.6138 11.1937C11.6138 10.8423 11.4918 10.5019 11.2687 10.2305L3.68469 1.12962C3.53252 0.946058 3.33923 0.800954 3.12049 0.706079C2.90175 0.611205 2.66373 0.569231 2.42573 0.583566Z" fill="url(#paint0_linear_246_95)"/>
<defs>
<linearGradient id="paint0_linear_246_95" x1="-0.282841" y1="0.580822" x2="15.0784" y2="0.580824" gradientUnits="userSpaceOnUse">
<stop stop-color="white"/>
<stop offset="1" stop-color="white" stop-opacity="0.6"/>
</linearGradient>
</defs>
</svg>
