<svg width="73" height="72" viewBox="0 0 73 72" fill="none" xmlns="http://www.w3.org/2000/svg">
<path d="M16.726 11.7235C16.3662 11.7189 16.0168 11.6024 15.7262 11.3901C15.4356 11.1779 15.2183 10.8804 15.1045 10.539C14.9907 10.1976 14.9861 9.82928 15.0912 9.48512C15.1963 9.14096 15.4059 8.83807 15.691 8.61851C21.8993 4.22639 29.3758 1.98976 36.976 2.25101C42.961 2.25101 51.556 3.26351 58.351 8.14601C58.7226 8.4126 58.9738 8.81531 59.0496 9.26631C59.1255 9.71731 59.02 10.18 58.756 10.5535C58.482 10.9231 58.0738 11.1702 57.6193 11.2418C57.1648 11.3133 56.7004 11.2035 56.326 10.936C50.5559 7.26897 43.8082 5.4408 36.976 5.69351C30.1551 5.46178 23.4435 7.45159 17.851 11.3635C17.5326 11.617 17.1324 11.745 16.726 11.7235Z" fill="white"/>
<path d="M64.482 27.5867C64.2037 27.5842 63.9301 27.5155 63.6837 27.3864C63.4372 27.2573 63.225 27.0715 63.0645 26.8442C59.172 21.3542 52.2195 14.0417 36.9645 14.0417C31.8923 13.914 26.8644 15.0134 22.3085 17.2463C17.7525 19.4792 13.8033 22.7796 10.797 26.8667C10.527 27.2348 10.1226 27.4814 9.67185 27.553C9.22106 27.6246 8.76021 27.5155 8.38945 27.2492C8.19495 27.1139 8.03071 26.9396 7.90715 26.7374C7.78358 26.5352 7.70339 26.3095 7.67165 26.0747C7.63992 25.8398 7.65734 25.601 7.72281 25.3732C7.78827 25.1455 7.90036 24.9338 8.05195 24.7517C11.385 20.2491 15.7511 16.6133 20.7827 14.1503C25.8142 11.6874 31.3639 10.4695 36.9645 10.5992C49.587 10.5992 59.037 15.2792 65.8545 24.8642C66.1161 25.2405 66.218 25.705 66.1379 26.1563C66.0578 26.6075 65.8021 27.0086 65.427 27.2717C65.1484 27.4646 64.8205 27.5739 64.482 27.5867Z" fill="white"/>
<path d="M28.594 69.7492C28.2449 69.7473 27.9043 69.6415 27.6158 69.4451C27.3272 69.2487 27.1037 68.9707 26.974 68.6467C26.884 68.4347 26.8384 68.2066 26.8399 67.9763C26.8414 67.746 26.89 67.5185 26.9827 67.3077C27.0755 67.097 27.2104 66.9074 27.3791 66.7507C27.5479 66.594 27.7469 66.4735 27.964 66.3967C37.7965 62.6167 43.714 54.8767 43.714 45.6742C43.7812 44.7705 43.6527 43.8631 43.3372 43.0136C43.0218 42.1642 42.5268 41.3928 41.8861 40.752C41.2454 40.1113 40.474 39.6163 39.6245 39.3009C38.7751 38.9854 37.8676 38.857 36.964 38.9242C32.779 38.9242 30.754 41.1742 30.214 46.4617C29.9629 48.9347 28.7631 51.2141 26.8666 52.8211C24.9701 54.428 22.5247 55.2374 20.044 55.0792C18.7099 55.0986 17.3865 54.8399 16.1579 54.3196C14.9293 53.7993 13.8226 53.0289 12.9082 52.0573C11.9938 51.0858 11.2918 49.9344 10.8468 48.6766C10.4019 47.4188 10.2238 46.0821 10.324 44.7517C10.4483 37.7952 13.3192 31.1702 18.3101 26.3226C23.301 21.475 30.0068 18.7983 36.964 18.8767C44.0976 18.8766 50.9414 21.6996 56.0004 26.729C61.0594 31.7585 63.9224 38.5857 63.964 45.7192C63.8051 50.7421 62.7458 55.6956 60.8365 60.3442C60.6532 60.7587 60.3165 61.0863 59.8971 61.2583C59.4777 61.4302 59.008 61.4332 58.5865 61.2667C58.3773 61.1805 58.1874 61.0538 58.0276 60.8937C57.8678 60.7337 57.7413 60.5435 57.6555 60.3342C57.5697 60.125 57.5263 59.9008 57.5278 59.6746C57.5292 59.4484 57.5755 59.2248 57.664 59.0167C59.3917 54.7869 60.3591 50.2853 60.5215 45.7192C60.4917 39.495 57.9952 33.5365 53.5792 29.1501C49.1633 24.7637 43.1882 22.3072 36.964 22.3192C33.9522 22.2595 30.9582 22.7946 28.1535 23.8937C25.3487 24.9927 22.7884 26.6343 20.6189 28.7243C18.4495 30.8143 16.7137 33.3117 15.5108 36.0735C14.3079 38.8353 13.6616 41.8072 13.609 44.8192C13.5167 45.6946 13.611 46.5795 13.8855 47.4159C14.16 48.2522 14.6086 49.0209 15.2016 49.6713C15.7947 50.3218 16.5188 50.8392 17.3263 51.1896C18.1338 51.54 19.0063 51.7154 19.8865 51.7042C20.6967 51.7847 21.515 51.704 22.2938 51.4666C23.0727 51.2292 23.7969 50.8399 24.4245 50.3211C25.0521 49.8022 25.5707 49.1642 25.9503 48.4439C26.33 47.7236 26.5632 46.9351 26.6365 46.1242C27.4465 39.1267 30.889 35.5717 36.8965 35.5717C38.2579 35.5029 39.6185 35.7218 40.8896 36.2143C42.1607 36.7068 43.3137 37.4618 44.2733 38.4299C45.233 39.3981 45.9777 40.5576 46.459 41.833C46.9403 43.1084 47.1473 44.4709 47.0665 45.8317C47.0665 56.4967 40.3165 65.4517 29.0665 69.7492C28.9095 69.7672 28.751 69.7672 28.594 69.7492Z" fill="white"/>
<path d="M45.4483 68.1304C45.0173 68.1235 44.6028 67.964 44.2783 67.6804C44.1177 67.5214 43.9903 67.3322 43.9033 67.1236C43.8163 66.9151 43.7715 66.6914 43.7715 66.4654C43.7715 66.2395 43.8163 66.0157 43.9033 65.8072C43.9903 65.5987 44.1177 65.4094 44.2783 65.2504C49.3403 60.0032 52.1919 53.0111 52.2433 45.7204C52.2433 42.2104 51.1633 30.7579 37.1683 30.7579C35.129 30.6862 33.0959 31.0213 31.1876 31.7437C29.2792 32.4661 27.5338 33.5613 26.0533 34.9654C24.7285 36.2761 23.6813 37.8401 22.9739 39.5641C22.2665 41.2882 21.9134 43.137 21.9358 45.0004C21.9298 45.456 21.7447 45.8909 21.4204 46.211C21.0962 46.531 20.6589 46.7105 20.2033 46.7104C19.9768 46.7134 19.752 46.6714 19.542 46.5868C19.3319 46.5022 19.1407 46.3767 18.9795 46.2176C18.8184 46.0585 18.6904 45.869 18.603 45.66C18.5157 45.4511 18.4707 45.2269 18.4708 45.0004C18.4357 42.6954 18.8592 40.4063 19.7167 38.2664C20.5743 36.1265 21.8486 34.1784 23.4658 32.5354C25.2583 30.8149 27.3748 29.4675 29.6922 28.5714C32.0097 27.6753 34.482 27.2484 36.9658 27.3154C50.6458 27.3154 55.5058 37.2154 55.5058 45.7204C55.4763 53.836 52.3357 61.6312 46.7308 67.5004C46.5761 67.6929 46.3811 67.849 46.1595 67.9579C45.9379 68.0667 45.6951 68.1256 45.4483 68.1304Z" fill="white"/>
<path d="M20.4613 62.4135C19.2884 62.4107 18.1167 62.3431 16.9513 62.211C16.7267 62.1859 16.5093 62.1168 16.3115 62.0076C16.1136 61.8985 15.9392 61.7515 15.7982 61.5749C15.6571 61.3984 15.5522 61.1958 15.4895 60.9787C15.4268 60.7616 15.4074 60.5343 15.4325 60.3097C15.4577 60.0852 15.5268 59.8678 15.6359 59.6699C15.745 59.4721 15.8921 59.2976 16.0686 59.1566C16.2452 59.0156 16.4478 58.9107 16.6648 58.848C16.8819 58.7852 17.1092 58.7659 17.3338 58.791C22.9363 59.421 27.3463 58.431 30.4738 55.821C31.9154 54.5318 33.0812 52.9641 33.901 51.2125C34.7207 49.4608 35.1775 47.5614 35.2438 45.6285C35.2549 45.4007 35.3122 45.1774 35.412 44.9723C35.5118 44.7672 35.6522 44.5845 35.8247 44.4352C35.9971 44.2859 36.1981 44.1731 36.4153 44.1036C36.6326 44.0341 36.8617 44.0094 37.0888 44.031C37.5424 44.0656 37.9648 44.275 38.267 44.615C38.5692 44.9549 38.7276 45.399 38.7088 45.8535C38.614 48.26 38.0305 50.6221 36.9939 52.796C35.9572 54.9698 34.4891 56.91 32.6788 58.4985C29.2057 61.223 24.871 62.612 20.4613 62.4135Z" fill="white"/>
</svg>
