<svg width="49" height="39" viewBox="0 0 49 39" fill="none" xmlns="http://www.w3.org/2000/svg">
    <path
        d="M18.1294 3.94472C18.0443 3.96905 17.9648 4.0099 17.8955 4.06495C17.8262 4.12 17.7684 4.18817 17.7254 4.26556C17.6824 4.34294 17.6551 4.42804 17.645 4.51598C17.6349 4.60392 17.6423 4.69299 17.6666 4.7781C18.0984 6.28391 19.0086 7.60826 20.2596 8.551C21.5107 9.49374 23.0346 10.0036 24.6011 10.0036C26.1676 10.0036 27.6915 9.49374 28.9426 8.551C30.1936 7.60826 31.1038 6.28391 31.5356 4.7781C31.5604 4.69287 31.5681 4.60358 31.5582 4.51537C31.5484 4.42716 31.5212 4.34176 31.4783 4.26407C31.4354 4.18639 31.3775 4.11794 31.3081 4.06267C31.2386 4.0074 31.1589 3.96639 31.0736 3.94199C30.9883 3.91759 30.899 3.91028 30.8108 3.92049C30.7226 3.9307 30.6373 3.95822 30.5598 4.00147C30.4823 4.04472 30.4141 4.10286 30.3591 4.17253C30.3042 4.24221 30.2635 4.32206 30.2394 4.4075C29.8882 5.63168 29.148 6.70829 28.1309 7.47466C27.1137 8.24103 25.8747 8.65552 24.6011 8.65552C23.3275 8.65552 22.0885 8.24103 21.0714 7.47466C20.0542 6.70829 19.314 5.63168 18.9628 4.4075C18.9136 4.23563 18.7982 4.09031 18.6419 4.00352C18.4856 3.91673 18.3013 3.89558 18.1294 3.94472Z"
        fill="white" stroke="white" stroke-width="1.242" />
    <path
        d="M36.9405 12.0583C36.7692 12.0071 36.5846 12.0261 36.4273 12.1111C36.27 12.196 36.1529 12.34 36.1017 12.5113L35.2699 15.2966C35.2512 15.3592 35.2417 15.4242 35.2417 15.4895V36.3535L13.9151 36.304V15.4368C13.9151 15.3715 13.9056 15.3065 13.887 15.244L13.0551 12.4586C13.0301 12.3734 12.9885 12.2941 12.9327 12.225C12.8769 12.156 12.8081 12.0986 12.73 12.0563C12.652 12.0139 12.5664 11.9874 12.4781 11.9782C12.3899 11.969 12.3006 11.9774 12.2156 12.0028C12.1305 12.0282 12.0513 12.0701 11.9825 12.1262C11.9137 12.1823 11.8567 12.2514 11.8147 12.3296C11.7726 12.4078 11.7465 12.4935 11.7377 12.5819C11.7289 12.6702 11.7376 12.7594 11.7634 12.8443L12.567 15.5353V36.9765C12.567 37.155 12.6378 37.3263 12.7639 37.4526C12.89 37.579 13.061 37.6502 13.2395 37.6506L35.9142 37.7032H35.9158C36.0945 37.7032 36.266 37.6322 36.3924 37.5058C36.5188 37.3794 36.5898 37.2079 36.5898 37.0291V15.588L37.3934 12.897C37.4446 12.7257 37.4256 12.5411 37.3407 12.3838C37.2557 12.2265 37.1117 12.1094 36.9405 12.0583Z"
        fill="white" stroke="white" stroke-width="1.242" />
    <path
        d="M48.0373 13.9515L38.8384 4.74971C38.7689 4.68026 38.6986 4.61174 38.6275 4.54415C36.6086 2.6468 33.9433 1.58908 31.1728 1.58583L30.4952 1.58008H30.4894C30.3106 1.57934 30.1389 1.64964 30.0119 1.77552C29.885 1.90141 29.8133 2.07256 29.8125 2.25133C29.8118 2.43011 29.8821 2.60185 30.0079 2.72879C30.1338 2.85573 30.305 2.92746 30.4838 2.92821L31.1613 2.93396C33.5903 2.93471 35.9278 3.85998 37.6992 5.52183C37.7617 5.58119 37.8236 5.6415 37.8848 5.70273L46.6075 14.428L40.627 20.4084L38.6127 18.3941C38.4863 18.2677 38.3148 18.1967 38.136 18.1967C37.9573 18.1967 37.7858 18.2677 37.6594 18.3941C37.533 18.5206 37.462 18.692 37.462 18.8708C37.462 19.0496 37.533 19.221 37.6594 19.3474L40.1503 21.8384C40.2129 21.901 40.2872 21.9506 40.369 21.9845C40.4508 22.0184 40.5385 22.0358 40.627 22.0358C40.7155 22.0358 40.8032 22.0184 40.8849 21.9845C40.9667 21.9506 41.041 21.901 41.1036 21.8384L48.0372 14.9048C48.0998 14.8422 48.1495 14.7679 48.1834 14.6861C48.2173 14.6043 48.2347 14.5166 48.2347 14.4281C48.2347 14.3396 48.2173 14.2519 48.1834 14.1702C48.1495 14.0884 48.0999 14.0141 48.0373 13.9515Z"
        fill="white" stroke="white" stroke-width="1.242" />
    <path
        d="M10.6378 18.3481L8.57642 20.4095L2.59599 14.4291L11.3186 5.70388C11.3797 5.64265 11.4416 5.58239 11.5041 5.52309C13.2755 3.86112 15.6132 2.93577 18.0422 2.93504L18.8452 2.92821C19.024 2.92746 19.1951 2.85573 19.321 2.72879C19.4469 2.60185 19.5172 2.43011 19.5164 2.25133C19.5157 2.07256 19.444 1.90141 19.317 1.77552C19.1901 1.64964 19.0183 1.57934 18.8396 1.58008H18.8337L18.0307 1.58691C15.2601 1.59017 12.5947 2.64797 10.5758 4.54543C10.5049 4.61281 10.4347 4.68121 10.3652 4.75063L1.16613 13.9526C1.03974 14.079 0.968739 14.2504 0.96875 14.4292C0.968761 14.608 1.03978 14.7794 1.16619 14.9058L8.09981 21.8394C8.1624 21.902 8.23671 21.9517 8.31849 21.9855C8.40027 22.0194 8.48793 22.0368 8.57645 22.0368C8.66497 22.0368 8.75262 22.0194 8.83441 21.9855C8.91619 21.9517 8.9905 21.902 9.05309 21.8394L11.5911 19.3014C11.7175 19.175 11.7886 19.0035 11.7886 18.8247C11.7886 18.646 11.7175 18.4745 11.5911 18.3481C11.4647 18.2217 11.2933 18.1507 11.1145 18.1507C10.9357 18.1507 10.7642 18.2217 10.6378 18.3481Z"
        fill="white" stroke="white" stroke-width="1.242" />
</svg>
    