<svg width="53" height="53" viewBox="0 0 53 53" fill="none" xmlns="http://www.w3.org/2000/svg">
<path fill-rule="evenodd" clip-rule="evenodd" d="M13.25 12.3588C13.25 5.54176 19.1897 0 26.5 0C33.8103 0 39.7259 5.54176 39.75 12.3588C39.75 19.1991 26.5 37.0996 26.5 37.0996C26.5 37.0996 13.25 19.1991 13.25 12.3588ZM21.2 13.2499C21.2 16.1754 23.5744 18.5498 26.5 18.5498C29.4256 18.5498 31.8 16.1754 31.8 13.2499C31.8 10.3243 29.4256 7.94992 26.5 7.94992C23.5744 7.94992 21.2 10.3243 21.2 13.2499ZM1.33531 32.1487L12.7354 25.6348C13.5888 27.162 14.4902 28.6706 15.3735 30.0918L15.4376 30.1949L6.70978 35.1818L17.1412 47.7001L35.8588 47.6995L46.2902 35.1821L37.5624 30.1949L37.6266 30.0918C38.5098 28.6706 39.4111 27.162 40.2646 25.6349L51.6647 32.1489C52.3452 32.5377 52.8188 33.2079 52.9579 33.9793C53.097 34.7507 52.8877 35.5441 52.3857 36.1462L39.1357 52.046C38.6322 52.6502 37.8865 52.9995 37.1 52.9995L15.9001 53C15.1136 53 14.3677 52.6507 13.8642 52.0465L0.614201 36.1459C0.112427 35.5438 -0.0970362 34.7504 0.0421169 33.979C0.18127 33.2076 0.654762 32.5374 1.33531 32.1487Z" fill="url(#paint0_linear_886_241)"/>
<defs>
<linearGradient id="paint0_linear_886_241" x1="26.5" y1="0" x2="26.5" y2="53" gradientUnits="userSpaceOnUse">
<stop stop-color="white"/>
<stop offset="1" stop-color="#D2D2D2"/>
</linearGradient>
</defs>
</svg>
