<svg width="52" height="72" viewBox="0 0 52 72" fill="none" xmlns="http://www.w3.org/2000/svg">
<path d="M0.34375 71.875H51.5938V59.0625C51.5882 54.3069 49.6966 49.7476 46.3338 46.3849C42.9711 43.0222 38.4119 41.1306 33.6562 41.125H18.2812C13.5256 41.1306 8.96639 43.0222 5.60366 46.3849C2.24094 49.7476 0.349311 54.3069 0.34375 59.0625V71.875Z" fill="white"/>
<path d="M8.03125 18.0625C8.03125 21.6102 9.08326 25.0782 11.0543 28.028C13.0253 30.9778 15.8267 33.2769 19.1044 34.6346C22.382 35.9922 25.9886 36.3475 29.4682 35.6553C32.9477 34.9632 36.1439 33.2548 38.6525 30.7462C41.1611 28.2376 42.8695 25.0415 43.5616 21.5619C44.2537 18.0824 43.8985 14.4758 42.5408 11.1981C41.1832 7.92047 38.8841 5.11901 35.9343 3.14801C32.9845 1.17702 29.5165 0.125 25.9687 0.125C21.2114 0.125 16.649 2.01484 13.285 5.37877C9.92109 8.74271 8.03125 13.3052 8.03125 18.0625Z" fill="white"/>
</svg>
