<svg width="74" height="70" viewBox="0 0 74 70" fill="none" xmlns="http://www.w3.org/2000/svg">
<path d="M61.9602 46.81C58.9551 46.8125 56.0708 47.9974 53.9271 50.11L23.7073 36.6032C23.7073 36.1428 23.7073 35.759 23.7073 35.2986C23.7073 34.8381 23.7073 34.4544 23.7073 34.0323L53.9271 20.4872C55.8199 22.3483 58.2966 23.4948 60.9365 23.7319C63.5764 23.9691 66.2168 23.2823 68.4092 21.7882C70.6016 20.2942 72.2108 18.0849 72.9635 15.5357C73.7163 12.9865 73.5662 10.2545 72.5387 7.80369C71.5111 5.35291 69.6696 3.33446 67.3268 2.09115C64.984 0.847845 62.2843 0.456337 59.6864 0.983123C57.0885 1.50991 54.7524 2.92251 53.075 4.98101C51.3976 7.03951 50.4822 9.61698 50.4843 12.2757V13.5803L20.2645 27.0871C18.6516 25.4976 16.6066 24.4214 14.3861 23.9937C12.1656 23.566 9.8686 23.8058 7.7835 24.683C5.69839 25.5602 3.91808 27.0357 2.66605 28.9243C1.41403 30.813 0.746094 33.0305 0.746094 35.2986C0.746094 37.5667 1.41403 39.7842 2.66605 41.6728C3.91808 43.5615 5.69839 45.037 7.7835 45.9142C9.8686 46.7914 12.1656 47.0312 14.3861 46.6035C16.6066 46.1758 18.6516 45.0996 20.2645 43.5101L50.4843 57.0552V58.3215C50.4843 60.5982 51.1574 62.8239 52.4184 64.7169C53.6794 66.61 55.4717 68.0854 57.5686 68.9567C59.6655 69.828 61.9729 70.0559 64.1991 69.6118C66.4252 69.1676 68.47 68.0712 70.0749 66.4613C71.6798 64.8514 72.7728 62.8003 73.2156 60.5673C73.6584 58.3343 73.4311 56.0197 72.5625 53.9163C71.694 51.8128 70.2231 50.015 68.3359 48.7501C66.4487 47.4852 64.2299 46.81 61.9602 46.81Z" fill="url(#paint0_linear_2072_345)"/>
<defs>
<linearGradient id="paint0_linear_2072_345" x1="37.0911" y1="0.754883" x2="37.0911" y2="69.833" gradientUnits="userSpaceOnUse">
<stop stop-color="white"/>
<stop offset="1" stop-color="#C5C5C5"/>
</linearGradient>
</defs>
</svg>
