<svg width="266" height="338" viewBox="0 0 266 338" fill="none" xmlns="http://www.w3.org/2000/svg">
<path fill-rule="evenodd" clip-rule="evenodd" d="M206.371 28.886C205.562 28.886 204.74 28.7112 203.963 28.3412C180.597 17.2356 155.518 11.6053 129.423 11.6053C115.825 11.6053 102.281 13.18 89.1699 16.2858C86.1917 16.9894 83.1935 15.186 82.4765 12.2528C81.7595 9.31966 83.5938 6.36902 86.5742 5.66322C100.534 2.35641 114.951 0.679688 129.423 0.679688C157.203 0.679688 183.905 6.67567 208.788 18.5023C211.548 19.8141 212.705 23.0801 211.373 25.7969C210.416 27.7483 208.434 28.886 206.371 28.886ZM129.424 23.9893C141.834 23.9893 154.2 25.4052 166.179 28.1978C169.162 28.8927 171.007 31.8368 170.301 34.7721C169.594 37.7075 166.603 39.524 163.621 38.8284C152.479 36.2325 140.974 34.9149 129.424 34.9149C88.7301 34.9149 50.7448 50.8743 22.4659 79.8519C21.376 80.9685 19.9212 81.5308 18.4628 81.5308C17.0799 81.5308 15.6947 81.0253 14.6189 80.0078C12.4087 77.9174 12.3376 74.459 14.4613 72.2841C29.1956 57.1856 46.5034 45.308 65.9031 36.9835C85.9968 28.361 107.368 23.9893 129.424 23.9893ZM129.424 58.2186C161.684 58.2186 192.307 70.3526 215.651 92.3851C238.925 114.351 252.536 143.822 253.975 175.369C254.109 178.3 256.565 180.587 259.515 180.587C259.599 180.587 259.683 180.585 259.768 180.581C262.83 180.446 265.2 177.893 265.063 174.879C263.494 140.515 248.674 108.417 223.333 84.499C197.912 60.5064 164.561 47.293 129.424 47.293C122.905 47.293 116.348 47.7555 109.934 48.666C106.9 49.0972 104.796 51.8664 105.234 54.8528C105.672 57.8391 108.484 59.915 111.52 59.4794C117.409 58.6432 123.433 58.2186 129.424 58.2186ZM85.5665 54.4491C88.4649 53.4723 91.6214 54.9939 92.6137 57.8491C93.6059 60.7036 92.0595 63.8094 89.1597 64.7854C76.9226 68.9073 65.4337 74.8785 55.0117 82.5352C54.015 83.2672 52.8511 83.6197 51.6968 83.6197C50.0053 83.6197 48.3345 82.8615 47.2446 81.4237C45.411 79.0062 45.9171 75.5829 48.373 73.7787C59.7214 65.4432 72.2351 58.9388 85.5665 54.4491ZM129.425 70.6035C131.501 70.6035 133.601 70.6603 135.668 70.7725C138.728 70.9386 141.072 73.5156 140.904 76.5274C140.734 79.5399 138.119 81.8598 135.057 81.6806C133.193 81.5794 131.298 81.5284 129.426 81.5284C73.7336 81.5284 28.4244 126.129 28.4244 180.951V204.889C28.4244 207.906 25.9397 210.352 22.8749 210.352C19.8101 210.352 17.3254 207.906 17.3254 204.889V180.952C17.3246 120.106 67.6129 70.6035 129.425 70.6035ZM212.296 186.414C215.361 186.414 217.846 183.969 217.846 180.951C217.846 159.91 210.087 139.587 195.998 123.725C182.048 108.017 162.889 97.7437 142.053 94.7967C139.022 94.3706 136.206 96.4406 135.771 99.4269C135.335 102.413 137.441 105.182 140.474 105.611C158.686 108.186 175.437 117.173 187.642 130.915C199.962 144.786 206.747 162.556 206.747 180.951C206.747 183.969 209.231 186.414 212.296 186.414ZM64.6806 180.952C64.6804 180.952 64.6802 180.952 64.6802 180.952C64.6804 145.81 93.7243 117.22 129.425 117.22C165.125 117.22 194.169 145.81 194.169 180.952V202.565C194.169 217.074 199.599 231.004 209.46 241.789L225.081 258.875C227.132 261.117 226.947 264.571 224.668 266.59C222.391 268.609 218.881 268.425 216.831 266.184L201.21 249.098C189.512 236.304 183.07 219.778 183.07 202.565V180.952C183.07 151.834 159.005 128.145 129.425 128.145C99.8442 128.145 75.7793 151.834 75.7793 180.952V204.89C75.7793 248.562 92.2147 290.41 122.059 322.724L127.613 328.739C129.675 330.971 129.507 334.427 127.24 336.456C126.176 337.407 124.84 337.876 123.509 337.876C121.999 337.876 120.496 337.274 119.401 336.088L113.847 330.073C82.142 295.743 64.681 251.286 64.681 204.89V180.953C64.681 180.953 64.6808 180.952 64.6806 180.952ZM129.422 140.53C106.778 140.53 88.3555 158.665 88.3555 180.955V204.892C88.3555 245.477 103.629 284.367 131.363 314.398L151.434 336.132C152.529 337.317 154.033 337.92 155.542 337.92C156.874 337.92 158.21 337.451 159.273 336.499C161.541 334.47 161.708 331.014 159.646 328.782L139.575 307.048C113.702 279.033 99.4539 242.753 99.4539 204.892V180.955C99.4539 164.689 112.897 151.456 129.421 151.456C145.945 151.456 159.389 164.689 159.389 180.955V202.567C159.389 225.548 167.99 247.611 183.607 264.693L200.956 283.669C203.007 285.91 206.515 286.094 208.793 284.075C211.072 282.056 211.257 278.602 209.206 276.36L191.857 257.383C178.077 242.312 170.488 222.845 170.488 202.567V180.955C170.488 158.665 152.066 140.53 129.422 140.53ZM112.035 180.954V204.891C112.035 239.665 125.122 272.987 148.886 298.718L172.674 324.476C173.769 325.662 175.272 326.264 176.782 326.264C178.114 326.264 179.449 325.796 180.513 324.844C182.781 322.815 182.948 319.359 180.886 317.127L157.098 291.369C135.196 267.653 123.134 236.942 123.134 204.891V180.954C123.134 177.54 125.956 174.762 129.424 174.762C132.892 174.762 135.713 177.54 135.713 180.954V202.566C135.713 231.314 146.473 258.914 166.009 280.283L190.413 306.975C192.464 309.218 195.973 309.4 198.25 307.382C200.529 305.363 200.714 301.909 198.663 299.666L174.259 272.974C156.559 253.615 146.812 228.61 146.812 202.566V180.954C146.812 171.515 139.012 163.837 129.424 163.837C119.836 163.837 112.035 171.515 112.035 180.954ZM206.745 202.565C206.745 199.548 209.229 197.103 212.294 197.103C215.359 197.103 217.844 199.548 217.844 202.565C217.844 211.307 221.115 219.699 227.055 226.196L240.95 241.395C243.001 243.637 242.816 247.091 240.538 249.11C239.477 250.05 238.15 250.512 236.827 250.512C235.308 250.512 233.795 249.902 232.7 248.703L218.805 233.505C211.028 224.999 206.745 214.011 206.745 202.565ZM58.668 255.233C57.8911 252.315 54.8603 250.571 51.8939 251.331C48.9297 252.095 47.1546 255.081 47.9301 257.999C50.0922 266.131 52.7818 274.213 55.9258 282.025C56.7893 284.169 58.8781 285.477 61.0869 285.477C61.7676 285.477 62.4587 285.353 63.1298 285.092C65.9793 283.981 67.3741 280.806 66.2449 278.001C63.2652 270.599 60.7169 262.939 58.668 255.233ZM70.3651 116.223C72.6448 114.205 76.1536 114.39 78.2025 116.633C80.2513 118.877 80.0649 122.331 77.7859 124.347C61.4622 138.793 52.1006 159.424 52.1006 180.952V204.89C52.1006 213.975 52.7369 223.129 53.9926 232.101C54.4106 235.09 52.2885 237.846 49.2525 238.258C48.9958 238.293 48.7405 238.31 48.4882 238.31C45.7593 238.31 43.3804 236.327 42.9979 233.591C41.6734 224.127 41.0015 214.471 41.0015 204.889V180.952C41.0008 156.33 51.704 132.737 70.3651 116.223ZM93.9252 112.707C94.7251 112.707 95.5368 112.537 96.3071 112.176C103.292 108.902 110.715 106.694 118.372 105.611C121.406 105.182 123.512 102.413 123.076 99.427C122.64 96.4414 119.832 94.3707 116.794 94.7968C108.029 96.0357 99.531 98.5639 91.5352 102.311C88.7686 103.608 87.5929 106.868 88.9107 109.592C89.8615 111.557 91.8512 112.707 93.9252 112.707ZM186.936 99.2671C187.902 99.9277 189.007 100.245 190.099 100.245C191.855 100.245 193.582 99.4274 194.66 97.8992C196.41 95.4228 195.789 92.0183 193.272 90.2957C183.024 83.2815 171.765 78.0423 159.808 74.7238C156.859 73.9081 153.792 75.5964 152.961 78.4997C152.129 81.403 153.846 84.4214 156.796 85.2401C167.563 88.2286 177.703 92.947 186.936 99.2671ZM230.422 202.565V180.952C230.422 155.539 220.646 131.337 202.893 112.802C200.791 110.607 200.894 107.15 203.124 105.08C205.354 103.01 208.867 103.112 210.969 105.307C230.671 125.877 241.522 152.742 241.522 180.952V202.565C241.522 205.539 242.634 208.393 244.654 210.602L251.497 218.086C253.548 220.329 253.363 223.783 251.084 225.801C250.024 226.742 248.697 227.204 247.374 227.204C245.855 227.204 244.343 226.595 243.247 225.396L236.404 217.912C232.547 213.692 230.422 208.242 230.422 202.565ZM29.4441 90.606C16.453 104.526 6.77982 120.612 0.693115 138.418C-0.284363 141.277 1.27838 144.375 4.18265 145.337C4.76941 145.531 5.36652 145.624 5.95331 145.624C8.27002 145.624 10.4321 144.184 11.212 141.902C16.8 125.556 25.6844 110.784 37.6174 97.9983C39.6907 95.776 39.542 92.3206 37.2852 90.279C35.0284 88.2374 31.5181 88.3845 29.4441 90.606ZM250.661 93.1814C251.858 93.1814 253.064 92.802 254.079 92.0197C256.492 90.1602 256.916 86.7266 255.027 84.3499C238.035 62.9874 215.662 46.2283 190.326 35.8846C187.496 34.7272 184.248 36.0514 183.074 38.8382C181.899 41.6249 183.243 44.821 186.074 45.977C209.65 55.6024 230.472 71.2006 246.288 91.0866C247.382 92.4625 249.013 93.1814 250.661 93.1814ZM49.1437 31.1997C54.5904 28.3583 60.2532 25.7798 65.9744 23.5372C68.8216 22.4213 70.2113 19.2434 69.0777 16.4406C67.9433 13.6386 64.7165 12.2707 61.8684 13.3873C55.7758 15.7756 49.746 18.5209 43.9471 21.5458C41.239 22.9588 40.2075 26.2649 41.6422 28.9308C42.6382 30.7816 44.5613 31.837 46.5502 31.837C47.4263 31.837 48.3157 31.6323 49.1437 31.1997Z" fill="white"/>
</svg>
