<svg width="63" height="68" viewBox="0 0 63 68" fill="none" xmlns="http://www.w3.org/2000/svg">
<path d="M61.8319 60.5454L41.7023 16.3476C41.4996 15.8094 41.297 14.8676 41.297 14.3294V10.2258C41.297 9.68763 41.7698 9.08218 42.3102 8.81309C43.6612 8.00582 44.6069 6.52584 44.6069 4.84404C44.6069 2.28769 42.5804 0.269531 40.0811 0.269531H23.1938C20.627 0.269531 18.6005 2.28769 18.6005 4.84404C18.6005 6.39129 19.4111 7.73674 20.5594 8.544C21.0323 8.88036 21.5051 9.55308 21.5051 10.0913V14.8003C21.5051 15.4058 21.3025 16.2803 21.0998 16.8185L0.632455 60.5454C-0.178134 62.2944 -0.110585 64.1108 0.767553 65.4562C1.57814 66.8017 3.19932 67.5417 5.15824 67.5417H57.171C59.13 67.5417 60.7511 66.8017 61.6293 65.4562C62.5074 64.1108 62.6425 62.2944 61.8319 60.5454ZM15.4257 41.5073L5.02314 62.9671C4.88805 63.169 4.6854 63.3035 4.48275 63.3035C4.4152 63.3035 4.2801 63.2362 4.21256 63.2362C3.94236 63.1017 3.80726 62.6981 3.94236 62.429L14.3449 40.9692C14.48 40.7001 14.8178 40.5655 15.1555 40.7001C15.4257 40.8346 15.5608 41.171 15.4257 41.5073ZM46.5658 38.211H15.6283C15.0204 38.211 14.7502 37.7401 15.0204 37.2692L24.2071 17.4912C24.4773 16.953 24.6124 16.0785 24.6124 15.473V7.40038C24.6124 6.79493 24.2746 6.25675 23.9369 6.25675H23.1938C22.3833 6.25675 21.7753 5.58403 21.7753 4.84404C21.7753 4.03677 22.3833 3.43132 23.1938 3.43132H40.0811C40.8242 3.43132 41.4996 4.03677 41.4996 4.84404C41.4996 5.58403 40.8242 6.25675 40.0811 6.25675H39.1354C38.595 6.25675 38.1897 6.72765 38.1897 7.40038V14.9349C38.1897 15.5403 38.3248 16.4148 38.595 16.953L47.2413 37.2692C47.444 37.7401 47.1738 38.211 46.5658 38.211Z" fill="url(#paint0_linear_2086_388)"/>
<defs>
<linearGradient id="paint0_linear_2086_388" x1="31.2173" y1="0.269531" x2="31.2173" y2="67.5416" gradientUnits="userSpaceOnUse">
<stop stop-color="white"/>
<stop offset="1" stop-color="#D5D5D5"/>
</linearGradient>
</defs>
</svg>
