<svg width="60" height="47" viewBox="0 0 60 47" fill="none" xmlns="http://www.w3.org/2000/svg">
<path d="M59.3975 18.9745V20.6244C59.3975 21.9913 58.2895 23.0993 56.9226 23.0993H56.0977L53.4049 41.9486C53.0565 44.3871 50.9681 46.1984 48.5049 46.1984H10.8926C8.4294 46.1984 6.341 44.3871 5.99255 41.9486L3.29986 23.0993H2.4749C1.10803 23.0993 0 21.9913 0 20.6244V18.9745C0 17.6076 1.10803 16.4996 2.4749 16.4996H9.41915L20.4304 1.35932C21.5023 -0.114481 23.566 -0.440446 25.04 0.631494C26.5139 1.70343 26.8397 3.76719 25.7678 5.24109L17.5797 16.4996H41.8178L33.6297 5.24099C32.5578 3.76719 32.8838 1.70333 34.3577 0.631391C35.8314 -0.440549 37.8953 -0.114687 38.9673 1.35922L49.9784 16.4996H56.9226C58.2895 16.4996 59.3975 17.6076 59.3975 18.9745ZM32.1737 37.1237V25.5742C32.1737 24.2074 31.0656 23.0993 29.6988 23.0993C28.3319 23.0993 27.2239 24.2074 27.2239 25.5742V37.1237C27.2239 38.4906 28.3319 39.5986 29.6988 39.5986C31.0656 39.5986 32.1737 38.4906 32.1737 37.1237ZM43.7232 37.1237V25.5742C43.7232 24.2074 42.6152 23.0993 41.2483 23.0993C39.8814 23.0993 38.7734 24.2074 38.7734 25.5742V37.1237C38.7734 38.4906 39.8814 39.5986 41.2483 39.5986C42.6152 39.5986 43.7232 38.4906 43.7232 37.1237ZM20.6241 37.1237V25.5742C20.6241 24.2074 19.5161 23.0993 18.1492 23.0993C16.7824 23.0993 15.6743 24.2074 15.6743 25.5742V37.1237C15.6743 38.4906 16.7824 39.5986 18.1492 39.5986C19.5161 39.5986 20.6241 38.4906 20.6241 37.1237Z" fill="white"/>
</svg>
