<svg width="61" height="70" viewBox="0 0 61 70" fill="none" xmlns="http://www.w3.org/2000/svg">
<path fill-rule="evenodd" clip-rule="evenodd" d="M3.47087 69.9905C2.81449 69.9905 2.18499 69.7297 1.72085 69.2656C1.25672 68.8015 0.995972 68.172 0.995972 67.5156C0.995972 66.8592 1.25672 66.2297 1.72085 65.7656C2.18499 65.3014 2.81449 65.0407 3.47087 65.0407H8.42066V60.0909C8.41965 55.8884 9.60755 51.7713 11.8472 48.2152C14.0868 44.6592 17.2867 41.8093 21.0773 39.9947C22.5127 39.3067 23.27 38.1287 23.27 37.0743V33.6095C23.27 32.5552 22.5078 31.3771 21.0773 30.6891C17.2867 28.8746 14.0868 26.0246 11.8472 22.4686C9.60755 18.9126 8.41965 14.7955 8.42066 10.5929V5.64315H3.47087C2.81449 5.64315 2.18499 5.38241 1.72085 4.91827C1.25672 4.45414 0.995972 3.82464 0.995972 3.16826C0.995972 2.51187 1.25672 1.88237 1.72085 1.41824C2.18499 0.954107 2.81449 0.693359 3.47087 0.693359H57.9186C58.575 0.693359 59.2045 0.954107 59.6686 1.41824C60.1328 1.88237 60.3935 2.51187 60.3935 3.16826C60.3935 3.82464 60.1328 4.45414 59.6686 4.91827C59.2045 5.38241 58.575 5.64315 57.9186 5.64315H52.9688V10.5929C52.9698 14.7955 51.7819 18.9126 49.5423 22.4686C47.3027 26.0246 44.1028 28.8746 40.3122 30.6891C38.8767 31.3771 38.1194 32.5552 38.1194 33.6095V37.0743C38.1194 38.1287 38.8817 39.3067 40.3122 39.9947C44.1028 41.8093 47.3027 44.6592 49.5423 48.2152C51.7819 51.7713 52.9698 55.8884 52.9688 60.0909V65.0407H57.9186C58.575 65.0407 59.2045 65.3014 59.6686 65.7656C60.1328 66.2297 60.3935 66.8592 60.3935 67.5156C60.3935 68.172 60.1328 68.8015 59.6686 69.2656C59.2045 69.7297 58.575 69.9905 57.9186 69.9905H3.47087ZM13.3705 5.64315V10.5929C13.3705 13.251 13.9644 15.7655 15.0385 18.0176H46.3509C47.4201 15.7655 48.019 13.251 48.019 10.5929V5.64315H13.3705ZM28.2198 37.0743C28.2198 40.5442 25.8538 43.1923 23.2156 44.4594C20.267 45.8707 17.7778 48.0874 16.0357 50.8534C14.2936 53.6195 13.3696 56.822 13.3705 60.0909C13.3705 60.0909 17.657 53.6611 28.2198 52.7652V37.0743ZM33.1696 37.0743C33.1696 40.5442 35.5356 43.1923 38.1739 44.4594C41.1225 45.8707 43.6117 48.0874 45.3538 50.8534C47.0959 53.6195 48.0199 56.822 48.019 60.0909C48.019 60.0909 43.7325 53.6611 33.1696 52.7652V37.0743Z" fill="white"/>
</svg>
