<svg width="75" height="74" viewBox="0 0 75 74" fill="none" xmlns="http://www.w3.org/2000/svg">
<path fill-rule="evenodd" clip-rule="evenodd" d="M19.2503 17.4559C19.2503 8.04817 27.4471 0.400391 37.5356 0.400391C47.624 0.400391 55.7877 8.04817 55.821 17.4559C55.821 26.8956 37.5356 51.5989 37.5356 51.5989C37.5356 51.5989 19.2503 26.8956 19.2503 17.4559ZM30.2214 18.6856C30.2214 22.7229 33.4982 25.9997 37.5356 25.9997C41.573 25.9997 44.8498 22.7229 44.8498 18.6856C44.8498 14.6482 41.573 11.3715 37.5356 11.3715C33.4982 11.3715 30.2214 14.6482 30.2214 18.6856ZM2.80761 44.7665L18.5401 35.7771C19.7178 37.8847 20.9617 39.9666 22.1807 41.9279L22.2692 42.0701L10.2245 48.9523L24.6202 66.2278L50.4509 66.2271L64.8466 48.9527L52.8021 42.0701L52.8906 41.9279C54.1095 39.9666 55.3532 37.8847 56.5312 35.7772L72.2636 44.7668C73.2027 45.3033 73.8562 46.2282 74.0482 47.2928C74.2402 48.3573 73.9513 49.4522 73.2586 50.2831L54.9733 72.2253C54.2784 73.0591 53.2493 73.5411 52.1639 73.5411L22.9074 73.5419C21.822 73.5419 20.7927 73.0599 20.0978 72.2261L1.81246 50.2827C1.12 49.4519 0.830931 48.357 1.02297 47.2924C1.215 46.2278 1.86843 45.303 2.80761 44.7665Z" fill="url(#paint0_linear_2086_386)"/>
<defs>
<linearGradient id="paint0_linear_2086_386" x1="37.5356" y1="0.400391" x2="37.5356" y2="73.5419" gradientUnits="userSpaceOnUse">
<stop stop-color="white"/>
<stop offset="1" stop-color="#D2D2D2"/>
</linearGradient>
</defs>
</svg>
