<svg width="82" height="66" viewBox="0 0 82 66" fill="none" xmlns="http://www.w3.org/2000/svg">
<path d="M5.61607 11.739C5.9864 11.739 6.48898 11.683 7.12382 11.5709L10.8535 15.522C9.2135 16.5869 7.46769 17.1193 5.61607 17.1193C5.56317 17.1193 5.48382 17.1053 5.37801 17.0773L5.2193 17.0352L0.537354 62.8516C0.48445 63.5801 0.669612 64.2106 1.09284 64.7431C1.51607 65.2755 2.07155 65.5417 2.75929 65.5417H17.7574C18.4451 65.5417 19.0535 65.2755 19.5826 64.7431C20.1116 64.2106 20.4026 63.5801 20.4555 62.8516L22.36 44.0206H33.549C37.2523 44.0206 40.2942 42.6195 42.6749 39.8173C45.0555 37.0151 46.2458 33.0359 46.2458 27.8798H74.1788C74.8665 27.8798 75.4617 27.6136 75.9643 27.0812C76.4669 26.5488 76.7182 25.9183 76.7182 25.1897V22.4996H79.2575C79.9453 22.4996 80.5404 22.2334 81.043 21.7009C81.5456 21.1685 81.7969 20.538 81.7969 19.8094V9.04891C81.7969 8.32033 81.5456 7.68983 81.043 7.15741C80.5404 6.62499 79.9453 6.35878 79.2575 6.35878H76.7182V3.66865C76.7182 2.94007 76.4669 2.30957 75.9643 1.77715C75.4617 1.24473 74.8665 0.978516 74.1788 0.978516C73.4911 0.978516 72.8959 1.24473 72.3933 1.77715C71.8907 2.30957 71.6394 2.94007 71.6394 3.66865V6.35878L15.7735 6.35878C15.7735 8.32033 15.2709 10.1698 14.2658 11.9072L9.82189 7.11538C9.08124 6.3868 8.23479 6.19065 7.28253 6.52691C6.59479 6.41482 6.0393 6.35878 5.61607 6.35878C4.18768 6.35878 2.98413 6.62499 2.00542 7.15741C1.02671 7.68983 0.537354 8.32033 0.537354 9.04891C0.537354 9.77749 1.02671 10.408 2.00542 10.9404C2.98413 11.4728 4.18768 11.739 5.61607 11.739ZM24.0264 27.8798H25.931C25.931 30.0095 26.3806 32.0131 27.28 33.8906C28.1793 35.7681 29.4226 37.3233 31.0097 38.5563V27.8798H40.691C41.0084 28.7765 41.1671 29.6733 41.1671 30.57C41.1671 32.8117 40.4265 34.7173 38.9452 36.2865C37.4639 37.8557 35.6652 38.6404 33.549 38.6404H22.9155L24.0264 27.8798Z" fill="url(#paint0_linear_2182_170)"/>
<defs>
<linearGradient id="paint0_linear_2182_170" x1="41.1627" y1="0.978516" x2="41.1627" y2="65.5417" gradientUnits="userSpaceOnUse">
<stop stop-color="#F89427"/>
<stop offset="1" stop-color="#FBBC04"/>
</linearGradient>
</defs>
</svg>
