<svg width="78" height="58" viewBox="0 0 78 58" fill="none" xmlns="http://www.w3.org/2000/svg">
<path d="M75.9463 17.2708H66.9224L64.4144 11.0417C61.837 4.6373 55.6859 0.5 48.742 0.5H29.5999C22.6575 0.5 16.505 4.6373 13.926 11.0417L11.418 17.2708H2.3956C1.21843 17.2708 0.35478 18.3699 0.641158 19.5035L1.54551 23.0972C1.74597 23.8968 2.46945 24.4583 3.29994 24.4583H6.32499C4.30076 26.2148 2.99699 28.7678 2.99699 31.6458V38.8333C2.99699 41.2471 3.92545 43.4258 5.40859 45.1119V53.2083C5.40859 55.8542 7.56847 58 10.2318 58H15.055C17.7183 58 19.8782 55.8542 19.8782 53.2083V48.4167H58.4637V53.2083C58.4637 55.8542 60.6236 58 63.2869 58H68.1101C70.7734 58 72.9333 55.8542 72.9333 53.2083V45.1119C74.4165 43.4273 75.3449 41.2486 75.3449 38.8333V31.6458C75.3449 28.7678 74.0412 26.2148 72.0184 24.4583H75.0435C75.874 24.4583 76.5975 23.8968 76.7979 23.0972L77.7023 19.5035C77.9871 18.3699 77.1235 17.2708 75.9463 17.2708ZM22.8821 14.601C23.9809 11.8727 26.6412 10.0833 29.5999 10.0833H48.742C51.7007 10.0833 54.361 11.8727 55.4598 14.601L58.4637 22.0625H19.8782L22.8821 14.601ZM15.055 38.8034C12.1611 38.8034 10.2318 36.8927 10.2318 34.0267C10.2318 31.1607 12.1611 29.25 15.055 29.25C17.9489 29.25 22.2898 33.549 22.2898 36.415C22.2898 39.2811 17.9489 38.8034 15.055 38.8034ZM63.2869 38.8034C60.393 38.8034 56.0522 39.2811 56.0522 36.415C56.0522 33.549 60.393 29.25 63.2869 29.25C66.1809 29.25 68.1101 31.1607 68.1101 34.0267C68.1101 36.8927 66.1809 38.8034 63.2869 38.8034Z" fill="white"/>
</svg>
