<svg width="96" height="63" viewBox="0 0 96 63" fill="none" xmlns="http://www.w3.org/2000/svg">
<path fill-rule="evenodd" clip-rule="evenodd" d="M64.3516 0.0761719C70.7171 0.0761719 77.6716 5.56478 84.0155 13.8661C86.4388 17.037 88.5373 20.3761 89.8257 23.0643C90.5051 24.4817 90.9513 25.6951 91.1248 26.7054C91.513 28.9664 90.6549 31.263 87.7722 31.263L86.8745 31.2422C86.431 31.2183 85.8484 31.1683 84.6878 31.0658C81.6712 30.7996 79.4047 30.8136 77.078 31.3279L77.8905 33.0723C78.8907 32.8598 79.928 32.7481 80.9915 32.7481C89.1934 32.7481 95.8424 39.397 95.8424 47.5989C95.8424 55.8008 89.1934 62.4498 80.9915 62.4498C72.7896 62.4498 66.1407 55.8008 66.1407 47.5989C66.1407 42.5777 68.6326 38.1386 72.4472 35.4507L71.5809 33.5928C70.3415 34.5368 68.9047 36.0296 66.8424 38.4395L64.2167 41.5703L62.9753 43.0291C58.5657 48.1179 55.6521 50.3702 51.8965 50.5564L51.379 50.5691L30.2008 50.5726C28.8235 57.3495 22.8312 62.4498 15.6477 62.4498C7.44583 62.4498 0.796875 55.8008 0.796875 47.5989C0.796875 39.397 7.44583 32.7481 15.6477 32.7481C22.8323 32.7481 28.8252 37.8498 30.2014 44.6282L32.8331 44.6288L32.8321 44.5426C32.6842 42.0713 31.6006 39.3877 28.8978 36.3329L28.3355 35.717C27.9801 35.3393 27.6221 34.9825 27.2615 34.6461C23.1558 30.8153 19.7804 29.8602 13.5211 29.8141L11.8113 29.8161C5.67119 29.8161 1.07921 21.3311 2.09673 16.8967C2.62762 14.5831 4.35727 13.9553 6.6018 13.942C7.45269 13.9369 8.38094 14.0293 9.6322 14.2187L13.0517 14.7707C13.4146 14.8221 13.6349 14.8439 13.7999 14.8481L13.8929 14.8486C19.9297 14.7492 24.5751 15.5428 28.8447 17.0582L29.8692 17.4449C31.072 17.9135 32.652 18.5587 33.1849 18.7568L33.5906 18.9009C33.6437 18.9239 33.6651 18.9393 33.6691 18.9515L33.6648 18.9576L34.4135 18.3196C38.5667 14.8185 41.3465 13.3306 44.4518 12.6945L45.0035 12.5908C48.992 11.9071 53.0338 12.0188 57.0802 12.7008L57.8747 12.8449L54.0538 6.89603C53.7006 6.33752 53.4443 5.92233 53.2352 5.56966L52.9064 4.99333C52.8132 4.82078 52.7352 4.66508 52.6693 4.5181C52.5251 4.19662 52.4258 3.91026 52.3716 3.52291C52.1637 2.03825 52.9467 0.307967 54.9316 0.0974819L55.3447 0.0761719L64.3516 0.0761719ZM60.2003 23.8375H42.3793V29.7779H60.2003V23.8375Z" fill="white"/>
</svg>
