<svg width="93" height="63" viewBox="0 0 93 63" fill="none" xmlns="http://www.w3.org/2000/svg">
<path d="M92.6633 35.3493C91.9656 27.5198 90.8165 25.995 90.3825 25.4215C89.3845 24.0963 87.7878 23.2302 86.098 22.3215C86.0025 22.271 85.92 22.199 85.857 22.1111C85.7941 22.0232 85.7524 21.922 85.7353 21.8152C85.7182 21.7085 85.7261 21.5993 85.7585 21.4962C85.7908 21.3931 85.8467 21.2989 85.9217 21.221C86.2346 20.9037 86.4751 20.5224 86.6266 20.1033C86.7782 19.6843 86.8371 19.2374 86.7995 18.7933C86.7266 18.0059 86.3605 17.2747 85.7736 16.7446C85.1867 16.2146 84.4221 15.9244 83.6312 15.9316H80.6083C80.4787 15.9324 80.3493 15.9408 80.2207 15.9568C80.1325 15.9186 80.0411 15.8881 79.9475 15.8658C78.157 12.0818 75.7057 6.90095 70.6248 4.37251C63.0888 0.62539 49.2065 0.431641 46.4936 0.431641C43.7807 0.431641 29.8984 0.62539 22.372 4.3667C17.2912 6.89514 14.8399 12.076 13.0493 15.86L13.0338 15.891C12.9445 15.9035 12.8568 15.9256 12.7722 15.9568C12.6437 15.9408 12.5143 15.9324 12.3847 15.9316H9.35593C8.5651 15.9244 7.80043 16.2146 7.21357 16.7446C6.62671 17.2747 6.26053 18.0059 6.18765 18.7933C6.15323 19.2363 6.21488 19.6815 6.36839 20.0985C6.52189 20.5155 6.76364 20.8944 7.07709 21.2094C7.15208 21.2872 7.20795 21.3814 7.2403 21.4846C7.27265 21.5877 7.28059 21.6969 7.26349 21.8036C7.24639 21.9103 7.20472 22.0116 7.14177 22.0995C7.07882 22.1873 6.99631 22.2594 6.90075 22.3099C5.211 23.2244 3.60652 24.0905 2.61631 25.4099C2.18225 25.9911 1.03508 27.5082 0.335536 35.3376C-0.0520206 39.7435 -0.110154 44.3044 0.194078 47.2416C0.83161 53.3448 2.02722 57.0338 2.07761 57.1868C2.26107 57.7438 2.59879 58.2374 3.05155 58.6102C3.50432 58.983 4.05355 59.2197 4.63548 59.2929V59.3316C4.63548 60.1538 4.96214 60.9423 5.54358 61.5237C6.12503 62.105 6.91365 62.4316 7.73594 62.4316H18.5875C19.4098 62.4316 20.1984 62.105 20.7799 61.5237C21.3613 60.9423 21.688 60.1538 21.688 59.3316C23.3564 59.3316 24.5172 59.0333 25.7477 58.7155C27.5242 58.2369 29.34 57.9185 31.1735 57.7642C37.0856 57.2004 42.9649 57.0066 46.4936 57.0066C49.9506 57.0066 56.0895 57.2004 62.0114 57.7642C63.852 57.9189 65.675 58.2385 67.4585 58.7194C68.6367 59.0216 69.7548 59.3006 71.303 59.3297C71.303 60.1519 71.6297 60.9404 72.2111 61.5217C72.7926 62.1031 73.5812 62.4297 74.4035 62.4297H85.2551C86.0774 62.4297 86.866 62.1031 87.4475 61.5217C88.0289 60.9404 88.3556 60.1519 88.3556 59.3297V59.3065C88.9389 59.2346 89.4898 58.9985 89.944 58.6256C90.3983 58.2528 90.7371 57.7585 90.9212 57.2004C90.9716 57.0473 92.1672 53.3583 92.8047 47.2552C93.1089 44.316 93.0547 39.7629 92.6633 35.3493ZM18.6534 18.5105C20.2036 15.2167 21.9767 11.489 25.1334 9.91764C29.6949 7.64689 39.1494 6.62389 46.4936 6.62389C53.8378 6.62389 63.2922 7.63914 67.8538 9.91764C71.0104 11.489 72.7758 15.2186 74.3337 18.5105L74.5275 18.9309C74.6408 19.1702 74.6909 19.4346 74.673 19.6988C74.6551 19.963 74.5698 20.2183 74.4252 20.4401C74.2807 20.662 74.0816 20.8432 73.8472 20.9663C73.6127 21.0894 73.3506 21.1504 73.0858 21.1435C66.6465 20.9691 53.082 20.4111 46.4936 20.4111C39.9051 20.4111 26.3406 20.9827 19.8917 21.1571C19.6269 21.164 19.3648 21.103 19.1303 20.9799C18.8958 20.8567 18.6968 20.6756 18.5522 20.4537C18.4077 20.2318 18.3224 19.9766 18.3044 19.7124C18.2865 19.4482 18.3366 19.1838 18.45 18.9445C18.5178 18.8011 18.5895 18.6558 18.6534 18.5105ZM20.9652 33.9388C17.6318 34.3399 14.2771 34.5379 10.9197 34.5316C8.86567 34.5316 6.74767 33.9504 6.3543 32.1214C6.08494 30.8911 6.11401 30.1994 6.25935 29.5038C6.38143 28.9129 6.5752 28.4828 7.5441 28.3316C10.0632 27.9441 11.472 28.4305 15.5956 29.6453C18.3298 30.4493 20.3025 31.5208 21.4264 32.3694C21.9903 32.7879 21.6899 33.8806 20.9652 33.9388ZM63.8639 49.8263C61.3138 50.1169 56.2135 50.0103 46.5517 50.0103C36.8899 50.0103 31.7916 50.1169 29.2415 49.8263C26.61 49.5337 23.2557 47.046 25.5461 44.8295C27.0712 43.3686 30.6289 42.2758 35.3668 41.6616C40.1047 41.0474 42.1103 40.7316 46.5323 40.7316C50.9544 40.7316 52.7565 40.9254 57.6979 41.6636C62.6392 42.4018 66.3733 43.5081 67.5185 44.8314C69.6075 47.2029 66.4935 49.5182 63.8639 49.8379V49.8263ZM86.6329 32.1194C86.2453 33.9562 84.1137 34.5297 82.0674 34.5297C78.6457 34.5305 75.2269 34.3325 71.8282 33.9368C71.2352 33.8806 70.9601 32.8402 71.5608 32.3674C72.6672 31.4975 74.6612 30.4474 77.3916 29.6433C81.5152 28.4285 83.8928 27.9422 85.9353 28.3471C86.4333 28.446 86.6968 28.9807 86.7278 29.3159C86.8645 30.2492 86.8323 31.1995 86.6329 32.1214V32.1194Z" fill="white"/>
</svg>
