<svg width="90" height="57" viewBox="0 0 90 57" fill="none" xmlns="http://www.w3.org/2000/svg">
<path d="M35.6324 3.78213e-05C35.4884 0.00315954 35.3447 0.0167452 35.2027 0.0406876H16.7942C13.6249 0.0406876 10.6907 1.72884 9.09393 4.4599L9.08812 4.4657L0.807188 18.6583V18.6641C0.278681 19.5725 0 20.6021 0 21.6547V32.7463V39.7555C0 42.5949 2.00494 45.0328 4.79086 45.5858L11.9859 47.0086C12.4468 52.3064 16.8896 56.5322 22.2993 56.5322C27.5023 56.5322 31.8191 52.6236 32.5546 47.6125H35.6789H62.589C63.3246 52.6236 67.6414 56.5322 72.8443 56.5322C78.3934 56.5322 82.9469 52.0918 83.2042 46.6021L85.1031 45.9807C87.5471 45.1809 89.1972 42.8993 89.1972 40.3304V28.5013C89.1972 25.757 87.3172 23.3714 84.6502 22.7232L68.4484 18.7976L57.7168 3.78046C56.0455 1.43621 53.336 0.0406876 50.4579 0.0406876H36.1376C35.9707 0.0127834 35.8017 -0.000815856 35.6324 3.78213e-05ZM16.7942 5.98716H32.7056V17.8801H8.14737L14.2274 7.46217C14.7654 6.54209 15.7295 5.98716 16.7942 5.98716ZM38.6521 5.98716H50.4579C51.4213 5.98716 52.3151 6.44629 52.8737 7.22989L60.481 17.8801H38.6521V5.98716ZM22.2993 41.666C24.7976 41.666 26.7591 43.6276 26.7591 46.1259C26.7591 48.6242 24.7976 50.5857 22.2993 50.5857C19.801 50.5857 17.8394 48.6242 17.8394 46.1259C17.8394 43.6276 19.801 41.666 22.2993 41.666ZM72.8443 41.666C75.3427 41.666 77.3042 43.6276 77.3042 46.1259C77.3042 48.6242 75.3427 50.5857 72.8443 50.5857C70.346 50.5857 68.3845 48.6242 68.3845 46.1259C68.3845 43.6276 70.346 41.666 72.8443 41.666Z" fill="white"/>
</svg>
