<svg width="95" height="28" viewBox="0 0 95 28" fill="none" xmlns="http://www.w3.org/2000/svg">
<path d="M9.45975 0.748047C4.72123 0.748047 0.921875 4.55337 0.921875 9.29933V43.5045H9.45975C9.45975 46.9064 10.809 50.1689 13.2108 52.5745C15.6125 54.98 18.87 56.3314 22.2666 56.3314C25.6632 56.3314 28.9206 54.98 31.3224 52.5745C33.7241 50.1689 35.0734 46.9064 35.0734 43.5045H60.687C60.687 46.9064 62.0363 50.1689 64.4381 52.5745C66.8398 54.98 70.0973 56.3314 73.4938 56.3314C76.8904 56.3314 80.1479 54.98 82.5496 52.5745C84.9514 50.1689 86.3007 46.9064 86.3007 43.5045H94.8385V26.4019C94.8385 21.6559 91.0392 17.8506 86.3007 17.8506L73.4938 0.748047H9.45975ZM9.45975 7.16151H26.5355V17.8506H9.45975V7.16151ZM35.0734 7.16151H52.1491V17.8506H35.0734V7.16151ZM60.687 7.16151H71.3594L79.7265 17.8506H60.687V7.16151ZM22.2666 37.091C23.9649 37.091 25.5936 37.7667 26.7945 38.9695C27.9953 40.1722 28.67 41.8035 28.67 43.5045C28.67 45.2054 27.9953 46.8367 26.7945 48.0395C25.5936 49.2422 23.9649 49.9179 22.2666 49.9179C20.5683 49.9179 18.9396 49.2422 17.7387 48.0395C16.5378 46.8367 15.8632 45.2054 15.8632 43.5045C15.8632 41.8035 16.5378 40.1722 17.7387 38.9695C18.9396 37.7667 20.5683 37.091 22.2666 37.091ZM73.4938 37.091C75.1921 37.091 76.8209 37.7667 78.0217 38.9695C79.2226 40.1722 79.8973 41.8035 79.8973 43.5045C79.8973 45.2054 79.2226 46.8367 78.0217 48.0395C76.8209 49.2422 75.1921 49.9179 73.4938 49.9179C71.7956 49.9179 70.1668 49.2422 68.966 48.0395C67.7651 46.8367 67.0904 45.2054 67.0904 43.5045C67.0904 41.8035 67.7651 40.1722 68.966 38.9695C70.1668 37.7667 71.7956 37.091 73.4938 37.091Z" fill="white"/>
</svg>
