<svg width="42" height="53" viewBox="0 0 42 53" fill="none" xmlns="http://www.w3.org/2000/svg">
<path d="M15.75 23.625C15.75 22.1753 16.9253 21 18.375 21H23.625C25.0747 21 26.25 22.1753 26.25 23.625C26.25 25.0747 25.0747 26.25 23.625 26.25H18.375C16.9253 26.25 15.75 25.0747 15.75 23.625Z" fill="white"/>
<path d="M13.125 36.75C11.6753 36.75 10.5 37.9253 10.5 39.375C10.5 40.8247 11.6753 42 13.125 42H28.875C30.3247 42 31.5 40.8247 31.5 39.375C31.5 37.9253 30.3247 36.75 28.875 36.75H13.125Z" fill="white"/>
<path d="M10.8255 13.125H10.5V7.875C10.5 3.52574 14.0257 0 18.375 0H23.625C27.9743 0 31.5 3.52574 31.5 7.875V13.125H31.1745C37.6305 16.7074 42 23.5934 42 31.5V44.625C42 48.9741 38.4743 52.5 34.125 52.5H7.875C3.52574 52.5 0 48.9741 0 44.625V31.5C0 23.5934 4.36952 16.7074 10.8255 13.125ZM15.75 7.875V11.1616C17.428 10.7297 19.1872 10.5 21 10.5C22.8128 10.5 24.572 10.7297 26.25 11.1616V7.875C26.25 6.42526 25.0747 5.25 23.625 5.25H18.375C16.9253 5.25 15.75 6.42526 15.75 7.875ZM5.25 31.5V44.625C5.25 46.0747 6.42526 47.25 7.875 47.25H34.125C35.5747 47.25 36.75 46.0747 36.75 44.625V31.5C36.75 22.8015 29.6985 15.75 21 15.75C12.3015 15.75 5.25 22.8015 5.25 31.5Z" fill="white"/>
</svg>
