<svg width="75" height="45" viewBox="0 0 75 45" fill="none" xmlns="http://www.w3.org/2000/svg">
<path fill-rule="evenodd" clip-rule="evenodd" d="M58.9699 23.5089C56.9985 27.7131 49.0669 32.8068 37.385 32.8068C25.7764 32.8068 17.5193 27.7773 15.7817 23.5777C7.01105 23.972 0.707031 29.2169 0.707031 32.3346C0.707031 37.5061 17.125 44.8417 37.385 44.8417C57.6403 44.8417 74.0629 37.5061 74.0629 32.3346C74.0629 29.1757 67.7589 25.1503 58.9699 23.5089Z" fill="white"/>
<path fill-rule="evenodd" clip-rule="evenodd" d="M46.9058 0.521118C44.5401 0.521118 39.6528 2.14412 37.4383 2.14412C35.2239 2.14412 30.3366 0.521118 27.9754 0.521118C22.868 0.521118 19.677 6.81138 19.2323 9.21837L19.1406 20.3455C21.7172 22.6654 26.5266 25.5813 31.7991 26.0214C33.633 26.1727 35.5678 26.2644 37.5805 26.2644C39.584 26.2644 41.5142 26.1727 43.3526 26.0214C48.6251 25.5767 52.8614 23.023 55.5847 20.4235L55.5618 9.3605C55.1675 6.85723 51.9674 0.521118 46.9058 0.521118Z" fill="white"/>
</svg>
