<svg width="48" height="54" viewBox="0 0 48 54" fill="none" xmlns="http://www.w3.org/2000/svg">
<path fill-rule="evenodd" clip-rule="evenodd" d="M14.3281 34.2854C14.9904 34.1227 15.9703 35.0718 15.9703 35.0718C15.9703 35.0718 23.0925 39.5126 23.1116 39.5126C24.0068 39.5128 31.4451 35.0718 31.4451 35.0718C31.4451 35.0718 32.425 34.1227 33.0872 34.2854C40.2049 36.0346 47.4153 39.6011 47.4153 44.9664V54.0008H0V44.9664C0 39.6011 7.21042 36.0346 14.3281 34.2854ZM7.90256 46.0986C7.90256 45.3712 8.49222 44.7815 9.21965 44.7815H15.8051C16.5325 44.7815 17.1222 45.3712 17.1222 46.0986C17.1222 46.8261 16.5325 47.4157 15.8051 47.4157H9.21965C8.49222 47.4157 7.90256 46.8261 7.90256 46.0986ZM35.8216 41.0282C35.7397 40.7643 35.3833 40.7643 35.3015 41.0282L34.5562 43.4314C34.5196 43.5494 34.4145 43.6293 34.296 43.6293H31.8842C31.6193 43.6293 31.5091 43.9846 31.7235 44.1476L33.6748 45.6329C33.7707 45.706 33.8107 45.8352 33.7741 45.9532L33.0287 48.3565C32.9468 48.6203 33.2353 48.8399 33.4496 48.6768L35.4008 47.1914C35.4967 47.1186 35.6264 47.1186 35.7223 47.1914L37.6735 48.6768C37.8878 48.8399 38.1762 48.6203 38.0943 48.3565L37.3489 45.9532C37.3123 45.8352 37.3525 45.706 37.4484 45.6329L39.3995 44.1476C39.6139 43.9846 39.5037 43.6293 39.2388 43.6293H36.827C36.7086 43.6293 36.6035 43.5494 36.5669 43.4314L35.8216 41.0282Z" fill="white"/>
<path fill-rule="evenodd" clip-rule="evenodd" d="M11.8516 19.756V15.8047H14.4857V19.756C14.4857 24.8478 18.6135 28.9756 23.7054 28.9756C28.7973 28.9756 32.9251 24.8478 32.9251 19.756V15.8047H35.5592V19.756C35.5592 26.3027 30.2521 31.6098 23.7054 31.6098C17.1587 31.6098 11.8516 26.3027 11.8516 19.756Z" fill="white"/>
<path fill-rule="evenodd" clip-rule="evenodd" d="M10.5672 15.0281C10.627 14.7149 10.9137 14.4873 11.2484 14.4873H36.1715C36.5062 14.4873 36.7929 14.7149 36.8527 15.0281L36.853 15.0297L36.8534 15.0313L36.854 15.0351L36.8556 15.044L36.8594 15.068C36.8622 15.0866 36.8653 15.1104 36.8684 15.139C36.8744 15.1963 36.88 15.2732 36.8808 15.3669C36.8823 15.5543 36.8651 15.8107 36.7941 16.1127C36.6505 16.7232 36.2925 17.4992 35.4727 18.2534C33.8472 19.7486 30.5077 21.0728 23.71 21.0728C16.9122 21.0728 13.5727 19.7486 11.9473 18.2534C11.1274 17.4992 10.7694 16.7232 10.6258 16.1127C10.5548 15.8107 10.5376 15.5543 10.5392 15.3669C10.5399 15.2732 10.5455 15.1963 10.5515 15.139C10.5546 15.1104 10.5577 15.0866 10.5605 15.068L10.5643 15.044L10.5659 15.0351L10.5666 15.0313L10.567 15.0297L10.5672 15.0281Z" fill="white"/>
<path fill-rule="evenodd" clip-rule="evenodd" d="M10.13 11.8529C10.0299 11.6952 9.92786 11.5368 9.82525 11.3771C8.89262 9.92846 7.90625 8.39664 7.90625 6.71194C7.90625 5.65722 8.59153 4.76909 9.49862 4.06684C12.8704 1.45653 23.7114 -0.000976562 23.7114 -0.000976562C23.7114 -0.000976562 34.5524 1.45654 37.9241 4.06684C38.8312 4.76909 39.5165 5.65722 39.5165 6.71194C39.5165 8.63267 38.4288 10.2912 37.3969 11.8529H10.13ZM27.0041 5.70642C27.0041 5.70642 24.5895 4.82837 23.7114 3.9503C22.8333 4.82837 20.4186 5.70642 20.4186 5.70642C20.4186 5.70642 21.0772 10.5358 23.7114 10.5358C26.3456 10.5358 27.0041 5.70642 27.0041 5.70642Z" fill="white"/>
</svg>
