<svg width="66" height="52" viewBox="0 0 66 52" fill="none" xmlns="http://www.w3.org/2000/svg">
<path d="M61.5099 37.7612L35.7493 24.4839V20.4565C37.7422 19.9701 39.5508 18.9649 40.9692 17.5552C42.3876 16.1455 43.3589 14.3879 43.7726 12.4823C44.1863 10.5766 44.0258 8.59953 43.3094 6.77584C42.593 4.95216 41.3494 3.3551 39.7201 2.16634C38.0908 0.97758 36.1412 0.244843 34.0931 0.0514777C32.0449 -0.141887 29.9805 0.211882 28.1345 1.07254C26.2886 1.93321 24.7353 3.26621 23.6514 4.91993C22.5674 6.57364 21.9963 8.48167 22.0029 10.427H27.5015C27.6254 9.04875 28.3236 7.7735 29.4424 6.88178C29.9964 6.44025 30.637 6.10616 31.3276 5.8986C32.0182 5.69104 32.7453 5.61406 33.4674 5.67207C34.1895 5.73007 34.8924 5.92193 35.536 6.23667C36.1796 6.55142 36.7514 6.98289 37.2185 7.50646C37.6857 8.03003 38.0392 8.63544 38.2588 9.28812C38.4785 9.9408 38.5599 10.628 38.4985 11.3104C38.2265 12.5611 37.4948 13.6805 36.433 14.47C35.3711 15.2595 34.0478 15.6682 32.6976 15.6236C32.0486 15.6236 31.4263 15.8672 30.9674 16.3009C30.5085 16.7346 30.2507 17.3228 30.2507 17.9361V24.4839L4.49011 37.7612C2.80592 38.6059 1.47005 39.9599 0.696124 41.6067C0.159608 42.7234 -0.0728523 43.9492 0.0199029 45.1725C0.112658 46.3958 0.527683 47.5777 1.2272 48.6107C1.92671 49.6437 2.88849 50.4949 4.02499 51.0868C5.16149 51.6788 6.4366 51.9927 7.73424 52H58.2658C59.5634 51.9927 60.8385 51.6788 61.975 51.0868C63.1115 50.4949 64.0733 49.6437 64.7728 48.6107C65.4723 47.5777 65.8873 46.3958 65.9801 45.1725C66.0729 43.9492 65.8404 42.7234 65.3039 41.6067C64.53 39.9599 63.1941 38.6059 61.5099 37.7612ZM58.2658 46.8034H7.73424C7.14363 46.8034 6.57721 46.5816 6.15958 46.1869C5.74196 45.7922 5.50734 45.2569 5.50734 44.6987C5.50599 44.2313 5.63808 43.7722 5.88968 43.3698C6.14128 42.9674 6.50308 42.6366 6.93696 42.4122L33 28.9789L59.063 42.4122C59.4969 42.6366 59.8587 42.9674 60.1103 43.3698C60.3619 43.7722 60.494 44.2313 60.4927 44.6987C60.4927 45.2569 60.258 45.7922 59.8404 46.1869C59.4228 46.5816 58.8564 46.8034 58.2658 46.8034Z" fill="white"/>
</svg>
