<svg width="29" height="29" viewBox="0 0 29 29" fill="none" xmlns="http://www.w3.org/2000/svg">
<path d="M14.5 0C6.525 0 0 6.525 0 14.5C0 22.475 6.525 29 14.5 29C22.475 29 29 22.475 29 14.5C29 6.525 22.475 0 14.5 0ZM14.5 3.625C20.5175 3.625 25.375 8.4825 25.375 14.5C25.375 20.5175 20.5175 25.375 14.5 25.375C8.4825 25.375 3.625 20.5175 3.625 14.5C3.625 8.4825 8.4825 3.625 14.5 3.625ZM14.5 7.25C10.5125 7.25 7.25 10.5125 7.25 14.5C7.25 18.4875 10.5125 21.75 14.5 21.75C18.4875 21.75 21.75 18.4875 21.75 14.5C21.75 10.5125 18.4875 7.25 14.5 7.25ZM14.5 10.875C16.53 10.875 18.125 12.47 18.125 14.5C18.125 16.53 16.53 18.125 14.5 18.125C12.47 18.125 10.875 16.53 10.875 14.5C10.875 12.47 12.47 10.875 14.5 10.875Z" fill="white"/>
</svg>
