<svg width="32" height="32" viewBox="0 0 32 32" fill="none" xmlns="http://www.w3.org/2000/svg">
<path d="M30.641 21.9246C30.546 21.8747 28.6698 20.8967 25.9682 20.3538C29.8784 15.782 31.0834 10.5147 31.137 10.2731C31.2088 9.94867 31.1102 9.60968 30.8753 9.37416C30.6909 9.18915 30.442 9.08812 30.1864 9.08812C30.117 9.08812 30.047 9.09542 29.977 9.11125C29.7409 9.16298 24.7102 10.3035 20.2042 13.9654C20.2048 13.8765 20.2048 13.7871 20.2048 13.6976C20.2048 6.46813 16.5545 0.690753 16.3993 0.448533C16.3114 0.311011 16.1903 0.197838 16.0471 0.11945C15.9039 0.0410618 15.7434 -1.76378e-05 15.5801 5.68099e-09C15.2484 5.68099e-09 14.9393 0.169189 14.7604 0.448533C14.6052 0.690753 10.9548 6.46813 10.9548 13.6976C10.9548 13.7871 10.9554 13.8765 10.9554 13.9654C6.45002 10.3041 1.41939 9.16359 1.18265 9.11125C1.11327 9.09603 1.04328 9.08812 0.973291 9.08812C0.717682 9.08812 0.468767 9.18915 0.284363 9.37416C0.168771 9.48995 0.0842477 9.63302 0.0386118 9.79014C-0.00702403 9.94726 -0.0122983 10.1134 0.0232768 10.2731C0.076833 10.5147 1.28185 15.782 5.19206 20.3538C2.49051 20.8967 0.614829 21.8747 0.51928 21.9246C0.362716 22.0073 0.231658 22.1311 0.140203 22.2827C0.0487479 22.4343 0.000355296 22.608 0.000230118 22.7851C0.000104941 22.9621 0.0482519 23.1359 0.139493 23.2876C0.230734 23.4394 0.361616 23.5634 0.518063 23.6463C0.667168 23.7248 4.21587 25.5767 8.64217 25.5767C9.01585 25.5767 9.37005 25.5706 9.70721 25.5579C9.01524 26.9108 8.70181 27.8894 8.68416 27.9448C8.57462 28.2904 8.66652 28.6684 8.92212 28.9252C9.04773 29.0513 9.20544 29.1405 9.37816 29.1833C9.55089 29.2261 9.73203 29.2208 9.90196 29.168C10.0133 29.1333 12.1976 28.4383 14.6064 26.7769V30.6731C14.6064 30.9421 14.8243 31.16 15.0933 31.16H16.067C16.336 31.16 16.5539 30.9421 16.5539 30.6731V26.7775C18.9627 28.4389 21.1469 29.1334 21.2583 29.1686C21.4282 29.2215 21.6094 29.2267 21.7821 29.1839C21.9548 29.1411 22.1125 29.0519 22.2381 28.9258C22.4937 28.669 22.5856 28.2911 22.4761 27.9454C22.4585 27.89 22.1444 26.9114 21.4531 25.5585C21.7902 25.5713 22.145 25.5773 22.5181 25.5773C26.9438 25.5773 30.4931 23.7254 30.6422 23.6469C30.9611 23.4777 31.1607 23.1466 31.1601 22.7857C31.1595 22.4242 30.9599 22.0925 30.641 21.9246Z" fill="white"/>
</svg>
