<svg width="30" height="30" viewBox="0 0 30 30" fill="none" xmlns="http://www.w3.org/2000/svg">
<mask id="mask0_969_435" style="mask-type:luminance" maskUnits="userSpaceOnUse" x="0" y="0" width="30" height="30">
<path d="M0 0H30V30H0V0Z" fill="white"/>
</mask>
<g mask="url(#mask0_969_435)">
<path d="M15 0C15.3315 0 15.6495 0.131696 15.8839 0.366117C16.1183 0.600537 16.25 0.918479 16.25 1.25V6.25C16.25 6.58152 16.1183 6.89946 15.8839 7.13388C15.6495 7.3683 15.3315 7.5 15 7.5C14.6685 7.5 14.3505 7.3683 14.1161 7.13388C13.8817 6.89946 13.75 6.58152 13.75 6.25V1.25C13.75 0.918479 13.8817 0.600537 14.1161 0.366117C14.3505 0.131696 14.6685 0 15 0ZM6.16125 4.39375C5.9255 4.16605 5.60974 4.04006 5.282 4.04291C4.95425 4.04576 4.64074 4.17722 4.40898 4.40898C4.17722 4.64074 4.04576 4.95425 4.04291 5.282C4.04006 5.60974 4.16605 5.9255 4.39375 6.16125L7.92875 9.69625C8.1645 9.92395 8.48026 10.0499 8.808 10.0471C9.13575 10.0442 9.44926 9.91278 9.68102 9.68102C9.91278 9.44926 10.0442 9.13575 10.0471 8.808C10.0499 8.48026 9.92395 8.1645 9.69625 7.92875L6.16125 4.39375ZM1.25 13.75C0.918479 13.75 0.600537 13.8817 0.366117 14.1161C0.131696 14.3505 0 14.6685 0 15C0 15.3315 0.131696 15.6495 0.366117 15.8839C0.600537 16.1183 0.918479 16.25 1.25 16.25H6.25C6.58152 16.25 6.89946 16.1183 7.13388 15.8839C7.3683 15.6495 7.5 15.3315 7.5 15C7.5 14.6685 7.3683 14.3505 7.13388 14.1161C6.89946 13.8817 6.58152 13.75 6.25 13.75H1.25ZM22.5 15C22.5 14.6685 22.6317 14.3505 22.8661 14.1161C23.1005 13.8817 23.4185 13.75 23.75 13.75H28.75C29.0815 13.75 29.3995 13.8817 29.6339 14.1161C29.8683 14.3505 30 14.6685 30 15C30 15.3315 29.8683 15.6495 29.6339 15.8839C29.3995 16.1183 29.0815 16.25 28.75 16.25H23.75C23.4185 16.25 23.1005 16.1183 22.8661 15.8839C22.6317 15.6495 22.5 15.3315 22.5 15ZM22.0712 20.3037C21.8355 20.0761 21.5197 19.9501 21.192 19.9529C20.8643 19.9558 20.5507 20.0872 20.319 20.319C20.0872 20.5507 19.9558 20.8643 19.9529 21.192C19.9501 21.5197 20.0761 21.8355 20.3037 22.0712L23.8387 25.6063C23.9541 25.7256 24.092 25.8209 24.2445 25.8864C24.397 25.9519 24.561 25.9864 24.727 25.9878C24.893 25.9893 25.0576 25.9576 25.2112 25.8948C25.3648 25.8319 25.5044 25.7391 25.6217 25.6217C25.7391 25.5044 25.8319 25.3648 25.8948 25.2112C25.9576 25.0576 25.9893 24.893 25.9878 24.727C25.9864 24.561 25.9519 24.397 25.8864 24.2445C25.8209 24.092 25.7256 23.9541 25.6063 23.8387L22.0712 20.3037ZM9.69625 22.0712C9.81564 21.9559 9.91087 21.818 9.97638 21.6655C10.0419 21.513 10.0764 21.349 10.0778 21.183C10.0793 21.017 10.0476 20.8524 9.98478 20.6988C9.92193 20.5452 9.82911 20.4056 9.71174 20.2883C9.59438 20.1709 9.45481 20.0781 9.30119 20.0152C9.14757 19.9524 8.98297 19.9207 8.817 19.9222C8.65102 19.9236 8.487 19.9581 8.33449 20.0236C8.18199 20.0891 8.04406 20.1844 7.92875 20.3037L4.39375 23.8375C4.27436 23.9528 4.17913 24.0907 4.11362 24.2432C4.04811 24.3958 4.01363 24.5598 4.01219 24.7257C4.01074 24.8917 4.04237 25.0563 4.10522 25.2099C4.16807 25.3636 4.26089 25.5031 4.37826 25.6205C4.49562 25.7379 4.63519 25.8307 4.78881 25.8935C4.94243 25.9564 5.10703 25.988 5.273 25.9866C5.43898 25.9851 5.603 25.9506 5.75551 25.8851C5.90801 25.8196 6.04594 25.7244 6.16125 25.605L9.69625 22.0712ZM25.6063 6.16125C25.8339 5.9255 25.9599 5.60974 25.9571 5.282C25.9542 4.95425 25.8228 4.64074 25.591 4.40898C25.3593 4.17722 25.0457 4.04576 24.718 4.04291C24.3903 4.04006 24.0745 4.16605 23.8387 4.39375L20.3037 7.92875C20.1844 8.04406 20.0891 8.18199 20.0236 8.33449C19.9581 8.487 19.9236 8.65102 19.9222 8.817C19.9207 8.98297 19.9524 9.14757 20.0152 9.30119C20.0781 9.45481 20.1709 9.59438 20.2883 9.71174C20.4056 9.82911 20.5452 9.92193 20.6988 9.98478C20.8524 10.0476 21.017 10.0793 21.183 10.0778C21.349 10.0764 21.513 10.0419 21.6655 9.97638C21.818 9.91087 21.9559 9.81564 22.0712 9.69625L25.6063 6.16125ZM16.25 23.75C16.25 23.4185 16.1183 23.1005 15.8839 22.8661C15.6495 22.6317 15.3315 22.5 15 22.5C14.6685 22.5 14.3505 22.6317 14.1161 22.8661C13.8817 23.1005 13.75 23.4185 13.75 23.75V28.75C13.75 29.0815 13.8817 29.3995 14.1161 29.6339C14.3505 29.8683 14.6685 30 15 30C15.3315 30 15.6495 29.8683 15.8839 29.6339C16.1183 29.3995 16.25 29.0815 16.25 28.75V23.75ZM15 8.75C13.3424 8.75 11.7527 9.40848 10.5806 10.5806C9.40848 11.7527 8.75 13.3424 8.75 15C8.75 16.6576 9.40848 18.2473 10.5806 19.4194C11.7527 20.5915 13.3424 21.25 15 21.25C16.6576 21.25 18.2473 20.5915 19.4194 19.4194C20.5915 18.2473 21.25 16.6576 21.25 15C21.25 13.3424 20.5915 11.7527 19.4194 10.5806C18.2473 9.40848 16.6576 8.75 15 8.75Z" fill="white"/>
</g>
</svg>
