<svg width="31" height="31" viewBox="0 0 31 31" fill="none" xmlns="http://www.w3.org/2000/svg">
<path d="M23.25 20.925V23.25C23.25 24.18 22.63 24.8 21.7 24.8C20.77 24.8 20.15 24.18 20.15 23.25V20.925H10.85V23.25C10.85 24.18 10.23 24.8 9.3 24.8C8.37 24.8 7.75 24.18 7.75 23.25V20.925H4.65C3.565 20.925 2.48 20.615 1.55 20.15V26.35C1.55 28.985 3.565 31 6.2 31H24.8C27.435 31 29.45 28.985 29.45 26.35V20.15C28.52 20.615 27.435 20.925 26.35 20.925H23.25ZM29.45 6.2H23.25V4.65C23.25 2.015 21.235 0 18.6 0H12.4C9.765 0 7.75 2.015 7.75 4.65V6.2H1.55C0.62 6.2 0 6.82 0 7.75V13.95C0 16.585 2.015 18.6 4.65 18.6H26.35C28.985 18.6 31 16.585 31 13.95V7.75C31 6.82 30.38 6.2 29.45 6.2ZM20.15 6.2H10.85V4.65C10.85 3.72 11.47 3.1 12.4 3.1H18.6C19.53 3.1 20.15 3.72 20.15 4.65V6.2Z" fill="white"/>
</svg>
