<svg width="48" height="32" viewBox="0 0 48 32" fill="none" xmlns="http://www.w3.org/2000/svg">
<path fill-rule="evenodd" clip-rule="evenodd" d="M32.1758 0.285156C35.3585 0.285156 38.8358 3.02946 42.0078 7.18011C43.2194 8.76558 44.2686 10.4351 44.9129 11.7792C45.2525 12.4879 45.4757 13.0946 45.5624 13.5998C45.7565 14.7303 45.3275 15.8786 43.8861 15.8786L43.4372 15.8682C43.2155 15.8562 42.9242 15.8312 42.3439 15.78C40.8356 15.6469 39.7024 15.6539 38.539 15.911L38.9453 16.7832C39.4453 16.677 39.964 16.6211 40.4958 16.6211C44.5967 16.6211 47.9212 19.9456 47.9212 24.0465C47.9212 28.1475 44.5967 31.472 40.4958 31.472C36.3948 31.472 33.0703 28.1475 33.0703 24.0465C33.0703 21.5359 34.3163 19.3164 36.2236 17.9724L35.7904 17.0435C35.1707 17.5155 34.4523 18.2619 33.4212 19.4668L32.1084 21.0322L31.4876 21.7616C29.2829 24.306 27.8261 25.4322 25.9483 25.5253L25.6895 25.5316L15.1004 25.5334C14.4117 28.9218 11.4156 31.472 7.82387 31.472C3.72292 31.472 0.398438 28.1475 0.398438 24.0465C0.398438 19.9456 3.72292 16.6211 7.82387 16.6211C11.4161 16.6211 14.4126 19.172 15.1007 22.5612L16.4166 22.5614L16.4161 22.5184C16.3421 21.2827 15.8003 19.9409 14.4489 18.4135L14.1677 18.1056C13.99 17.9167 13.811 17.7383 13.6307 17.5701C11.5779 15.6547 9.89021 15.1771 6.76054 15.1541L5.90563 15.1551C2.8356 15.1551 0.539606 10.9126 1.04837 8.69541C1.31381 7.5386 2.17864 7.22474 3.3009 7.21805C3.72635 7.21552 4.19047 7.2617 4.8161 7.35642L6.52585 7.6324C6.70728 7.65813 6.81744 7.66904 6.89993 7.67112L6.94645 7.67136C9.96487 7.62167 12.2875 8.01849 14.4224 8.77619L14.9346 8.9695C15.536 9.20381 16.326 9.52643 16.5924 9.62546L16.7953 9.69754C16.8218 9.70902 16.8325 9.71674 16.8345 9.7228L16.8324 9.72585L17.2067 9.40685C19.2834 7.65631 20.6733 6.91235 22.2259 6.5943L22.5017 6.54248C24.496 6.2006 26.5169 6.25645 28.5401 6.59748L28.9373 6.66954L27.0269 3.69508C26.8503 3.41583 26.7222 3.20824 26.6176 3.0319L26.4532 2.74373C26.4066 2.65746 26.3676 2.57961 26.3347 2.50612C26.2626 2.34538 26.2129 2.2022 26.1858 2.00852C26.0818 1.26619 26.4734 0.401054 27.4658 0.295811L27.6724 0.285156L32.1758 0.285156ZM30.1002 12.1658H21.1896V15.136H30.1002V12.1658Z" fill="white"/>
</svg>
