<svg width="40" height="30" viewBox="0 0 40 30" fill="none" xmlns="http://www.w3.org/2000/svg">
<path d="M38.4693 9.0944H33.9573L32.7033 5.97982C31.4146 2.77764 28.339 0.708984 24.8671 0.708984H15.2961C11.8249 0.708984 8.74857 2.77764 7.45912 5.97982L6.20509 9.0944H1.69389C1.10531 9.0944 0.673484 9.64395 0.816673 10.2107L1.26885 12.0076C1.36908 12.4074 1.73082 12.6882 2.14607 12.6882H3.65859C2.64647 13.5664 1.99459 14.8429 1.99459 16.2819V19.8757C1.99459 21.0826 2.45882 22.1719 3.20039 23.0149V27.0632C3.20039 28.3861 4.28033 29.459 5.61198 29.459H8.02358C9.35524 29.459 10.4352 28.3861 10.4352 27.0632V24.6673H29.728V27.0632C29.728 28.3861 30.8079 29.459 32.1396 29.459H34.5512C35.8828 29.459 36.9628 28.3861 36.9628 27.0632V23.0149C37.7043 22.1727 38.1686 21.0833 38.1686 19.8757V16.2819C38.1686 14.8429 37.5167 13.5664 36.5053 12.6882H38.0178C38.4331 12.6882 38.7948 12.4074 38.8951 12.0076L39.3472 10.2107C39.4897 9.64395 39.0578 9.0944 38.4693 9.0944ZM11.9372 7.75947C12.4865 6.39534 13.8167 5.50065 15.2961 5.50065H24.8671C26.3465 5.50065 27.6766 6.39534 28.226 7.75947L29.728 11.4902H10.4352L11.9372 7.75947ZM8.02358 19.8607C6.57662 19.8607 5.61198 18.9053 5.61198 17.4723C5.61198 16.0393 6.57662 15.084 8.02358 15.084C9.47054 15.084 11.641 17.2335 11.641 18.6665C11.641 20.0995 9.47054 19.8607 8.02358 19.8607ZM32.1396 19.8607C30.6926 19.8607 28.5222 20.0995 28.5222 18.6665C28.5222 17.2335 30.6926 15.084 32.1396 15.084C33.5865 15.084 34.5512 16.0393 34.5512 17.4723C34.5512 18.9053 33.5865 19.8607 32.1396 19.8607Z" fill="white"/>
</svg>
