<svg width="45" height="29" viewBox="0 0 45 29" fill="none" xmlns="http://www.w3.org/2000/svg">
<path d="M17.8162 0.250019C17.7442 0.25158 17.6724 0.258373 17.6013 0.270344H8.39708C6.81244 0.270344 5.34537 1.11442 4.54696 2.47995L4.54406 2.48285L0.403594 9.57914V9.58204C0.139341 10.0362 0 10.5511 0 11.0774V16.6232V20.1277C0 21.5475 1.00247 22.7664 2.39543 23.0429L5.99293 23.7543C6.2234 26.4032 8.44481 28.5161 11.1496 28.5161C13.7511 28.5161 15.9095 26.5618 16.2773 24.0563H17.8394H31.2945C31.6623 26.5618 33.8207 28.5161 36.4222 28.5161C39.1967 28.5161 41.4734 26.2959 41.6021 23.551L42.5516 23.2404C43.7736 22.8405 44.5986 21.6996 44.5986 20.4152V14.5007C44.5986 13.1285 43.6586 11.9357 42.3251 11.6116L34.2242 9.64882L28.8584 2.14023C28.0228 0.968107 26.668 0.270344 25.229 0.270344H18.0688C17.9853 0.256392 17.9008 0.249592 17.8162 0.250019ZM8.39708 3.24358H16.3528V9.19006H4.07369L7.11371 3.98108C7.38269 3.52104 7.86477 3.24358 8.39708 3.24358ZM19.326 3.24358H25.229C25.7107 3.24358 26.1575 3.47314 26.4369 3.86494L30.2405 9.19006H19.326V3.24358ZM11.1496 21.083C12.3988 21.083 13.3796 22.0638 13.3796 23.3129C13.3796 24.5621 12.3988 25.5429 11.1496 25.5429C9.90048 25.5429 8.91972 24.5621 8.91972 23.3129C8.91972 22.0638 9.90048 21.083 11.1496 21.083ZM36.4222 21.083C37.6713 21.083 38.6521 22.0638 38.6521 23.3129C38.6521 24.5621 37.6713 25.5429 36.4222 25.5429C35.173 25.5429 34.1922 24.5621 34.1922 23.3129C34.1922 22.0638 35.173 21.083 36.4222 21.083Z" fill="white"/>
</svg>
