<svg width="62" height="42" viewBox="0 0 62 42" fill="none" xmlns="http://www.w3.org/2000/svg">
<path d="M60.9528 16.5296C60.5654 15.8839 56.7416 14.2322 56.7416 14.2322C57.4067 13.8887 57.8612 13.8177 57.8612 12.3972C57.8612 10.8475 57.8535 10.331 56.8204 10.331H53.3156C53.3014 10.3 53.2859 10.2677 53.2717 10.2354C51.0092 5.29463 50.7057 4.04587 47.3314 2.3645C42.8051 0.11364 34.3195 0 30.9929 0C27.6664 0 19.1808 0.11364 14.6584 2.3645C11.2801 4.04329 11.3641 4.90721 8.71806 10.2354C8.71806 10.2496 8.69094 10.2871 8.6664 10.331H5.15774C4.13239 10.331 4.12464 10.8475 4.12464 12.3972C4.12464 13.8177 4.57921 13.8887 5.24426 14.2322C5.24426 14.2322 1.54965 16.013 1.0331 16.5296C0.516549 17.0461 0 20.662 0 26.8605C0 33.0591 0.516549 39.2577 0.516549 39.2577H2.05845C2.05845 41.0656 2.32447 41.3239 3.09929 41.3239H13.4303C14.2051 41.3239 14.4634 41.0656 14.4634 39.2577H47.5225C47.5225 41.0656 47.7808 41.3239 48.5556 41.3239H59.1449C59.6614 41.3239 59.9197 40.9365 59.9197 39.2577H61.4693C61.4693 39.2577 61.9859 32.93 61.9859 26.8605C61.9859 20.7911 61.3402 17.1753 60.9528 16.5296ZM14.1095 22.333C11.7576 22.5901 9.39361 22.722 7.02765 22.7282C4.39067 22.7282 4.30027 22.8973 4.11431 21.2508C4.04436 20.4972 4.06647 19.7379 4.18017 18.9896L4.26153 18.5958H4.64894C6.19859 18.5958 7.65397 18.6616 10.402 19.4713C11.7997 19.8907 13.1143 20.5487 14.2877 21.4161C14.8508 21.8242 14.9799 22.2116 14.9799 22.2116L14.1095 22.333ZM46.0271 31.6309L45.4563 33.0591H16.5296C16.5296 33.0591 16.5799 32.9804 15.8839 31.6154C15.3673 30.6055 16.013 29.9598 17.0345 29.5931C19.0129 28.8803 24.7944 26.8605 30.9929 26.8605C37.1915 26.8605 43.0879 28.6013 45.0043 29.5931C45.7146 29.9598 46.5966 30.2181 46.0271 31.6386V31.6309ZM12.8388 13.9998C12.4217 14.0238 12.0036 14.0269 11.5862 14.0088C11.9232 13.4096 12.1105 12.742 12.4398 12.0446C13.4729 9.8493 14.6545 7.3647 16.7581 6.31739C19.798 4.80391 26.0986 4.12206 30.9929 4.12206C35.8872 4.12206 42.1879 4.79874 45.2277 6.31739C47.3314 7.3647 48.5078 9.85059 49.5461 12.0446C49.878 12.7484 50.0626 13.4212 50.4087 14.0243C50.1505 14.0385 49.8534 14.0243 49.1445 13.9998H12.8388ZM57.7424 21.2457C57.4661 22.8573 57.7244 22.7282 54.9582 22.7282C52.5923 22.722 50.2283 22.5901 47.8763 22.333C47.5083 22.2671 47.4037 21.646 47.6981 21.4161C48.8656 20.539 50.182 19.8802 51.5839 19.4713C54.3319 18.6616 55.879 18.5531 57.4067 18.6074C57.5093 18.6113 57.6068 18.653 57.6805 18.7246C57.7542 18.7961 57.7988 18.8923 57.8057 18.9948C57.8787 19.7465 57.8574 20.5044 57.7424 21.2508V21.2457Z" fill="white"/>
</svg>
