<svg xmlns="http://www.w3.org/2000/svg" width="15.987" height="21.23" viewBox="0 0 15.987 21.23">
  <g id="Layer_19" data-name="Layer 19" transform="translate(0.5 0.5)">
    <path id="Tracé_424" data-name="Tracé 424" d="M23.176,16.236a.467.467,0,0,0-.1-.513L17.342,9.99a.469.469,0,0,0-.663.663l4.985,4.938H12.077a.467.467,0,0,0,0,.934h9.587L16.642,21.5a.469.469,0,1,0,.663.663l5.779-5.779a.467.467,0,0,0,.093-.149Z" transform="translate(-8.24 -5.939)" fill="#fff" stroke="#fff" stroke-width="1"/>
    <path id="Tracé_425" data-name="Tracé 425" d="M15.216,24.956H10.549A1.652,1.652,0,0,1,8.934,23.3V8.246a1.652,1.652,0,0,1,1.652-1.652h4.668a.467.467,0,1,0,0-.934H10.586A2.586,2.586,0,0,0,8,8.246V23.3a2.586,2.586,0,0,0,2.586,2.586h4.668a.467.467,0,1,0,0-.934Z" transform="translate(-8 -5.66)" fill="#fff" stroke="#fff" stroke-width="1"/>
  </g>
</svg>
