<svg xmlns="http://www.w3.org/2000/svg" width="37.827" height="41.2" viewBox="0 0 37.827 41.2">
  <g id="_34091" data-name="34091" transform="translate(-0.167 1279.537)" opacity="0.33">
    <path id="Tracé_1144" data-name="Tracé 1144" d="M15.125-1279.517a8.969,8.969,0,0,0-2.142.47c-2.973,1.111-4.661,4.024-4.964,8.553-.035.564-.023,2.538.023,2.977l.019.2-.1.042a.739.739,0,0,0-.354.438,1.8,1.8,0,0,0,.029.654,4.042,4.042,0,0,0,.113.622.776.776,0,0,0,.441.383c.077.019.155.042.174.045s.048.09.058.184.029.209.039.254c.016.084.01.087-.3.158a12.379,12.379,0,0,0-3.473,1.321l-.693.387a8.9,8.9,0,0,0-2.509,1.952,3.76,3.76,0,0,0-.921,2.3c-.01.167-.048.6-.084.95a59.223,59.223,0,0,0,.168,13.691,25.04,25.04,0,0,0,.705,3.37c.412,1.43.783,1.952,1.53,2.161a4.858,4.858,0,0,0,1.417.071c1.62,0,3.753-.116,7.828-.419,2.274-.168,8.353-.664,9.825-.8,3.9-.367,9.355-1.053,13.691-1.723,1.024-.158,1.028-.161,1.2-.277a3.744,3.744,0,0,0,1.1-2.661,12.065,12.065,0,0,0,.055-1.524c0-1.44.019-1.2-.625-6.765-.66-5.718-.873-6.958-1.424-8.34a7.451,7.451,0,0,0-4.388-4.449,11.231,11.231,0,0,0-3.747-.693h-.425l-.016-.106c-.01-.055-.023-.219-.035-.361l-.016-.261.11-.039a.75.75,0,0,0,.377-.432,3.725,3.725,0,0,0-.184-1.369.732.732,0,0,0-.532-.325l-.155-.013-.087-.264a22.87,22.87,0,0,0-2.258-4.768,14.5,14.5,0,0,0-3.183-3.643,10.942,10.942,0,0,0-2.207-1.321,9.1,9.1,0,0,0-2.1-.58A12.558,12.558,0,0,0,15.125-1279.517Zm2.287,1.8a8.8,8.8,0,0,1,3,1.008,6.6,6.6,0,0,1,1.756,1.321c.119.18.573.976.573,1.005a2.119,2.119,0,0,1-.232-.232,9.082,9.082,0,0,0-5.47-2.957,14.058,14.058,0,0,0-2.31-.048,7.641,7.641,0,0,0-1.485.309c-.4.129-.461.139-.168.023a8.8,8.8,0,0,1,2.432-.506A13.03,13.03,0,0,1,17.412-1277.716Zm-.6,1.018a7.053,7.053,0,0,1,3.856,1.859,6.265,6.265,0,0,1,1.421,2.068,33.993,33.993,0,0,1,1.617,4.607c.222.773.519,1.881.519,1.93a6.239,6.239,0,0,1-1.121.045c-1.15.006-2.577.068-3.679.151-1.92.151-5.647.567-7.806.876-.454.064-.834.11-.841.1a1.485,1.485,0,0,1-.032-.213c-.019-.18-.016-.2.045-.219a.678.678,0,0,0,.393-.612,6.168,6.168,0,0,0-.155-1.1.681.681,0,0,0-.483-.4.52.52,0,0,1-.174-.058c0-.01-.052-.309-.113-.664-.216-1.224-.37-2.258-.37-2.471a6.53,6.53,0,0,1,.274-1.878,6.874,6.874,0,0,1,5.09-4.023A6.473,6.473,0,0,1,16.813-1276.7ZM10.6-1275.58a.567.567,0,0,1-.087.09l-.09.077.077-.09C10.573-1275.583,10.6-1275.606,10.6-1275.58Zm-.3.367a6.755,6.755,0,0,0-.544.831,1.435,1.435,0,0,1-.187.287,7.165,7.165,0,0,1,.857-1.3A.865.865,0,0,1,10.3-1275.213Zm16.964,6.935a2.183,2.183,0,0,1,.1.493c.052.4.052.416-.01.531s-.074.122-.235.142c-.1.01-.316.019-.486.022l-.316,0-.019-.09c-.013-.048-.068-.248-.126-.448l-.1-.361.161-.032c.09-.019.3-.055.47-.084.48-.077.451-.064.416-.184a.849.849,0,0,1-.029-.132C27.093-1268.461,27.215-1268.364,27.264-1268.277Zm-16.655,1.231a1.155,1.155,0,0,1,.106.383,1.394,1.394,0,0,1,0,.7c-.042.074-.045.058-.084-.2l-.039-.274-.106.016c-.1.016-.106.01-.119-.084-.019-.122-.01-.132.11-.132.074,0,.09-.013.077-.058s-.084-.422-.084-.451S10.554-1267.121,10.609-1267.047Zm-2.342.831c.09,0,.106.08.016.106-.055.013-.058.026-.016.248.045.242.045.28-.016.242-.081-.048-.132-.225-.184-.6-.042-.329-.045-.416-.01-.5s.042-.084.087.2S8.2-1266.215,8.267-1266.215Z" transform="translate(0)" fill="#fff"/>
  </g>
</svg>
