<svg xmlns="http://www.w3.org/2000/svg" width="51.398" height="18.932" viewBox="0 0 51.398 18.932">
  <g id="_1088490" data-name="1088490" transform="translate(0 555.633)" opacity="0.34">
    <path id="Tracé_1143" data-name="Tracé 1143" d="M11.685-555.623c-.807.052-1.482.112-1.847.161-3.606.494-6.152,1.827-7.461,3.915a8.586,8.586,0,0,0-.968,2.425l-.108.442-.554.02c-.546.02-.554.02-.651.133s-.1.129-.1.831v.723l.116.129c.116.129.124.133.518.145l.4.016L1.06-546a9.536,9.536,0,0,0,2.1,5.891,13.491,13.491,0,0,0,1.662,1.594,8.576,8.576,0,0,0,2.871,1.462c4.108,1.2,8.384-.727,12.468-5.606,2.558-3.056,3.682-5.9,3.224-8.18-.02-.1-.008-.121.193-.209a4.283,4.283,0,0,1,1.763-.317,4.1,4.1,0,0,1,2.048.494c.293.189.285.173.237.663a7.905,7.905,0,0,0,.976,4.1,22.734,22.734,0,0,0,6.417,7.328,9.874,9.874,0,0,0,7.228,1.988,8.846,8.846,0,0,0,5.039-2.61,8.463,8.463,0,0,0,1.747-2.409,9.765,9.765,0,0,0,.992-4.124l.024-.751.558-.012.562-.012.116-.133.116-.129v-1.454l-.116-.116-.116-.116H49.8l-.04-.153c-.02-.08-.068-.265-.1-.41a9.534,9.534,0,0,0-.586-1.674,7.484,7.484,0,0,0-4.5-3.8,16.523,16.523,0,0,0-4.313-.875,36.614,36.614,0,0,0-3.815,0,27.365,27.365,0,0,0-3.06.434l-.454.1h-7.38c-7.252,0-7.389,0-7.762-.08a27.213,27.213,0,0,0-3.088-.442C14.223-555.611,12.083-555.651,11.685-555.623Zm18.351,1.614a5.485,5.485,0,0,0-1.988,2.176c-.064.145-.12.269-.128.277a1.832,1.832,0,0,1-.321-.145,4.533,4.533,0,0,0-1.839-.49,5.615,5.615,0,0,0-2.518.373l-.145.064-.165-.3a5.291,5.291,0,0,0-1.606-1.755,1.923,1.923,0,0,1-.325-.249c0-.016,2.056-.028,4.57-.024C29.879-554.077,30.132-554.073,30.036-554.009Z" transform="translate(0)" fill="#fff"/>
  </g>
</svg>
