<svg xmlns="http://www.w3.org/2000/svg" width="47.934" height="32.72" viewBox="0 0 47.934 32.72">
  <g id="_304278" data-name="304278" transform="translate(-0.14 873.581)" opacity="0.33">
    <path id="Tracé_1137" data-name="Tracé 1137" d="M23.894-873.544a36.953,36.953,0,0,0-5.293.959,27.193,27.193,0,0,1-6.2.933l-.865.026-.285.139c-.951.468-1.618,1.835-2.124,4.334-.243,1.217-.416,2.439-.637,4.57a9.77,9.77,0,0,1-.165,1.187,2.735,2.735,0,0,1-.423.195,16.458,16.458,0,0,0-6.1,3.866,5.672,5.672,0,0,0-1.491,5.312,8.433,8.433,0,0,0,2.352,3.858c3.525,3.6,10.271,6.345,17.384,7.083a52.36,52.36,0,0,0,17.549-1.382c6.289-1.686,9.983-4.244,10.436-7.233.24-1.6-.468-3.255-2.1-4.888a24.673,24.673,0,0,0-6.492-4.323l-.9-.446-.236-.689c-1.746-5.091-3.806-8.728-6.147-10.852a9.811,9.811,0,0,0-5.525-2.607A16.934,16.934,0,0,0,23.894-873.544Z" transform="translate(0 0)" fill="#fff"/>
  </g>
</svg>
