<svg xmlns="http://www.w3.org/2000/svg" width="27.03" height="43.517" viewBox="0 0 27.03 43.517">
  <g id="_304196" data-name="304196" transform="translate(-0.131 1279.847)" opacity="0.33">
    <path id="Tracé_1139" data-name="Tracé 1139" d="M4.872-1279.832c0,.2-.366,5.138-.523,7.086-.945,11.612-2.164,21.571-4.151,33.89a3.468,3.468,0,0,0-.064.575c.016.01.483.088,1.046.17s2.047.3,3.31.49,3.226.476,4.364.646a28.885,28.885,0,0,0,2.88.4c.008-.01.036-.928.056-2.037.121-6.409.575-13.366,1.629-25.09.121-1.336.274-3.06.342-3.825s.141-1.425.161-1.462c.028-.058.036-.054.036.034,0,.054.032.394.064.748.149,1.676.31,4.713.583,11.2.08,1.85.1,2.431.282,6.477.253,5.753.491,9.993.724,12.955.044.561.08,1.071.08,1.129,0,.1.012.112.1.112.056,0,.776-.105,1.6-.238,1.778-.279,4.493-.707,6.907-1.088,3.105-.49,2.856-.442,2.856-.524,0-.041-.117-.615-.261-1.278a237.745,237.745,0,0,1-5.072-38.847c-.032-.711-.064-1.3-.068-1.3s-3.383-.058-11.995-.184c-1.259-.017-2.876-.044-3.588-.054C5.431-1279.852,4.872-1279.849,4.872-1279.832Z" transform="translate(0 0)" fill="#fff"/>
  </g>
</svg>
