<svg xmlns="http://www.w3.org/2000/svg" width="41.252" height="41.617" viewBox="0 0 41.252 41.617">
  <g id="_155584" data-name="155584" transform="translate(-0.544 1279.641)" opacity="0.3">
    <path id="Tracé_1141" data-name="Tracé 1141" d="M680.226-1279.607a3.762,3.762,0,0,0-2.05.807,3.558,3.558,0,0,0-.836,1.142,12.624,12.624,0,0,0-1.715,4.373,21.024,21.024,0,0,0-.231,5.827l.042.381-.14.332a8.137,8.137,0,0,0-.4,1.181,10.9,10.9,0,0,0-.163,2.294,12.014,12.014,0,0,0,.283,3.592c.068.28.215.947.325,1.484a12.673,12.673,0,0,0,.647,2.466l.068.156-.241.95c-.29,1.135-.5,1.864-.8,2.72a59.482,59.482,0,0,0-1.78,6.445,5.271,5.271,0,0,0-.133,1.324,5.73,5.73,0,0,0,.5,2.922,4.153,4.153,0,0,0,2.138,1.968,13.972,13.972,0,0,0,4.8,1.175c2.284.159,4.181-.358,5.271-1.432.661-.651.911-1.187,1.435-3.062.534-1.906.878-3.471,1.933-8.736.852-4.269,1.087-5.333,1.415-6.426.1-.348.241-.826.306-1.057s.179-.6.26-.81a24.545,24.545,0,0,0,1.262-6.819c.062-.833.052-3.273-.02-4.116a12.262,12.262,0,0,0-.859-4.067c-.752-1.5-2.727-2.883-5.651-3.963a19.3,19.3,0,0,0-3.615-1A9.672,9.672,0,0,0,680.226-1279.607Zm-4.376,14.725c.033.133.1.4.166.586a9.172,9.172,0,0,1,.355,1.9c.052.455.2,2.079.228,2.587l.02.309-.094-.15c-.2-.312-.716-1.23-.846-1.516a5.389,5.389,0,0,1-.381-2.3,2.4,2.4,0,0,1,.185-1.3c.091-.179.267-.41.29-.384A1.524,1.524,0,0,1,675.85-1264.881Z" transform="translate(-650.678)" fill="#fff"/>
    <path id="Tracé_1142" data-name="Tracé 1142" d="M11.1-1278.793a16.053,16.053,0,0,0-3.3.8c-3.319,1.126-5.524,2.59-6.335,4.2a12.26,12.26,0,0,0-.859,4.067c-.072.843-.081,3.283-.02,4.116a24.543,24.543,0,0,0,1.262,6.819c.081.211.2.576.26.81s.2.713.306,1.064c.335,1.123.566,2.167,1.415,6.419.862,4.321,1.1,5.424,1.5,7.076a24.65,24.65,0,0,0,1.113,3.7c.673,1.337,1.988,2.131,3.976,2.411a14.727,14.727,0,0,0,2.652,0,15.86,15.86,0,0,0,3.465-.807,4.736,4.736,0,0,0,2.879-2.294,5.763,5.763,0,0,0,.5-2.9,8.661,8.661,0,0,0-.368-2.395c-.436-1.838-1.054-3.986-1.558-5.433-.29-.83-.5-1.549-.787-2.681l-.241-.95.068-.156a12.775,12.775,0,0,0,.647-2.466c.111-.537.257-1.2.325-1.484a12.038,12.038,0,0,0,.283-3.592,7.284,7.284,0,0,0-.543-3.432l-.156-.377.042-.377a19.6,19.6,0,0,0-.644-7.46,12.555,12.555,0,0,0-.69-1.607c-.29-.573-.836-1.549-1-1.793a3.07,3.07,0,0,0-1.236-.966A6.193,6.193,0,0,0,11.1-1278.793Zm6.435,14.836a2.4,2.4,0,0,1,.185,1.3,5.427,5.427,0,0,1-.377,2.3c-.13.29-.618,1.162-.839,1.506l-.1.163.02-.309c.033-.508.176-2.131.228-2.587a9.171,9.171,0,0,1,.342-1.854c.052-.163.124-.417.163-.569s.075-.3.085-.322C17.253-1264.383,17.432-1264.162,17.536-1263.957Z" transform="translate(0 -0.775)" fill="#fff"/>
  </g>
</svg>
