<svg xmlns="http://www.w3.org/2000/svg" width="41.571" height="40.972" viewBox="0 0 41.571 40.972">
  <g id="_42654" data-name="42654" transform="translate(-0.194 1261)" opacity="0.33">
    <path id="Tracé_1138" data-name="Tracé 1138" d="M15.672-1260.805c-.25.107-.5.214-.552.244s-.549.149-1.1.273a58.059,58.059,0,0,0-9.34,2.795l-.305.127-.419.76c-.533.959-1.287,2.483-1.583,3.178a14.927,14.927,0,0,0-.981,3.2,14.38,14.38,0,0,1-.582,2.392c-.026.016-.624,1.4-.611,1.414l.465.276a32.734,32.734,0,0,0,6.269,2.941,11.913,11.913,0,0,0,1.778.513,8.613,8.613,0,0,0,.487-1.157c-.016-.016.036-.124.114-.24a3.314,3.314,0,0,0,.227-.419.747.747,0,0,1,.1-.195,1.787,1.787,0,0,1-.036.3c-.149.858-.325,2.4-.422,3.7-.146,1.9-.182,3.393-.182,7.393a68.553,68.553,0,0,1-.341,9.148c-.114.868-.175,1.222-.393,2.262-.019.078,0,.088.367.231a28.064,28.064,0,0,0,8.2,1.589c.728.039,3.25.02,3.757-.032a5.428,5.428,0,0,1,.829.02c.312.023,1.014.052,1.56.062a29.62,29.62,0,0,0,10.068-1.518c.244-.091.494-.182.552-.2s.1-.049.1-.068-.052-.283-.114-.582a27.455,27.455,0,0,1-.419-2.964c-.156-1.745-.185-2.821-.2-7.393-.016-5.115-.058-6.584-.26-8.774-.094-1.01-.27-2.4-.393-3.126-.01-.068.026-.01.1.153a3.849,3.849,0,0,0,.276.494c.1.153.143.237.114.237s-.045.006-.045.016c0,.029.491,1.137.513,1.16a4.154,4.154,0,0,0,.673-.169,31.037,31.037,0,0,0,7.2-3.191c.335-.195.617-.367.624-.377.013-.029-.559-1.381-.595-1.4A12.3,12.3,0,0,1,40.6-1250a16.114,16.114,0,0,0-1.433-4.316c-.416-.887-1.521-2.964-1.618-3.035s-1.3-.539-2.233-.868a65.552,65.552,0,0,0-7.52-2.083c-.52-.117-.981-.208-1.027-.2a2.649,2.649,0,0,1-.533-.211c-.247-.12-.461-.218-.478-.218a2.044,2.044,0,0,0-.227.331c-1.495,2.434-2.6,3.558-3.8,3.858a2.918,2.918,0,0,1-1.15.019c-1.241-.263-2.632-1.537-4.1-3.757-.188-.283-.348-.517-.351-.517S15.922-1260.912,15.672-1260.805Z" transform="translate(0)" fill="#fff"/>
  </g>
</svg>
