<svg xmlns="http://www.w3.org/2000/svg" width="14.074" height="14.68" viewBox="0 0 14.074 14.68">
  <g id="noun-weight-3203477" transform="translate(372.463 -405.368)">
    <path id="Tracé_1474" data-name="Tracé 1474" d="M108.768,26.329l-.988-7.394a1.583,1.583,0,0,0-1.574-1.374h-1.945a2.766,2.766,0,0,0,.324-1.281,2.84,2.84,0,0,0-5.68,0,2.766,2.766,0,0,0,.324,1.281H97.284a1.6,1.6,0,0,0-1.574,1.374l-.988,7.394A1.591,1.591,0,0,0,96.3,28.12h10.9a1.591,1.591,0,0,0,1.575-1.791Zm-7.023-11.284a1.25,1.25,0,1,1-1.25,1.25A1.245,1.245,0,0,1,101.745,15.045Z" transform="translate(-467.171 391.928)" fill="#fff"/>
  </g>
</svg>
