<svg width="55" height="37" viewBox="0 0 55 37" fill="none" xmlns="http://www.w3.org/2000/svg">
<path d="M13.6761 0.5H20.7561C25.531 0.527061 29.3943 4.39133 29.42 9.16393V24.7185H9.78806V18.3464C9.75652 18.0418 9.50128 17.8064 9.19099 17.8064H4.98797V9.16652C5.00053 6.72914 6.00869 4.52977 7.62614 2.9522L7.62798 2.95042C9.18296 1.43479 11.3103 0.5 13.6561 0.5H13.677H13.6759H13.6761ZM25.8201 21.1184V9.16641C25.7998 6.3753 23.5405 4.11862 20.7504 4.10245H13.8176C13.7744 4.1011 13.7238 4.1003 13.6728 4.1003C12.2949 4.1003 11.0456 4.65068 10.1326 5.54337L10.1335 5.5424C9.18894 6.46349 8.59953 7.74501 8.58789 9.1642V14.2064H9.19304C11.4379 14.2064 13.2711 15.9686 13.385 18.1851L13.3854 18.1953V21.1185L25.8201 21.1184ZM4.69768 14.2064H9.19326C11.4381 14.2064 13.2713 15.9686 13.3852 18.1851L13.3857 18.1953V21.1185H41.756V18.2384C41.8691 16.0107 43.7029 14.2472 45.9486 14.2472H50.7152C52.7671 14.4467 54.3749 16.1018 54.4995 18.1572L54.5 18.1689V33.8385H0.5V18.1977C0.613042 15.9699 2.44683 14.2064 4.69251 14.2064H4.6979H4.69758H4.69768ZM9.78806 18.3464C9.75658 18.0419 9.50128 17.8065 9.19104 17.8065H4.69698C4.38675 17.8065 4.13151 18.0419 4.10024 18.3439L4.09997 18.3465V30.2385H50.9V18.3656C50.8662 18.1083 50.6729 17.9044 50.4238 17.8551L50.42 17.8544H45.953C45.6428 17.8544 45.3876 18.0899 45.3563 18.3919L45.356 18.3945V24.7185H9.78806V18.3464ZM34.4769 0.502372H41.372C46.1461 0.529433 50.009 4.39225 50.0361 9.16377V17.8543H45.953C45.6428 17.8543 45.3875 18.0898 45.3563 18.3918L45.356 18.3944V24.7185H25.8201V9.16641C25.847 4.39484 29.7059 0.533476 34.4739 0.502372H34.4769ZM46.4361 14.2544V9.16641C46.4158 6.3753 44.1566 4.11862 41.3664 4.10245H34.4913C31.6996 4.11862 29.4404 6.3753 29.4201 9.16447V21.1184H41.7561V18.2384C41.8704 16.0118 43.7038 14.2496 45.9485 14.2496H45.9515H45.9513L46.4361 14.2544ZM6.50004 36.6704H2.90002V32.0864H6.50004V36.6704ZM50.0361 36.6704H46.4361V32.0864H50.0361V36.6704Z" fill="white"/>
</svg>
