<svg width="36" height="54" viewBox="0 0 36 54" fill="none" xmlns="http://www.w3.org/2000/svg">
<path fill-rule="evenodd" clip-rule="evenodd" d="M1.41762 0H5.1462C5.90749 0 6.40924 0.641602 6.53036 1.40625C7.94047 10.4326 8.70176 19.4546 8.66283 28.481H34.1703C35.1782 28.481 36 29.3203 36 30.3398V34.0972H34.538V53.3057C34.538 53.6133 34.2871 53.8726 33.98 53.8726H29.0922C28.7851 53.8726 28.5342 53.6177 28.5342 53.3057V44.9473H7.65931C7.35653 47.4961 6.98021 50.0449 6.53036 52.5938C6.39627 53.354 5.90749 54 5.1462 54H1.41762C0.656327 54 -0.178494 53.3364 0.0334553 52.5938C4.94722 35.209 3.92641 18.2153 0.0334553 1.40625C-0.14389 0.654785 0.656327 0 1.41762 0ZM28.5342 42.3633V34.1016H8.58497C8.47251 37.6172 8.23461 38.8521 7.86261 42.3633H28.5342Z" fill="white"/>
</svg>
