<svg width="51" height="38" viewBox="0 0 51 38" fill="none" xmlns="http://www.w3.org/2000/svg">
<path d="M7.28571 0.5C4.29032 0.5 1.82143 2.92048 1.82143 5.85714V17.9665C0.711496 18.9501 0 20.3591 0 21.9286V38H9.10714V34.4286H41.8929V38H51V21.9286C51 20.3591 50.2885 18.9501 49.1786 17.9665V5.85714C49.1786 2.92048 46.7097 0.5 43.7143 0.5H7.28571ZM7.28571 4.07143H43.7143C44.7246 4.07143 45.5357 4.86663 45.5357 5.85714V16.5714H41.8929V14.7857C41.8929 11.8491 39.424 9.42857 36.4286 9.42857H29.1429C27.7483 9.42857 26.4676 9.96568 25.5 10.8237C24.5324 9.96568 23.2517 9.42857 21.8571 9.42857H14.5714C11.576 9.42857 9.10714 11.8491 9.10714 14.7857V16.5714H5.46429V5.85714C5.46429 4.86663 6.27539 4.07143 7.28571 4.07143ZM14.5714 13H21.8571C22.8675 13 23.6786 13.7952 23.6786 14.7857V16.5714H12.75V14.7857C12.75 13.7952 13.5611 13 14.5714 13ZM29.1429 13H36.4286C37.4389 13 38.25 13.7952 38.25 14.7857V16.5714H27.3214V14.7857C27.3214 13.7952 28.1325 13 29.1429 13ZM5.46429 20.1429H45.5357C46.546 20.1429 47.3571 20.9381 47.3571 21.9286V34.4286H45.5357V30.8571H5.46429V34.4286H3.64286V21.9286C3.64286 20.9381 4.45396 20.1429 5.46429 20.1429Z" fill="white"/>
</svg>
