<svg width="41" height="42" viewBox="0 0 41 42" fill="none" xmlns="http://www.w3.org/2000/svg">
<path d="M0.5 0.5H41V14.0002H0.5V0.5Z" fill="white"/>
<path d="M0.5 20.75H41V37.6248H0.5V20.75Z" fill="white"/>
<path d="M3.875 3.875H19.0625V10.6248H3.875V3.875Z" fill="black"/>
<path d="M22.4375 3.875H37.625V10.6248H22.4375V3.875Z" fill="black"/>
<path d="M3.875 24.1309H19.0625V34.2559H3.875V24.1309Z" fill="black"/>
<path d="M22.4375 24.1309H37.625V34.2559H22.4375V24.1309Z" fill="black"/>
<path d="M22.4375 27.5039H25.8127V30.8791H22.4375V27.5039Z" fill="white"/>
<path d="M15.6875 27.5039H19.0627V30.8791H15.6875V27.5039Z" fill="white"/>
<path d="M34.25 37.6289H37.6247V41.0041H34.25V37.6289Z" fill="white"/>
<path d="M3.875 37.6289H7.24966V41.0041H3.875V37.6289Z" fill="white"/>
<path d="M25.8125 7.25391H29.1877V10.6291H25.8125V7.25391Z" fill="white"/>
<path d="M12.3125 7.25391H15.6877V10.6291H12.3125V7.25391Z" fill="white"/>
</svg>
