<svg width="34" height="48" viewBox="0 0 34 48" fill="none" xmlns="http://www.w3.org/2000/svg">
<path d="M28.8 0H4.8C3.5274 0.00142927 2.30733 0.507601 1.40747 1.40747C0.507601 2.30733 0.00142926 3.5274 0 4.8V44.8C0.000952843 45.6484 0.338401 46.4618 0.938311 47.0617C1.53822 47.6616 2.3516 47.999 3.2 48H30.4C31.2484 47.999 32.0618 47.6616 32.6617 47.0617C33.2616 46.4618 33.599 45.6484 33.6 44.8V4.8C33.5986 3.5274 33.0924 2.30733 32.1925 1.40747C31.2927 0.507601 30.0726 0.00142927 28.8 0ZM30.4 44.8H3.2V22.4H30.4V44.8ZM30.4 19.2H3.2V4.8C3.2005 4.37581 3.36924 3.96913 3.66918 3.66918C3.96913 3.36924 4.37581 3.2005 4.8 3.2H28.8C29.2242 3.2005 29.6309 3.36924 29.9308 3.66918C30.2308 3.96913 30.3995 4.37581 30.4 4.8V19.2Z" fill="white"/>
<path d="M8.80156 26.3965H5.60156V35.9965H8.80156V26.3965Z" fill="white"/>
<path d="M8.80156 8.79492H5.60156V15.1949H8.80156V8.79492Z" fill="white"/>
</svg>
