<svg width="42" height="46" viewBox="0 0 42 46" fill="none" xmlns="http://www.w3.org/2000/svg">
<path d="M42 2.75V7.25C42 15.9485 35.0722 23 26.5263 23H24.3158V25.25H35.3684V41C35.3684 43.4863 33.39 45.5 30.9474 45.5H13.2632C10.8205 45.5 8.8421 43.4863 8.8421 41V25.25H19.8947V18.5C19.8947 9.8015 26.8225 2.75 35.3684 2.75H42ZM7.73684 0.5C13.3273 0.5 18.27 3.31475 21.2741 7.63025C19.0194 10.6475 17.6842 14.4163 17.6842 18.5V20.75H16.5789C7.42295 20.75 0 13.1945 0 3.875V0.5H7.73684Z" fill="white"/>
</svg>
