<svg width="51" height="42" viewBox="0 0 51 42" fill="none" xmlns="http://www.w3.org/2000/svg">
<path d="M5.75325 12.3397C6.50758 12.3397 7.25453 12.4883 7.9514 12.7771C8.64827 13.0659 9.2814 13.4892 9.81463 14.0227C10.3479 14.5563 10.7707 15.1897 11.0591 15.8867C11.3474 16.5838 11.4956 17.3308 11.4951 18.0851V26.8442H39.5162V18.0816C39.5169 17.004 39.8208 15.9483 40.3932 15.0353C40.9656 14.1223 41.7833 13.3888 42.7529 12.9186C43.7226 12.4484 44.8049 12.2606 45.8763 12.3766C46.9476 12.4927 47.9647 12.9078 48.8112 13.5746C49.6577 14.2414 50.2995 15.133 50.6631 16.1474C51.0268 17.1618 51.0977 18.258 50.8677 19.3108C50.6377 20.3636 50.116 21.3303 49.3624 22.1006C48.6088 22.8709 47.6537 23.4135 46.6062 23.6665V40.1932C46.6053 40.6422 46.4265 41.0725 46.109 41.39C45.7915 41.7075 45.3612 41.8863 44.9122 41.8872H6.10275C5.65376 41.8863 5.22342 41.7075 4.90593 41.39C4.58844 41.0725 4.40966 40.6422 4.40872 40.1932V23.6665C3.03989 23.3398 1.83873 22.5217 1.03333 21.3677C0.227928 20.2137 -0.125616 18.804 0.0398341 17.4065C0.205284 16.009 0.878206 14.7209 1.93081 13.7868C2.98342 12.8528 4.34596 12.3378 5.75325 12.3397ZM9.53005 9.15135C9.26484 9.03935 8.99471 8.93939 8.72048 8.85177V3.95512C8.72236 2.90797 9.13869 1.90414 9.87847 1.16302C10.6182 0.421904 11.6213 0.00376845 12.6685 0H38.3393C39.3871 0.00282757 40.3911 0.420549 41.1316 1.16177C41.8722 1.90299 42.289 2.90736 42.2909 3.95512V8.85177C42.0167 8.93938 41.7465 9.03935 41.4813 9.15135C39.7251 9.89298 38.2267 11.1362 37.1737 12.7253C36.1206 14.3144 35.5597 16.1788 35.5611 18.0851V22.8891H15.4503V18.0851C15.4503 16.1791 14.8888 14.3153 13.8359 12.7264C12.783 11.1376 11.2854 9.89415 9.53005 9.15135Z" fill="white"/>
</svg>
