<svg width="31" height="32" viewBox="0 0 31 32" fill="none" xmlns="http://www.w3.org/2000/svg">
<path d="M14.6897 0.0227771C23.2405 -0.42535 30.5315 6.13956 30.9797 14.6903C31.4278 23.2411 24.8629 30.5322 16.3121 30.9803C7.76134 31.4284 0.470271 24.8635 0.0221448 16.3127C-0.425982 7.76198 6.13893 0.470904 14.6897 0.0227771ZM22.5543 14.0679L13.6539 6.054C13.0365 5.49805 12.0878 5.54777 11.5381 6.16489L10.5326 7.28154C9.9767 7.89898 10.0264 8.84768 10.6435 9.39738L17.3172 15.4063L11.3082 22.08C10.7522 22.6974 10.802 23.6461 11.4191 24.1958L12.5357 25.2013C13.1532 25.7572 14.1019 25.7075 14.6516 25.0904L22.6655 16.19C23.2214 15.5726 23.1717 14.6239 22.5543 14.0679Z" fill="black" fill-opacity="0.6"/>
</svg>
